<svg width="206" height="72" viewBox="0 0 206 72" fill="none" xmlns="http://www.w3.org/2000/svg">
<g id="Strike Main Logo 2" clip-path="url(#clip0_1143_23009)">
<g id="Group">
<g id="Group_2">
<path id="Vector" d="M78.289 44.8503L77.6382 38.4191L77.7147 38.3809C80.0116 41.3668 82.4998 42.4769 85.6388 42.4003C88.7396 42.3238 90.0794 41.0222 90.0794 38.9551C90.0794 36.3137 87.7443 35.3184 85.1412 34.2466C81.8108 32.8685 78.0976 31.2989 78.0976 25.9779C78.0976 22.1881 81.3514 18.7046 87.2849 18.7046C89.2755 18.7046 91.0747 18.9343 93.295 19.5085L93.7926 25.7865H93.7161C92.07 23.26 89.888 22.6475 87.6677 22.6475C84.7584 22.6475 83.2655 23.6428 83.2655 25.5951C83.2655 27.8154 85.4092 28.6959 87.8974 29.7294C91.3044 31.1458 95.3622 32.8302 95.3622 38.5723C95.3622 42.8214 92.2231 46.305 86.0217 46.3815C82.9209 46.4198 80.0116 45.8839 78.289 44.8503Z" fill="#007200"/>
<path id="Vector_2" d="M117.833 25.9014L117.756 25.9397C116.876 24.4084 115.077 23.1069 112.78 23.1069H109.909V39.759C109.909 43.0511 110.981 45.08 112.244 45.7308V45.8073H102.329V45.7308C103.439 45.08 104.664 43.0128 104.664 39.759V23.1069H101.755C99.4581 23.1069 97.6589 24.4084 96.7785 25.9397L96.7019 25.9014L97.3527 18.896C99.1136 19.1257 100.721 19.2022 102.597 19.2022H111.938C113.813 19.2022 115.421 19.1257 117.182 18.896L117.833 25.9014Z" fill="#007200"/>
<path id="Vector_3" d="M144.744 45.1182V45.1947L136.897 46.6111C136.399 45.1182 135.787 43.7784 134.944 42.362L129.011 32.2176H130.848C134.141 32.2176 135.978 30.8778 135.978 27.4708C135.978 24.6763 134.141 22.9154 130.848 22.9537L128.169 22.9919V40.2183C128.169 43.2424 129.241 45.0799 130.083 45.7307V45.8072H120.857V45.7307C121.852 45.0799 122.924 43.2042 122.924 40.0651V24.7911C122.924 21.767 121.852 19.9295 120.857 19.2787V19.2021H131.729C137.854 19.2021 141.414 22.3029 141.414 27.2794C141.414 31.3371 139.423 33.8254 136.208 34.859L139.768 40.6393C141.223 42.9745 142.907 44.5057 144.744 45.1182Z" fill="#007200"/>
<path id="Vector_4" d="M146.161 45.7307C147.118 45.0799 148.228 43.2041 148.228 40.0651V24.9443C148.228 21.767 147.156 19.9295 146.161 19.2787V19.2021H155.578V19.2787C154.621 19.9295 153.511 21.8052 153.511 24.9443V40.0651C153.511 43.2424 154.582 45.0799 155.578 45.7307V45.8072H146.161V45.7307Z" fill="#007200"/>
<path id="Vector_5" d="M169.282 45.7307V45.8072H160.095V45.7307C161.052 45.0799 162.162 43.2041 162.162 40.0651V24.7911C162.162 21.767 161.09 19.9295 160.095 19.2787V19.2021H169.282V19.2787C168.402 19.9295 167.406 21.8052 167.406 24.9443V40.1034C167.406 43.2424 168.402 45.0799 169.282 45.7307ZM185.13 45.1565V45.233L177.436 46.5346C177.206 45.6541 176.441 44.1994 175.56 42.8979L167.827 31.4137L174.297 22.2646C175.254 20.8865 175.598 19.9295 175.56 19.2021H183.523V19.2787C181.915 20.0443 180.23 21.8435 179.005 23.5279L173.608 30.8395L180.881 41.4815C182.183 43.3956 183.255 44.3908 185.13 45.1565Z" fill="#007200"/>
<path id="Vector_6" d="M205.381 38.4957L204.309 46.1136C202.893 45.8839 201.897 45.8073 199.639 45.8073H186.126V45.7308C187.083 45.08 188.193 43.2042 188.193 40.0652V24.9444C188.193 21.7671 187.121 19.9296 186.126 19.2788V19.2022H199.868C201.4 19.2022 203.084 19.0874 203.926 18.896L204.577 25.7482L204.5 25.7865C203.582 23.9108 201.476 22.9538 198.49 22.9538H193.437V29.6912H196.347C199.524 29.6912 200.596 29.6529 202.318 29.4232L201.208 35.8543H201.132C200.481 34.1317 199.103 33.4427 196.959 33.4427H193.437V42.0558H197.61C200.979 42.0558 203.658 40.7926 205.304 38.4574L205.381 38.4957Z" fill="#007200"/>
</g>
<g id="Group_3">
<path id="Vector_7" d="M49.818 49.8179C57.487 42.1489 57.4871 29.7149 49.818 22.0459C42.149 14.3768 29.715 14.3768 22.0459 22.0459C14.3769 29.7149 14.3769 42.1489 22.0459 49.8179C29.715 57.487 42.149 57.487 49.818 49.8179Z" fill="#0A7C00"/>
<path id="Vector_8" d="M60.8979 60.8979C74.6863 47.1095 74.6863 24.7542 60.898 10.9659C47.1096 -2.82242 24.7543 -2.82243 10.966 10.9659C-2.82235 24.7542 -2.82234 47.1095 10.966 60.8979C24.7543 74.6862 47.1096 74.6862 60.8979 60.8979Z" fill="#0A7C00"/>
</g>
<path id="Vector_9" fill-rule="evenodd" clip-rule="evenodd" d="M67.1683 33.7936L58.1405 35.1143C57.847 30.3037 55.9776 25.7738 52.9407 22.1691L60.4437 16.9629C62.3067 19.298 63.8379 21.8947 64.9736 24.6956C66.1667 27.6177 66.9004 30.6865 67.1683 33.7936Z" fill="#FFCE05"/>
<path id="Vector_10" fill-rule="evenodd" clip-rule="evenodd" d="M33.7364 5.27432C36.8308 5.05101 39.9187 5.28708 42.9046 5.96337L40.7226 14.8126C36.5883 13.9066 32.454 14.2256 28.7089 15.5272L25.7102 6.92676C28.2814 6.03355 30.9802 5.4721 33.7364 5.27432Z" fill="#FFCE05"/>
<path id="Vector_11" fill-rule="evenodd" clip-rule="evenodd" d="M13.9328 38.8915L4.80924 39.102C4.52214 35.7269 4.7901 32.3072 5.60676 28.9831C6.38513 25.8314 7.6484 22.8391 9.32637 20.1084L17.41 24.3512C16.0829 26.3864 15.0685 28.6705 14.456 31.1651C13.8116 33.7682 13.6585 36.3777 13.9328 38.8915Z" fill="#FFCE05"/>
<path id="Vector_12" fill-rule="evenodd" clip-rule="evenodd" d="M30.1829 57.8978L27.701 66.6641C24.8172 65.8729 22.0418 64.6671 19.4706 63.0657C17.0526 61.56 14.8642 59.7416 12.9565 57.6681L19.4387 51.2625C22.2077 54.3696 25.8827 56.7366 30.1829 57.8978Z" fill="#FFCE05"/>
<path id="Vector_13" fill-rule="evenodd" clip-rule="evenodd" d="M62.9128 52.4491C61.1392 55.4477 58.8615 58.1402 56.169 60.4179C53.8467 62.3766 51.2627 63.978 48.5001 65.1774L44.4424 57.0045C48.8128 55.2053 52.5707 52.0216 55.0461 47.8682L62.9128 52.4491Z" fill="#FFCE05"/>
<path id="Vector_14" fill-rule="evenodd" clip-rule="evenodd" d="M15.2214 52.3343L13.7094 53.8655C12.1718 52.0153 10.8957 49.9672 9.9068 47.798C9.81748 47.6002 9.73455 47.4024 9.6516 47.2046C8.83495 45.2587 8.24798 43.2171 7.90983 41.1244C7.89707 41.0606 7.89069 40.9904 7.87793 40.9266L10.028 40.8118C10.0408 40.9011 10.0535 40.984 10.0727 41.0734C10.3917 42.9044 10.9149 44.6909 11.6358 46.3944C11.706 46.5666 11.7826 46.7389 11.8591 46.9112C12.7396 48.8571 13.8689 50.6754 15.2214 52.3343Z" fill="#FFCE05"/>
<path id="Vector_15" fill-rule="evenodd" clip-rule="evenodd" d="M45.0294 62.9061C42.739 63.6335 40.3719 64.0354 37.9922 64.1247C37.9858 64.1247 37.9794 64.1247 37.973 64.1247C35.5869 64.2013 33.1879 63.9652 30.8464 63.3974L31.5546 61.3685C33.6218 61.8407 35.7272 62.0512 37.839 61.981C37.8582 61.981 37.8773 61.981 37.8965 61.981C39.9828 61.9108 42.0563 61.5663 44.0724 60.9602L44.9975 62.8168L45.0294 62.9061Z" fill="#FFCE05"/>
<path id="Vector_16" fill-rule="evenodd" clip-rule="evenodd" d="M63.7612 43.3382C63.2508 45.3735 62.5107 47.3513 61.5345 49.2207C61.4006 49.4823 61.2602 49.7375 61.1135 49.9927L59.3525 48.7549C59.4674 48.5508 59.5695 48.3466 59.6779 48.1424C60.5456 46.4453 61.2155 44.6653 61.6749 42.8278C62.1789 40.7989 62.415 38.7062 62.3831 36.6072C62.3831 36.5689 62.3831 36.5306 62.3831 36.4987L64.5141 36.2244C64.5141 36.2499 64.5141 36.2754 64.5141 36.3009C64.5779 38.6743 64.3227 41.0477 63.7612 43.3382Z" fill="#FFCE05"/>
<path id="Vector_17" fill-rule="evenodd" clip-rule="evenodd" d="M56.2457 17.301L55.8948 17.5754L54.555 18.6281C54.5295 18.6026 54.504 18.5834 54.4848 18.5579C53.011 17.0586 51.3522 15.7571 49.553 14.6852C49.553 14.6852 49.553 14.6852 49.5466 14.6788C47.7219 13.6006 45.7504 12.752 43.696 12.1778L44.0469 10.0532C46.3693 10.6849 48.5896 11.6227 50.644 12.8413C50.6568 12.8477 50.6631 12.8541 50.6759 12.8605C52.7112 14.0791 54.5933 15.572 56.2457 17.301Z" fill="#FFCE05"/>
<path id="Vector_18" fill-rule="evenodd" clip-rule="evenodd" d="M25.4297 12.899C23.5029 13.8305 21.7101 14.998 20.096 16.3889C19.8918 16.5612 19.694 16.7398 19.4962 16.9248C18.1245 18.1817 16.9059 19.5917 15.8532 21.1421L13.9519 20.1277C15.1386 18.3476 16.5422 16.7207 18.1117 15.2852C18.3031 15.1065 18.4945 14.9342 18.6923 14.762C20.5043 13.2052 22.5268 11.8909 24.7024 10.8701L25.4297 12.899Z" fill="#FFCE05"/>
<path id="Vector_19" fill-rule="evenodd" clip-rule="evenodd" d="M55.1866 36.2183C55.1866 46.854 46.5671 55.4735 35.9314 55.4735C25.3022 55.4735 16.6826 46.854 16.6826 36.2183C16.6826 25.589 25.3022 16.9695 35.9314 16.9695C46.5671 16.9631 55.1866 25.589 55.1866 36.2183Z" fill="#FFD300"/>
<path id="Vector_20" d="M28.0964 38.432H34.0427L28.5303 47.109H35.4719L41.9796 34.0935H36.8627L41.9796 21.9458L28.0964 38.432Z" fill="#E0170B"/>
<g id="Group_4">
<g id="Group_5">
<g id="Group_6">
<path id="Vector_21" d="M9.67706 29.806C9.63878 29.7869 9.59412 29.7932 9.56222 29.8188C9.53032 29.8443 9.51118 29.889 9.52394 29.9272L9.61964 30.393L9.28787 30.7375C9.27511 30.7503 9.26873 30.7694 9.26235 30.7822C9.25597 30.8013 9.25597 30.8268 9.26235 30.8523C9.27511 30.8906 9.31339 30.9161 9.35167 30.9225L9.8238 30.9736L10.0471 31.3947C10.0662 31.4329 10.1045 31.4521 10.1492 31.4521C10.1939 31.4521 10.2258 31.4266 10.2449 31.3883L10.4427 30.9544L10.9148 30.8715C10.9531 30.8651 10.9914 30.8332 10.9977 30.7949C11.0105 30.7566 10.9977 30.712 10.9658 30.6865L10.6149 30.3675L10.6787 29.8953C10.6851 29.857 10.666 29.8124 10.6341 29.7869C10.6022 29.7613 10.5575 29.7614 10.5192 29.7805L10.1045 30.0166L9.67706 29.806Z" fill="#E0170B"/>
<path id="Vector_22" d="M10.6088 35.0951C10.6535 34.9356 10.7619 34.8016 10.9087 34.7187C11.0554 34.6357 11.2277 34.6166 11.3872 34.6613C11.4956 34.6932 11.6041 34.6294 11.636 34.5209L13.5181 27.9621C13.5309 27.9111 13.5245 27.8537 13.499 27.809C13.4735 27.7644 13.4288 27.7261 13.3778 27.7133C13.2183 27.6687 13.0843 27.5602 13.0013 27.4134C12.9184 27.2667 12.8993 27.0944 12.9439 26.9349C12.9758 26.8265 12.912 26.718 12.8036 26.6861L12.0571 26.4692C11.9486 26.4373 11.8402 26.5011 11.8083 26.6096C11.7381 26.8584 11.4765 26.9987 11.234 26.9286C11.1128 26.8967 11.0171 26.8137 10.9533 26.7053C10.8959 26.5968 10.8768 26.4692 10.915 26.3543C10.9469 26.2459 10.8831 26.1374 10.7747 26.1055L10.0282 25.8886C9.91974 25.8567 9.81128 25.9205 9.77938 26.029C9.73472 26.1885 9.62625 26.3224 9.47951 26.4054C9.33277 26.4883 9.16051 26.5075 9.001 26.4628C8.94996 26.45 8.89254 26.4564 8.84788 26.4819C8.80322 26.5075 8.76494 26.5521 8.75218 26.6032L6.87005 33.1619C6.83814 33.2704 6.90194 33.3789 7.01041 33.4108C7.16991 33.4554 7.30389 33.5639 7.38683 33.7106C7.46977 33.8574 7.48892 34.0296 7.44425 34.1891C7.43149 34.2402 7.43787 34.2976 7.46339 34.3423C7.48891 34.3869 7.5272 34.4252 7.58462 34.438L8.33109 34.6549C8.43955 34.6868 8.54802 34.623 8.57992 34.5145C8.6501 34.2657 8.91168 34.1253 9.15413 34.1955C9.27535 34.2274 9.37105 34.3104 9.43485 34.4188C9.49227 34.5273 9.51142 34.6549 9.47313 34.7697C9.44123 34.8782 9.50503 34.9866 9.61349 35.0185L10.36 35.2355C10.411 35.2482 10.4684 35.2418 10.5131 35.2163C10.5578 35.1908 10.596 35.1461 10.6088 35.0951ZM8.47145 32.2241L9.61349 28.2365L11.9167 28.9L10.7747 32.8876L8.47145 32.2241Z" fill="#E0170B"/>
</g>
</g>
</g>
<g id="Group_7">
<g id="Group_8">
<g id="Group_9">
<path id="Vector_23" d="M61.9175 27.2347C61.9558 27.2283 61.9877 27.1964 62.0005 27.1518C62.0132 27.1135 61.9941 27.0688 61.9686 27.0433L61.6049 26.7307L61.6559 26.2586C61.6559 26.2394 61.6559 26.2203 61.6496 26.2075C61.6432 26.1884 61.624 26.1692 61.6049 26.1565C61.5666 26.1373 61.522 26.131 61.4901 26.1565L61.0817 26.4053L60.6479 26.2139C60.6096 26.1948 60.5649 26.2011 60.533 26.2267C60.5011 26.2522 60.4884 26.2968 60.4948 26.3351L60.6032 26.8009L60.2842 27.1582C60.2587 27.1901 60.2459 27.2347 60.2651 27.273C60.2778 27.3113 60.3161 27.3368 60.3608 27.3432L60.8393 27.3815L61.0753 27.7962C61.0945 27.8345 61.1328 27.8536 61.1774 27.8536C61.2221 27.8536 61.254 27.8217 61.2731 27.7834L61.4582 27.3432L61.9175 27.2347Z" fill="#E0170B"/>
<path id="Vector_24" d="M57.9428 23.6237C58.0066 23.7832 58.0002 23.9491 57.9364 24.1086C57.8726 24.2617 57.745 24.3829 57.5919 24.4467C57.4898 24.485 57.4388 24.6062 57.4771 24.7083L59.9972 31.0501C60.0164 31.1012 60.0546 31.1395 60.1057 31.1586C60.1567 31.1777 60.2078 31.1777 60.2588 31.1586C60.4183 31.0948 60.5842 31.1012 60.7437 31.165C60.8968 31.2288 61.018 31.3564 61.0818 31.5095C61.1201 31.6116 61.2413 31.6626 61.3434 31.6244L62.0644 31.3372C62.1665 31.299 62.2175 31.1777 62.1792 31.0757C62.0835 30.8396 62.1984 30.5652 62.4408 30.4695C62.5556 30.4249 62.6832 30.4249 62.7981 30.4759C62.9129 30.527 63.0023 30.6163 63.0469 30.7311C63.0852 30.8332 63.2064 30.8843 63.3085 30.846L64.0294 30.5589C64.1315 30.5206 64.1826 30.3994 64.1443 30.2973C64.0805 30.1378 64.0869 29.9719 64.1507 29.8124C64.2145 29.6593 64.3421 29.5381 64.4952 29.4743C64.5462 29.4551 64.5845 29.4168 64.6037 29.3658C64.6228 29.3147 64.6228 29.2637 64.6037 29.2127L62.0835 22.8708C62.0452 22.7688 61.924 22.7177 61.8219 22.756C61.6624 22.8198 61.4965 22.8134 61.337 22.7496C61.1839 22.6858 61.0627 22.5582 60.9989 22.4051C60.9798 22.354 60.9415 22.3158 60.8904 22.2966C60.8458 22.2775 60.7883 22.2711 60.7373 22.2966L60.0164 22.5837C59.9143 22.622 59.8632 22.7432 59.9015 22.8453C59.9972 23.0814 59.8824 23.3557 59.6399 23.4514C59.5251 23.4961 59.3975 23.4961 59.2826 23.445C59.1678 23.394 59.0785 23.3047 59.0338 23.1898C58.9955 23.0878 58.8743 23.0367 58.7722 23.075L58.0513 23.3621C58.0002 23.3812 57.962 23.4195 57.9428 23.4706C57.9237 23.5152 57.9237 23.5726 57.9428 23.6237ZM61.3881 24.5871L62.9193 28.4407L60.6926 29.3275L59.1614 25.4739L61.3881 24.5871Z" fill="#E0170B"/>
</g>
</g>
</g>
<g id="Group_10">
<g id="Group_11">
<g id="Group_12">
<path id="Vector_25" d="M53.9871 57.7829C54.0126 57.8148 54.0509 57.8339 54.0956 57.8276C54.1402 57.8212 54.1721 57.7957 54.1849 57.751L54.338 57.298L54.7974 57.1704C54.8165 57.164 54.8293 57.1576 54.842 57.1449C54.8612 57.1321 54.8676 57.1066 54.8739 57.0875C54.8803 57.0492 54.8675 57.0045 54.8293 56.979L54.4465 56.6919L54.4656 56.2134C54.4656 56.1687 54.4465 56.1304 54.4082 56.1113C54.3699 56.0922 54.3252 56.0922 54.2933 56.1177L53.9042 56.392L53.4575 56.2261C53.4193 56.2134 53.3746 56.2198 53.3427 56.2517C53.3108 56.2772 53.3044 56.3218 53.3108 56.3665L53.4512 56.8195L53.1577 57.1959C53.1322 57.2278 53.1258 57.2725 53.1449 57.3108C53.1641 57.349 53.2023 57.3746 53.2406 57.3746L53.7191 57.3809L53.9871 57.7829Z" fill="#E0170B"/>
<path id="Vector_26" d="M55.8629 52.749C55.7417 52.8638 55.5822 52.9276 55.4099 52.9212C55.244 52.9148 55.0845 52.8446 54.9697 52.7234C54.8931 52.6405 54.7655 52.6405 54.6889 52.717L49.7443 57.4256C49.7061 57.4639 49.6805 57.5149 49.6805 57.5659C49.6805 57.617 49.6997 57.668 49.738 57.7063C49.8528 57.8275 49.9166 57.987 49.9102 58.1593C49.9038 58.3252 49.8337 58.4847 49.7124 58.5995C49.6295 58.6761 49.6295 58.8037 49.7061 58.8802L50.242 59.4417C50.3186 59.5246 50.4462 59.5246 50.5227 59.4481C50.7077 59.2694 51.0012 59.2758 51.1799 59.4672C51.2628 59.5565 51.3138 59.6778 51.3075 59.799C51.3075 59.9202 51.2501 60.0414 51.1607 60.1244C51.0778 60.2009 51.0778 60.3285 51.1544 60.4051L51.6903 60.9665C51.7668 61.0495 51.8944 61.0495 51.971 60.9729C52.0922 60.8581 52.2517 60.7943 52.424 60.8007C52.5899 60.807 52.7494 60.8772 52.8642 60.9984C52.9025 61.0367 52.9535 61.0622 53.0046 61.0622C53.0556 61.0622 53.1067 61.0431 53.1449 61.0048L58.0895 56.2963C58.1725 56.2197 58.1725 56.0921 58.0959 56.0156C57.9811 55.8943 57.9173 55.7348 57.9237 55.5626C57.93 55.3967 58.0002 55.2372 58.1214 55.1224C58.1597 55.0841 58.1852 55.033 58.1852 54.982C58.1852 54.931 58.1661 54.8799 58.1278 54.8416L57.5919 54.2802C57.5153 54.1972 57.3877 54.1972 57.3112 54.2738C57.1261 54.4524 56.8327 54.4461 56.654 54.2547C56.5711 54.1653 56.52 54.0441 56.5264 53.9229C56.5264 53.8017 56.5838 53.6804 56.6732 53.5975C56.7561 53.5209 56.7561 53.3933 56.6795 53.3168L56.1436 52.7553C56.1053 52.717 56.0543 52.6915 56.0032 52.6915C55.9522 52.6915 55.9012 52.7107 55.8629 52.749ZM56.2521 56.3027L53.247 59.161L51.5946 57.4256L54.5996 54.5673L56.2521 56.3027Z" fill="#E0170B"/>
</g>
</g>
</g>
<g id="Group_13">
<g id="Group_14">
<g id="Group_15">
<path id="Vector_27" d="M21.7929 60.4247C21.7674 60.4566 21.761 60.5012 21.7802 60.5395C21.7993 60.5778 21.8376 60.6033 21.8759 60.6033L22.3544 60.6097L22.6223 61.0052C22.6351 61.018 22.6479 61.0308 22.6606 61.0435C22.6798 61.0563 22.7053 61.0563 22.7244 61.0563C22.7627 61.0499 22.801 61.0244 22.8138 60.9861L22.9669 60.5331L23.4262 60.4055C23.4645 60.3928 23.4964 60.3608 23.5028 60.3226C23.5092 60.2843 23.4964 60.2396 23.4581 60.2141L23.0753 59.927L23.0945 59.4485C23.0945 59.4038 23.0753 59.3655 23.0371 59.3464C22.9988 59.3273 22.9541 59.3273 22.9222 59.3528L22.533 59.6271L22.0864 59.4612C22.0481 59.4485 22.0035 59.4549 21.9716 59.4868C21.9397 59.5123 21.9269 59.5569 21.9397 59.6016L22.08 60.061L21.7929 60.4247Z" fill="#E0170B"/>
<path id="Vector_28" d="M27.1523 60.6604C27.0055 60.5775 26.8971 60.4435 26.8524 60.284C26.8077 60.1245 26.8205 59.9522 26.9034 59.8055C26.9545 59.7098 26.9226 59.5886 26.8205 59.5312L20.8296 56.2645C20.7849 56.239 20.7275 56.2326 20.6764 56.2454C20.6254 56.2582 20.5807 56.2964 20.5552 56.3411C20.4723 56.4878 20.3383 56.5963 20.1788 56.641C20.0193 56.6856 19.847 56.6729 19.7003 56.5899C19.6046 56.5389 19.4834 56.5708 19.4259 56.6729L19.0559 57.3555C19.0049 57.4512 19.0368 57.5725 19.1388 57.6299C19.3621 57.7511 19.4451 58.0382 19.3239 58.2615C19.2664 58.37 19.1644 58.4529 19.0495 58.4848C18.9283 58.5231 18.8071 58.504 18.6986 58.4465C18.6029 58.3955 18.4817 58.4274 18.4243 58.5295L18.0542 59.2121C18.0032 59.3078 18.0351 59.4291 18.1372 59.4865C18.2839 59.5694 18.3924 59.7034 18.437 59.8629C18.4817 60.0224 18.4689 60.1947 18.386 60.3414C18.3605 60.3861 18.3541 60.4435 18.3668 60.4946C18.3796 60.5456 18.4179 60.5902 18.4625 60.6158L24.4535 63.8824C24.5492 63.9334 24.6704 63.9015 24.7278 63.7995C24.8108 63.6527 24.9384 63.5443 25.1042 63.4996C25.2638 63.4549 25.436 63.4677 25.5828 63.5506C25.6338 63.5761 25.6848 63.5825 25.7359 63.5698C25.7869 63.557 25.8316 63.5251 25.8571 63.4741L26.2271 62.7914C26.2782 62.6957 26.2463 62.5745 26.1442 62.5171C25.9209 62.3958 25.838 62.1087 25.9592 61.8854C26.0166 61.777 26.1187 61.694 26.2335 61.6621C26.3547 61.6238 26.476 61.643 26.5844 61.7004C26.6801 61.7514 26.8014 61.7195 26.8588 61.6175L27.2288 60.9348C27.2543 60.8901 27.2607 60.8327 27.248 60.7817C27.2352 60.7306 27.2033 60.686 27.1523 60.6604ZM23.8856 62.1215L20.2426 60.1373L21.391 58.0318L25.0341 60.016L23.8856 62.1215Z" fill="#E0170B"/>
</g>
</g>
</g>
<g id="Group_16">
<g id="Group_17">
<g id="Group_18">
<path id="Vector_29" d="M34.2216 10.4617C34.2152 10.5063 34.2344 10.5446 34.2726 10.5638C34.3109 10.5829 34.3556 10.5829 34.3875 10.5638L34.7958 10.3149L35.236 10.5063C35.2552 10.5127 35.2679 10.5191 35.2871 10.5127C35.3126 10.5127 35.3317 10.5 35.3509 10.4872C35.3828 10.4617 35.3955 10.417 35.3892 10.3787L35.2743 9.913L35.5933 9.5557C35.6188 9.5238 35.6316 9.47915 35.6125 9.44087C35.5997 9.40258 35.5614 9.37706 35.5168 9.37068L35.0383 9.33878L34.7958 8.92408C34.7767 8.8858 34.732 8.86666 34.6937 8.87304C34.6491 8.87304 34.6172 8.90494 34.598 8.94322L34.4194 9.38345L33.9536 9.48552C33.9154 9.4919 33.8835 9.5238 33.8707 9.56847C33.8579 9.60675 33.8771 9.65141 33.909 9.67693L34.2726 9.98318L34.2216 10.4617Z" fill="#E0170B"/>
<path id="Vector_30" d="M38.8662 7.76917C38.7003 7.78193 38.5344 7.72451 38.4068 7.61604C38.2792 7.50758 38.2027 7.35445 38.1899 7.18219C38.1835 7.07373 38.0878 6.99079 37.973 6.99717L31.1654 7.48206C31.1144 7.48844 31.0633 7.50758 31.025 7.55224C30.9931 7.59052 30.974 7.64795 30.974 7.69899C30.9868 7.86487 30.9293 8.03075 30.8209 8.15836C30.7124 8.28596 30.5593 8.36252 30.387 8.37528C30.2786 8.38166 30.1956 8.47736 30.202 8.5922L30.2594 9.37058C30.2658 9.47904 30.3615 9.56197 30.4764 9.55559C30.7316 9.53645 30.9549 9.72786 30.974 9.98945C30.9804 10.1107 30.9421 10.2319 30.8592 10.3276C30.7762 10.4233 30.6678 10.4807 30.5402 10.4871C30.4317 10.4935 30.3487 10.5892 30.3551 10.704L30.4125 11.4824C30.4189 11.5909 30.5146 11.6738 30.6295 11.6674C30.7954 11.6547 30.9612 11.7121 31.0888 11.8205C31.2164 11.929 31.293 12.0821 31.3058 12.2544C31.3121 12.3054 31.3313 12.3565 31.3759 12.3948C31.4206 12.433 31.4716 12.4458 31.5227 12.4458L38.3303 11.9609C38.4387 11.9545 38.5217 11.8588 38.5153 11.744C38.5025 11.5781 38.56 11.4122 38.6684 11.2846C38.7769 11.157 38.93 11.0804 39.1023 11.0677C39.1597 11.0613 39.2043 11.0358 39.2426 10.9975C39.2745 10.9592 39.2937 10.9082 39.2937 10.8508L39.2362 10.0724C39.2299 9.96393 39.1342 9.88098 39.0193 9.88736C38.7641 9.9065 38.5408 9.71511 38.5217 9.45352C38.5153 9.3323 38.5536 9.21108 38.6365 9.11537C38.7195 9.01967 38.8279 8.96225 38.9555 8.95587C39.064 8.94949 39.1469 8.85378 39.1406 8.73894L39.0831 7.96057C39.0767 7.90952 39.0576 7.85848 39.0129 7.8202C38.9683 7.78192 38.9172 7.76279 38.8662 7.76917ZM36.9011 10.7614L32.7668 11.0549L32.5945 8.66238L36.7289 8.36889L36.9011 10.7614Z" fill="#E0170B"/>
</g>
</g>
</g>
</g>
</g>
<defs>
<clipPath id="clip0_1143_23009">
<rect width="206" height="72" fill="white"/>
</clipPath>
</defs>
</svg>
