<svg width="32" height="33" viewBox="0 0 32 33" fill="none" xmlns="http://www.w3.org/2000/svg">
<g id="Frame 1171275553">
<path id="Vector" d="M24.7162 17.5175C24.7312 16.2909 25.0416 15.0884 25.6184 14.0216C26.1952 12.9549 27.0198 12.0585 28.0152 11.4161C27.3828 10.4681 26.5486 9.68783 25.5786 9.13741C24.6087 8.58701 23.5298 8.28156 22.4278 8.24535C20.0767 7.98628 17.7978 9.72191 16.5996 9.72191C15.3786 9.72191 13.534 8.27107 11.5479 8.31397C10.2631 8.35752 9.01109 8.74964 7.91362 9.45213C6.81615 10.1546 5.91082 11.1435 5.28575 12.3225C2.57815 17.2432 4.59776 24.4747 7.19149 28.452C8.48922 30.3997 10.0056 32.5752 11.9902 32.498C13.9319 32.4135 14.6571 31.1983 17.0012 31.1983C19.3236 31.1983 20.0039 32.498 22.0286 32.4489C24.1123 32.4135 25.4251 30.4927 26.6772 28.5267C27.6096 27.1389 28.3271 25.6052 28.803 23.9821C27.5924 23.4448 26.5594 22.5451 25.8326 21.3955C25.1059 20.2459 24.7176 18.8972 24.7162 17.5175ZM20.892 5.62948C22.028 4.19787 22.5878 2.35779 22.4523 0.5C20.7166 0.691355 19.1131 1.56212 17.9616 2.9388C17.3987 3.61135 16.9675 4.39377 16.6927 5.24135C16.418 6.08892 16.3051 6.98501 16.3604 7.87841C17.2287 7.8878 18.0876 7.69028 18.8726 7.30073C19.6575 6.91117 20.3479 6.33975 20.892 5.62948Z" fill="white"/>
</g>
</svg>
