<svg width="25" height="24" viewBox="0 0 25 24" fill="none" xmlns="http://www.w3.org/2000/svg">
<g id="material-symbols-light:history">
<path id="Vector" d="M12.462 20C10.4313 20 8.66101 19.3367 7.15101 18.01C5.64167 16.684 4.76834 15.014 4.53101 13H5.54201C5.81401 14.72 6.59767 16.15 7.89301 17.29C9.18834 18.43 10.7113 19 12.462 19C14.412 19 16.066 18.321 17.424 16.963C18.782 15.605 19.4613 13.9507 19.462 12C19.4627 10.0493 18.7833 8.395 17.424 7.037C16.0647 5.679 14.4107 5 12.462 5C11.4267 5 10.454 5.21867 9.54401 5.656C8.63401 6.09267 7.83067 6.69433 7.13401 7.461H9.61501V8.461H5.46201V4.309H6.46201V6.697C7.23534 5.84833 8.14134 5.187 9.18001 4.713C10.2187 4.239 11.3127 4.00133 12.462 4C13.5707 4 14.61 4.20867 15.58 4.626C16.55 5.04333 17.3973 5.61467 18.122 6.34C18.8467 7.06533 19.418 7.91267 19.836 8.882C20.254 9.85133 20.4627 10.8907 20.462 12C20.4613 13.1093 20.2527 14.1487 19.836 15.118C19.4193 16.0873 18.848 16.9347 18.122 17.66C17.396 18.3853 16.5487 18.9567 15.58 19.374C14.6113 19.7913 13.572 20 12.462 20ZM15.666 15.854L12.019 12.208V7H13.019V11.792L16.373 15.146L15.666 15.854Z" fill="black"/>
</g>
</svg>
