<svg width="176" height="50" viewBox="0 0 176 50" fill="none" xmlns="http://www.w3.org/2000/svg">
<rect x="0.950264" y="16.639" width="171.335" height="32.2029" rx="16.1014" transform="rotate(-5.23304 0.950264 16.639)" fill="url(#paint0_linear_9320_10737)"/>
<rect x="0.950264" y="16.639" width="171.335" height="32.2029" rx="16.1014" transform="rotate(-5.23304 0.950264 16.639)" stroke="white" stroke-width="1.08019"/>
<path d="M46.7432 33.6347L45.8834 24.2469L47.584 24.0911L48.3133 32.0534L52.448 31.6747L52.5785 33.1003L46.7432 33.6347ZM57.065 32.828C56.3774 32.891 55.7677 32.7943 55.2357 32.538C54.7038 32.2816 54.2739 31.8942 53.946 31.3757C53.6211 30.8569 53.4254 30.2339 53.3588 29.5066C53.2922 28.7793 53.3713 28.1295 53.5962 27.5573C53.8242 26.9848 54.1765 26.5242 54.653 26.1755C55.1295 25.8268 55.7116 25.6209 56.3992 25.558C57.0868 25.495 57.6965 25.5917 58.2285 25.848C58.7604 26.1044 59.1889 26.4935 59.5141 27.0153C59.8423 27.5368 60.0397 28.1613 60.1063 28.8886C60.1729 29.6159 60.0921 30.2643 59.8638 30.8337C59.6386 31.4028 59.2877 31.8618 58.8112 32.2105C58.3347 32.5592 57.7526 32.7651 57.065 32.828ZM56.9524 31.4979C57.3253 31.4637 57.6276 31.3328 57.8594 31.1051C58.091 30.8743 58.2519 30.5792 58.3423 30.2196C58.4356 29.8597 58.4627 29.4659 58.4236 29.0381C58.3841 28.6072 58.2858 28.2233 58.1286 27.8864C57.9741 27.5462 57.7621 27.2836 57.4925 27.0988C57.2229 26.9139 56.9017 26.8385 56.5288 26.8727C56.1468 26.9077 55.8385 27.0407 55.6039 27.2717C55.3724 27.5025 55.21 27.7993 55.1169 28.1622C55.0266 28.5218 55.0012 28.917 55.0406 29.3479C55.0798 29.7757 55.1765 30.1582 55.3306 30.4954C55.4878 30.8323 55.7012 31.0932 55.9709 31.2781C56.2433 31.4596 56.5705 31.5328 56.9524 31.4979ZM64.7056 24.8896L64.8231 26.1731L60.7756 26.5438L60.658 25.2603L64.7056 24.8896ZM61.5028 23.4819L63.1622 23.33L63.7676 29.94C63.788 30.163 63.8373 30.3311 63.9154 30.4441C63.9964 30.5538 64.0953 30.6249 64.2123 30.6573C64.3293 30.6897 64.4565 30.6996 64.5941 30.687C64.698 30.6775 64.792 30.6612 64.8762 30.6381C64.9634 30.6147 65.0294 30.5948 65.0741 30.5784L65.4725 31.85C65.3867 31.8887 65.2629 31.9339 65.1013 31.9857C64.9427 32.0372 64.746 32.0768 64.5112 32.1044C64.0968 32.1547 63.7167 32.1264 63.371 32.0194C63.025 31.9093 62.7408 31.7165 62.5183 31.4411C62.2989 31.1653 62.1706 30.8073 62.1334 30.367L61.5028 23.4819ZM69.6092 24.4405L69.7268 25.724L65.6792 26.0947L65.5616 24.8112L69.6092 24.4405ZM66.4064 23.0328L68.0658 22.8808L68.6712 29.4908C68.6916 29.7139 68.7409 29.882 68.8191 29.995C68.9 30.1047 68.9989 30.1757 69.1159 30.2082C69.2329 30.2406 69.3602 30.2505 69.4977 30.2379C69.6016 30.2284 69.6956 30.2121 69.7798 30.189C69.867 30.1656 69.933 30.1457 69.9777 30.1292L70.3761 31.4009C70.2903 31.4396 70.1666 31.4848 70.0049 31.5366C69.8463 31.5881 69.6496 31.6277 69.4149 31.6553C69.0004 31.7056 68.6203 31.6773 68.2746 31.5702C67.9286 31.4602 67.6444 31.2674 67.422 30.992C67.2026 30.7162 67.0743 30.3582 67.037 29.9179L66.4064 23.0328ZM74.6959 31.2132C73.99 31.2779 73.3669 31.1871 72.8266 30.9407C72.2891 30.691 71.8581 30.3083 71.5335 29.7926C71.2086 29.2738 71.0125 28.6462 70.945 27.9097C70.8787 27.1855 70.958 26.5373 71.1829 25.9651C71.4106 25.3895 71.7596 24.9261 72.2297 24.5749C72.6995 24.2206 73.2706 24.0127 73.9429 23.9511C74.3769 23.9114 74.7928 23.9442 75.1907 24.0495C75.5914 24.1515 75.9533 24.334 76.2763 24.5972C76.6024 24.8601 76.8715 25.2083 77.0838 25.6418C77.2958 26.0723 77.4301 26.5962 77.4866 27.2135L77.5332 27.7223L71.7621 28.2509L71.6596 27.1324L75.8402 26.7496C75.808 26.432 75.7134 26.1556 75.5562 25.9204C75.3988 25.6822 75.1928 25.5023 74.9382 25.3807C74.6867 25.2589 74.4021 25.2126 74.0842 25.2417C73.745 25.2728 73.4546 25.3826 73.213 25.5711C72.9712 25.7566 72.7906 25.9888 72.6713 26.2679C72.5548 26.5435 72.5095 26.8389 72.5352 27.1539L72.6247 28.1303C72.6622 28.5398 72.7692 28.8844 72.9458 29.164C73.1222 29.4406 73.3519 29.6446 73.6351 29.7758C73.918 29.9039 74.2398 29.9515 74.6004 29.9185C74.8418 29.8964 75.0572 29.8427 75.2467 29.7576C75.4358 29.6694 75.596 29.5515 75.7273 29.4039C75.8587 29.2563 75.9519 29.0798 76.007 28.8744L77.5724 28.9067C77.5121 29.3252 77.3584 29.6998 77.1114 30.0306C76.8671 30.358 76.5403 30.6252 76.1309 30.8322C75.7212 31.0361 75.2429 31.1631 74.6959 31.2132ZM79.2179 30.6604L78.573 23.6195L80.182 23.4722L80.2895 24.6456L80.3628 24.6389C80.4539 24.2207 80.6453 23.8874 80.9368 23.6388C81.2312 23.3869 81.58 23.2424 81.9834 23.2055C82.0751 23.1971 82.1779 23.1923 82.2918 23.1911C82.4085 23.1866 82.5057 23.1885 82.5835 23.1967L82.7233 24.7232C82.6508 24.7052 82.5373 24.694 82.3828 24.6897C82.2311 24.682 82.085 24.6846 81.9444 24.6975C81.6419 24.7252 81.3759 24.8158 81.1465 24.9693C80.9199 25.1195 80.7483 25.3155 80.6318 25.5573C80.5153 25.799 80.4707 26.0697 80.4982 26.3692L80.8773 30.5084L79.2179 30.6604ZM85.8233 32.7179C85.5972 32.7386 85.3862 32.7395 85.1903 32.7204C84.9978 32.7042 84.8429 32.6783 84.7256 32.6428L84.9922 31.3149C85.2401 31.363 85.4586 31.3769 85.6478 31.3565C85.837 31.3361 85.9981 31.2613 86.1311 31.132C86.2674 31.0055 86.3738 30.8047 86.4503 30.5296L86.5576 30.1361L83.346 23.1824L85.1063 23.0212L87.216 28.1899L87.2893 28.1832L88.4296 22.7168L90.1944 22.5551L88.0982 30.7068C88.001 31.0917 87.856 31.427 87.6634 31.7127C87.4711 32.0015 87.224 32.2306 86.9221 32.4C86.6235 32.5722 86.2573 32.6782 85.8233 32.7179ZM102.118 19.0965L102.977 28.4843L101.465 28.6229L96.4556 22.6334L96.3777 22.6406L96.9634 29.0351L95.2627 29.1909L94.4029 19.803L95.9248 19.6637L100.93 25.6581L101.012 25.6505L100.426 19.2514L102.118 19.0965ZM106.796 28.2778C106.35 28.3187 105.941 28.2761 105.569 28.1499C105.2 28.0204 104.897 27.8078 104.66 27.5121C104.426 27.216 104.288 26.8373 104.246 26.3759C104.21 25.9786 104.253 25.6434 104.376 25.3702C104.499 25.097 104.68 24.8709 104.919 24.6918C105.159 24.5127 105.434 24.3689 105.744 24.2603C106.057 24.1484 106.384 24.0584 106.723 23.9904C107.131 23.9099 107.462 23.841 107.716 23.7839C107.969 23.7237 108.151 23.6516 108.26 23.5676C108.372 23.4803 108.421 23.3572 108.406 23.1983L108.404 23.1708C108.372 22.8255 108.245 22.5675 108.023 22.3968C107.801 22.226 107.498 22.1583 107.113 22.1936C106.706 22.2308 106.392 22.349 106.17 22.548C105.951 22.7468 105.811 22.9707 105.751 23.2197L104.181 23.1416C104.264 22.7025 104.433 22.3265 104.688 22.0135C104.942 21.6974 105.266 21.449 105.66 21.2681C106.053 21.0842 106.495 20.9697 106.987 20.9247C107.326 20.8936 107.668 20.9024 108.011 20.9511C108.355 20.9997 108.674 21.103 108.969 21.2609C109.263 21.4157 109.509 21.6413 109.705 21.9376C109.905 22.2336 110.026 22.6154 110.069 23.083L110.501 27.7953L108.906 27.9414L108.817 26.9742L108.762 26.9792C108.679 27.184 108.554 27.3804 108.386 27.5683C108.221 27.7529 108.006 27.9097 107.74 28.0388C107.478 28.1646 107.163 28.2443 106.796 28.2778ZM107.115 27.0191C107.449 26.9886 107.731 26.8964 107.964 26.7426C108.196 26.5858 108.368 26.3913 108.479 26.1592C108.593 25.9269 108.638 25.6808 108.615 25.4211L108.539 24.5914C108.491 24.6389 108.406 24.6868 108.284 24.7349C108.165 24.7828 108.03 24.8275 107.88 24.869C107.73 24.9105 107.581 24.9488 107.433 24.9839C107.285 25.019 107.157 25.0492 107.048 25.0746C106.804 25.1309 106.587 25.2062 106.399 25.3005C106.21 25.3948 106.066 25.5159 105.965 25.6637C105.864 25.8086 105.824 25.9879 105.843 26.2018C105.871 26.5074 106.004 26.7279 106.241 26.8634C106.479 26.9988 106.77 27.0507 107.115 27.0191ZM112.169 27.6424L111.524 20.6016L113.11 20.4563L113.22 21.6527L113.303 21.6451C113.412 21.2283 113.626 20.8913 113.945 20.6341C114.263 20.3738 114.658 20.2222 115.128 20.1791C115.605 20.1354 116.017 20.2147 116.366 20.417C116.717 20.616 116.978 20.9079 117.148 21.2929L117.222 21.2862C117.342 20.8807 117.576 20.545 117.925 20.2789C118.276 20.0094 118.707 19.8513 119.217 19.8046C119.865 19.7452 120.412 19.9016 120.859 20.2735C121.306 20.6455 121.566 21.2242 121.638 22.0096L122.071 26.7356L120.407 26.888L119.997 22.4187C119.957 21.9817 119.812 21.673 119.561 21.4926C119.31 21.3091 119.017 21.2327 118.68 21.2635C118.28 21.3002 117.978 21.4542 117.775 21.7255C117.575 21.9934 117.493 22.3261 117.529 22.7233L117.931 27.1147L116.304 27.2637L115.888 22.7257C115.855 22.362 115.718 22.0818 115.479 21.885C115.242 21.6879 114.948 21.6054 114.596 21.6376C114.358 21.6594 114.146 21.7404 113.962 21.8806C113.777 22.0177 113.637 22.2015 113.541 22.4322C113.445 22.6598 113.41 22.9188 113.437 23.2091L113.829 27.4905L112.169 27.6424ZM126.884 26.4334C126.178 26.4981 125.555 26.4073 125.014 26.1609C124.477 25.9112 124.046 25.5285 123.721 25.0128C123.396 24.494 123.2 23.8664 123.133 23.1299C123.066 22.4057 123.146 21.7575 123.371 21.1853C123.598 20.6097 123.947 20.1463 124.417 19.7951C124.887 19.4408 125.458 19.2329 126.131 19.1713C126.565 19.1316 126.981 19.1644 127.378 19.2697C127.779 19.3717 128.141 19.5542 128.464 19.8174C128.79 20.0803 129.059 20.4285 129.272 20.862C129.484 21.2925 129.618 21.8164 129.674 22.4337L129.721 22.9425L123.95 23.4711L123.847 22.3526L128.028 21.9698C127.996 21.6522 127.901 21.3758 127.744 21.1406C127.587 20.9024 127.381 20.7225 127.126 20.6009C126.874 20.4791 126.59 20.4328 126.272 20.4619C125.933 20.493 125.642 20.6028 125.401 20.7913C125.159 20.9768 124.978 21.209 124.859 21.4881C124.743 21.7637 124.697 22.0591 124.723 22.3741L124.812 23.3505C124.85 23.76 124.957 24.1046 125.134 24.3842C125.31 24.6608 125.54 24.8648 125.823 24.996C126.106 25.1241 126.428 25.1717 126.788 25.1387C127.03 25.1166 127.245 25.0629 127.434 24.9778C127.624 24.8896 127.784 24.7717 127.915 24.6241C128.046 24.4765 128.14 24.3 128.195 24.0946L129.76 24.1269C129.7 24.5454 129.546 24.92 129.299 25.2508C129.055 25.5782 128.728 25.8454 128.319 26.0524C127.909 26.2563 127.431 26.3833 126.884 26.4334Z" fill="white"/>
<defs>
<linearGradient id="paint0_linear_9320_10737" x1="-3.27195" y1="49.424" x2="173.486" y2="3.41383" gradientUnits="userSpaceOnUse">
<stop stop-color="#5F41BD"/>
<stop offset="1" stop-color="#010E16"/>
</linearGradient>
</defs>
</svg>
