<svg width="301" height="123" viewBox="0 0 301 123" fill="none" xmlns="http://www.w3.org/2000/svg">
<g clip-path="url(#clip0_10349_46639)">
<rect width="300.272" height="122.839" rx="12.7957" fill="url(#paint0_linear_10349_46639)"/>
<g opacity="0.05" clip-path="url(#clip1_10349_46639)">
<path d="M300.269 -57.5811H-0.0012207V117.477H300.269V-57.5811Z" fill="#47346C"/>
<path d="M189.708 56.5862C164.848 55.655 140.105 53.0169 115.368 50.5666C90.6566 48.1188 65.9288 45.9908 41.0781 45.6146C27.3822 45.4074 13.6886 45.6044 -0.000976562 45.9848V90.1708C15.7437 90.8188 31.4715 91.9235 47.1778 93.1663C71.506 95.091 95.8122 97.3328 120.187 98.6471C144.485 99.9572 168.76 100.015 193.069 98.9483C228.803 97.3803 264.509 94.0632 300.269 93.2498V61.0278C288.011 59.0721 275.605 58.0947 263.2 57.5978C238.714 56.6165 214.195 57.5035 189.708 56.5862Z" fill="#47346C"/>
<path d="M186.597 13.708C161.374 13.754 136.166 14.6779 110.958 15.4094C85.9505 16.1351 60.9208 16.6771 35.9062 15.9673C23.9219 15.6274 11.9411 14.989 -0.000976562 13.9542V44.3902C16.3947 43.9281 32.7957 43.7227 49.1953 44.1461C98.7453 45.425 147.753 53.9157 197.301 55.1799C221.78 55.8044 246.291 54.9468 270.751 56.2957C280.63 56.8403 290.495 57.7562 300.269 59.2611V20.0677C287.673 19.2876 275.092 18.1499 262.529 17.0765C237.241 14.9157 211.988 13.6618 186.597 13.708Z" fill="#3B2E62"/>
<path d="M182.506 100.273C158.204 101.121 133.945 100.622 109.681 99.1092C73.1067 96.8286 36.6107 92.8125 -0.000976562 91.2205V117.476H300.269V94.1829C285.185 94.4886 270.106 95.2489 255.049 96.1584C230.874 97.6183 206.716 99.428 182.506 100.273Z" fill="#3B2E62"/>
<path d="M171.72 -29.0575C147.454 -28.1834 123.494 -25.3678 99.505 -21.8369C87.7239 -20.1028 75.9398 -18.3576 64.0941 -17.0884C52.6565 -15.863 41.1784 -15.2309 29.6867 -14.7217C19.8064 -14.2839 9.87791 -13.8878 -0.000976562 -13.0921V12.4885C15.635 13.8833 31.3409 14.5805 47.0439 14.8261C97.1857 15.6107 147.267 11.9778 197.407 12.3741C222.535 12.5726 247.495 14.3313 272.514 16.48C281.753 17.2736 291.007 18.0429 300.269 18.6269V-23.9463C281.655 -25.5539 263.028 -27.021 244.37 -28.042C220.184 -29.3656 195.935 -29.9298 171.72 -29.0575Z" fill="#47346C"/>
<path d="M72.449 -57.5813H-0.00109863V117.476H70.7651C20.5425 94.005 18.8736 -35.0127 72.449 -57.5813Z" fill="#2E244F"/>
<path d="M227.794 -57.5813C291.752 -32.0022 289.402 96.8171 229.478 117.476H300.269V-57.5813H227.794Z" fill="#2E244F"/>
<path d="M17.8744 -0.202468C18.2479 -0.41566 18.6704 -0.190761 18.8181 0.299881C18.9659 0.790522 18.7827 1.36134 18.4091 1.57453C18.0356 1.78772 17.6131 1.56282 17.4654 1.07218C17.3177 0.581536 17.5008 0.0107237 17.8744 -0.202468Z" fill="#D5D5D5"/>
<path d="M23.2167 53.036C23.7146 52.7519 24.2773 53.0516 24.4743 53.7055C24.6713 54.3595 24.4271 55.1198 23.9293 55.4036C23.4314 55.6876 22.8687 55.388 22.6718 54.734C22.4751 54.0803 22.7192 53.32 23.2167 53.036Z" fill="#D5D5D5"/>
<path d="M11.5641 40.3757C11.9481 40.1565 12.3823 40.3877 12.5339 40.8922C12.6859 41.3967 12.4976 41.9831 12.1136 42.2023C11.7295 42.4215 11.2953 42.1903 11.1437 41.6858C10.9921 41.1814 11.18 40.5949 11.5641 40.3757Z" fill="#D5D5D5"/>
<path d="M25.4151 16.9879C25.7752 16.7825 26.1826 16.9993 26.325 17.4723C26.4673 17.9455 26.2907 18.4956 25.9307 18.701C25.5707 18.9066 25.1632 18.6895 25.0209 18.2166C24.8786 17.7437 25.0551 17.1936 25.4151 16.9879Z" fill="#D5D5D5"/>
<path d="M44.0085 39.6736C44.6054 39.3328 45.281 39.6925 45.517 40.4768C45.753 41.2611 45.4603 42.1733 44.8633 42.5141C44.2664 42.8549 43.5908 42.4952 43.3548 41.7109C43.1188 40.9263 43.4115 40.0144 44.0085 39.6736Z" fill="#D5D5D5"/>
<path d="M30.8374 6.90728C31.0915 6.76225 31.3785 6.91539 31.4788 7.24869C31.5791 7.58229 31.4548 7.96994 31.2008 8.11497C30.947 8.26 30.6597 8.10686 30.5594 7.77356C30.4591 7.43996 30.5834 7.05231 30.8374 6.90728Z" fill="#D5D5D5"/>
<path d="M26.8698 38.2958C27.0314 38.2036 27.2139 38.3009 27.2779 38.5129C27.3418 38.7252 27.2626 38.9717 27.101 39.0639C26.9395 39.1561 26.7569 39.0588 26.6929 38.8468C26.6293 38.6348 26.7086 38.388 26.8698 38.2958Z" fill="#D5D5D5"/>
<path d="M43.7704 30.0351C43.9589 29.9273 44.1724 30.0411 44.2469 30.2888C44.3214 30.5368 44.2289 30.8248 44.0403 30.9326C43.8517 31.0404 43.6383 30.9266 43.5638 30.6789C43.4893 30.4308 43.5818 30.1426 43.7704 30.0351Z" fill="#D5D5D5"/>
<path d="M40.7882 -3.04397C41.3852 -3.38477 42.0608 -3.02505 42.2968 -2.24075C42.5328 -1.45644 42.24 -0.54422 41.6431 -0.203413C41.0462 0.137394 40.3705 -0.222331 40.1345 -1.00664C39.8985 -1.79124 40.191 -2.70316 40.7882 -3.04397Z" fill="#D5D5D5"/>
<path d="M51.1226 -0.0304721C51.4958 -0.243364 51.918 -0.0187625 52.0654 0.471579C52.2128 0.96192 52.03 1.53184 51.6567 1.74503C51.2835 1.95792 50.8613 1.73331 50.7139 1.24297C50.5665 0.752332 50.7496 0.18242 51.1226 -0.0304721Z" fill="#D5D5D5"/>
<path d="M20.7841 25.7388C21.1573 25.5259 21.5792 25.7505 21.727 26.2409C21.8744 26.7312 21.6915 27.3011 21.3183 27.5143C20.945 27.7272 20.5229 27.5026 20.3754 27.0123C20.228 26.5219 20.4109 25.9517 20.7841 25.7388Z" fill="#D5D5D5"/>
<path d="M43.4802 13.4468C43.8534 13.2339 44.2756 13.4585 44.4231 13.9489C44.5705 14.4392 44.3876 15.0091 44.0144 15.2223C43.6412 15.4352 43.219 15.2106 43.0715 14.7203C42.9241 14.2299 43.107 13.6597 43.4802 13.4468Z" fill="#D5D5D5"/>
<path d="M37.2561 29.4263C37.6293 29.2134 38.0515 29.438 38.199 29.9284C38.3464 30.4187 38.1635 30.9886 37.7903 31.2018C37.4171 31.4147 36.9949 31.1901 36.8474 30.6998C36.7 30.2094 36.8832 29.6395 37.2561 29.4263Z" fill="#D5D5D5"/>
<path d="M54.8701 15.5564C55.2433 15.3436 55.6652 15.5682 55.813 16.0585C55.9604 16.5488 55.7775 17.1187 55.4043 17.3319C55.031 17.5448 54.6092 17.3202 54.4614 16.8299C54.314 16.3395 54.4969 15.7693 54.8701 15.5564Z" fill="#D5D5D5"/>
<path d="M61.0007 3.66582C61.3739 3.45293 61.7961 3.67753 61.9435 4.16787C62.0909 4.65821 61.9081 5.22812 61.5348 5.44131C61.1616 5.65421 60.7394 5.4296 60.592 4.93926C60.4446 4.44892 60.6274 3.87871 61.0007 3.66582Z" fill="#D5D5D5"/>
<path d="M30.3759 22.7798C30.7491 22.5669 31.1713 22.7915 31.3187 23.2819C31.4662 23.7722 31.2833 24.3421 30.9101 24.5553C30.5368 24.7682 30.1147 24.5436 29.9672 24.0533C29.8198 23.5629 30.0027 22.993 30.3759 22.7798Z" fill="#D5D5D5"/>
<path d="M51.6201 23.2435C51.9933 23.0306 52.4155 23.2552 52.5629 23.7455C52.7104 24.2358 52.5275 24.8058 52.1543 25.019C51.781 25.2319 51.3589 25.0072 51.2114 24.5169C51.064 24.0263 51.2469 23.4563 51.6201 23.2435Z" fill="#D5D5D5"/>
<path d="M34.7347 47.4478C35.1079 47.2349 35.5301 47.4595 35.6775 47.9499C35.8249 48.4402 35.6421 49.0101 35.2688 49.2233C34.8956 49.4362 34.4734 49.2116 34.326 48.7212C34.1786 48.2309 34.3614 47.6607 34.7347 47.4478Z" fill="#D5D5D5"/>
<path d="M59.1811 28.1578C59.5543 27.9449 59.9762 28.1695 60.1239 28.6598C60.2714 29.1502 60.0885 29.7201 59.7153 29.9333C59.342 30.1461 58.9201 29.9215 58.7724 29.4312C58.625 28.9406 58.8078 28.3707 59.1811 28.1578Z" fill="#D5D5D5"/>
<path d="M13.3981 25.8062C13.7714 25.5933 14.1935 25.8179 14.341 26.3082C14.4884 26.7986 14.3055 27.3685 13.9323 27.5817C13.5591 27.7946 13.1369 27.57 12.9894 27.0796C12.842 26.5893 13.0249 26.0191 13.3981 25.8062Z" fill="#D5D5D5"/>
<path d="M20.5067 13.1591C20.7319 13.0306 20.9862 13.1663 21.0754 13.4618C21.1643 13.7575 21.0541 14.1013 20.8289 14.2299C20.6037 14.3584 20.3493 14.2227 20.2602 13.9272C20.1713 13.6314 20.2818 13.2876 20.5067 13.1591Z" fill="#D5D5D5"/>
<path d="M49.6057 41.6792C49.9789 41.4664 50.4011 41.691 50.5485 42.1813C50.696 42.6716 50.5131 43.2415 50.1399 43.4547C49.7666 43.6676 49.3445 43.443 49.197 42.9527C49.0496 42.4623 49.2325 41.8924 49.6057 41.6792Z" fill="#D5D5D5"/>
<path d="M9.04558 15.9947C9.41881 15.7818 9.84099 16.0064 9.98843 16.4967C10.1359 16.9871 9.95299 17.557 9.57976 17.7702C9.20652 17.9831 8.78434 17.7585 8.63691 17.2681C8.48948 16.7778 8.67234 16.2076 9.04558 15.9947Z" fill="#D5D5D5"/>
<path d="M66.0116 29.1246C66.3848 28.9117 66.807 29.1363 66.9545 29.6266C67.1019 30.117 66.919 30.6869 66.5458 30.9001C66.1725 31.113 65.7507 30.8884 65.6029 30.398C65.4555 29.9077 65.6387 29.3374 66.0116 29.1246Z" fill="#D5D5D5"/>
<path d="M21.1055 41.5594C21.4788 41.3465 21.9009 41.5711 22.0484 42.0614C22.1958 42.5518 22.0129 43.1217 21.6397 43.3349C21.2665 43.5478 20.8446 43.3232 20.6968 42.8328C20.5494 42.3425 20.7323 41.7723 21.1055 41.5594Z" fill="#D5D5D5"/>
<path d="M59.9427 36.9255C60.3163 36.7123 60.7387 36.9372 60.8865 37.4281C61.0342 37.9188 60.851 38.4896 60.4775 38.7028C60.104 38.9159 59.6815 38.691 59.5338 38.2001C59.386 37.7092 59.5692 37.1386 59.9427 36.9255Z" fill="#D5D5D5"/>
<path d="M65.2853 90.1661C65.7832 89.882 66.3459 90.1817 66.5429 90.8357C66.7398 91.4897 66.4957 92.2497 65.9979 92.5337C65.5 92.8178 64.9373 92.5181 64.7403 91.8641C64.5437 91.2104 64.7875 90.4501 65.2853 90.1661Z" fill="#D5D5D5"/>
<path d="M53.6341 77.5049C54.0181 77.2857 54.4523 77.5169 54.6039 78.0213C54.7559 78.5258 54.5676 79.1122 54.1836 79.3314C53.7995 79.5506 53.3653 79.3194 53.2137 78.815C53.0618 78.3105 53.25 77.7241 53.6341 77.5049Z" fill="#D5D5D5"/>
<path d="M67.4837 54.1189C67.8437 53.9132 68.2512 54.1303 68.3935 54.6032C68.5358 55.0765 68.3592 55.6266 67.9992 55.8319C67.6392 56.0373 67.2317 55.8205 67.0894 55.3476C66.9471 54.8744 67.1233 54.3243 67.4837 54.1189Z" fill="#D5D5D5"/>
<path d="M86.0781 76.8037C86.6751 76.4629 87.3507 76.8226 87.5867 77.6069C87.8227 78.3912 87.5299 79.3034 86.933 79.6442C86.3361 79.985 85.6605 79.6253 85.4244 78.841C85.1884 78.0567 85.4809 77.1445 86.0781 76.8037Z" fill="#D5D5D5"/>
<path d="M72.9072 44.0372C73.1612 43.8921 73.4482 44.0453 73.5485 44.3786C73.6488 44.7122 73.5245 45.0998 73.2705 45.2449C73.0168 45.3896 72.7294 45.2367 72.6291 44.9034C72.5291 44.5698 72.6534 44.1819 72.9072 44.0372Z" fill="#D5D5D5"/>
<path d="M68.9395 75.4247C69.1011 75.3325 69.2837 75.4298 69.3476 75.6421C69.4116 75.8544 69.3323 76.1009 69.1708 76.1931C69.0092 76.2853 68.8266 76.188 68.7627 75.9757C68.6987 75.7634 68.778 75.5169 68.9395 75.4247Z" fill="#D5D5D5"/>
<path d="M85.84 67.165C86.0286 67.0572 86.2421 67.171 86.3165 67.4187C86.391 67.6664 86.2985 67.9547 86.1099 68.0625C85.9214 68.1703 85.7079 68.0565 85.6334 67.8087C85.5586 67.5607 85.6511 67.2728 85.84 67.165Z" fill="#D5D5D5"/>
<path d="M82.8592 34.084C83.4562 33.7432 84.1318 34.1029 84.3678 34.8872C84.6038 35.6715 84.311 36.5837 83.7141 36.9245C83.1172 37.2653 82.4416 36.9056 82.2055 36.1213C81.9695 35.337 82.2623 34.4248 82.8592 34.084Z" fill="#D5D5D5"/>
<path d="M93.191 37.0984C93.5643 36.8855 93.9864 37.1101 94.1339 37.6005C94.2813 38.0908 94.0984 38.6607 93.7252 38.8739C93.352 39.0868 92.9301 38.8622 92.7824 38.3719C92.6349 37.8815 92.8178 37.3113 93.191 37.0984Z" fill="#D5D5D5"/>
<path d="M62.8552 62.8677C63.2284 62.6548 63.6503 62.8794 63.798 63.3698C63.9454 63.8601 63.7626 64.43 63.3893 64.6432C63.0161 64.8561 62.5939 64.6315 62.4465 64.1412C62.2987 63.6508 62.4819 63.0806 62.8552 62.8677Z" fill="#D5D5D5"/>
<path d="M85.5485 50.5757C85.9218 50.3628 86.3439 50.5874 86.4914 51.0778C86.6388 51.5681 86.4559 52.138 86.0827 52.3512C85.7095 52.5641 85.2873 52.3395 85.1399 51.8492C84.9924 51.3588 85.1756 50.7886 85.5485 50.5757Z" fill="#D5D5D5"/>
<path d="M79.3259 66.5562C79.6991 66.3433 80.1213 66.5679 80.2687 67.0582C80.4161 67.5486 80.2333 68.1185 79.86 68.3317C79.4868 68.5446 79.0646 68.32 78.9172 67.8296C78.7698 67.3393 78.9526 66.7694 79.3259 66.5562Z" fill="#D5D5D5"/>
<path d="M96.9385 52.6851C97.3117 52.4722 97.7339 52.6968 97.8813 53.1872C98.0288 53.6775 97.8459 54.2474 97.4727 54.4606C97.0994 54.6735 96.6772 54.4489 96.5298 53.9585C96.3824 53.4682 96.5655 52.898 96.9385 52.6851Z" fill="#D5D5D5"/>
<path d="M103.069 40.7964C103.442 40.5835 103.864 40.8081 104.012 41.2985C104.159 41.7888 103.976 42.3587 103.603 42.5719C103.23 42.7848 102.808 42.5602 102.66 42.0699C102.513 41.5795 102.696 41.0096 103.069 40.7964Z" fill="#D5D5D5"/>
<path d="M72.4471 59.9097C72.8203 59.6968 73.2425 59.9214 73.3899 60.4118C73.5374 60.9021 73.3545 61.472 72.9812 61.6852C72.608 61.8981 72.1858 61.6735 72.0384 61.1832C71.891 60.6928 72.0738 60.1229 72.4471 59.9097Z" fill="#D5D5D5"/>
<path d="M77.0678 24.355C77.441 24.1421 77.8629 24.3667 78.0106 24.8571C78.1581 25.3474 77.9752 25.9173 77.602 26.1305C77.2287 26.3434 76.8066 26.1188 76.6591 25.6285C76.5117 25.1381 76.6946 24.5679 77.0678 24.355Z" fill="#D5D5D5"/>
<path d="M101.471 28.0748C101.844 27.8619 102.266 28.0865 102.414 28.5768C102.561 29.0671 102.378 29.6371 102.005 29.8503C101.632 30.0631 101.21 29.8385 101.062 29.3482C100.915 28.8579 101.098 28.2876 101.471 28.0748Z" fill="#D5D5D5"/>
<path d="M93.6885 60.3716C94.0618 60.1587 94.4839 60.3833 94.6314 60.8737C94.7788 61.364 94.5959 61.9339 94.2227 62.1471C93.8495 62.36 93.4273 62.1354 93.2799 61.6451C93.1321 61.1547 93.3153 60.5845 93.6885 60.3716Z" fill="#D5D5D5"/>
<path d="M76.8041 84.5767C77.1774 84.3638 77.5995 84.5884 77.747 85.0788C77.8944 85.5691 77.7115 86.139 77.3383 86.3522C76.9651 86.5651 76.5429 86.3405 76.3955 85.8502C76.248 85.3598 76.4309 84.7896 76.8041 84.5767Z" fill="#D5D5D5"/>
<path d="M101.25 65.2867C101.623 65.0738 102.045 65.2984 102.192 65.7887C102.34 66.2791 102.157 66.849 101.784 67.0622C101.41 67.2751 100.989 67.0505 100.841 66.5601C100.693 66.0698 100.877 65.4996 101.25 65.2867Z" fill="#D5D5D5"/>
<path d="M55.4664 62.9351C55.8396 62.7222 56.2618 62.9468 56.4092 63.4372C56.5566 63.9275 56.3738 64.4974 56.0005 64.7106C55.6273 64.9235 55.2054 64.6989 55.0577 64.2085C54.9103 63.7182 55.0931 63.148 55.4664 62.9351Z" fill="#D5D5D5"/>
<path d="M62.5764 50.287C62.8016 50.1585 63.0563 50.2942 63.1451 50.5897C63.234 50.8855 63.1238 51.2293 62.8986 51.3578C62.6734 51.4863 62.4191 51.3506 62.3299 51.0551C62.241 50.7594 62.3512 50.4155 62.5764 50.287Z" fill="#D5D5D5"/>
<path d="M91.6753 78.8094C92.0486 78.5965 92.4708 78.8211 92.6182 79.3114C92.7656 79.8018 92.5828 80.3717 92.2095 80.5849C91.8363 80.7978 91.4141 80.5732 91.2667 80.0828C91.1192 79.5925 91.3021 79.0223 91.6753 78.8094Z" fill="#D5D5D5"/>
<path d="M51.1153 53.1226C51.4885 52.9097 51.9107 53.1343 52.0581 53.6247C52.2056 54.115 52.0227 54.6849 51.6495 54.8981C51.2762 55.111 50.854 54.8864 50.7066 54.396C50.5592 53.9057 50.742 53.3358 51.1153 53.1226Z" fill="#D5D5D5"/>
<path d="M108.08 66.2535C108.453 66.0406 108.875 66.2652 109.023 66.7555C109.17 67.2459 108.987 67.8158 108.614 68.029C108.241 68.2419 107.819 68.0173 107.671 67.5269C107.524 67.0366 107.707 66.4664 108.08 66.2535Z" fill="#D5D5D5"/>
<path d="M63.175 78.688C63.5482 78.4751 63.9701 78.6997 64.1178 79.1901C64.2653 79.6804 64.0824 80.2503 63.7092 80.4635C63.3359 80.6764 62.914 80.4518 62.7663 79.9615C62.6186 79.4711 62.8017 78.9009 63.175 78.688Z" fill="#D5D5D5"/>
<path d="M84.875 21.9893C85.3728 21.7053 85.9355 22.0049 86.1325 22.6589C86.3292 23.3126 86.0853 24.0729 85.5875 24.357C85.0897 24.641 84.5269 24.3413 84.33 23.6873C84.1333 23.0337 84.3774 22.2734 84.875 21.9893Z" fill="#D5D5D5"/>
<path d="M73.2236 9.32812C73.6076 9.10893 74.0418 9.34014 74.1934 9.84459C74.3451 10.349 74.1571 10.9355 73.773 11.1547C73.389 11.3739 72.9548 11.1427 72.8032 10.6382C72.6515 10.1338 72.8395 9.54732 73.2236 9.32812Z" fill="#D5D5D5"/>
<path d="M65.1963 16.8857C65.5804 16.6665 66.0146 16.8978 66.1662 17.4022C66.3178 17.9067 66.1299 18.4931 65.7458 18.7123C65.3618 18.9315 64.9276 18.7003 64.776 18.1958C64.624 17.6917 64.8123 17.1049 65.1963 16.8857Z" fill="#D5D5D5"/>
<path d="M105.669 8.62888C106.266 8.28808 106.941 8.6478 107.177 9.43211C107.413 10.2164 107.121 11.1286 106.524 11.4694C105.927 11.8102 105.251 11.4505 105.015 10.6662C104.779 9.88191 105.072 8.96969 105.669 8.62888Z" fill="#D5D5D5"/>
<path d="M88.5293 7.24695C88.6908 7.15477 88.8734 7.25206 88.9373 7.46435C89.0013 7.67634 88.922 7.92316 88.7605 8.01535C88.5989 8.10753 88.4164 8.01024 88.3524 7.79825C88.2888 7.58566 88.3677 7.33914 88.5293 7.24695Z" fill="#D5D5D5"/>
<path d="M98.9154 -1.61958C99.2886 -1.83248 99.7105 -1.60787 99.8583 -1.11753C100.006 -0.627191 99.8228 -0.0572789 99.4496 0.155913C99.0764 0.368805 98.6542 0.144203 98.5067 -0.346138C98.3593 -0.836479 98.5425 -1.40669 98.9154 -1.61958Z" fill="#D5D5D5"/>
<path d="M96.3923 16.399C96.7655 16.1861 97.1877 16.4107 97.3351 16.901C97.4825 17.3914 97.2997 17.9613 96.9264 18.1745C96.5532 18.3874 96.131 18.1628 95.9836 17.6724C95.8362 17.1821 96.019 16.6122 96.3923 16.399Z" fill="#D5D5D5"/>
<path d="M111.265 10.6311C111.638 10.4183 112.06 10.6429 112.208 11.1332C112.355 11.6235 112.172 12.1935 111.799 12.4066C111.426 12.6195 111.004 12.3949 110.856 11.9046C110.709 11.4143 110.892 10.844 111.265 10.6311Z" fill="#D5D5D5"/>
<path d="M127.67 -1.92134C128.043 -2.13423 128.465 -1.90963 128.612 -1.41929C128.76 -0.928949 128.577 -0.359037 128.204 -0.145845C127.831 0.0670469 127.409 -0.157555 127.261 -0.647896C127.114 -1.13824 127.296 -1.70815 127.67 -1.92134Z" fill="#D5D5D5"/>
<path d="M82.7646 10.5113C83.1379 10.2984 83.5601 10.523 83.7075 11.0133C83.8549 11.5037 83.672 12.0736 83.2988 12.2868C82.9256 12.4997 82.5037 12.2751 82.356 11.7847C82.2085 11.2944 82.3914 10.7245 82.7646 10.5113Z" fill="#D5D5D5"/>
<path d="M121.602 5.8798C121.976 5.66661 122.398 5.89151 122.546 6.38246C122.694 6.8731 122.51 7.44391 122.137 7.6571C121.763 7.87029 121.341 7.64539 121.193 7.15475C121.045 6.66381 121.228 6.09299 121.602 5.8798Z" fill="#D5D5D5"/>
<path d="M126.945 59.1192C127.442 58.8351 128.005 59.1348 128.202 59.7888C128.399 60.4425 128.155 61.2028 127.657 61.4868C127.159 61.7709 126.597 61.4712 126.4 60.8172C126.203 60.1635 126.447 59.4033 126.945 59.1192Z" fill="#D5D5D5"/>
<path d="M115.292 46.4561C115.676 46.2369 116.11 46.4681 116.262 46.9725C116.413 47.477 116.225 48.0634 115.841 48.2826C115.457 48.5018 115.023 48.2706 114.872 47.7661C114.72 47.2617 114.908 46.6753 115.292 46.4561Z" fill="#D5D5D5"/>
<path d="M129.143 23.0701C129.503 22.8644 129.911 23.0815 130.053 23.5544C130.195 24.0276 130.019 24.5777 129.659 24.7831C129.299 24.9888 128.891 24.7717 128.749 24.2988C128.606 23.8259 128.783 23.2758 129.143 23.0701Z" fill="#D5D5D5"/>
<path d="M147.739 45.7578C148.336 45.417 149.011 45.7767 149.247 46.561C149.483 47.3453 149.191 48.2575 148.594 48.5984C147.997 48.9392 147.321 48.5794 147.085 47.7951C146.849 47.0105 147.142 46.0986 147.739 45.7578Z" fill="#D5D5D5"/>
<path d="M134.568 12.9915C134.822 12.8465 135.109 12.9996 135.209 13.3329C135.309 13.6665 135.185 14.0542 134.931 14.1992C134.677 14.3442 134.39 14.1911 134.29 13.8578C134.189 13.5242 134.314 13.1365 134.568 12.9915Z" fill="#D5D5D5"/>
<path d="M130.599 44.3768C130.761 44.2847 130.943 44.3819 131.007 44.5939C131.071 44.8062 130.992 45.0527 130.83 45.1449C130.669 45.2371 130.486 45.1398 130.422 44.9278C130.358 44.7158 130.438 44.469 130.599 44.3768Z" fill="#D5D5D5"/>
<path d="M147.497 36.1171C147.685 36.0093 147.899 36.1231 147.973 36.3708C148.048 36.6186 147.955 36.9068 147.767 37.0146C147.578 37.1224 147.365 37.0086 147.29 36.7609C147.216 36.5129 147.308 36.2246 147.497 36.1171Z" fill="#D5D5D5"/>
<path d="M144.518 3.03904C145.116 2.69823 145.791 3.05796 146.027 3.84226C146.263 4.62657 145.97 5.53879 145.373 5.8796C144.776 6.22041 144.101 5.86068 143.865 5.07637C143.629 4.29177 143.922 3.37985 144.518 3.03904Z" fill="#D5D5D5"/>
<path d="M154.85 6.05131C155.224 5.83842 155.646 6.06303 155.793 6.55337C155.941 7.04371 155.758 7.61362 155.385 7.82651C155.011 8.0394 154.589 7.8148 154.442 7.32446C154.294 6.83442 154.477 6.26451 154.85 6.05131Z" fill="#D5D5D5"/>
<path d="M124.513 31.8189C124.886 31.606 125.308 31.8306 125.456 32.3209C125.604 32.8113 125.421 33.3812 125.047 33.5944C124.674 33.8073 124.252 33.5827 124.105 33.0923C123.957 32.602 124.14 32.0318 124.513 31.8189Z" fill="#D5D5D5"/>
<path d="M147.208 19.5276C147.581 19.3147 148.003 19.5393 148.151 20.0297C148.298 20.52 148.115 21.0899 147.742 21.3031C147.369 21.516 146.947 21.2914 146.799 20.8011C146.652 20.3107 146.835 19.7405 147.208 19.5276Z" fill="#D5D5D5"/>
<path d="M140.984 35.5103C141.357 35.2974 141.779 35.522 141.927 36.0124C142.074 36.5027 141.891 37.0726 141.518 37.2858C141.145 37.4987 140.723 37.2741 140.575 36.7837C140.428 36.2934 140.611 35.7232 140.984 35.5103Z" fill="#D5D5D5"/>
<path d="M158.598 21.6382C158.971 21.4253 159.393 21.6499 159.541 22.1403C159.688 22.6306 159.505 23.2005 159.132 23.4137C158.759 23.6266 158.337 23.402 158.189 22.9117C158.042 22.4213 158.225 21.8511 158.598 21.6382Z" fill="#D5D5D5"/>
<path d="M164.728 9.74858C165.102 9.53569 165.524 9.76029 165.671 10.2506C165.819 10.741 165.636 11.3109 165.262 11.5241C164.889 11.737 164.467 11.5124 164.32 11.022C164.172 10.5317 164.355 9.96147 164.728 9.74858Z" fill="#D5D5D5"/>
<path d="M134.106 28.8638C134.479 28.6509 134.902 28.8755 135.049 29.3659C135.196 29.8562 135.014 30.4261 134.64 30.6393C134.267 30.8522 133.845 30.6276 133.697 30.1373C133.55 29.6469 133.733 29.0767 134.106 28.8638Z" fill="#D5D5D5"/>
<path d="M155.346 29.3267C155.72 29.1138 156.142 29.3384 156.289 29.8288C156.437 30.3191 156.254 30.889 155.881 31.1022C155.507 31.3154 155.085 31.0905 154.938 30.6002C154.79 30.1098 154.973 29.5399 155.346 29.3267Z" fill="#D5D5D5"/>
<path d="M138.462 53.5301C138.835 53.3172 139.257 53.5418 139.405 54.0321C139.552 54.5225 139.369 55.0924 138.996 55.3056C138.623 55.5188 138.201 55.2939 138.053 54.8035C137.906 54.3132 138.089 53.7433 138.462 53.5301Z" fill="#D5D5D5"/>
<path d="M162.909 34.2378C163.282 34.0249 163.704 34.2495 163.852 34.7399C163.999 35.2302 163.816 35.8001 163.443 36.0133C163.07 36.2262 162.648 36.0016 162.5 35.5113C162.353 35.0209 162.536 34.451 162.909 34.2378Z" fill="#D5D5D5"/>
<path d="M117.126 31.8875C117.499 31.6746 117.921 31.8992 118.069 32.3895C118.216 32.8799 118.033 33.4498 117.66 33.663C117.287 33.8759 116.865 33.6513 116.717 33.1609C116.57 32.6703 116.752 32.1004 117.126 31.8875Z" fill="#D5D5D5"/>
<path d="M124.233 19.2394C124.458 19.1109 124.713 19.2466 124.802 19.5421C124.891 19.8379 124.781 20.1817 124.555 20.3102C124.33 20.4387 124.076 20.303 123.987 20.0075C123.898 19.7117 124.008 19.3679 124.233 19.2394Z" fill="#D5D5D5"/>
<path d="M153.332 47.7613C153.705 47.5484 154.128 47.773 154.275 48.2633C154.422 48.7537 154.24 49.3236 153.866 49.5368C153.493 49.7497 153.071 49.5251 152.923 49.0347C152.776 48.5444 152.959 47.9745 153.332 47.7613Z" fill="#D5D5D5"/>
<path d="M112.773 22.0757C113.147 21.8628 113.569 22.0874 113.716 22.5778C113.864 23.0681 113.681 23.638 113.308 23.8512C112.934 24.0641 112.512 23.8395 112.365 23.3492C112.217 22.8588 112.4 22.2886 112.773 22.0757Z" fill="#D5D5D5"/>
<path d="M169.739 35.2083C170.112 34.9954 170.534 35.22 170.682 35.7103C170.829 36.2007 170.646 36.7706 170.273 36.9838C169.9 37.1967 169.478 36.9721 169.33 36.4817C169.183 35.9914 169.366 35.4212 169.739 35.2083Z" fill="#D5D5D5"/>
<path d="M124.834 47.6412C125.208 47.4283 125.63 47.6529 125.777 48.1432C125.925 48.6336 125.742 49.2035 125.368 49.4167C124.995 49.6295 124.573 49.4049 124.426 48.9146C124.278 48.4243 124.461 47.8544 124.834 47.6412Z" fill="#D5D5D5"/>
<path d="M156.465 1.25893C156.995 1.29676 157.38 1.90661 157.324 2.62095C157.268 3.33529 156.792 3.88389 156.261 3.84605C155.73 3.80822 155.346 3.19837 155.402 2.48403C155.458 1.76969 155.934 1.22109 156.465 1.25893Z" fill="#D5D5D5"/>
<path d="M179.158 1.47609C179.795 1.52143 180.256 2.25289 180.189 3.11016C180.122 3.96713 179.551 4.62532 178.914 4.57968C178.277 4.53434 177.815 3.80288 177.883 2.94561C177.95 2.08894 178.521 1.43074 179.158 1.47609Z" fill="#D5D5D5"/>
<path d="M168.405 3.03482C168.803 3.06304 169.091 3.52036 169.049 4.05604C169.007 4.59172 168.65 5.00279 168.252 4.97456C167.854 4.94634 167.566 4.48902 167.608 3.95334C167.65 3.41766 168.007 3.00659 168.405 3.03482Z" fill="#D5D5D5"/>
<path d="M196.328 0.0182165C196.726 0.0464419 197.014 0.503754 196.972 1.03944C196.93 1.57512 196.573 1.98649 196.175 1.95796C195.777 1.92973 195.489 1.47242 195.531 0.93674C195.573 0.401058 195.93 -0.0100089 196.328 0.0182165Z" fill="#D5D5D5"/>
<path d="M183.32 6.64715C183.718 6.67538 184.006 7.13269 183.964 7.66837C183.922 8.20405 183.565 8.61512 183.167 8.58689C182.769 8.55867 182.481 8.10136 182.523 7.56567C182.565 7.02999 182.922 6.61862 183.32 6.64715Z" fill="#D5D5D5"/>
<path d="M201.926 4.98016C202.324 5.00838 202.612 5.4657 202.57 6.00138C202.528 6.53706 202.172 6.94813 201.773 6.9199C201.376 6.89168 201.087 6.43436 201.129 5.89868C201.171 5.363 201.528 4.95163 201.926 4.98016Z" fill="#D5D5D5"/>
<path d="M193.947 8.48016C194.345 8.50838 194.634 8.96629 194.592 9.50258C194.55 10.0389 194.192 10.4505 193.794 10.422C193.396 10.3938 193.107 9.93587 193.149 9.39958C193.191 8.8636 193.548 8.45163 193.947 8.48016Z" fill="#D5D5D5"/>
<path d="M180.101 60.2755C180.631 60.3134 181.016 60.9232 180.96 61.6376C180.904 62.3519 180.428 62.9005 179.897 62.8627C179.366 62.8248 178.982 62.215 179.038 61.5006C179.094 60.786 179.57 60.2377 180.101 60.2755Z" fill="#D5D5D5"/>
<path d="M174.38 41.7583C174.789 41.7874 175.086 42.2579 175.043 42.8089C174.999 43.3599 174.632 43.783 174.223 43.7539C173.813 43.7248 173.516 43.2542 173.56 42.7032C173.603 42.1522 173.97 41.7289 174.38 41.7583Z" fill="#D5D5D5"/>
<path d="M194.527 28.6783C194.911 28.7057 195.189 29.147 195.148 29.6638C195.108 30.1806 194.763 30.5775 194.379 30.5502C193.995 30.5229 193.717 30.0815 193.758 29.5647C193.798 29.048 194.142 28.651 194.527 28.6783Z" fill="#D5D5D5"/>
<path d="M202.793 60.4937C203.429 60.539 203.891 61.2705 203.823 62.1277C203.756 62.9847 203.185 63.6429 202.548 63.5973C201.912 63.5516 201.45 62.8205 201.518 61.9632C201.585 61.1062 202.156 60.4483 202.793 60.4937Z" fill="#D5D5D5"/>
<path d="M202.735 22.7141C203.005 22.7333 203.201 23.0444 203.173 23.4089C203.144 23.7734 202.901 24.053 202.631 24.0338C202.36 24.0146 202.164 23.7035 202.193 23.339C202.221 22.9744 202.464 22.6946 202.735 22.7141Z" fill="#D5D5D5"/>
<path d="M188.391 48.9979C188.563 49.0102 188.688 49.2081 188.67 49.4399C188.651 49.6717 188.497 49.8498 188.325 49.8375C188.153 49.8252 188.028 49.6273 188.046 49.3955C188.064 49.1637 188.219 48.9856 188.391 48.9979Z" fill="#D5D5D5"/>
<path d="M205.934 51.5488C206.135 51.5632 206.281 51.7944 206.259 52.065C206.238 52.3358 206.058 52.5436 205.856 52.5295C205.655 52.5151 205.509 52.2839 205.531 52.0133C205.552 51.7425 205.732 51.5344 205.934 51.5488Z" fill="#D5D5D5"/>
<path d="M214.83 19.5679C215.467 19.6132 215.928 20.3447 215.861 21.202C215.793 22.0589 215.223 22.7171 214.586 22.6715C213.949 22.6261 213.487 21.8947 213.555 21.0374C213.622 20.1801 214.193 19.5225 214.83 19.5679Z" fill="#D5D5D5"/>
<path d="M222.756 28.4899C223.154 28.5181 223.443 28.9755 223.401 29.5111C223.359 30.0468 223.002 30.4579 222.604 30.4297C222.206 30.4011 221.918 29.9441 221.96 29.4084C222.002 28.8728 222.359 28.4614 222.756 28.4899Z" fill="#D5D5D5"/>
<path d="M187.467 33.9001C187.865 33.9283 188.153 34.3856 188.111 34.9213C188.069 35.457 187.713 35.868 187.314 35.8398C186.917 35.8116 186.628 35.3543 186.67 34.8186C186.712 34.2829 187.069 33.8716 187.467 33.9001Z" fill="#D5D5D5"/>
<path d="M211.44 36.2292C211.838 36.2577 212.127 36.7147 212.085 37.2504C212.043 37.7861 211.686 38.1974 211.288 38.1689C210.89 38.1404 210.601 37.6834 210.643 37.1477C210.685 36.612 211.042 36.2009 211.44 36.2292Z" fill="#D5D5D5"/>
<path d="M200.489 47.1042C200.887 47.1324 201.175 47.5897 201.133 48.1254C201.091 48.6611 200.735 49.0724 200.336 49.0439C199.939 49.0157 199.65 48.5584 199.692 48.0227C199.734 47.487 200.091 47.0759 200.489 47.1042Z" fill="#D5D5D5"/>
<path d="M220.597 44.9586C220.995 44.9869 221.284 45.4442 221.242 45.9799C221.2 46.5155 220.843 46.9266 220.445 46.8984C220.047 46.8702 219.758 46.4129 219.8 45.8772C219.842 45.3415 220.199 44.9304 220.597 44.9586Z" fill="#D5D5D5"/>
<path d="M230.05 37.7626C230.448 37.7909 230.737 38.2482 230.695 38.7838C230.653 39.3195 230.296 39.7306 229.898 39.7024C229.5 39.6742 229.211 39.2168 229.253 38.6812C229.295 38.1455 229.652 37.7341 230.05 37.7626Z" fill="#D5D5D5"/>
<path d="M196.823 36.9284C197.221 36.9569 197.509 37.4139 197.467 37.9496C197.425 38.4853 197.068 38.8967 196.67 38.8681C196.272 38.8396 195.984 38.3826 196.026 37.8469C196.068 37.3112 196.425 36.9001 196.823 36.9284Z" fill="#D5D5D5"/>
<path d="M213.182 7.22525C213.58 7.25347 213.868 7.71079 213.826 8.24647C213.784 8.78215 213.428 9.19352 213.029 9.16499C212.632 9.13677 212.343 8.67945 212.385 8.14377C212.427 7.60809 212.784 7.19702 213.182 7.22525Z" fill="#D5D5D5"/>
<path d="M233.078 25.1923C233.476 25.2205 233.764 25.6778 233.722 26.2135C233.68 26.7492 233.324 27.1606 232.926 27.132C232.528 27.1038 232.239 26.6465 232.281 26.1108C232.324 25.5751 232.68 25.1641 233.078 25.1923Z" fill="#D5D5D5"/>
<path d="M215.107 50.0348C215.504 50.0631 215.793 50.5204 215.751 51.0561C215.709 51.5917 215.352 52.0031 214.954 51.9746C214.556 51.9464 214.268 51.4891 214.31 50.9534C214.352 50.4177 214.709 50.0063 215.107 50.0348Z" fill="#D5D5D5"/>
<path d="M192.042 62.0495C192.44 62.0777 192.728 62.535 192.686 63.0707C192.644 63.6064 192.287 64.0175 191.889 63.9892C191.491 63.961 191.203 63.5037 191.245 62.968C191.287 62.4323 191.643 62.021 192.042 62.0495Z" fill="#D5D5D5"/>
<path d="M219.965 59.0358C220.363 59.064 220.651 59.5214 220.609 60.057C220.567 60.5927 220.211 61.0041 219.812 60.9756C219.415 60.9473 219.126 60.49 219.168 59.9544C219.21 59.4187 219.567 59.0073 219.965 59.0358Z" fill="#D5D5D5"/>
<path d="M181.029 29.5534C181.427 29.5816 181.715 30.0389 181.673 30.5746C181.631 31.1103 181.275 31.5213 180.877 31.4931C180.479 31.4649 180.19 31.0076 180.232 30.4719C180.274 29.9362 180.631 29.5251 181.029 29.5534Z" fill="#D5D5D5"/>
<path d="M191.594 22.2491C191.834 22.2662 192.008 22.5419 191.983 22.865C191.957 23.1881 191.742 23.4361 191.502 23.419C191.262 23.4019 191.088 23.1262 191.113 22.8031C191.139 22.48 191.354 22.232 191.594 22.2491Z" fill="#D5D5D5"/>
<path d="M206.955 65.6618C207.353 65.69 207.642 66.1473 207.6 66.683C207.558 67.2187 207.201 67.6297 206.803 67.6015C206.405 67.5733 206.117 67.116 206.159 66.5803C206.201 66.0446 206.558 65.6335 206.955 65.6618Z" fill="#D5D5D5"/>
<path d="M180.657 17.9965C181.055 18.0247 181.343 18.482 181.301 19.0177C181.259 19.5534 180.902 19.9648 180.504 19.9362C180.106 19.9077 179.818 19.4507 179.86 18.915C179.902 18.3796 180.259 17.9683 180.657 17.9965Z" fill="#D5D5D5"/>
<path d="M225.559 63.9967C225.957 64.025 226.246 64.4823 226.204 65.018C226.162 65.5536 225.805 65.965 225.407 65.9365C225.009 65.9082 224.72 65.4509 224.762 64.9153C224.805 64.3799 225.162 63.9685 225.559 63.9967Z" fill="#D5D5D5"/>
<path d="M182.253 48.5358C182.65 48.5643 182.939 49.0213 182.897 49.557C182.855 50.0927 182.498 50.5041 182.1 50.4755C181.702 50.447 181.414 49.99 181.456 49.4543C181.498 48.9186 181.855 48.5076 182.253 48.5358Z" fill="#D5D5D5"/>
<path d="M220.779 9.72963C221.31 9.76746 221.695 10.3773 221.639 11.0917C221.583 11.806 221.107 12.3546 220.576 12.3168C220.045 12.2789 219.661 11.6691 219.717 10.9547C219.773 10.2404 220.249 9.69179 220.779 9.72963Z" fill="#D5D5D5"/>
<path d="M243.475 9.94777C244.112 9.99311 244.574 10.7246 244.506 11.5818C244.439 12.4388 243.868 13.097 243.231 13.0514C242.594 13.006 242.133 12.2746 242.2 11.4173C242.268 10.56 242.838 9.90243 243.475 9.94777Z" fill="#D5D5D5"/>
<path d="M246.614 1.00388C246.815 1.01829 246.961 1.2495 246.939 1.52004C246.918 1.79089 246.738 1.99867 246.536 1.98426C246.335 1.96985 246.189 1.73864 246.211 1.46809C246.232 1.19755 246.412 0.989467 246.614 1.00388Z" fill="#D5D5D5"/>
<path d="M255.787 -0.511053C256.184 -0.482827 256.473 -0.0255156 256.431 0.510167C256.389 1.04585 256.032 1.45692 255.634 1.42869C255.236 1.40047 254.948 0.943158 254.99 0.407475C255.032 -0.128207 255.389 -0.539579 255.787 -0.511053Z" fill="#D5D5D5"/>
<path d="M232.722 11.5045C233.12 11.5328 233.408 11.9901 233.366 12.5258C233.324 13.0614 232.967 13.4728 232.569 13.4443C232.171 13.4161 231.883 12.9587 231.925 12.4231C231.967 11.8877 232.324 11.4763 232.722 11.5045Z" fill="#D5D5D5"/>
<path d="M260.645 8.4909C261.043 8.51913 261.331 8.97644 261.289 9.51212C261.247 10.0478 260.891 10.4589 260.493 10.4306C260.095 10.4024 259.806 9.94511 259.848 9.40943C259.89 8.87375 260.247 8.46237 260.645 8.4909Z" fill="#D5D5D5"/>
<path d="M247.637 15.1149C248.035 15.1431 248.323 15.6004 248.281 16.1361C248.239 16.6718 247.882 17.0832 247.484 17.0546C247.086 17.0264 246.798 16.5691 246.84 16.0334C246.882 15.498 247.239 15.0867 247.637 15.1149Z" fill="#D5D5D5"/>
<path d="M266.241 13.4508C266.639 13.4791 266.927 13.9364 266.885 14.4721C266.843 15.0077 266.486 15.4188 266.088 15.3906C265.69 15.3624 265.402 14.905 265.444 14.3694C265.486 13.834 265.843 13.4226 266.241 13.4508Z" fill="#D5D5D5"/>
<path d="M258.262 16.9501C258.66 16.9787 258.949 17.4363 258.907 17.9725C258.865 18.5088 258.508 18.9205 258.109 18.892C257.711 18.8634 257.422 18.4058 257.464 17.8696C257.506 17.3333 257.863 16.9216 258.262 16.9501Z" fill="#D5D5D5"/>
<path d="M244.416 68.7453C244.947 68.7831 245.332 69.3929 245.276 70.1073C245.219 70.8216 244.743 71.3702 244.213 71.3324C243.682 71.2945 243.297 70.6847 243.354 69.9704C243.409 69.256 243.885 68.7074 244.416 68.7453Z" fill="#D5D5D5"/>
<path d="M238.695 50.2272C239.105 50.2564 239.402 50.7269 239.358 51.2779C239.315 51.8289 238.948 52.2523 238.539 52.2228C238.129 52.1937 237.832 51.7232 237.876 51.1722C237.919 50.6212 238.286 50.1981 238.695 50.2272Z" fill="#D5D5D5"/>
<path d="M258.843 37.1481C259.227 37.1754 259.505 37.6168 259.464 38.1336C259.424 38.6506 259.079 39.0473 258.695 39.0199C258.311 38.9926 258.033 38.5512 258.074 38.0345C258.114 37.5174 258.459 37.1207 258.843 37.1481Z" fill="#D5D5D5"/>
<path d="M267.11 68.9615C267.747 69.0068 268.208 69.7383 268.141 70.5952C268.073 71.4522 267.503 72.1104 266.866 72.0651C266.229 72.0197 265.767 71.2883 265.835 70.431C265.902 69.574 266.473 68.9158 267.11 68.9615Z" fill="#D5D5D5"/>
<path d="M267.05 31.1818C267.321 31.2011 267.517 31.5121 267.489 31.8767C267.46 32.2412 267.217 32.5207 266.947 32.5015C266.676 32.4823 266.48 32.1712 266.508 31.807C266.537 31.4425 266.779 31.1626 267.05 31.1818Z" fill="#D5D5D5"/>
<path d="M252.708 57.4686C252.88 57.4809 253.005 57.6788 252.987 57.9106C252.969 58.1424 252.814 58.3205 252.642 58.3082C252.47 58.2959 252.345 58.098 252.363 57.8662C252.381 57.6344 252.536 57.4563 252.708 57.4686Z" fill="#D5D5D5"/>
<path d="M270.248 60.0185C270.449 60.0329 270.595 60.2639 270.574 60.5347C270.553 60.8055 270.372 61.0133 270.171 60.9992C269.97 60.9848 269.824 60.7536 269.845 60.483C269.866 60.2119 270.047 60.0041 270.248 60.0185Z" fill="#D5D5D5"/>
<path d="M279.147 28.0386C279.784 28.0839 280.245 28.8154 280.178 29.6727C280.11 30.5296 279.539 31.1878 278.903 31.1425C278.266 31.0971 277.804 30.3657 277.872 29.5084C277.939 28.6514 278.51 27.9932 279.147 28.0386Z" fill="#D5D5D5"/>
<path d="M287.071 36.9577C287.469 36.9859 287.757 37.4432 287.715 37.9789C287.673 38.5146 287.317 38.9259 286.918 38.8974C286.521 38.8692 286.232 38.4119 286.274 37.8762C286.316 37.3405 286.673 36.9294 287.071 36.9577Z" fill="#D5D5D5"/>
<path d="M251.784 42.3698C252.182 42.3983 252.471 42.8553 252.429 43.391C252.387 43.9267 252.03 44.338 251.632 44.3095C251.234 44.2813 250.945 43.824 250.987 43.2883C251.03 42.7526 251.386 42.3416 251.784 42.3698Z" fill="#D5D5D5"/>
<path d="M275.756 44.6999C276.154 44.7281 276.442 45.1854 276.4 45.7211C276.358 46.2568 276.001 46.6682 275.604 46.6396C275.206 46.6114 274.917 46.1541 274.959 45.6184C275.001 45.0827 275.358 44.6714 275.756 44.6999Z" fill="#D5D5D5"/>
<path d="M264.805 55.5739C265.203 55.6021 265.491 56.0594 265.449 56.5951C265.407 57.1308 265.05 57.5419 264.652 57.5137C264.254 57.4854 263.966 57.0281 264.008 56.4924C264.05 55.9568 264.407 55.5454 264.805 55.5739Z" fill="#D5D5D5"/>
<path d="M284.914 53.4286C285.312 53.4568 285.601 53.9142 285.559 54.4498C285.516 54.9855 285.16 55.3969 284.762 55.3684C284.364 55.3401 284.075 54.8828 284.117 54.3471C284.159 53.8115 284.516 53.4004 284.914 53.4286Z" fill="#D5D5D5"/>
<path d="M294.367 46.2328C294.765 46.2613 295.054 46.7184 295.012 47.254C294.97 47.7897 294.613 48.2011 294.215 48.1726C293.817 48.144 293.528 47.687 293.57 47.1513C293.613 46.616 293.969 46.2046 294.367 46.2328Z" fill="#D5D5D5"/>
<path d="M261.14 45.4001C261.538 45.4283 261.826 45.8856 261.784 46.4213C261.742 46.957 261.386 47.368 260.987 47.3398C260.59 47.3116 260.301 46.8543 260.343 46.3186C260.385 45.7829 260.742 45.3718 261.14 45.4001Z" fill="#D5D5D5"/>
<path d="M277.497 15.697C277.895 15.7252 278.183 16.1825 278.141 16.7182C278.099 17.2539 277.742 17.6649 277.344 17.6367C276.946 17.6085 276.658 17.1512 276.7 16.6155C276.742 16.0798 277.099 15.6684 277.497 15.697Z" fill="#D5D5D5"/>
<path d="M297.395 33.6618C297.793 33.69 298.082 34.1473 298.04 34.683C297.998 35.2187 297.641 35.6301 297.243 35.6015C296.845 35.5733 296.556 35.116 296.598 34.5803C296.64 34.0446 296.997 33.6333 297.395 33.6618Z" fill="#D5D5D5"/>
<path d="M279.424 58.5026C279.821 58.5308 280.11 58.9881 280.068 59.5238C280.026 60.0595 279.669 60.4706 279.271 60.4423C278.873 60.4141 278.585 59.9568 278.627 59.4211C278.669 58.8854 279.026 58.4744 279.424 58.5026Z" fill="#D5D5D5"/>
<path d="M256.359 70.5194C256.757 70.548 257.045 71.005 257.003 71.5407C256.961 72.0763 256.605 72.4877 256.206 72.4592C255.809 72.4307 255.52 71.9736 255.562 71.438C255.604 70.9023 255.961 70.4912 256.359 70.5194Z" fill="#D5D5D5"/>
<path d="M284.282 67.5028C284.68 67.5311 284.968 67.9884 284.926 68.5241C284.884 69.0597 284.528 69.4711 284.129 69.4426C283.732 69.4144 283.443 68.9571 283.485 68.4214C283.527 67.8857 283.884 67.4746 284.282 67.5028Z" fill="#D5D5D5"/>
<path d="M245.346 38.0219C245.744 38.0501 246.033 38.5074 245.991 39.0431C245.949 39.5788 245.592 39.9902 245.194 39.9616C244.796 39.9334 244.507 39.4761 244.549 38.9404C244.592 38.4047 244.949 37.9934 245.346 38.0219Z" fill="#D5D5D5"/>
<path d="M255.911 30.7189C256.151 30.736 256.325 31.0116 256.3 31.3347C256.274 31.6578 256.059 31.9058 255.819 31.8887C255.579 31.8716 255.405 31.5959 255.43 31.2729C255.456 30.9498 255.671 30.7017 255.911 30.7189Z" fill="#D5D5D5"/>
<path d="M271.273 74.1325C271.67 74.161 271.959 74.618 271.917 75.1537C271.875 75.6894 271.518 76.1008 271.12 76.0722C270.722 76.0437 270.434 75.5867 270.476 75.051C270.518 74.5153 270.874 74.1042 271.273 74.1325Z" fill="#D5D5D5"/>
<path d="M244.974 26.4655C245.372 26.4937 245.66 26.951 245.618 27.4867C245.576 28.0224 245.22 28.4338 244.821 28.4052C244.424 28.377 244.135 27.9197 244.177 27.384C244.219 26.8483 244.576 26.4373 244.974 26.4655Z" fill="#D5D5D5"/>
<path d="M289.876 72.4665C290.274 72.4947 290.563 72.952 290.52 73.4877C290.478 74.0234 290.122 74.4347 289.724 74.4062C289.326 74.378 289.037 73.9207 289.079 73.385C289.121 72.8493 289.478 72.4382 289.876 72.4665Z" fill="#D5D5D5"/>
<path d="M246.57 57.0055C246.968 57.0338 247.256 57.4911 247.214 58.0268C247.172 58.5625 246.815 58.9735 246.417 58.9453C246.019 58.9171 245.731 58.4598 245.773 57.9241C245.815 57.3884 246.172 56.977 246.57 57.0055Z" fill="#D5D5D5"/>
<path d="M159.496 97.8855C159.905 97.9146 160.202 98.3851 160.159 98.9361C160.116 99.4871 159.748 99.9102 159.339 99.881C158.929 99.8519 158.633 99.3814 158.676 98.8304C158.719 98.2794 159.087 97.8563 159.496 97.8855Z" fill="#D5D5D5"/>
<path d="M179.644 84.8072C180.028 84.8346 180.307 85.276 180.266 85.7927C180.226 86.3095 179.881 86.7065 179.497 86.6791C179.113 86.6518 178.835 86.2104 178.875 85.6936C178.916 85.1766 179.26 84.7799 179.644 84.8072Z" fill="#D5D5D5"/>
<path d="M187.852 78.84C188.123 78.8593 188.319 79.1703 188.29 79.5346C188.262 79.8991 188.019 80.1786 187.748 80.1594C187.478 80.1402 187.281 79.8291 187.31 79.4646C187.339 79.1007 187.581 78.8208 187.852 78.84Z" fill="#D5D5D5"/>
<path d="M173.509 105.128C173.682 105.14 173.806 105.338 173.788 105.57C173.77 105.802 173.616 105.98 173.443 105.967C173.271 105.955 173.146 105.757 173.165 105.525C173.183 105.294 173.337 105.115 173.509 105.128Z" fill="#D5D5D5"/>
<path d="M191.05 107.676C191.251 107.69 191.397 107.922 191.375 108.192C191.354 108.463 191.174 108.671 190.973 108.657C190.771 108.642 190.625 108.411 190.647 108.141C190.668 107.869 190.848 107.662 191.05 107.676Z" fill="#D5D5D5"/>
<path d="M199.949 75.698C200.585 75.7434 201.047 76.4748 200.979 77.3321C200.912 78.189 200.341 78.8472 199.704 78.8016C199.068 78.7563 198.606 78.0248 198.674 77.1675C198.741 76.3106 199.312 75.6527 199.949 75.698Z" fill="#D5D5D5"/>
<path d="M207.873 84.6171C208.271 84.6453 208.559 85.1026 208.517 85.6383C208.475 86.174 208.118 86.5851 207.72 86.5568C207.322 86.5283 207.034 86.0713 207.076 85.5356C207.118 85.0002 207.475 84.5889 207.873 84.6171Z" fill="#D5D5D5"/>
<path d="M172.583 90.029C172.981 90.0572 173.27 90.5145 173.228 91.0502C173.185 91.5859 172.829 91.9969 172.431 91.9687C172.033 91.9405 171.744 91.4832 171.786 90.9475C171.829 90.4118 172.185 90.0007 172.583 90.029Z" fill="#D5D5D5"/>
<path d="M196.559 92.3578C196.957 92.3861 197.245 92.8434 197.203 93.3791C197.161 93.9147 196.805 94.3261 196.406 94.2976C196.009 94.2694 195.72 93.8121 195.762 93.2764C195.804 92.7407 196.161 92.3293 196.559 92.3578Z" fill="#D5D5D5"/>
<path d="M185.606 103.233C186.004 103.262 186.293 103.719 186.251 104.255C186.209 104.79 185.852 105.202 185.454 105.173C185.056 105.145 184.768 104.688 184.81 104.152C184.852 103.616 185.209 103.205 185.606 103.233Z" fill="#D5D5D5"/>
<path d="M205.716 101.085C206.114 101.113 206.402 101.57 206.36 102.106C206.318 102.642 205.962 103.053 205.563 103.024C205.166 102.996 204.877 102.539 204.919 102.003C204.961 101.467 205.318 101.056 205.716 101.085Z" fill="#D5D5D5"/>
<path d="M215.167 93.8891C215.565 93.9173 215.853 94.3746 215.811 94.9103C215.769 95.446 215.412 95.857 215.014 95.8288C214.616 95.8006 214.328 95.3433 214.37 94.8076C214.412 94.2722 214.769 93.8608 215.167 93.8891Z" fill="#D5D5D5"/>
<path d="M181.941 93.057C182.339 93.0853 182.628 93.5426 182.586 94.0783C182.544 94.6139 182.187 95.0253 181.789 94.9968C181.391 94.9686 181.103 94.5112 181.145 93.9756C181.187 93.4399 181.544 93.0288 181.941 93.057Z" fill="#D5D5D5"/>
<path d="M218.196 81.322C218.594 81.3502 218.882 81.8075 218.84 82.3432C218.798 82.8789 218.441 83.2902 218.043 83.2617C217.645 83.2332 217.357 82.7762 217.399 82.2405C217.441 81.7048 217.798 81.2934 218.196 81.322Z" fill="#D5D5D5"/>
<path d="M200.224 106.162C200.622 106.19 200.911 106.647 200.869 107.183C200.826 107.719 200.47 108.13 200.072 108.102C199.674 108.073 199.385 107.616 199.427 107.08C199.47 106.545 199.826 106.134 200.224 106.162Z" fill="#D5D5D5"/>
<path d="M166.147 85.6801C166.545 85.7083 166.833 86.1656 166.791 86.7013C166.749 87.237 166.392 87.6481 165.994 87.6199C165.596 87.5916 165.308 87.1343 165.35 86.5986C165.392 86.063 165.749 85.6516 166.147 85.6801Z" fill="#D5D5D5"/>
<path d="M176.712 78.3771C176.951 78.3942 177.126 78.6698 177.1 78.9929C177.075 79.316 176.86 79.564 176.619 79.5469C176.379 79.5298 176.205 79.2541 176.231 78.9311C176.256 78.608 176.472 78.3599 176.712 78.3771Z" fill="#D5D5D5"/>
<path d="M165.776 74.1247C166.173 74.1529 166.462 74.6102 166.42 75.1459C166.378 75.6816 166.021 76.0929 165.623 76.0644C165.225 76.0362 164.937 75.5789 164.979 75.0432C165.021 74.5075 165.377 74.0964 165.776 74.1247Z" fill="#D5D5D5"/>
<path d="M167.37 104.664C167.768 104.692 168.057 105.149 168.015 105.685C167.972 106.221 167.616 106.632 167.218 106.604C166.82 106.575 166.531 106.118 166.573 105.582C166.616 105.047 166.972 104.635 167.37 104.664Z" fill="#D5D5D5"/>
<path d="M228.592 66.074C229.228 66.1193 229.69 66.8508 229.622 67.7081C229.555 68.565 228.984 69.2232 228.347 69.1779C227.711 69.1325 227.249 68.4011 227.317 67.5438C227.384 66.6865 227.955 66.0286 228.592 66.074Z" fill="#D5D5D5"/>
<path d="M217.838 67.6335C218.236 67.6617 218.525 68.119 218.482 68.6547C218.44 69.1904 218.084 69.6017 217.686 69.5732C217.288 69.545 216.999 69.0877 217.041 68.552C217.084 68.0163 217.44 67.6052 217.838 67.6335Z" fill="#D5D5D5"/>
<path d="M232.756 71.244C233.154 71.2723 233.442 71.7296 233.4 72.2653C233.358 72.8009 233.001 73.2123 232.603 73.1838C232.205 73.1556 231.917 72.6983 231.959 72.1626C232.001 71.6269 232.358 71.2158 232.756 71.244Z" fill="#D5D5D5"/>
<path d="M223.813 106.356C224.222 106.385 224.519 106.856 224.476 107.407C224.433 107.958 224.065 108.381 223.656 108.352C223.246 108.323 222.95 107.852 222.993 107.301C223.036 106.75 223.403 106.327 223.813 106.356Z" fill="#D5D5D5"/>
<path d="M236.9 98.4977C237.298 98.526 237.587 98.9833 237.545 99.519C237.503 100.055 237.146 100.466 236.748 100.437C236.35 100.409 236.061 99.9519 236.103 99.4163C236.146 98.8806 236.502 98.4692 236.9 98.4977Z" fill="#D5D5D5"/>
<path d="M230.464 94.151C230.862 94.1793 231.15 94.6366 231.108 95.1722C231.066 95.7079 230.709 96.1193 230.311 96.0908C229.913 96.0625 229.625 95.6052 229.667 95.0696C229.709 94.5342 230.066 94.1228 230.464 94.151Z" fill="#D5D5D5"/>
<path d="M230.091 82.5925C230.489 82.6207 230.778 83.078 230.736 83.6137C230.694 84.1494 230.337 84.5607 229.939 84.5322C229.541 84.504 229.252 84.0467 229.294 83.511C229.337 82.9753 229.694 82.5639 230.091 82.5925Z" fill="#D5D5D5"/>
<path d="M300.269 104.866H-0.00146484V122.582H300.269V104.866Z" fill="#F77737"/>
<g opacity="0.66">
<path d="M180.161 122.582H35.4305L120.107 104.866H264.837L180.161 122.582Z" fill="#FFE697"/>
</g>
<path opacity="0.66" d="M300.269 117.426V118.876C276.33 118.933 249.236 118.964 220.538 118.964C123.285 118.964 44.4449 118.6 44.4449 118.151C44.4449 117.702 123.284 117.338 220.538 117.338C249.236 117.338 276.33 117.37 300.269 117.426Z" fill="#FFE697"/>
<path d="M284.767 90.417L286.895 92.5342L289.846 91.9808L288.491 94.6595L289.929 97.295L286.962 96.8335L284.9 99.0155L284.423 96.0516L281.71 94.7646L284.381 93.3945L284.767 90.417Z" fill="#D5D5D5"/>
<path d="M289.55 13.4795L291.827 15.4367L294.729 14.6704L293.572 17.4404L295.198 19.9644L292.206 19.7197L290.308 22.0459L289.616 19.1243L286.817 18.0379L289.382 16.4771L289.55 13.4795Z" fill="#D5D5D5"/>
<path d="M279.122 76.6504L281.399 78.6073L284.302 77.841L283.144 80.611L284.77 83.135L281.778 82.8903L279.88 85.2165L279.188 82.2949L276.389 81.2085L278.954 79.648L279.122 76.6504Z" fill="#D5D5D5"/>
<path d="M264.593 92.9854L266.37 94.1165L268.309 93.2946L267.782 95.3338L269.163 96.924L267.061 97.0528L265.976 98.8577L265.203 96.8982L263.151 96.4234L264.776 95.0833L264.593 92.9854Z" fill="#D5D5D5"/>
<path d="M297.502 61.8605L296.348 63.0316L296.659 64.6461L295.188 63.9108L293.749 64.7053L293.994 63.0796L292.794 61.9563L294.415 61.687L295.113 60.1982L295.87 61.6572L297.502 61.8605Z" fill="#D5D5D5"/>
<path d="M283.719 41.4531L283.526 43.7733L285.329 45.247L283.063 45.7812L282.218 47.9504L281.01 45.9605L278.686 45.8278L280.205 44.0637L279.613 41.8123L281.76 42.7119L283.719 41.4531Z" fill="#D5D5D5"/>
<path d="M18.3318 90.4167L16.2032 92.534L13.2521 91.9806L14.6078 94.6593L13.1696 97.2947L16.1362 96.8332L18.1982 99.0153L18.6759 96.0513L21.3886 94.7644L18.7173 93.3942L18.3318 90.4167Z" fill="#D5D5D5"/>
<path d="M13.5493 13.479L11.2724 15.4362L8.36967 14.6699L9.52691 17.4399L7.90125 19.9639L10.8934 19.7192L12.7914 22.0454L13.4833 19.1238L16.2821 18.0374L13.7175 16.4766L13.5493 13.479Z" fill="#D5D5D5"/>
<path d="M23.9748 76.6501L21.6979 78.607L18.7948 77.8407L19.9524 80.6107L18.3264 83.1348L21.3186 82.8901L23.2166 85.2163L23.9084 82.2946L26.7076 81.2082L24.143 79.6477L23.9748 76.6501Z" fill="#D5D5D5"/>
<path d="M38.5054 92.9851L36.7287 94.1162L34.7895 93.2944L35.3165 95.3335L33.9349 96.9238L36.0374 97.0526L37.1229 98.8575L37.8952 96.8979L39.9476 96.4232L38.3225 95.0831L38.5054 92.9851Z" fill="#D5D5D5"/>
<path d="M5.59717 61.8603L6.75081 63.0313L6.44003 64.6459L7.91045 63.9105L9.34965 64.705L9.10463 63.0794L10.3051 61.9561L8.68335 61.6867L7.98582 60.198L7.22854 61.657L5.59717 61.8603Z" fill="#D5D5D5"/>
<path d="M19.3791 41.4529L19.5713 43.7731L17.769 45.2468L20.0349 45.781L20.8795 47.9501L22.0878 45.9602L24.4119 45.8275L22.8929 44.0634L23.4847 41.812L21.3375 42.7116L19.3791 41.4529Z" fill="#D5D5D5"/>
<path opacity="0.66" d="M1.26312 108.492V109.943C21.5863 109.999 44.5879 110.031 68.9519 110.031C151.516 110.031 218.448 109.667 218.448 109.218C218.448 108.768 151.516 108.405 68.9519 108.405C44.5879 108.404 21.5863 108.436 1.26312 108.492Z" fill="#FFE697"/>
<path opacity="0.66" d="M1.26306 113.324V114.775C6.76131 114.831 12.9841 114.863 19.5756 114.863C41.9128 114.863 60.0203 114.499 60.0203 114.049C60.0203 113.6 41.9125 113.236 19.5756 113.236C12.9841 113.236 6.76131 113.268 1.26306 113.324Z" fill="#FFE697"/>
<path opacity="0.66" d="M300.272 107.466V108.396C290.876 108.432 280.242 108.453 268.977 108.453C230.805 108.453 199.86 108.219 199.86 107.931C199.86 107.643 230.805 107.409 268.977 107.409C280.242 107.409 290.876 107.43 300.272 107.466Z" fill="#FFE697"/>
<path d="M149.87 110.744C210.587 110.744 259.808 109.92 259.808 108.904C259.808 107.887 210.587 107.063 149.87 107.063C89.1534 107.063 39.9328 107.887 39.9328 108.904C39.9328 109.92 89.1534 110.744 149.87 110.744Z" fill="#7F4328"/>
<path d="M161.701 41.802C166.195 41.802 169.839 38.1588 169.839 33.6647C169.839 29.1705 166.195 25.5273 161.701 25.5273C157.207 25.5273 153.564 29.1705 153.564 33.6647C153.564 38.1588 157.207 41.802 161.701 41.802Z" fill="#FFCB4A"/>
<path d="M168.654 33.072C169.043 33.0327 169.427 33.0113 169.806 33.0068C169.631 30.8332 168.604 28.9045 167.057 27.5488C165.221 31.4577 161.057 35.009 156.211 36.3903C155.525 36.5858 154.854 36.7269 154.2 36.8224C154.948 38.5961 156.309 40.0431 158.015 40.9124C159.426 36.8506 163.655 33.5774 168.654 33.072Z" fill="#FFE394"/>
<path d="M161.702 27.2842C158.179 27.2842 155.322 30.1404 155.322 33.6637C155.322 37.1871 158.179 40.0433 161.702 40.0433C165.225 40.0433 168.081 37.1871 168.081 33.6637C168.081 30.1404 165.225 27.2842 161.702 27.2842ZM161.702 39.9048C158.353 39.9048 155.638 37.1105 155.638 33.6634C155.638 30.2166 158.353 27.4223 161.702 27.4223C165.051 27.4223 167.765 30.2166 167.765 33.6634C167.766 37.1105 165.051 39.9048 161.702 39.9048Z" fill="#EFAB33"/>
<path d="M163.922 35.2064C163.932 35.2842 163.932 35.3527 163.932 35.4211C163.932 36.6507 163.064 37.1681 161.97 37.3437C161.97 37.4116 161.97 37.4801 162.009 37.5482V37.714C161.98 37.714 161.97 37.7239 161.97 37.7335C161.961 37.7434 161.961 37.7434 161.97 37.7536C161.941 37.7536 161.912 37.7824 161.882 37.7824H161.609C161.502 37.7824 161.434 37.7629 161.395 37.714C161.356 37.714 161.326 37.6749 161.287 37.6362C161.277 37.6167 161.277 37.5777 161.277 37.5389C161.277 37.49 161.277 37.441 161.287 37.3726V37.3437C160.77 37.3437 160.311 37.1681 159.901 36.8165C159.618 36.6117 159.472 36.4751 159.472 36.3186C159.472 36.2213 159.531 36.1138 159.638 35.9772C159.658 35.9577 159.687 35.919 159.726 35.919C159.755 35.919 159.794 35.9283 159.843 35.9772C160.155 36.3288 160.741 36.6312 161.327 36.6603V36.0457C161.327 35.7331 161.356 35.4499 161.356 35.128V34.1137C160.995 33.8891 160.673 33.7039 160.448 33.557C159.853 33.1472 159.541 32.5815 159.541 32.0055C159.541 31.5083 159.765 31.0104 160.224 30.5711C160.507 30.3664 160.887 30.2 161.229 30.1222V30.0048C161.229 29.888 161.229 29.8196 161.19 29.7124C161.19 29.6244 161.219 29.5854 161.287 29.5854C161.395 29.5854 161.473 29.5854 161.551 29.5466H161.687C161.814 29.5466 161.883 29.6145 161.883 29.7418V30.0832C162.507 30.161 163.132 30.4246 163.639 30.9225C163.708 31.0002 163.737 31.0882 163.737 31.1861C163.737 31.254 163.727 31.3224 163.698 31.3909C163.688 31.5473 163.561 31.6936 163.395 31.6638C163.131 31.5861 162.78 30.7663 161.882 30.6883C161.882 30.9225 161.882 31.2444 161.912 31.547C161.912 31.8884 161.912 32.2494 161.951 32.5911V32.8448C162.956 33.3228 163.796 33.899 163.922 35.2064ZM160.624 31.5759C160.624 31.9956 160.936 32.3178 161.288 32.5031V31.9665C161.288 31.6936 161.258 31.4687 161.258 31.3224V30.7369C160.897 30.8927 160.624 31.1564 160.624 31.5759ZM162.459 36.2114C162.576 36.0358 162.634 35.87 162.634 35.7043C162.634 35.2944 162.322 34.9236 161.951 34.5819V35.4499C161.961 35.7331 161.971 35.9772 161.971 36.2408V36.5916C162.176 36.524 162.302 36.4066 162.459 36.2114Z" fill="white"/>
<path d="M95.6037 -4.29258C95.6037 -7.71476 92.8292 -10.4893 89.407 -10.4893C85.9845 -10.4893 83.2103 -7.71476 83.2103 -4.29258C83.2103 -0.870098 85.9845 1.9041 89.407 1.9041C92.8292 1.9041 95.6037 -0.870098 95.6037 -4.29258Z" fill="#FFCB4A"/>
<path d="M94.7009 -4.74206C94.997 -4.77208 95.2898 -4.7883 95.578 -4.7919C95.4453 -6.44699 94.6631 -7.91591 93.4851 -8.94824C92.0865 -5.97166 88.9156 -3.26713 85.2253 -2.21558C84.7031 -2.06665 84.1921 -1.95915 83.6942 -1.88648C84.2635 -0.535868 85.3004 0.566125 86.5993 1.22822C87.6734 -1.86486 90.8944 -4.35741 94.7009 -4.74206Z" fill="#FFE394"/>
<path d="M89.4069 -9.15039C86.724 -9.15039 84.5488 -6.97523 84.5488 -4.29232C84.5488 -1.6094 86.724 0.565751 89.4069 0.565751C92.0898 0.565751 94.265 -1.6094 94.265 -4.29232C94.265 -6.97523 92.0898 -9.15039 89.4069 -9.15039ZM89.4069 0.460659C86.8567 0.460659 84.7894 -1.66736 84.7894 -4.29202C84.7894 -6.91698 86.8567 -9.0447 89.4069 -9.0447C91.9571 -9.0447 94.0242 -6.91668 94.0242 -4.29202C94.0242 -1.66736 91.9571 0.460659 89.4069 0.460659Z" fill="#EFAB33"/>
<path d="M125.227 98.4216C128.334 98.4216 130.853 95.9026 130.853 92.7952C130.853 89.6877 128.334 87.1687 125.227 87.1687C122.119 87.1687 119.6 89.6877 119.6 92.7952C119.6 95.9026 122.119 98.4216 125.227 98.4216Z" fill="#FFCB4A"/>
<path d="M130.034 92.384C130.303 92.357 130.569 92.342 130.831 92.339C130.71 90.8361 130 89.5026 128.93 88.5652C127.66 91.2679 124.781 93.7235 121.431 94.6784C120.957 94.8135 120.493 94.9111 120.04 94.9772C120.557 96.2035 121.499 97.204 122.678 97.8051C123.654 94.9967 126.578 92.7335 130.034 92.384Z" fill="#FFE394"/>
<path d="M125.228 88.3828C122.792 88.3828 120.817 90.3577 120.817 92.7938C120.817 95.2299 122.792 97.2048 125.228 97.2048C127.664 97.2048 129.639 95.2299 129.639 92.7938C129.639 90.3574 127.664 88.3828 125.228 88.3828ZM125.228 97.109C122.913 97.109 121.036 95.177 121.036 92.7935C121.036 90.4102 122.913 88.478 125.228 88.478C127.544 88.478 129.421 90.4102 129.421 92.7935C129.421 95.177 127.544 97.109 125.228 97.109Z" fill="#EFAB33"/>
<path d="M126.762 93.8611C126.769 93.9149 126.769 93.9623 126.769 94.0095C126.769 94.8598 126.168 95.2174 125.412 95.3388C125.412 95.3856 125.412 95.433 125.439 95.4802V95.5949C125.419 95.5949 125.412 95.6018 125.412 95.6084C125.405 95.6153 125.405 95.6153 125.412 95.6222C125.392 95.6222 125.372 95.642 125.352 95.642H125.163C125.089 95.642 125.041 95.6285 125.014 95.5949C124.987 95.5949 124.967 95.5679 124.94 95.5411C124.933 95.5276 124.933 95.5009 124.933 95.4739C124.933 95.4399 124.933 95.4063 124.94 95.3589V95.3391C124.582 95.3391 124.265 95.2174 123.982 94.9745C123.786 94.8331 123.685 94.7385 123.685 94.6304C123.685 94.5632 123.726 94.489 123.8 94.3944C123.813 94.3809 123.834 94.3542 123.861 94.3542C123.881 94.3542 123.908 94.3608 123.942 94.3944C124.158 94.6373 124.562 94.8466 124.967 94.8667V94.4418C124.967 94.2256 124.987 94.0302 124.987 93.8074V93.1059C124.738 92.9507 124.515 92.8225 124.36 92.721C123.949 92.4375 123.733 92.0466 123.733 91.6481C123.733 91.3043 123.888 90.9602 124.205 90.6563C124.401 90.5149 124.664 90.3999 124.9 90.3459V90.2648C124.9 90.184 124.9 90.1369 124.873 90.0627C124.873 90.0021 124.893 89.975 124.941 89.975C125.015 89.975 125.069 89.975 125.123 89.948H125.217C125.305 89.948 125.352 89.9948 125.352 90.0831V90.3191C125.784 90.3729 126.216 90.5551 126.567 90.8996C126.614 90.9533 126.634 91.0143 126.634 91.0818C126.634 91.1287 126.628 91.1761 126.607 91.2232C126.601 91.3313 126.513 91.4325 126.398 91.4121C126.216 91.3584 125.973 90.7915 125.352 90.7377C125.352 90.8996 125.352 91.1224 125.372 91.3316C125.372 91.5677 125.372 91.8172 125.399 92.0535V92.2289C126.094 92.5589 126.674 92.9573 126.762 93.8611ZM124.481 91.3509C124.481 91.6412 124.697 91.8637 124.941 91.9919V91.6208C124.941 91.4319 124.92 91.2767 124.92 91.1755V90.7704C124.67 90.8788 124.481 91.0611 124.481 91.3509ZM125.75 94.5559C125.831 94.4343 125.871 94.3199 125.871 94.2052C125.871 93.9218 125.656 93.6653 125.399 93.4293V94.0296C125.406 94.2254 125.413 94.3941 125.413 94.5764V94.819C125.554 94.7721 125.642 94.6911 125.75 94.5559Z" fill="white"/>
<path d="M73.4498 44.6672C76.4727 43.9475 78.3398 40.9136 77.6202 37.8907C76.9005 34.8678 73.8665 33.0007 70.8437 33.7203C67.8208 34.44 65.9537 37.474 66.6733 40.4969C67.393 43.5197 70.4269 45.3869 73.4498 44.6672Z" fill="#FFCB4A"/>
<path d="M76.9545 38.7847C77.2235 38.7573 77.489 38.7426 77.7508 38.7396C77.6304 37.2368 76.9202 35.9033 75.8507 34.9658C74.5808 37.6686 71.7018 40.1242 68.3511 41.079C67.877 41.2141 67.4131 41.3117 66.9609 41.3778C67.4776 42.6041 68.4193 43.6046 69.5988 44.2057C70.5737 41.3973 73.4981 39.1342 76.9545 38.7847Z" fill="#FFE394"/>
<path d="M72.1492 34.7825C69.7131 34.7825 67.7382 36.7573 67.7382 39.1934C67.7382 41.6295 69.7131 43.6044 72.1492 43.6044C74.5853 43.6044 76.5602 41.6295 76.5602 39.1934C76.5602 36.757 74.5853 34.7825 72.1492 34.7825ZM72.1492 43.5086C69.8338 43.5086 67.9568 41.5767 67.9568 39.1931C67.9568 36.8099 69.8338 34.8777 72.1492 34.8777C74.4646 34.8777 76.3416 36.8099 76.3416 39.1931C76.3416 41.5767 74.4646 43.5086 72.1492 43.5086Z" fill="#EFAB33"/>
<path d="M73.6839 40.2601C73.6905 40.3138 73.6905 40.3612 73.6905 40.4084C73.6905 41.2587 73.0899 41.6161 72.3341 41.7377C72.3341 41.7845 72.3342 41.832 72.3609 41.8791V41.9938C72.3408 41.9938 72.3341 42.0007 72.3341 42.0073C72.3272 42.0142 72.3272 42.0142 72.3341 42.0211C72.314 42.0211 72.2936 42.041 72.2735 42.041H72.0846C72.0105 42.041 71.963 42.0274 71.9363 41.9938C71.9093 41.9938 71.8888 41.9668 71.8621 41.9401C71.8552 41.9266 71.8552 41.8998 71.8552 41.8728C71.8552 41.8389 71.8552 41.8049 71.8621 41.7578V41.738C71.5045 41.738 71.1874 41.6164 70.904 41.3735C70.7082 41.232 70.607 41.1374 70.607 41.0293C70.607 40.9621 70.6475 40.8879 70.7217 40.7933C70.7352 40.7798 70.7553 40.7531 70.7824 40.7531C70.8028 40.7531 70.8295 40.7597 70.8634 40.7933C71.0793 41.0362 71.4841 41.2455 71.8892 41.2657V40.8408C71.8892 40.6246 71.9093 40.4291 71.9093 40.2063V39.5049C71.6597 39.3496 71.4369 39.2214 71.2817 39.1199C70.8703 38.8365 70.6544 38.4455 70.6544 38.0471C70.6544 37.7033 70.8097 37.3591 71.1268 37.0553C71.3225 36.9138 71.5856 36.7988 71.8219 36.7448V36.6637C71.8219 36.5829 71.8219 36.5358 71.7949 36.4613C71.7949 36.4007 71.815 36.3737 71.8624 36.3737C71.9366 36.3737 71.9903 36.3736 72.0444 36.3469H72.1387C72.2267 36.3469 72.2738 36.3938 72.2738 36.4817V36.7178C72.7056 36.7715 73.1374 36.9538 73.4884 37.2982C73.5358 37.3519 73.5559 37.4129 73.5559 37.4805C73.5559 37.5273 73.5493 37.5747 73.5289 37.6219C73.522 37.73 73.4343 37.8312 73.3196 37.8107C73.1374 37.757 72.8945 37.1901 72.2738 37.1363C72.2738 37.2982 72.2738 37.521 72.2942 37.73C72.2942 37.966 72.2942 38.2155 72.3212 38.4518V38.6272C73.0158 38.9578 73.5962 39.3562 73.6839 40.2601ZM71.403 37.7498C71.403 38.0401 71.6189 38.2627 71.8618 38.3909V38.0197C71.8618 37.8309 71.8414 37.6756 71.8414 37.5744V37.1697C71.5922 37.2778 71.403 37.46 71.403 37.7498ZM72.6717 40.9549C72.7527 40.8333 72.793 40.7189 72.793 40.6042C72.793 40.3207 72.5771 40.0643 72.3206 39.8283V40.4285C72.3272 40.6243 72.3341 40.793 72.3341 40.9753V41.2179C72.4759 41.1711 72.5636 41.09 72.6717 40.9549Z" fill="white"/>
<path d="M228.165 40.6025C230.857 36.1844 229.459 30.42 225.04 27.7275C220.622 25.0349 214.858 26.4337 212.165 30.8519C209.473 35.27 210.872 41.0343 215.29 43.7269C219.708 46.4195 225.472 45.0206 228.165 40.6025Z" fill="#FFCB4A"/>
<path d="M228.169 35.0385C228.616 34.9932 229.059 34.9688 229.495 34.9634C229.294 32.461 228.111 30.2405 226.331 28.6797C224.216 33.1801 219.422 37.2686 213.843 38.8586C213.054 39.0835 212.281 39.2462 211.529 39.3561C212.389 41.3982 213.957 43.0641 215.921 44.0649C217.544 39.3888 222.414 35.6201 228.169 35.0385Z" fill="#FFE394"/>
<path d="M220.165 28.376C216.109 28.376 212.821 31.6642 212.821 35.7206C212.821 39.7769 216.109 43.0652 220.165 43.0652C224.222 43.0652 227.51 39.7769 227.51 35.7206C227.51 31.6642 224.222 28.376 220.165 28.376ZM220.165 42.9061C216.31 42.9061 213.185 39.689 213.185 35.7206C213.185 31.7522 216.31 28.5351 220.165 28.5351C224.021 28.5351 227.146 31.7522 227.146 35.7206C227.146 39.689 224.021 42.9061 220.165 42.9061Z" fill="#EFAB33"/>
<path d="M222.723 37.496C222.734 37.5855 222.734 37.6645 222.734 37.7432C222.734 39.1589 221.734 39.7544 220.475 39.9567C220.475 40.0348 220.475 40.1135 220.52 40.1925V40.3831C220.487 40.3831 220.475 40.3945 220.475 40.4057C220.464 40.4171 220.464 40.4171 220.475 40.4288C220.442 40.4288 220.408 40.4621 220.374 40.4621H220.06C219.936 40.4621 219.857 40.4399 219.813 40.3834C219.768 40.3834 219.734 40.3387 219.689 40.2936C219.677 40.2711 219.677 40.2264 219.677 40.1817C219.677 40.1252 219.677 40.069 219.689 39.9901V39.9567C219.094 39.9567 218.565 39.7544 218.093 39.3496C217.767 39.1139 217.599 38.9565 217.599 38.7764C217.599 38.6644 217.667 38.541 217.79 38.3833C217.813 38.3608 217.846 38.3161 217.891 38.3161C217.925 38.3161 217.97 38.3269 218.026 38.3833C218.386 38.7881 219.06 39.1364 219.734 39.1697V38.4623C219.734 38.1026 219.767 37.7765 219.767 37.4059V36.2382C219.352 35.9794 218.981 35.7662 218.722 35.5974C218.037 35.1254 217.678 34.4744 217.678 33.8111C217.678 33.2388 217.936 32.6656 218.464 32.1599C218.79 31.9242 219.228 31.7329 219.621 31.6432V31.508C219.621 31.3735 219.621 31.2949 219.576 31.1711C219.576 31.07 219.61 31.0252 219.689 31.0252C219.812 31.0252 219.902 31.0252 219.992 30.9805H220.149C220.295 30.9805 220.374 31.0585 220.374 31.2051V31.5981C221.093 31.6876 221.812 31.9912 222.396 32.5644C222.475 32.6539 222.509 32.7551 222.509 32.868C222.509 32.946 222.497 33.0247 222.464 33.1037C222.453 33.2835 222.306 33.452 222.115 33.4181C221.812 33.3283 221.408 32.3845 220.374 32.295C220.374 32.5647 220.374 32.9352 220.408 33.2835C220.408 33.6766 220.408 34.0922 220.453 34.4852V34.7771C221.61 35.3275 222.577 35.9908 222.723 37.496ZM218.925 33.3163C218.925 33.7997 219.285 34.1705 219.689 34.3837V33.7658C219.689 33.4514 219.655 33.1929 219.655 33.0244V32.3503C219.24 32.5302 218.925 32.8334 218.925 33.3163ZM221.038 38.653C221.172 38.4506 221.24 38.2599 221.24 38.0689C221.24 37.5969 220.88 37.1699 220.453 36.7769V37.7765C220.464 38.1023 220.476 38.3833 220.476 38.6869V39.0908C220.711 39.013 220.857 38.8779 221.038 38.653Z" fill="white"/>
<path d="M187.119 1.44196C190.254 -0.801555 190.977 -5.16236 188.734 -8.29816C186.49 -11.434 182.129 -12.1573 178.994 -9.9138C175.858 -7.67029 175.135 -3.30949 177.379 -0.173684C179.622 2.96212 183.983 3.68547 187.119 1.44196Z" fill="#FFCB4A"/>
<path d="M189.019 -4.73537C189.352 -4.769 189.682 -4.78731 190.007 -4.79121C189.857 -6.65589 188.976 -8.31069 187.649 -9.47363C186.074 -6.11991 182.501 -3.07337 178.344 -1.8885C177.756 -1.72065 177.18 -1.59964 176.619 -1.51767C177.26 0.00409889 178.428 1.24542 179.892 1.99129C181.102 -1.49395 184.73 -4.30208 189.019 -4.73537Z" fill="#FFE394"/>
<path d="M183.052 -9.70215C180.029 -9.70215 177.579 -7.25164 177.579 -4.22912C177.579 -1.2066 180.029 1.24391 183.052 1.24391C186.074 1.24391 188.525 -1.2066 188.525 -4.22912C188.525 -7.25164 186.074 -9.70215 183.052 -9.70215ZM183.052 1.1256C180.179 1.1256 177.85 -1.27176 177.85 -4.22882C177.85 -7.18618 180.179 -9.58324 183.052 -9.58324C185.925 -9.58324 188.254 -7.18588 188.254 -4.22882C188.254 -1.27176 185.925 1.1256 183.052 1.1256Z" fill="#EFAB33"/>
<path d="M261.257 21.1113L248.923 73.38L251.586 73.9439L263.466 21.1152L261.257 21.1113Z" fill="#E5AF38"/>
<path d="M260.929 32.3975L263.466 21.1155L261.257 21.1116L258.894 31.1274L260.929 32.3975Z" fill="#D87D21"/>
<path d="M253.111 55.6301L248.924 73.3785L251.586 73.9424L255.146 58.111L253.111 55.6301Z" fill="#D87D21"/>
<path d="M240.927 85.7529L253.406 84.2726L256.367 65.4492H245.157L240.927 85.7529Z" fill="#E5AF38"/>
<path d="M243.221 74.737C246.946 76.5233 250.753 78.6306 253.994 80.5259L255.253 72.5255L244.18 70.1348L243.221 74.737Z" fill="#F9C764"/>
<path d="M174.737 39.1514L157.801 108.552H236.59L253.219 39.5195L174.737 39.1514Z" fill="#D1C6B2"/>
<path d="M212.633 98.5648C205.907 75.5863 210.658 53.9717 223.245 50.2873C231.119 47.9825 240.194 53.2405 247.533 63.1263L253.219 39.5215L174.737 39.1533L157.801 108.554H216.306C214.902 105.424 213.662 102.081 212.633 98.5648Z" fill="#C4B59B"/>
<path d="M171.178 39.1514L154.243 105.79L233.031 108.552L249.66 39.5195L171.178 39.1514Z" fill="#F2ECDD"/>
<path d="M233.029 108.552H131.414L132.518 102.108L234.134 102.661L233.029 108.552Z" fill="#DDD5C3"/>
<path d="M200.15 102.468L198.423 108.55H234.319L235.423 102.66L200.15 102.468Z" fill="#D1C6B2"/>
<path d="M230.636 100.453L245.731 42.0977H172.465L157.932 100.453H230.636Z" fill="#5290A8"/>
<path d="M230.594 100.454L245.178 44.0762H174.395L160.355 100.454H230.594Z" fill="#83BBCC"/>
<path d="M203.742 100.454L233.767 44.0762H201.511L172.187 100.454H203.742Z" fill="#9BD3E0"/>
<path d="M262.176 27.6472C266.09 27.6472 269.263 24.4741 269.263 20.5599C269.263 16.6457 266.09 13.4727 262.176 13.4727C258.262 13.4727 255.089 16.6457 255.089 20.5599C255.089 24.4741 258.262 27.6472 262.176 27.6472Z" fill="#E02444"/>
<path d="M266.988 15.3643C267.047 15.6979 267.086 16.0375 267.086 16.3861C267.086 19.9106 263.927 22.7677 260.03 22.7677C258.115 22.7677 256.381 22.0756 255.11 20.9562C255.318 24.6843 258.397 27.6459 262.177 27.6459C266.092 27.6459 269.265 24.4727 269.265 20.5586C269.265 18.5036 268.385 16.6587 266.988 15.3643Z" fill="#9B1B37"/>
<path d="M260.292 14.881C259.559 14.2931 258.049 14.9582 256.921 16.3664C255.792 17.7747 255.473 19.3932 256.207 19.9811C256.94 20.569 258.45 19.9039 259.578 18.4956C260.707 17.0874 261.026 15.4689 260.292 14.881Z" fill="#FF5F5F"/>
<path d="M261.012 14.5443C261.012 14.1716 261.63 13.8969 262.392 13.9305C263.155 13.9645 263.773 14.2941 263.773 14.6668C263.773 15.0397 263.155 15.3142 262.392 15.2802C261.63 15.2469 261.012 14.9172 261.012 14.5443Z" fill="#FF5F5F"/>
<path d="M266.491 24.544C266.299 23.6333 264.693 23.6681 262.852 24.0564C261.011 24.4446 259.632 25.0391 259.824 25.9496C260.016 26.8603 261.664 27.2837 263.506 26.8957C265.347 26.5075 266.683 25.4547 266.491 24.544Z" fill="#AF1E44"/>
<path d="M267.925 22.7226C268.056 22.1443 267.827 21.5996 267.414 21.5059C267.001 21.4125 266.56 21.8056 266.429 22.3839C266.298 22.9625 266.527 23.5072 266.94 23.6006C267.353 23.6943 267.794 23.3012 267.925 22.7226Z" fill="#AF1E44"/>
<path d="M250.126 65.4492C249.19 67.6643 248.327 70.7505 247.632 74.4045H250.577C251.273 70.7463 252.138 67.6637 253.075 65.4492H250.126Z" fill="#7F4328"/>
<path d="M216.755 102.559L200.149 102.469L198.423 108.551H210.49C211.97 106.298 214.111 104.268 216.755 102.559Z" fill="#C4B59B"/>
<path d="M229.288 91.1256H166.73C166.558 91.1256 166.396 91.0454 166.291 90.9091C166.185 90.7722 166.147 90.5941 166.189 90.4254L175.103 54.2362C175.165 53.9846 175.388 53.8086 175.644 53.8086H238.547C238.719 53.8086 238.883 53.8894 238.988 54.0275C239.094 54.1653 239.13 54.3452 239.087 54.5139L229.828 90.7031C229.765 90.952 229.542 91.1256 229.288 91.1256ZM167.444 89.9978H228.856L237.827 54.9364H176.08L167.444 89.9978Z" fill="#5290A8"/>
<path d="M228.473 89.6139L237.449 54.9141H176.471L167.829 89.6139H228.473Z" fill="#FFF2DC"/>
<path d="M173.894 65.2536L171.541 74.7046C175.127 74.5671 178.801 74.4953 182.544 74.4953C201.346 74.4953 218.441 76.2957 231.156 79.2348L235.466 62.5713C223.719 64.6861 209.247 65.9352 193.589 65.9352C186.756 65.9355 180.149 65.6971 173.894 65.2536Z" fill="white"/>
<path d="M195.977 54.9141H194.327L185.686 89.6139H187.336L195.977 54.9141Z" fill="#FFCB4A"/>
<path d="M217.698 54.9141H216.048L207.407 89.6139H209.057L217.698 54.9141Z" fill="#FFCB4A"/>
<path d="M228.472 90.1538H167.829C167.662 90.1538 167.505 90.0769 167.403 89.946C167.3 89.8148 167.264 89.6439 167.304 89.4824L175.945 54.7822C176.005 54.5411 176.222 54.3721 176.47 54.3721H237.448C237.615 54.3721 237.773 54.4495 237.876 54.582C237.978 54.7141 238.013 54.8864 237.971 55.0483L228.995 89.7481C228.934 89.9871 228.718 90.1538 228.472 90.1538ZM168.521 89.0722H228.054L236.75 55.4536H176.892L168.521 89.0722Z" fill="#FFCB4A"/>
<path d="M209.738 106.995L209.128 108.551H228.655L228.831 107.871C229.047 107.04 228.422 106.23 227.564 106.226L210.968 106.161C210.425 106.159 209.937 106.49 209.738 106.995Z" fill="#4F3D42"/>
<path d="M183.417 68.194C184.114 67.1781 185.249 65.3462 185.249 65.227C185.249 65.1871 185.229 65.1672 185.169 65.1672C185.07 65.1672 184.891 65.2471 184.731 65.227C184.513 65.2069 184.194 65.1672 183.378 65.1672C182.541 65.1672 178.897 65.5258 178.479 65.6056C178.379 65.6254 178.28 65.6453 178.2 65.6453C177.981 65.6453 177.862 65.5456 177.862 65.3267C177.862 65.2069 177.882 65.0081 177.882 64.8288C177.882 64.7291 177.882 64.6295 177.862 64.5502C177.862 64.5301 177.862 64.5105 177.862 64.5105C177.862 64.2514 178.021 64.192 178.24 64.1718C178.479 64.1718 179.534 64.0923 180.311 64.0923C180.988 64.0923 182.163 64.0127 182.979 64.0127C183.178 64.0127 183.377 64.0127 183.517 64.0325C183.735 64.0526 184.054 64.0725 184.373 64.0725C185.189 64.0725 186.145 64.013 186.404 64.013C186.742 64.013 186.663 64.5304 186.663 64.9886C186.663 65.4666 186.384 65.8446 185.906 66.562C185.607 66.94 184.711 68.2144 183.875 69.4296H185.308C185.886 69.3698 185.906 69.6088 185.906 69.9869V71.4807C185.906 71.7792 185.787 71.8987 185.169 71.8987H184.173L183.457 71.8392C183.317 71.8191 183.118 71.7996 182.839 71.7996C182.66 71.7996 182.461 71.8194 182.222 71.8194C181.485 72.9148 179.773 75.8617 179.375 76.4988C178.956 77.1561 178.578 77.893 178.419 77.9927C178.399 78.0125 178.359 78.0125 178.339 78.0125C178.219 78.0125 178.14 77.8134 177.881 77.654C177.782 77.5942 177.742 77.5146 177.742 77.4351C177.742 77.3153 177.862 77.1363 178.061 76.8375C178.339 76.3997 179.434 74.5474 179.912 73.7511C180.072 73.4124 180.529 72.6755 181.087 71.8194H180.828C180.529 71.8194 179.375 71.8792 179.116 71.9392C178.857 71.9392 178.857 71.7398 178.857 71.4813V70.0872C178.857 69.6689 178.936 69.4302 179.235 69.4302H182.62C182.979 68.9107 183.258 68.4528 183.417 68.194Z" fill="#E02444"/>
<path d="M204.526 68.194C205.223 67.1781 206.358 65.3462 206.358 65.227C206.358 65.1871 206.337 65.1672 206.278 65.1672C206.178 65.1672 205.999 65.2471 205.84 65.227C205.621 65.2069 205.302 65.1672 204.486 65.1672C203.649 65.1672 200.005 65.5258 199.587 65.6056C199.488 65.6254 199.388 65.6453 199.309 65.6453C199.089 65.6453 198.97 65.5456 198.97 65.3267C198.97 65.2069 198.99 65.0081 198.99 64.8288C198.99 64.7291 198.99 64.6295 198.97 64.5502C198.97 64.5301 198.97 64.5105 198.97 64.5105C198.97 64.2514 199.129 64.192 199.348 64.1718C199.587 64.1718 200.643 64.0923 201.419 64.0923C202.096 64.0923 203.271 64.0127 204.088 64.0127C204.287 64.0127 204.486 64.0127 204.625 64.0325C204.844 64.0526 205.163 64.0725 205.481 64.0725C206.298 64.0725 207.253 64.013 207.512 64.013C207.851 64.013 207.771 64.5304 207.771 64.9886C207.771 65.4666 207.493 65.8446 207.014 66.562C206.716 66.94 205.82 68.2144 204.983 69.4296H206.417C206.994 69.3698 207.014 69.6088 207.014 69.9869V71.4807C207.014 71.7792 206.895 71.8987 206.277 71.8987H205.282L204.565 71.8392C204.426 71.8191 204.227 71.7996 203.948 71.7996C203.769 71.7996 203.57 71.8194 203.33 71.8194C202.593 72.9148 200.881 75.8617 200.483 76.4988C200.065 77.1561 199.686 77.893 199.527 77.9927C199.507 78.0125 199.467 78.0125 199.447 78.0125C199.328 78.0125 199.248 77.8134 198.99 77.654C198.89 77.5942 198.85 77.5146 198.85 77.4351C198.85 77.3153 198.969 77.1363 199.169 76.8375C199.448 76.3997 200.543 74.5474 201.021 73.7511C201.18 73.4124 201.638 72.6755 202.195 71.8194H201.936C201.637 71.8194 200.483 71.8792 200.224 71.9392C199.965 71.9392 199.965 71.7398 199.965 71.4813V70.0872C199.965 69.6689 200.044 69.4302 200.343 69.4302H203.728C204.088 68.9107 204.366 68.4528 204.526 68.194Z" fill="#E02444"/>
<path d="M225.636 68.194C226.333 67.1781 227.468 65.3462 227.468 65.227C227.468 65.1871 227.448 65.1672 227.388 65.1672C227.289 65.1672 227.11 65.2471 226.95 65.227C226.731 65.2069 226.413 65.1672 225.596 65.1672C224.76 65.1672 221.116 65.5258 220.698 65.6056C220.598 65.6254 220.498 65.6453 220.419 65.6453C220.2 65.6453 220.08 65.5456 220.08 65.3267C220.08 65.2069 220.1 65.0081 220.1 64.8288C220.1 64.7291 220.1 64.6295 220.08 64.5502C220.08 64.5301 220.08 64.5105 220.08 64.5105C220.08 64.2514 220.24 64.192 220.459 64.1718C220.698 64.1718 221.753 64.0923 222.529 64.0923C223.206 64.0923 224.381 64.0127 225.198 64.0127C225.397 64.0127 225.596 64.0127 225.735 64.0325C225.954 64.0526 226.273 64.0725 226.591 64.0725C227.408 64.0725 228.364 64.013 228.622 64.013C228.961 64.013 228.882 64.5304 228.882 64.9886C228.882 65.4666 228.603 65.8446 228.125 66.562C227.826 66.94 226.93 68.2144 226.094 69.4296H227.527C228.105 69.3698 228.125 69.6088 228.125 69.9869V71.4807C228.125 71.7792 228.005 71.8987 227.388 71.8987H226.392L225.675 71.8392C225.536 71.8191 225.337 71.7996 225.058 71.7996C224.879 71.7996 224.68 71.8194 224.441 71.8194C223.704 72.9148 221.992 75.8617 221.593 76.4988C221.175 77.1561 220.797 77.893 220.637 77.9927C220.617 78.0125 220.578 78.0125 220.558 78.0125C220.438 78.0125 220.358 77.8134 220.1 77.654C220 77.5942 219.961 77.5146 219.961 77.4351C219.961 77.3153 220.08 77.1363 220.279 76.8375C220.558 76.3997 221.653 74.5474 222.131 73.7511C222.29 73.4124 222.748 72.6755 223.306 71.8194H223.047C222.748 71.8194 221.593 71.8792 221.334 71.9392C221.075 71.9392 221.075 71.7398 221.075 71.4813V70.0872C221.075 69.6689 221.155 69.4302 221.454 69.4302H224.838C225.198 68.9107 225.477 68.4528 225.636 68.194Z" fill="#E02444"/>
<mask id="mask0_10349_46639" style="mask-type:luminance" maskUnits="userSpaceOnUse" x="-1" y="104" width="302" height="19">
<path d="M300.269 104.865H-0.00146484V122.581H300.269V104.865Z" fill="white"/>
</mask>
<g mask="url(#mask0_10349_46639)">
<path d="M125.222 130.464C128.329 130.464 130.849 127.981 130.849 124.918C130.849 121.855 128.329 119.372 125.222 119.372C122.115 119.372 119.596 121.855 119.596 124.918C119.596 127.981 122.115 130.464 125.222 130.464Z" fill="#FFCB4A"/>
<path d="M130.029 125.321C130.298 125.347 130.564 125.362 130.826 125.365C130.705 126.847 129.995 128.161 128.925 129.085C127.655 126.421 124.776 124 121.426 123.059C120.951 122.926 120.488 122.83 120.035 122.765C120.552 121.556 121.494 120.57 122.673 119.977C123.648 122.745 126.573 124.976 130.029 125.321Z" fill="#FFE394"/>
<path d="M125.221 129.265C122.785 129.265 120.81 127.319 120.81 124.917C120.81 122.516 122.785 120.569 125.221 120.569C127.657 120.569 129.632 122.516 129.632 124.917C129.632 127.319 127.657 129.265 125.221 129.265ZM125.221 120.663C122.906 120.663 121.029 122.568 121.029 124.917C121.029 127.267 122.906 129.171 125.221 129.171C127.536 129.171 129.413 127.267 129.413 124.917C129.413 122.568 127.536 120.663 125.221 120.663Z" fill="#EFAB33"/>
<path d="M126.757 123.866C126.764 123.813 126.764 123.766 126.764 123.72C126.764 122.882 126.163 122.529 125.407 122.409C125.407 122.363 125.407 122.317 125.434 122.27V122.157C125.414 122.157 125.407 122.15 125.407 122.144C125.4 122.137 125.4 122.137 125.407 122.13C125.387 122.13 125.367 122.11 125.347 122.11H125.158C125.084 122.11 125.036 122.124 125.009 122.157C124.982 122.157 124.962 122.183 124.935 122.21C124.928 122.223 124.928 122.25 124.928 122.276C124.928 122.31 124.928 122.343 124.935 122.39V122.41C124.577 122.41 124.26 122.53 123.977 122.769C123.781 122.908 123.68 123.002 123.68 123.108C123.68 123.175 123.721 123.248 123.795 123.341C123.808 123.354 123.829 123.381 123.856 123.381C123.876 123.381 123.903 123.375 123.937 123.341C124.153 123.102 124.557 122.896 124.962 122.876V123.295C124.962 123.508 124.982 123.701 124.982 123.92V124.611C124.733 124.764 124.51 124.891 124.355 124.991C123.944 125.27 123.728 125.656 123.728 126.048C123.728 126.387 123.883 126.726 124.2 127.026C124.396 127.166 124.659 127.279 124.895 127.332V127.412C124.895 127.491 124.895 127.538 124.868 127.611C124.868 127.671 124.888 127.698 124.936 127.698C125.01 127.698 125.064 127.698 125.118 127.724H125.212C125.3 127.724 125.347 127.678 125.347 127.591V127.358C125.779 127.305 126.211 127.126 126.562 126.786C126.609 126.733 126.629 126.674 126.629 126.607C126.629 126.561 126.623 126.514 126.602 126.467C126.596 126.361 126.508 126.261 126.393 126.281C126.211 126.334 125.968 126.893 125.347 126.946C125.347 126.786 125.347 126.567 125.367 126.361C125.367 126.128 125.367 125.882 125.394 125.649V125.477C126.089 125.15 126.669 124.757 126.757 123.866ZM124.476 126.341C124.476 126.054 124.692 125.835 124.936 125.709V126.075C124.936 126.261 124.915 126.414 124.915 126.514V126.913C124.665 126.806 124.476 126.626 124.476 126.341ZM125.745 123.181C125.826 123.301 125.866 123.414 125.866 123.527C125.866 123.806 125.651 124.059 125.394 124.292V123.7C125.401 123.507 125.408 123.34 125.408 123.161V122.922C125.549 122.968 125.637 123.048 125.745 123.181Z" fill="white"/>
<path d="M174.732 177.792L157.797 109.383H236.585L253.214 177.429L174.732 177.792Z" fill="#D1C6B2"/>
<path d="M212.629 119.228C205.902 141.879 210.653 163.185 223.24 166.817C231.114 169.089 240.19 163.906 247.528 154.161L253.214 177.429L174.732 177.792L157.797 109.383H216.301C214.897 112.467 213.658 115.763 212.629 119.228Z" fill="#C4B59B"/>
<path d="M171.174 177.792L154.238 112.105L233.027 109.383L249.656 177.429L171.174 177.792Z" fill="#F2ECDD"/>
<path d="M233.026 109.383H131.41L132.515 115.734L234.13 115.189L233.026 109.383Z" fill="#DDD5C3"/>
<path d="M200.147 115.378L198.421 109.383H234.316L235.421 115.189L200.147 115.378Z" fill="#D1C6B2"/>
<path d="M230.634 117.366L245.728 174.888H172.462L157.93 117.366H230.634Z" fill="#5290A8"/>
<path d="M230.592 117.366L245.176 172.939H174.393L160.353 117.366H230.592Z" fill="#83BBCC"/>
<path d="M203.739 117.366L233.764 172.939H201.508L172.183 117.366H203.739Z" fill="#9BD3E0"/>
<path d="M216.753 115.289L200.147 115.378L198.421 109.383H210.488C211.968 111.603 214.109 113.605 216.753 115.289Z" fill="#C4B59B"/>
<path d="M209.736 110.916L209.126 109.383H228.653L228.829 110.053C229.044 110.872 228.42 111.671 227.562 111.674L210.965 111.738C210.423 111.74 209.934 111.414 209.736 110.916Z" fill="#4F3D42"/>
</g>
</g>
</g>
<defs>
<linearGradient id="paint0_linear_10349_46639" x1="150.136" y1="0" x2="150.136" y2="122.839" gradientUnits="userSpaceOnUse">
<stop stop-color="#A967FF"/>
<stop offset="1" stop-color="#5500C3"/>
</linearGradient>
<clipPath id="clip0_10349_46639">
<rect width="300.272" height="122.839" rx="12.7957" fill="white"/>
</clipPath>
<clipPath id="clip1_10349_46639">
<rect width="300.27" height="180.162" fill="white" transform="translate(0 -57.5801)"/>
</clipPath>
</defs>
</svg>
