<svg width="952" height="580" viewBox="0 0 952 580" fill="none" xmlns="http://www.w3.org/2000/svg">
<path d="M479.742 517.612C609.692 517.612 715.037 456.791 715.037 381.764C715.037 306.737 609.692 245.916 479.742 245.916C349.792 245.916 244.447 306.737 244.447 381.764C244.447 456.791 349.792 517.612 479.742 517.612Z" fill="#F5F5F5"/>
<path d="M634.881 448.379C671.745 448.379 701.629 431.125 701.629 409.842C701.629 388.558 671.745 371.305 634.881 371.305C598.017 371.305 568.133 388.558 568.133 409.842C568.133 431.125 598.017 448.379 634.881 448.379Z" fill="#E0E0E0"/>
<path d="M465.95 430.63L390.652 387.143L476.72 337.453L552.029 380.932L465.95 430.63Z" fill="#E0E0E0"/>
<path d="M260.91 417.174L358.029 473.246L439.492 426.23L342.373 370.158L260.91 417.174Z" fill="#E0E0E0"/>
<path d="M404.522 153.628V148.113H404.519C404.502 147.589 404.134 147.056 403.415 146.643L370.095 127.521C368.681 126.709 366.387 126.709 364.973 127.521L269.187 182.491C268.467 182.904 268.1 183.437 268.083 183.961H268.078V189.476H268.083C268.1 190 268.468 190.533 269.187 190.946L302.506 210.067C303.92 210.879 306.214 210.879 307.628 210.067L403.414 155.097C404.134 154.684 404.501 154.151 404.518 153.627L404.522 153.628Z" fill="#F0F0F0"/>
<path d="M269.187 185.431L302.506 204.552C303.921 205.364 306.214 205.364 307.628 204.552L403.414 149.581C404.829 148.769 404.829 147.453 403.414 146.641L370.095 127.521C368.681 126.709 366.387 126.709 364.973 127.521L269.187 182.491C267.773 183.303 267.773 184.619 269.187 185.431Z" fill="#FAFAFA"/>
<path d="M305.059 205.168V210.683C304.136 210.683 303.214 210.471 302.504 210.072L269.18 190.952C268.458 190.541 268.092 190 268.08 189.482H268.068V183.967H268.08C268.088 183.757 268.17 183.547 268.29 183.342C267.903 184.053 268.194 184.871 269.18 185.437L302.504 204.556C303.202 204.968 304.137 205.168 305.059 205.168Z" fill="#E0E0E0"/>
<path d="M322.961 158.532L351.191 174.626L397.827 147.862L369.6 131.766L322.961 158.532Z" fill="#E0E0E0"/>
<path d="M351.512 173.401L324.28 157.773C324.991 155.754 324.938 153.399 324.133 150.711L351.191 166.173C351.191 166.173 351.707 167.879 351.512 173.401Z" fill="white"/>
<path d="M349.802 163.968C351.247 164.797 352.418 166.814 352.418 168.473V173.736C352.418 175.395 351.247 176.067 349.802 175.238L322.964 159.836L322.961 158.532L349.44 173.632C350.307 174.13 351.009 173.726 351.008 172.731L350.983 167.854C350.982 166.859 350.278 165.649 349.411 165.151L322.963 150.044V148.566L349.802 163.968Z" fill="#EBEBEB"/>
<path d="M322.967 148.569L369.604 121.805L396.439 137.205C397.883 138.034 399.055 140.052 399.055 141.71L399.056 146.973C399.055 147.799 398.765 148.382 398.289 148.655L351.652 175.419C352.128 175.146 352.418 174.563 352.42 173.737L352.424 168.47C352.424 166.812 351.252 164.794 349.808 163.965L322.967 148.569Z" fill="#FAFAFA"/>
<path d="M351.654 165.908C352.127 166.723 352.421 167.642 352.42 168.471L352.416 173.738C352.414 174.564 352.125 175.146 351.648 175.42L398.285 148.656C398.761 148.383 399.051 147.8 399.052 146.974L399.051 141.711C399.051 140.882 398.758 139.963 398.284 139.148L351.654 165.908Z" fill="#F0F0F0"/>
<path d="M294.256 118.477L293.992 122.041L325.509 138.947L326.22 136.872L294.256 118.477Z" fill="#EBEBEB"/>
<path d="M325.802 137.697L295.272 120.074L289.963 123.139L321.093 141.351L325.802 137.697Z" fill="white"/>
<path d="M315.36 139.463L312.342 174.841C312.342 175.564 312.847 176.44 313.471 176.802L331.182 187.052C331.439 187.2 331.766 187.287 332.101 187.313L321.094 142.502C320.758 142.476 320.432 142.393 320.175 142.245L318.899 141.504L315.36 139.463Z" fill="#E0E0E0"/>
<path d="M322.438 142.246L325.594 139.542L327.914 137.555C328.151 137.177 328.427 136.895 328.279 136.586L339.138 181.075L339.155 181.11C339.308 181.424 339.347 182.123 338.92 182.367L333.445 187.054C333.075 187.268 332.574 187.355 332.099 187.315L321.092 142.504C321.567 142.542 322.068 142.455 322.438 142.246Z" fill="#F0F0F0"/>
<path d="M327.917 136.247C328.542 136.608 328.387 137.011 327.917 137.554L322.44 142.244C321.815 142.605 320.801 142.605 320.176 142.244L315.36 139.463C314.735 139.102 314.624 138.581 315.113 138.299C315.602 138.017 316.505 138.081 317.13 138.442L320.93 140.636C321.138 140.756 321.476 140.756 321.685 140.636L325.687 137.161C325.895 137.041 325.895 136.846 325.687 136.725L294.258 118.476L295.764 117.607L327.917 136.247Z" fill="#FAFAFA"/>
<path d="M285.16 120.186L315.191 137.535V194.667L285.16 177.322V120.186Z" fill="#EBEBEB"/>
<path d="M314.225 138.483L285.16 121.803C283.663 123.534 281.443 124.742 278.514 125.436L307.332 142.044C307.332 142.044 309.194 141.61 314.225 138.483Z" fill="white"/>
<path d="M304.538 141.945C306.08 142.83 308.581 142.83 310.124 141.945L315.018 139.136C316.56 138.251 316.56 136.816 315.018 135.931L286.373 119.492L285.159 120.185L313.332 136.456C314.257 136.987 314.257 137.848 313.331 138.378L308.783 140.958C307.857 141.488 306.356 141.488 305.431 140.957L277.267 124.717L275.893 125.505L304.538 141.945Z" fill="#FAFAFA"/>
<path d="M275.896 125.504V182.637L304.538 199.074C306.08 199.959 308.582 199.959 310.123 199.074L315.018 196.266C315.785 195.824 316.172 195.247 316.172 194.663V137.531C316.172 138.114 315.785 138.691 315.018 139.134L310.123 141.948C308.581 142.833 306.079 142.833 304.538 141.948L275.896 125.504Z" fill="#EBEBEB"/>
<path d="M307.332 142.613C308.343 142.613 309.354 142.392 310.125 141.95L315.02 139.136C315.787 138.694 316.174 138.117 316.174 137.533V194.666C316.174 195.249 315.787 195.826 315.02 196.269L310.125 199.077C309.354 199.519 308.343 199.74 307.332 199.74V142.613Z" fill="#F0F0F0"/>
<path d="M549.008 349.959C548.327 337.975 543.02 313.983 550.013 291.845C553.567 280.593 561.73 268.671 573.884 265.312C578.183 264.123 583.499 264.281 585.614 269.181C585.969 270.004 586.168 270.892 586.232 271.786C586.496 275.509 584.804 278.803 582.921 281.845C578.616 288.802 573.146 294.979 568.783 301.9C566.47 305.569 564.488 309.42 562.773 313.39" stroke="#A967FF" stroke-width="1.47133" stroke-miterlimit="10"/>
<path d="M548.722 357.789C548.722 359.226 549.101 361.027 548.783 362.399C548.687 362.813 548.602 363.264 548.779 363.65C548.957 364.036 549.515 364.264 549.821 363.969C550.042 363.756 550.274 362.212 550.416 361.819C550.719 360.983 551.178 360.171 551.571 359.374C552.367 357.757 553.216 356.166 554.114 354.604C555.968 351.382 558.034 348.282 560.295 345.331C564.747 339.519 569.953 334.282 575.763 329.824C582.067 324.986 589.042 321.059 595.206 316.043C597.022 314.565 598.832 312.897 599.612 310.689C600.776 307.391 599.231 303.539 596.49 301.366C593.749 299.194 590.063 298.508 586.575 298.766C583.237 299.013 578.741 300.45 575.051 302.46C567.531 306.556 562.364 312.901 558.231 320.087C552.715 329.676 549.575 340.595 548.722 351.603C548.722 353.665 548.722 355.727 548.722 357.789Z" stroke="#A967FF" stroke-width="1.47133" stroke-miterlimit="10"/>
<path d="M591.648 304.754C577.417 308.829 556.324 325.171 548.721 355.508" stroke="#A967FF" stroke-width="1.47133" stroke-miterlimit="10" stroke-linecap="round" stroke-linejoin="round"/>
<path d="M577.015 271.795C569.333 277.909 550.989 297.275 548.676 328.581" stroke="#A967FF" stroke-width="1.47133" stroke-miterlimit="10" stroke-linecap="round" stroke-linejoin="round"/>
<path d="M545.896 205.091L490.293 173.035C489.113 172.354 488.044 172.289 487.271 172.736C486.553 173.151 483.987 174.638 483.266 175.047C482.485 175.49 482.002 176.451 482.002 177.821L482.003 329.986C482.003 332.712 483.917 336.026 486.277 337.389L541.879 369.445C543.059 370.127 544.128 370.191 544.901 369.744C545.619 369.329 548.202 367.843 548.925 367.422C549.694 366.974 550.17 366.018 550.17 364.659V212.494C550.17 209.768 548.257 206.454 545.896 205.091Z" fill="#263238"/>
<path d="M494.032 332.605L490.023 334.92L490.024 347.575C490.024 348.256 490.503 349.085 491.093 349.426L492.965 350.507C493.555 350.848 494.512 350.848 495.102 350.507L496.974 349.426C497.564 349.085 498.223 348.287 498.447 347.643L502.054 337.235L494.032 332.605Z" fill="#263238"/>
<path d="M490.023 347.576C490.023 348.257 490.501 349.086 491.092 349.427L492.964 350.508C493.554 350.849 494.213 350.603 494.436 349.959L498.043 339.55L490.023 334.92V347.576Z" fill="#37474F"/>
<path d="M534.127 355.703L530.117 358.018L530.118 370.673C530.118 371.354 530.596 372.183 531.187 372.524L533.059 373.605C533.649 373.946 534.606 373.946 535.196 373.605L537.068 372.524C537.658 372.183 538.317 371.385 538.54 370.741L542.147 360.332L534.127 355.703Z" fill="#263238"/>
<path d="M530.118 370.674C530.118 371.355 530.596 372.184 531.186 372.525L533.058 373.606C533.648 373.947 534.307 373.701 534.53 373.057L538.137 362.648L530.117 358.018L530.118 370.674Z" fill="#37474F"/>
<path d="M486.563 175.427L542.166 207.483C544.527 208.846 546.44 212.16 546.44 214.886V367.051C546.44 368.414 545.962 369.371 545.188 369.818C544.415 370.265 543.346 370.2 542.166 369.519L486.564 337.463C484.203 336.1 482.29 332.786 482.29 330.06L482.289 177.895C482.289 176.525 482.773 175.564 483.553 175.121C484.325 174.682 485.389 174.75 486.563 175.427Z" fill="#37474F"/>
<path d="M405.82 383.478L465.962 418.201L550.16 369.589L546.151 367.274L486.009 332.551L405.82 378.848V383.478Z" fill="#455A64"/>
<path d="M465.963 418.201V413.571L550.161 364.959V369.589L465.963 418.201Z" fill="#263238"/>
<path d="M466.035 411.261C477.283 394.244 476.657 364.158 475.69 359.08C475.69 359.08 480.435 390.884 486.278 399.966" stroke="#FAFAFA" stroke-width="1.23383" stroke-miterlimit="10"/>
<path d="M477.695 370.637C479.626 379.909 501.565 386.454 501.565 386.454" stroke="#FAFAFA" stroke-width="1.23383" stroke-miterlimit="10"/>
<path d="M475.531 379.858C476.15 378.353 479.199 378.144 479.779 380.59C479.779 380.59 480.131 376.088 482.669 377.364" stroke="#FAFAFA" stroke-width="1.23383" stroke-miterlimit="10"/>
<path d="M474.662 386.452C475.791 384.032 479.952 382.704 481.78 388.44C481.78 388.44 482.056 378.174 488.846 381.26" stroke="#FAFAFA" stroke-width="1.23383" stroke-miterlimit="10"/>
<path d="M472.729 395.54C475.109 390.959 481.638 389.13 483.316 393.355C483.355 388.139 489.326 381.563 496.615 384.727" stroke="#FAFAFA" stroke-width="1.23383" stroke-miterlimit="10"/>
<path d="M468.695 406.571C471.49 401.494 478.341 392.332 484.317 396.024" stroke="#FAFAFA" stroke-width="1.23383" stroke-miterlimit="10"/>
<path d="M542.141 318.665L542.145 323.293L465.962 367.278L405.82 332.554V327.925L482.002 283.943L542.141 318.665Z" fill="#263238"/>
<path d="M542.141 318.665L465.962 362.647L405.82 327.925L482.002 283.943L542.141 318.665Z" fill="#455A64"/>
<path d="M542.141 267.739L542.145 272.366L465.962 316.351L405.82 281.627V276.998L482.002 233.016L542.141 267.739Z" fill="#263238"/>
<path d="M542.141 267.739L465.962 311.72L405.82 276.998L482.002 233.016L542.141 267.739Z" fill="#455A64"/>
<path d="M465.705 251.333L410.102 219.277C408.922 218.596 407.853 218.531 407.08 218.978C406.362 219.393 403.796 220.88 403.075 221.289C402.294 221.732 401.811 222.693 401.811 224.063L401.812 376.228C401.812 378.954 403.726 382.268 406.086 383.631L461.688 415.687C462.868 416.368 463.937 416.433 464.71 415.986C465.428 415.571 468.011 414.085 468.734 413.664C469.503 413.216 469.979 412.26 469.979 410.901V258.736C469.98 256.01 468.066 252.696 465.705 251.333Z" fill="#263238"/>
<path opacity="0.2" d="M465.963 274.685L469.98 272.37V258.473L465.951 260.792L465.963 274.685Z" fill="black"/>
<path opacity="0.2" d="M546.164 228.392L550.181 226.077V212.18L546.152 214.499L546.164 228.392Z" fill="black"/>
<path d="M413.839 378.85L409.83 381.165L409.831 393.82C409.831 394.501 410.309 395.33 410.899 395.671L412.771 396.752C413.361 397.093 414.318 397.093 414.908 396.752L416.78 395.671C417.37 395.33 418.029 394.532 418.253 393.888L421.86 383.48L413.839 378.85Z" fill="#263238"/>
<path d="M409.831 393.819C409.831 394.5 410.309 395.329 410.899 395.67L412.771 396.751C413.361 397.092 414.02 396.846 414.243 396.202L417.85 385.794L409.83 381.164L409.831 393.819Z" fill="#37474F"/>
<path d="M453.935 401.949L449.926 404.264L449.927 416.919C449.927 417.6 450.405 418.429 450.995 418.77L452.867 419.851C453.457 420.192 454.414 420.192 455.004 419.851L456.876 418.77C457.466 418.429 458.125 417.631 458.349 416.987L461.956 406.578L453.935 401.949Z" fill="#263238"/>
<path d="M449.927 416.919C449.927 417.601 450.405 418.429 450.995 418.77L452.867 419.851C453.457 420.192 454.116 419.946 454.339 419.302L457.946 408.894L449.926 404.264L449.927 416.919Z" fill="#37474F"/>
<path d="M406.085 221.595L461.688 253.651C464.049 255.014 465.962 258.328 465.962 261.054V413.219C465.962 414.582 465.963 418.201 465.963 418.201C465.963 418.201 462.868 416.368 461.688 415.687L406.086 383.631C403.726 382.268 401.812 378.954 401.812 376.228L401.811 224.063C401.811 222.693 402.294 221.732 403.075 221.289C403.847 220.85 404.911 220.917 406.085 221.595Z" fill="#37474F"/>
<path opacity="0.2" d="M461.688 253.651L406.085 221.595C404.911 220.917 403.848 220.85 403.075 221.289C402.294 221.732 401.811 222.693 401.811 224.063V237.647L465.962 274.685V261.055C465.962 258.328 464.048 255.014 461.688 253.651Z" fill="black"/>
<path d="M494.027 246.901L538.131 221.438L538.132 267.734" stroke="#FAFAFA" stroke-width="1.23383" stroke-miterlimit="10" stroke-linecap="round" stroke-linejoin="round"/>
<path d="M530.113 256.161L538.132 221.438L522.094 249.215" stroke="#FAFAFA" stroke-width="1.23383" stroke-miterlimit="10" stroke-linecap="round" stroke-linejoin="round"/>
<path d="M538.129 221.438L514.072 244.586" stroke="#FAFAFA" stroke-width="1.23383" stroke-miterlimit="10" stroke-linecap="round" stroke-linejoin="round"/>
<path d="M538.13 260.347C538.14 253.855 530.726 253.496 530.726 253.496C531.18 251.529 530.687 248.372 528.296 246.329C525.905 244.286 524.289 245.408 523.807 246.244C523.807 246.244 524.309 240.278 519.15 239.7C519.15 239.7 522.57 233.39 519.15 232.395" stroke="#FAFAFA" stroke-width="1.23383" stroke-miterlimit="10" stroke-linecap="round" stroke-linejoin="round"/>
<path d="M538.131 250.371C537.869 247.05 535.329 242.826 532.721 244.863C532.721 244.863 533.41 237.616 528.241 238.566C528.241 238.566 530.664 231.844 525.584 233.509C525.584 233.509 529.244 228.881 526.406 228.205" stroke="#FAFAFA" stroke-width="1.23383" stroke-miterlimit="10" stroke-linecap="round" stroke-linejoin="round"/>
<path d="M559.676 205.241C559.683 204.349 559.099 203.456 557.917 202.774L498.304 168.356C495.944 166.993 492.116 166.993 489.756 168.356L398.068 221.292C396.886 221.974 396.302 222.867 396.309 223.76C396.316 224.588 396.316 227.562 396.309 228.39C396.302 229.282 396.886 230.175 398.068 230.857L457.681 265.274C460.041 266.637 463.869 266.637 466.229 265.274L557.917 212.338C559.099 211.656 559.683 210.763 559.676 209.87C559.669 209.043 559.669 206.069 559.676 205.241Z" fill="#37474F"/>
<path d="M457.678 260.644L398.065 226.227C395.705 224.864 395.705 222.655 398.065 221.292L489.753 168.356C492.114 166.993 495.941 166.993 498.301 168.356L557.914 202.774C560.274 204.137 560.274 206.347 557.914 207.709L466.227 260.645C463.866 262.007 460.039 262.007 457.678 260.644Z" fill="#455A64"/>
<path opacity="0.1" d="M546.151 219.123L518.087 253.846L469.979 281.628L469.971 263.105L546.151 219.123Z" fill="black"/>
<path opacity="0.1" d="M542.144 272.361L518.086 304.772L469.978 332.554L469.977 314.028L542.144 272.361Z" fill="black"/>
<path opacity="0.1" d="M542.143 323.293L518.085 355.703L469.977 383.485V364.956L542.143 323.293Z" fill="black"/>
<path d="M431.781 424.442L358.019 467.027L274.957 418.964L348.719 376.379L431.781 424.442Z" fill="#A967FF"/>
<path opacity="0.5" d="M431.781 424.442L358.019 467.027L274.957 418.964L348.719 376.379L431.781 424.442Z" fill="black"/>
<path d="M348.72 318.65L348.719 376.376L274.957 418.961L274.958 361.235L348.72 318.65Z" fill="#A967FF"/>
<path opacity="0.23" d="M348.72 318.65L348.719 376.376L274.957 418.961L274.958 361.235L348.72 318.65Z" fill="black"/>
<path d="M358.019 409.295V467.025L274.957 418.962L274.958 361.236L358.019 409.295Z" fill="#A967FF"/>
<path opacity="0.38" d="M358.019 409.295V467.025L274.957 418.962L274.958 361.236L358.019 409.295Z" fill="black"/>
<path d="M431.783 366.708V424.439L348.721 376.376L348.722 318.65L431.783 366.708Z" fill="#A967FF"/>
<path opacity="0.4" d="M431.783 366.708V424.439L348.721 376.376L348.722 318.65L431.783 366.708Z" fill="black"/>
<path d="M431.782 424.442V366.711L358.02 409.297V467.027L431.782 424.442Z" fill="#A967FF"/>
<path opacity="0.23" d="M431.782 424.442V366.711L358.02 409.297V467.027L431.782 424.442Z" fill="black"/>
<path d="M348.721 318.651L348.824 286.691L431.681 334.811L431.782 366.709L348.721 318.651Z" fill="#A967FF"/>
<path opacity="0.2" d="M348.721 318.651L348.824 286.691L431.681 334.811L431.782 366.709L348.721 318.651Z" fill="black"/>
<path d="M358.02 409.295L364.937 381.337L438.031 339.137L431.782 366.709L358.02 409.295Z" fill="#A967FF"/>
<path opacity="0.3" d="M358.02 409.295L364.937 381.337L438.031 339.137L431.782 366.709L358.02 409.295Z" fill="black"/>
<path d="M274.96 361.238L266.162 332.24L339.923 289.654L348.722 318.653L274.96 361.238Z" fill="#A967FF"/>
<path opacity="0.1" d="M274.96 361.238L266.162 332.24L339.923 289.654L348.722 318.653L274.96 361.238Z" fill="black"/>
<path d="M274.959 361.237L257.604 337.271L340.673 385.329L358.02 409.296L274.959 361.237Z" fill="#A967FF"/>
<path opacity="0.45" d="M274.959 361.237L257.604 337.271L340.673 385.329L358.02 409.296L274.959 361.237Z" fill="black"/>
<g opacity="0.7">
<path d="M379.734 449.861C379.483 449.861 379.281 449.657 379.281 449.408V439.25C379.281 439 379.484 438.797 379.734 438.797C379.985 438.797 380.187 439.001 380.187 439.25V449.408C380.187 449.657 379.984 449.861 379.734 449.861Z" fill="white"/>
<path d="M378.407 442.767C378.347 442.767 378.286 442.755 378.227 442.73C377.997 442.631 377.891 442.363 377.991 442.133L379.605 438.406L381.404 440.485C381.568 440.674 381.547 440.961 381.358 441.126C381.169 441.285 380.882 441.269 380.719 441.08L379.864 440.092L378.824 442.495C378.749 442.664 378.583 442.767 378.407 442.767Z" fill="white"/>
<path d="M383.93 447.467C383.679 447.467 383.477 447.263 383.477 447.014V436.857C383.477 436.607 383.68 436.404 383.93 436.404C384.18 436.404 384.383 436.608 384.383 436.857V447.014C384.383 447.263 384.18 447.467 383.93 447.467Z" fill="white"/>
<path d="M382.602 440.374C382.542 440.374 382.481 440.362 382.422 440.337C382.192 440.238 382.086 439.97 382.186 439.74L383.799 436.016L385.598 438.091C385.762 438.28 385.742 438.567 385.552 438.73C385.362 438.895 385.078 438.874 384.913 438.686L384.058 437.698L383.019 440.101C382.943 440.271 382.777 440.374 382.602 440.374Z" fill="white"/>
</g>
<g opacity="0.7">
<path d="M367.653 456.753C367.476 456.753 367.308 456.71 367.158 456.625C366.813 456.428 366.615 456.032 366.615 455.536V454.293C366.615 454.043 366.818 453.84 367.068 453.84C367.319 453.84 367.521 454.044 367.521 454.293V455.536C367.521 455.722 367.572 455.818 367.607 455.837C367.64 455.862 367.747 455.851 367.903 455.759C368.303 455.525 368.746 454.627 368.746 453.71V448.51C368.746 448.26 368.949 448.057 369.199 448.057C369.45 448.057 369.652 448.261 369.652 448.51V453.71C369.652 454.893 369.098 456.11 368.362 456.542C368.126 456.682 367.881 456.753 367.653 456.753Z" fill="white"/>
<path d="M362.877 452.562V451.778C362.877 448.086 365.477 443.579 368.675 441.734C370.31 440.792 371.872 440.652 373.068 441.345C374.267 442.037 374.927 443.458 374.927 445.345V445.607L362.877 452.562ZM371.388 441.816C370.705 441.816 369.935 442.053 369.128 442.519C366.411 444.086 364.162 447.739 363.827 450.968L374.015 445.085C373.962 443.667 373.47 442.622 372.614 442.128C372.253 441.921 371.84 441.816 371.388 441.816Z" fill="white"/>
</g>
<path opacity="0.7" d="M257.604 337.271L340.673 385.329L358.02 409.296L339.75 386.175L257.604 337.271Z" fill="white"/>
<path opacity="0.7" d="M431.783 366.711L358.021 409.297V467.027L359.397 410.457L431.783 366.711Z" fill="white"/>
<path d="M323.538 343.62C331.148 342.519 338.1 337.644 342.512 331.455C344.566 328.573 346.127 325.347 347.012 321.916C347.824 318.768 348.279 315.233 347.476 312.035C346.1 306.553 341.02 303.301 335.648 302.616C332.94 302.27 330.136 302.521 327.553 303.414C324.8 304.365 322.552 306.096 320.856 308.46C319.975 309.688 319.052 311.214 319.011 312.773C318.975 314.13 319.946 315.1 321.249 315.322C322.821 315.589 324.48 314.918 325.825 314.162C327.484 313.229 328.907 312.01 330.093 310.524C332.516 307.488 334.581 303.778 335.636 300.021C336.547 296.775 336.351 293.23 335.656 289.964C334.946 286.626 333.562 283.216 331.119 280.763C328.563 278.197 324.909 276.928 321.386 276.467C317.811 276 314.052 276.322 310.64 277.502C309.171 278.01 307.654 278.688 306.514 279.756C305.656 280.56 304.675 281.883 305.026 283.177C305.416 284.62 307.275 285.052 308.564 284.887C310.446 284.645 312.241 283.474 313.574 282.174C315.042 280.742 316.364 278.994 317.341 277.188C318.061 275.856 318.503 274.375 318.472 272.851C318.343 266.503 311.337 262.403 305.842 261.246C304.351 260.932 302.847 260.834 301.33 260.948C300.821 260.986 301.131 261.786 301.544 261.755C304.429 261.538 307.399 262.405 309.959 263.682C312.442 264.921 314.805 266.754 316.17 269.215C317.545 271.693 317.385 274.542 315.936 276.952C314.944 278.602 313.742 280.277 312.314 281.575C311.123 282.657 309.334 283.903 307.638 283.781C307.141 283.745 306.508 283.508 306.32 282.955C306.097 282.3 306.594 281.539 306.916 281.139C307.726 280.133 308.965 279.526 310.144 279.003C313.073 277.703 316.453 277.28 319.632 277.446C322.906 277.618 326.313 278.46 328.974 280.454C331.474 282.328 332.945 285.229 333.835 288.163C334.754 291.195 335.14 294.513 334.711 297.665C334.274 300.875 332.746 303.948 331.085 306.687C329.234 309.74 326.911 312.652 323.431 313.887C322.571 314.192 320.771 314.645 320.427 313.39C320.088 312.155 321.068 310.607 321.703 309.637C323.147 307.432 325.078 305.727 327.521 304.726C329.811 303.788 332.35 303.437 334.814 303.623C339.523 303.979 344.306 306.439 345.946 311.118C346.907 313.859 346.711 316.905 346.199 319.719C345.632 322.83 344.474 325.826 342.889 328.558C339.489 334.416 334.179 338.816 328 341.501C326.519 342.144 324.982 342.68 323.449 343.186C323.287 343.245 323.358 343.646 323.538 343.62Z" fill="#E0E0E0"/>
<path d="M291.747 256.799C287.694 256.514 282.237 259.659 284.196 261.961C286.156 264.263 291.361 260.539 291.361 260.539C291.361 260.539 290.87 265.191 292.573 265.716C294.275 266.241 296.528 261.811 294.87 258.975C294.87 258.975 297.426 260.109 299.842 258.328C302.258 256.547 299.696 254.873 296.286 255.171C296.286 255.171 298.726 247.196 293.797 248.703C291.362 249.448 290.487 252.342 291.747 256.799Z" fill="#A967FF"/>
<path opacity="0.65" d="M291.747 256.799C287.694 256.514 282.237 259.659 284.196 261.961C286.156 264.263 291.361 260.539 291.361 260.539C291.361 260.539 290.87 265.191 292.573 265.716C294.275 266.241 296.528 261.811 294.87 258.975C294.87 258.975 297.426 260.109 299.842 258.328C302.258 256.547 299.696 254.873 296.286 255.171C296.286 255.171 298.726 247.196 293.797 248.703C291.362 249.448 290.487 252.342 291.747 256.799Z" fill="white"/>
<path d="M295.468 258.498C295.251 258.28 295.012 258.078 294.768 257.89C294.417 257.619 294.052 257.364 293.695 257.102C293.354 256.852 292.995 256.633 292.624 256.431C292.409 256.314 292.189 256.205 291.965 256.107C291.619 255.956 291.32 255.9 290.94 255.948C290.587 255.993 290.274 256.394 290.538 256.729C290.853 257.129 291.239 257.206 291.588 257.386C291.771 257.48 291.951 257.58 292.128 257.684C292.495 257.899 292.831 258.15 293.173 258.402C293.514 258.653 293.867 258.887 294.203 259.144C294.734 259.549 295.274 259.954 295.91 260.18C295.967 260.2 296.041 260.19 296.085 260.147C296.507 259.742 295.762 258.793 295.468 258.498Z" fill="#455A64"/>
<path d="M614.285 146.79C609.91 152.667 604.064 184.999 601.854 195.363C591.222 195.055 577.003 194.56 571.617 193.993C565.652 193.365 552.81 192.138 546.524 192.961C530.915 195.005 531.535 205.22 531.898 207.891C532.314 210.96 534.503 212.354 542.856 210.448C544.727 210.021 546.659 209.812 548.577 209.773C549.394 209.757 551.098 209.368 551.737 210.059C552.697 211.097 549.853 212.734 549.131 213.199C548.019 213.917 546.861 214.826 546.626 216.128C546.539 216.611 546.631 217.186 547.044 217.452C547.409 217.687 547.886 217.602 548.308 217.502C552.137 216.597 555.845 215.186 559.307 213.316C560.65 212.59 561.969 211.79 563.422 211.321C565.592 210.62 567.826 211.038 570.014 211.038C574.7 211.038 599.487 213.491 610.506 214.613C618.136 215.39 618.951 207.851 621.579 200.229C624.848 190.749 632.5 140.976 632.5 140.976C624.785 139.875 619.483 139.809 614.285 146.79Z" fill="#FFA8A7"/>
<path d="M632.619 140.217C628.927 139.541 620.632 138.506 616.106 143.555C611.58 148.604 610.514 153.912 608.522 161.55C606.531 169.188 603.035 182.911 603.035 182.911C603.035 182.911 608.861 191.276 627.114 188.906L632.619 140.217Z" fill="#37474F"/>
<path d="M678.446 404.64L665.614 404.653L661.93 376.795L678.119 376.16L678.446 404.64Z" fill="#FFA8A7"/>
<path d="M635.853 390.736C633.664 394.517 626.66 394.21 620.815 392.871L620.143 365.489L637.303 364.816L635.853 390.736Z" fill="#FFA8A7"/>
<path d="M677.573 228.663C678.037 240.509 676.471 310.582 676.471 310.582C676.893 313.98 680.413 319.911 681.149 332.179C682.217 349.969 678.583 388.026 678.583 388.026C678.583 388.026 671.235 391.867 663.318 388.927C663.318 388.927 655.253 333.891 652.339 316.354C649.796 301.049 646.532 260.011 646.532 260.011L640.202 312.615C640.202 312.615 641.974 320.933 641.638 331.503C641.378 339.678 636.718 379.398 636.718 379.398C636.718 379.398 628.897 382.328 620.301 379.794C620.301 379.794 616.475 318.152 616.038 310.678C615.54 302.157 615.881 226.951 615.881 226.951L677.573 228.663Z" fill="#A967FF"/>
<path opacity="0.2" d="M646.535 260.011C646.535 260.011 635.327 256.835 627.689 250.012C627.689 250.012 631.267 256.122 641.407 261.542L640.826 307.453L646.535 260.011Z" fill="black"/>
<path d="M650.954 427.874C650.539 428.295 650.778 431.059 651.282 431.786C651.823 432.566 654.845 434.945 660.149 435.117C665.217 435.281 669.703 434.422 672.596 432.422C675.489 430.422 676.844 428.288 677.01 425.398C677.176 422.508 676.747 419.744 678.033 417.474C679.22 415.378 681.149 412.993 681.545 411.867C682.407 409.416 681.349 406.002 681.349 406.002L650.954 427.874Z" fill="#263238"/>
<path d="M663.805 402.199C663.813 403.319 663.656 404.346 663.348 405.427C662.703 407.688 661.672 409.833 660.501 411.881C659.898 412.935 659.258 413.973 658.51 414.937C657.053 416.816 655.213 418.384 653.663 420.192C652.113 422 650.821 424.17 650.786 426.518C650.726 430.49 655.081 431.668 658.416 432.128C661.977 432.619 665.745 432.282 669.158 431.166C672.956 429.924 675.611 426.84 676.098 422.983C676.238 421.875 676.126 420.753 676.213 419.64C676.411 417.102 677.628 414.743 679.024 412.584C679.834 411.332 680.719 410.106 681.241 408.717C682.179 406.223 681.242 403.495 680.485 401.077C679.831 398.989 679.099 396.625 678.364 396.853C678.363 397.959 678.408 398.061 677.652 398.834C676.696 399.811 676.708 401.224 675.691 402.094C676.132 400.789 676.142 400.242 676.317 399.246C676.369 398.948 676.266 398.352 676.05 398.134C675.759 397.841 675.278 397.67 674.807 397.531C673.227 397.065 671.596 396.762 669.951 396.625C668.448 396.499 666.723 396.384 665.253 396.775C664.801 396.895 664.366 397.13 664.099 397.504C663.818 397.898 663.777 398.239 663.731 398.875C663.684 399.511 663.798 401.145 663.805 402.199Z" fill="#455A64"/>
<path d="M659.995 412.732C661.428 411.569 664.734 411.424 666.55 411.547C668.824 411.701 670.689 412.423 671.76 413.149C672.235 413.471 672.878 413.387 673.269 412.97C673.739 412.469 673.663 411.677 673.091 411.29C671.956 410.521 669.914 409.457 667.223 409.373C662.761 409.234 661.485 410.048 661.485 410.048C661.485 410.048 659.507 411.435 659.995 412.732Z" fill="#F5F5F5"/>
<path d="M656.762 416.925C658.575 415.755 662.219 415.771 664.035 415.894C666.309 416.048 668.037 416.872 669.109 417.599C669.584 417.921 670.227 417.837 670.618 417.42C671.088 416.919 671.012 416.127 670.44 415.74C669.305 414.971 667.131 413.742 664.44 413.658C659.978 413.519 658.854 414.473 658.854 414.473C658.854 414.473 657.005 415.274 656.762 416.925Z" fill="#F5F5F5"/>
<path d="M668.83 405.048C665.743 404.851 664.452 405.246 663.254 405.737C662.487 406.207 662.019 407.466 662.536 407.76C663.505 407.171 665.279 406.873 667.468 406.885C668.937 406.893 670.807 407.414 672.332 408.018C672.719 408.172 673.179 408.391 673.582 408.594C674.126 408.868 674.794 408.632 675.029 408.081C675.227 407.614 675.045 407.074 674.594 406.825C673.493 406.217 671.325 405.207 668.83 405.048Z" fill="#F5F5F5"/>
<path d="M591.533 407.805C591.072 408.661 591.116 410.309 591.563 411.374C592.011 412.439 597.305 415.765 604.665 415.618C612.026 415.472 617.205 412.755 620.09 411.036C622.975 409.317 625.904 409.109 629.547 409.074C633.19 409.038 638.047 407.454 638.925 405.792C639.803 404.131 639.025 401.16 639.025 401.16L591.533 407.805Z" fill="#263238"/>
<path d="M622.231 386.313C622.042 386.263 621.85 386.214 621.656 386.166C621.34 386.087 621.011 386.008 620.691 386.068C620.327 386.136 620.02 386.376 619.756 386.636C618.926 387.456 618.398 388.525 617.742 389.49C616.085 391.926 612.758 393.85 609.142 395.578C606.684 396.753 604.288 397.64 601.76 398.636C599.182 399.652 595.798 400.186 593.76 401.424C590.788 403.228 590.185 408.086 593.374 410.167C596.125 411.962 603.485 414.116 611.4 412.275C615.711 411.272 620.649 406.951 626.254 406.779C629.818 406.67 636.58 405.991 638.994 403.404C639.896 402.248 638.948 398.403 638.177 395.087C637.336 391.467 637.719 386.048 636.105 386.111L636.004 387.92C635.854 388.463 634.578 388.992 634.184 389.408C633.703 389.916 633.222 390.423 632.741 390.931C632.111 391.595 631.459 392.276 630.624 392.65C629.186 393.293 627.521 392.91 625.996 392.516C625.926 392.498 626.766 389.733 626.85 389.465C626.919 389.246 626.994 389.013 626.935 388.791C626.874 388.567 626.688 388.401 626.504 388.258C625.179 387.232 623.785 386.726 622.231 386.313Z" fill="#455A64"/>
<path d="M612.549 393.802C612.549 393.802 613.124 392.464 615.255 392.171C616.885 391.947 619.682 393.273 621.387 394.819C622.085 395.452 621.936 396.583 621.091 396.999C620.588 397.246 619.991 397.147 619.586 396.759C618.471 395.692 615.95 393.729 612.549 393.802Z" fill="#F5F5F5"/>
<path d="M607.408 396.371C607.408 396.371 608.529 394.789 610.592 394.918C610.592 394.918 614.805 395.24 617.301 397.798C617.938 398.451 617.841 399.505 617.022 399.906C616.535 400.144 615.96 400.047 615.573 399.668C614.446 398.561 612.192 396.241 607.408 396.371Z" fill="#F5F5F5"/>
<path d="M601.76 398.633C601.76 398.633 602.993 397.211 605.056 397.34C605.056 397.34 608.98 397.674 611.476 400.232C612.113 400.885 612.016 401.939 611.197 402.34C610.71 402.578 610.134 402.482 609.748 402.102C608.621 400.996 606.544 398.503 601.76 398.633Z" fill="#F5F5F5"/>
<path d="M654.006 140.44C658.729 140.976 664.312 141.268 668.819 141.86C674.629 142.622 679.163 148.633 680.578 157.927C682.137 168.172 675.613 197.531 675.613 197.531L677.703 232.147C669.187 238.421 632.952 241.712 614.887 228.669C614.887 228.669 615.308 169.747 616.721 160.704C618.664 148.262 621.697 140.529 635.734 139.637L654.006 140.44Z" fill="#455A64"/>
<path d="M686.271 215.442C684.74 218.002 683.202 220.558 681.622 223.088C681.037 224.025 680.449 224.96 679.836 225.878C679.617 226.207 678.997 226.868 678.685 227.084C677.927 227.61 676.348 227.278 675.43 227.308C670.913 227.457 666.401 227.785 661.91 228.293C661.165 228.377 660.322 228.525 659.92 229.157C659.46 229.878 659.862 230.895 660.557 231.395C661.252 231.895 662.141 232.012 662.991 232.114C664.292 232.27 665.592 232.426 666.893 232.581C667.442 232.647 668.023 232.726 668.452 233.075C669.869 234.228 667.163 235.609 666.349 236.169C664.722 237.289 662.982 238.275 661.161 239.043C653.034 242.47 652.042 244.951 653.538 247.766C654.841 250.217 660.46 259.128 674.736 251.456C680.485 248.366 689.242 238.605 693.225 233.886C698.973 227.076 708.679 211.871 708.679 211.871C714.198 204.29 714.914 201.18 715.036 198.022C715.158 194.864 698.028 170.644 692.221 162.14C686.414 153.636 683.631 143.277 668.818 141.857C668.818 141.857 663.184 159.74 672.517 171.31L694.088 201.395C694.087 201.398 688.373 211.928 686.271 215.442Z" fill="#FFA8A7"/>
<path d="M701.916 173.705C699.151 169.704 696.261 165.586 693.467 161.507C681.724 144.361 682.706 141.221 665.769 140.979C664.27 143.284 663.376 153.176 665.636 163.118C667.535 171.472 674.607 177.358 674.607 177.358L683.092 188.85C683.092 188.85 688.281 188.691 694.504 184.128C700.727 179.565 701.916 173.705 701.916 173.705Z" fill="#37474F"/>
<path d="M665.167 95.3726C661.97 90.9016 657.318 91.6716 657.318 91.6716L656.444 113.142L655.027 121.073L655.277 129.896C655.277 129.896 657.668 129.777 659.112 126.982C660.424 124.442 664.074 112.157 664.074 112.157L664.058 112.173C667.413 102.092 666.706 97.5246 665.167 95.3726Z" fill="#263238"/>
<path d="M655.434 113.239C655.853 111.894 656.266 111.136 657.505 109.816C658.737 108.503 663.637 107.066 665.871 111.228C668.147 115.47 664.341 120.88 661.442 122.561C657.725 124.716 655.547 121.78 655.547 121.78L655.633 141.546C653.905 145.522 646.093 149.11 641.452 148.52C637.748 148.049 634.335 145.134 637.644 140.894L637.379 135.262C637.379 135.262 632.431 136.266 629.981 136.011C625.904 135.586 623.2 132.52 621.755 128.201C619.435 121.264 618.405 115.621 619.391 101.703C620.472 86.4481 638.102 85.4151 647.924 90.9381C657.746 96.4591 655.434 113.239 655.434 113.239Z" fill="#FFA8A7"/>
<path d="M613.776 85.8876C613.329 82.5576 614.482 78.9866 617.966 77.8076C620.594 76.9146 623.291 76.9666 625.71 79.0956C626.574 76.7486 628.842 74.9826 631.329 74.7216C633.816 74.4606 636.402 75.7156 637.735 77.8316C638.788 76.3496 640.03 75.4566 641.755 75.0366C643.771 74.5466 646.265 75.0596 647.694 76.1146C649.123 77.1696 650.788 79.1616 650.366 81.6456C653.179 80.5206 656.107 81.4536 658.194 83.9416C659.445 85.4336 660.129 87.3646 660.186 89.3036C660.214 90.2476 660.155 91.3996 659.763 92.2766C659.356 93.1906 658.535 93.7876 658.301 94.8186C658.081 95.7866 657.633 96.6826 657.766 97.6576C657.995 99.3396 658.366 101.012 658.587 102.701C658.8 104.33 658.99 105.977 658.999 107.622C659.003 108.409 658.441 108.966 657.785 109.547C656.717 110.494 656.477 110.988 655.683 112.598C655.329 113.316 654.992 115.093 654.296 115.58C652.167 117.067 651.931 112.242 651.829 111.318C651.726 110.394 651.698 107.976 651.874 104.909C651.191 104.865 648.379 104.82 646.203 102.301C645.493 101.478 644.94 100.226 644.795 99.1656C644.702 98.4836 644.599 97.8886 644.629 97.2046C643.244 99.5026 640.007 100.444 637.712 100.237C633.847 99.8886 632.524 98.2396 631.901 97.0226C631.617 98.1016 631.149 99.4816 630.366 100.283C629.379 101.293 628.063 101.904 626.905 102.299C624.75 103.034 622.178 102.109 620.589 100.479C619.021 102.731 615.042 101.727 614.16 101.093C612.139 99.6416 611.513 97.9196 611.293 95.4416C611.074 92.9636 612.071 90.1586 614.807 89.1856C614.287 88.1936 613.933 87.0556 613.776 85.8876Z" fill="#263238"/>
<path d="M637.381 135.263C637.381 135.263 646.323 132.995 649.398 131.16C651.456 129.932 653.1 127.898 653.549 126.625C653.549 126.625 653.09 129.334 651.322 131.842C649.159 134.909 637.501 137.666 637.501 137.666L637.381 135.263Z" fill="#F28F8F"/>
<path d="M637.878 112.578C637.933 113.69 638.845 114.546 639.915 114.489C640.985 114.433 641.807 113.487 641.752 112.375C641.697 111.264 640.785 110.408 639.715 110.464C638.646 110.52 637.823 111.467 637.878 112.578Z" fill="#263238"/>
<path d="M634.884 127.044C634.955 128.475 636.129 129.578 637.507 129.505C638.885 129.433 639.943 128.214 639.872 126.783C639.801 125.352 638.627 124.25 637.25 124.322C635.872 124.394 634.813 125.613 634.884 127.044Z" fill="#F28F8F"/>
<path d="M639.49 105.921L643.609 107.935C644.143 106.754 643.654 105.345 642.516 104.789C641.379 104.232 640.024 104.739 639.49 105.921Z" fill="#263238"/>
<path d="M621.566 107.644L625.082 104.647C624.284 103.637 622.851 103.49 621.88 104.317C620.909 105.145 620.768 106.634 621.566 107.644Z" fill="#263238"/>
<path d="M622.62 112.19C622.673 113.265 623.555 114.093 624.591 114.039C625.626 113.985 626.421 113.069 626.368 111.994C626.315 110.919 625.432 110.091 624.398 110.145C623.362 110.198 622.566 111.114 622.62 112.19Z" fill="#263238"/>
<path d="M631.899 109.963L631.84 121.797L625.574 120.002L631.899 109.963Z" fill="#F28F8F"/>
<path d="M616.19 126.519C616.303 126.494 616.406 126.427 616.475 126.323C616.617 126.11 616.56 125.821 616.347 125.679L610.912 122.058C610.698 121.916 610.41 121.974 610.268 122.187C610.126 122.4 610.183 122.689 610.396 122.831L615.831 126.452C615.941 126.525 616.07 126.546 616.19 126.519Z" fill="#E0E0E0"/>
<path d="M615.605 128.857C615.774 128.819 615.915 128.689 615.957 128.508C616.015 128.258 615.859 128.009 615.609 127.95L609.248 126.475C609 126.416 608.748 126.572 608.69 126.823C608.632 127.073 608.788 127.322 609.038 127.38L615.4 128.855C615.469 128.872 615.539 128.871 615.605 128.857Z" fill="#E0E0E0"/>
<path d="M609.702 133.09C609.722 133.085 609.742 133.08 609.761 133.073L615.893 130.829C616.134 130.741 616.258 130.474 616.17 130.233C616.081 129.992 615.796 129.872 615.574 129.956L609.442 132.199C609.201 132.287 609.077 132.554 609.165 132.795C609.247 133.018 609.479 133.14 609.702 133.09Z" fill="#E0E0E0"/>
<path d="M557.838 181.055C557.999 181.379 558.279 181.641 558.644 181.772C559.395 182.043 560.226 181.653 560.497 180.903L565.065 169.653C565.335 168.9 564.945 168.072 564.193 167.801C563.442 167.53 562.611 167.92 562.34 168.67L557.772 179.92C557.635 180.308 557.669 180.714 557.838 181.055Z" fill="#E0E0E0"/>
<path d="M550.329 181.038C550.569 181.522 551.07 181.85 551.646 181.842C552.445 181.83 553.083 181.173 553.072 180.374L552.927 166.34C552.919 165.546 552.259 164.901 551.459 164.914C550.66 164.925 550.022 165.583 550.033 166.382L550.178 180.416C550.181 180.638 550.236 180.851 550.329 181.038Z" fill="#E0E0E0"/>
<path d="M537.594 173.212C537.623 173.27 537.656 173.327 537.691 173.379L544.58 183.382C545.027 184.047 545.926 184.222 546.59 183.776C547.254 183.327 547.403 182.375 546.982 181.767L540.093 171.764C539.646 171.099 538.747 170.924 538.083 171.37C537.475 171.782 537.278 172.574 537.594 173.212Z" fill="#E0E0E0"/>
</svg>
