<svg width="302" height="123" viewBox="0 0 302 123" fill="none" xmlns="http://www.w3.org/2000/svg">
<g clip-path="url(#clip0_9320_3589)">
<rect x="0.86377" width="300.272" height="122.839" rx="12.7957" fill="url(#paint0_linear_9320_3589)"/>
<g opacity="0.05">
<path d="M242.743 37.2506L152.399 47.9552L223.852 -8.35866L207.766 -24.4441L151.452 47.0082L162.157 -43.3359H139.409L150.114 47.0088L93.7991 -24.4441L77.7142 -8.35866L149.166 47.9552L58.8218 37.2506V59.9985L149.166 49.2938L77.7142 105.608L93.7991 121.693L150.113 50.2409L139.409 140.585H162.157L151.452 50.2409L207.766 121.693L223.852 105.608L152.399 49.2938L242.743 59.9985V37.2506Z" fill="#F5F5F5"/>
<path d="M149.806 -20.072L171.252 23.3837L219.208 30.3524L184.507 64.1778L192.699 111.941L149.806 89.3897L106.912 111.941L115.104 64.1778L80.4023 30.3524L128.359 23.3837L149.806 -20.072Z" fill="#E0E0E0"/>
<path d="M220.218 -18.5554L226.713 -14.2958L233.903 -17.2306L231.859 -9.73828L236.871 -3.80615L229.114 -3.43562L225.022 3.16553L222.272 -4.09801L214.729 -5.95008L220.788 -10.8102L220.218 -18.5554Z" fill="#E0E0E0"/>
<path d="M225.925 95.8408L232.419 100.1L239.61 97.1656L237.565 104.658L242.578 110.59L234.82 110.961L230.728 117.562L227.978 110.298L220.436 108.446L226.494 103.586L225.925 95.8408Z" fill="#E0E0E0"/>
<path d="M58.7641 111.579L65.2583 115.838L72.4486 112.904L70.4044 120.397L75.4171 126.328L67.6599 126.699L63.5672 133.3L60.8173 126.036L53.2751 124.184L59.3328 119.325L58.7641 111.579Z" fill="#E0E0E0"/>
<path d="M46.3898 48.5132L49.7174 50.6961L53.4023 49.1924L52.3544 53.0317L54.9235 56.071L50.9485 56.2614L48.8514 59.6436L47.442 55.922L43.5769 54.9726L46.6811 52.4822L46.3898 48.5132Z" fill="#E0E0E0"/>
<path d="M249.457 42.2295L252.784 44.4125L256.469 42.9087L255.421 46.748L257.99 49.7873L254.015 49.9777L251.918 53.3599L250.509 49.6378L246.644 48.6889L249.748 46.1985L249.457 42.2295Z" fill="#E0E0E0"/>
<path d="M211.906 59.1462L216.49 62.1531L221.567 60.0819L220.123 65.3708L223.662 69.5578L218.186 69.8196L215.297 74.4792L213.356 69.3518L208.032 68.0444L212.308 64.6136L211.906 59.1462Z" fill="#E0E0E0"/>
<path d="M181.334 116.551L183.457 117.944L185.809 116.984L185.14 119.434L186.779 121.374L184.243 121.495L182.904 123.654L182.005 121.279L179.539 120.673L181.519 119.084L181.334 116.551Z" fill="#E0E0E0"/>
<path d="M131.952 114.01L134.075 115.403L136.427 114.443L135.758 116.894L137.397 118.833L134.861 118.955L133.522 121.114L132.623 118.739L130.157 118.133L132.138 116.544L131.952 114.01Z" fill="#E0E0E0"/>
<path d="M66.7991 20.1447L66.2484 22.6244L67.9792 24.4837L65.4509 24.7263L64.2174 26.9465L63.2055 24.617L60.7126 24.1305L62.6152 22.4478L62.3083 19.9268L64.4961 21.2161L66.7991 20.1447Z" fill="#E0E0E0"/>
<path d="M84.119 71.8425L87.4472 74.0255L91.1315 72.5217L90.0841 76.361L92.6527 79.4009L88.6777 79.5907L86.5806 82.9729L85.1711 79.2514L81.3066 78.3019L84.4108 75.8115L84.119 71.8425Z" fill="#E0E0E0"/>
<path d="M106.848 -4.74731L110.176 -2.56434L113.861 -4.0681L112.813 -0.228847L115.382 2.81109L111.406 3.00086L109.309 6.3837L107.9 2.66156L104.035 1.71211L107.14 -0.777742L106.848 -4.74731Z" fill="#E0E0E0"/>
<path d="M244.707 37.3574L187.648 26.3269L173.705 98.4516L230.764 109.482L244.707 37.3574Z" fill="#263238"/>
<path d="M213.88 71.5946L203.473 69.5818L201.46 79.9884L211.867 82.0013L213.88 71.5946Z" fill="white"/>
<path d="M212.212 76.6575C211.728 79.1593 209.308 80.7952 206.806 80.3118C204.304 79.8283 202.668 77.4076 203.152 74.9057C203.636 72.4039 206.056 70.768 208.558 71.2514C211.059 71.7355 212.696 74.1556 212.212 76.6575Z" fill="#263238"/>
<path d="M196.243 45.6483L185.837 43.6365L183.825 54.0431L194.231 56.0549L196.243 45.6483Z" fill="white"/>
<path d="M191.182 47.4731L190.239 52.3477L189.334 52.173L190.129 48.0575L189.099 47.8581L189.246 47.0984L191.182 47.4731Z" fill="#263238"/>
<path d="M207.166 47.7598L196.759 45.748L194.747 56.1547L205.154 58.1665L207.166 47.7598Z" fill="white"/>
<path d="M200.079 49.1923L199.137 54.0668L198.231 53.8921L199.027 49.7772L197.997 49.5778L198.144 48.8181L200.079 49.1923Z" fill="#263238"/>
<path d="M203.847 53.4602C203.688 54.2818 202.931 54.8727 201.622 54.6193C200.933 54.486 200.284 54.1442 199.9 53.701L200.425 53.0735C200.717 53.4338 201.21 53.7233 201.76 53.8302C202.408 53.9551 202.846 53.7431 202.934 53.2915C203.019 52.8525 202.753 52.5054 202.015 52.3624L201.569 52.2766L201.69 51.6562L203.051 50.5554L200.837 50.1266L200.983 49.3669L204.305 50.0095L204.188 50.6155L202.732 51.7925C203.629 52.088 203.989 52.7288 203.847 53.4602Z" fill="#263238"/>
<path d="M218.077 49.8915L207.67 47.8787L205.658 58.2853L216.064 60.2981L218.077 49.8915Z" fill="white"/>
<path d="M211.933 55.3926L211.07 55.2262L210.856 56.3336L209.978 56.1637L210.192 55.0563L207.518 54.5398L207.639 53.9128L210.649 51.2368L211.617 51.4236L208.773 53.9879L210.368 54.2966L210.558 53.3147L211.408 53.4786L211.218 54.4605L212.082 54.6269L211.933 55.3926Z" fill="#263238"/>
<path d="M215.776 55.768C215.617 56.5895 214.86 57.1804 213.55 56.927C212.861 56.7937 212.212 56.452 211.828 56.0094L212.354 55.3812C212.646 55.7415 213.138 56.031 213.688 56.1379C214.336 56.2628 214.775 56.052 214.862 55.5998C214.946 55.1602 214.682 54.8131 213.944 54.6708L213.498 54.5843L213.617 53.9646L214.979 52.8632L212.764 52.435L212.911 51.6753L216.233 52.3173L216.116 52.9232L214.66 54.1003C215.557 54.3963 215.917 55.0371 215.776 55.768Z" fill="#263238"/>
<path d="M229 52.0058L218.593 49.9929L216.58 60.3996L226.987 62.4124L229 52.0058Z" fill="white"/>
<path d="M222.37 57.0426C222.211 57.8648 221.454 58.4551 220.144 58.2017C219.455 58.0684 218.806 57.7266 218.422 57.284L218.948 56.6559C219.24 57.0162 219.732 57.3063 220.282 57.4126C220.93 57.5375 221.369 57.3261 221.456 56.8745C221.541 56.4355 221.276 56.0878 220.538 55.9455L220.092 55.859L220.212 55.2392L221.574 54.1378L219.359 53.7096L219.506 52.95L222.827 53.5919L222.71 54.1979L221.255 55.3755C222.151 55.6716 222.511 56.3124 222.37 57.0426Z" fill="#263238"/>
<path d="M226.442 57.7938C226.276 58.6501 225.519 59.2405 224.21 58.987C223.521 58.8537 222.865 58.5102 222.488 58.0688L223.007 57.4394C223.305 57.801 223.798 58.091 224.349 58.1973C224.996 58.3228 225.434 58.1108 225.523 57.652C225.613 57.1854 225.371 56.8353 224.361 56.6395L223.183 56.4119L223.947 53.8074L226.81 54.3611L226.663 55.1208L224.567 54.7154L224.245 55.8228L224.711 55.9129C226.152 56.1915 226.609 56.9302 226.442 57.7938Z" fill="#263238"/>
<path d="M239.937 54.0965L229.531 52.0847L227.519 62.4914L237.926 64.5032L239.937 54.0965Z" fill="white"/>
<path d="M233.29 58.0525C232.967 59.7238 231.814 60.4547 230.4 60.1814C229.913 60.0871 229.467 59.8932 229.179 59.6199L229.645 59.0026C229.877 59.2278 230.185 59.3521 230.526 59.4181C231.445 59.5959 232.134 59.1359 232.348 58.0291L232.349 58.0231C231.991 58.3077 231.492 58.3846 230.949 58.2795C229.988 58.0933 229.384 57.3697 229.56 56.4581C229.747 55.49 230.652 55.0288 231.648 55.2216C232.978 55.4786 233.593 56.4863 233.29 58.0525ZM232.41 56.9583C232.499 56.4989 232.207 56.0665 231.56 55.9416C230.996 55.8323 230.544 56.0773 230.446 56.5854C230.347 57.094 230.669 57.488 231.26 57.6027C231.845 57.715 232.318 57.4388 232.41 56.9583Z" fill="#263238"/>
<path d="M233.886 58.2536C234.196 56.6519 235.249 55.9157 236.404 56.1397C237.567 56.3649 238.269 57.4398 237.959 59.0415C237.65 60.6431 236.597 61.3788 235.434 61.1536C234.279 60.9296 233.577 59.8552 233.886 58.2536ZM237.048 58.8643C237.275 57.6873 236.921 57.0555 236.252 56.9258C235.59 56.7979 235.026 57.2525 234.799 58.4295C234.571 59.606 234.926 60.2378 235.587 60.3657C236.256 60.4954 236.82 60.0408 237.048 58.8643Z" fill="#263238"/>
<path d="M194.144 56.4989L183.737 54.4871L181.726 64.8937L192.132 66.9055L194.144 56.4989Z" fill="white"/>
<path d="M188.256 61.6652C188.091 62.5216 187.333 63.1125 186.024 62.8591C185.335 62.7258 184.679 62.3817 184.302 61.9403L184.821 61.3121C185.119 61.6724 185.612 61.9631 186.162 62.07C186.81 62.1949 187.248 61.9829 187.337 61.5235C187.427 61.0581 187.184 60.7074 186.175 60.5116L184.998 60.284L185.762 57.6794L188.624 58.2325L188.477 58.9922L186.381 58.5869L186.058 59.6948L186.525 59.7843C187.966 60.0636 188.423 60.801 188.256 61.6652Z" fill="#263238"/>
<path d="M191.115 58.714L190.173 63.5885L189.268 63.4132L190.063 59.2977L189.033 59.0983L189.179 58.3386L191.115 58.714Z" fill="#263238"/>
<path d="M205.068 58.6112L194.661 56.5994L192.649 67.006L203.056 69.0178L205.068 58.6112Z" fill="white"/>
<path d="M199.334 63.9076C199.16 64.8126 198.264 65.2252 197.052 64.991C195.84 64.7568 195.176 64.0427 195.351 63.1377C195.455 62.6014 195.81 62.2591 196.356 62.1258C196.007 61.8352 195.859 61.4448 195.948 60.9854C196.109 60.1488 196.942 59.7687 198.021 59.9765C199.107 60.1873 199.744 60.8521 199.583 61.688C199.494 62.148 199.204 62.4525 198.766 62.5924C199.229 62.9197 199.438 63.3713 199.334 63.9076ZM198.427 63.704C198.52 63.223 198.16 62.8429 197.491 62.7137C196.823 62.5846 196.361 62.8056 196.268 63.2867C196.172 63.7803 196.52 64.1508 197.188 64.28C197.858 64.4097 198.332 64.1977 198.427 63.704ZM196.831 61.1986C196.751 61.6166 197.047 61.9481 197.619 62.0586C198.196 62.1709 198.603 61.9751 198.684 61.5571C198.769 61.1187 198.441 60.795 197.884 60.6875C197.327 60.58 196.916 60.7602 196.831 61.1986Z" fill="#263238"/>
<path d="M202.274 60.8728L201.332 65.7474L200.426 65.5726L201.222 61.4571L200.191 61.2577L200.338 60.498L202.274 60.8728Z" fill="#263238"/>
<path d="M215.978 60.7441L205.571 58.7312L203.558 69.1378L213.965 71.1507L215.978 60.7441Z" fill="white"/>
<path d="M209.954 66.6189L209.805 67.3845L206.212 66.6903L206.329 66.0844L208.621 64.6197C209.182 64.2587 209.32 63.9885 209.373 63.7176C209.46 63.272 209.202 62.9549 208.604 62.839C208.13 62.7478 207.702 62.8306 207.364 63.1267L206.824 62.5172C207.299 62.0818 208.033 61.9118 208.833 62.0667C209.892 62.2715 210.47 62.9399 210.303 63.8035C210.212 64.2773 209.996 64.6833 209.198 65.1866L207.656 66.1744L209.954 66.6189Z" fill="#263238"/>
<path d="M212.956 62.9356L212.013 67.8102L211.108 67.6349L211.904 63.5194L210.873 63.32L211.02 62.5603L212.956 62.9356Z" fill="#263238"/>
<path d="M226.917 62.8358L216.51 60.824L214.498 71.2306L224.905 73.2424L226.917 62.8358Z" fill="white"/>
<path d="M219.738 64.2489L218.796 69.1235L217.891 68.9481L218.686 64.8326L217.656 64.6332L217.803 63.8735L219.738 64.2489Z" fill="#263238"/>
<path d="M224.383 65.1476L224.266 65.7541L221.546 69.6559L220.578 69.4691L223.204 65.7151L221.289 65.3452L221.129 66.1733L220.286 66.01L220.595 64.4155L224.383 65.1476Z" fill="#263238"/>
<path d="M237.839 64.9471L227.432 62.9353L225.421 73.3419L235.827 75.3537L237.839 64.9471Z" fill="white"/>
<path d="M231.309 70.3963L230.445 70.2294L230.231 71.3368L229.353 71.1674L229.567 70.06L226.893 69.543L227.014 68.9166L230.024 66.24L230.992 66.4268L228.148 68.9911L229.743 69.2997L229.933 68.3179L230.783 68.4818L230.593 69.4637L231.457 69.6306L231.309 70.3963Z" fill="#263238"/>
<path d="M236.035 71.3088L235.171 71.1425L234.957 72.2499L234.079 72.0799L234.293 70.9725L231.619 70.456L231.74 69.8297L234.75 67.1531L235.718 67.3398L232.875 69.9041L234.469 70.2122L234.659 69.2303L235.509 69.3949L235.319 70.3768L236.182 70.5431L236.035 71.3088Z" fill="#263238"/>
<path d="M192.05 67.3512L181.643 65.3394L179.631 75.746L190.038 77.7578L192.05 67.3512Z" fill="white"/>
<path d="M185.608 72.5123C185.432 73.4179 184.536 73.8293 183.325 73.5957C182.113 73.3609 181.45 72.6474 181.624 71.7418C181.728 71.2055 182.083 70.8632 182.629 70.7299C182.281 70.4392 182.132 70.0489 182.221 69.5895C182.382 68.7535 183.215 68.3728 184.294 68.5812C185.381 68.7914 186.018 69.4562 185.856 70.2921C185.767 70.7521 185.477 71.0572 185.038 71.1959C185.503 71.525 185.711 71.9766 185.608 72.5123ZM184.7 72.3081C184.793 71.8271 184.434 71.447 183.765 71.3184C183.096 71.1887 182.634 71.4097 182.541 71.8908C182.446 72.385 182.793 72.7549 183.462 72.8847C184.13 73.0138 184.605 72.803 184.7 72.3081ZM183.104 69.8039C183.024 70.2219 183.32 70.554 183.891 70.6645C184.469 70.7762 184.876 70.5798 184.956 70.1618C185.041 69.7234 184.714 69.4003 184.156 69.2928C183.6 69.1841 183.189 69.3649 183.104 69.8039Z" fill="#263238"/>
<path d="M189.757 73.2127C189.591 74.0691 188.834 74.6594 187.525 74.4066C186.836 74.2727 186.179 73.9298 185.803 73.4884L186.322 72.859C186.621 73.2205 187.113 73.5106 187.663 73.6169C188.311 73.7424 188.749 73.531 188.838 73.071C188.928 72.605 188.685 72.2542 187.675 72.0585L186.498 71.8309L187.262 69.2263L190.124 69.78L189.977 70.5397L187.881 70.1343L187.559 71.2417L188.025 71.3318C189.467 71.6105 189.924 72.3497 189.757 73.2127Z" fill="#263238"/>
<path d="M202.972 69.4617L192.565 67.45L190.554 77.8566L200.96 79.8684L202.972 69.4617Z" fill="white"/>
<path d="M198.408 74.8856C198.242 75.7419 197.485 76.3329 196.176 76.0794C195.487 75.9461 194.831 75.6026 194.454 75.1612L194.972 74.5324C195.271 74.8934 195.764 75.1834 196.314 75.2903C196.962 75.4152 197.4 75.2038 197.489 74.7438C197.579 74.2778 197.336 73.9277 196.326 73.7319L195.149 73.5043L195.913 70.8992L198.775 71.4529L198.628 72.2125L196.532 71.8072L196.21 72.9146L196.676 73.0047C198.118 73.2839 198.575 74.0226 198.408 74.8856Z" fill="#263238"/>
<path d="M224.817 73.6854L214.411 71.6736L212.399 82.0802L222.806 84.092L224.817 73.6854Z" fill="white"/>
<path d="M218.959 75.3558L218.842 75.9624L216.122 79.8641L215.154 79.6767L217.78 75.9227L215.866 75.5528L215.706 76.3816L214.863 76.2188L215.172 74.6238L218.959 75.3558Z" fill="#263238"/>
<path d="M222.262 79.5364C222.102 80.3579 221.346 80.9489 220.037 80.696C219.347 80.5627 218.698 80.2204 218.314 79.7778L218.84 79.1503C219.132 79.51 219.625 79.8 220.175 79.9063C220.823 80.0318 221.26 79.8205 221.348 79.3676C221.433 78.9293 221.167 78.5815 220.429 78.4392L219.984 78.3527L220.104 77.733L221.466 76.631L219.251 76.2028L219.398 75.4431L222.72 76.0851L222.603 76.6916L221.147 77.8693C222.043 78.1648 222.403 78.8049 222.262 79.5364Z" fill="#263238"/>
<path d="M235.741 75.7967L225.334 73.7849L223.323 84.1916L233.729 86.2034L235.741 75.7967Z" fill="white"/>
<path d="M228.7 81.4999L228.552 82.2656L224.958 81.5707L225.076 80.9648L227.367 79.5007C227.928 79.1404 228.067 78.8707 228.119 78.5987C228.205 78.1531 227.949 77.836 227.35 77.7207C226.876 77.6294 226.448 77.7123 226.11 78.0077L225.57 77.3976C226.045 76.9616 226.778 76.7928 227.579 76.9478C228.637 77.1526 229.216 77.821 229.049 78.6845C228.957 79.1584 228.741 79.5643 227.943 80.0676L226.402 81.0555L228.7 81.4999Z" fill="#263238"/>
<path d="M229.521 79.9246C229.831 78.3236 230.883 77.5867 232.039 77.8101C233.203 78.0353 233.905 79.1109 233.595 80.7119C233.285 82.3142 232.233 83.0499 231.069 82.8246C229.914 82.6012 229.211 81.5269 229.521 79.9246ZM232.683 80.536C232.91 79.3589 232.556 78.7272 231.887 78.5974C231.225 78.4695 230.66 78.9241 230.433 80.1012C230.205 81.2783 230.56 81.91 231.221 82.0379C231.89 82.1671 232.456 81.7124 232.683 80.536Z" fill="#263238"/>
<path d="M189.95 78.2012L179.544 76.1895L177.532 86.5961L187.939 88.6079L189.95 78.2012Z" fill="white"/>
<path d="M185.54 83.7532C185.365 84.6583 184.47 85.0702 183.258 84.836C182.046 84.6018 181.382 83.8884 181.557 82.9833C181.661 82.4471 182.016 82.1042 182.562 81.9714C182.213 81.6802 182.065 81.2898 182.154 80.831C182.315 79.9945 183.148 79.6143 184.227 79.8227C185.313 80.0329 185.951 80.6977 185.789 81.5342C185.7 81.9937 185.41 82.2981 184.972 82.4375C185.436 82.7647 185.644 83.217 185.54 83.7532ZM184.634 83.5491C184.727 83.068 184.367 82.6873 183.698 82.5588C183.03 82.4296 182.568 82.6506 182.475 83.1317C182.38 83.6253 182.727 83.9965 183.396 84.1256C184.064 84.2547 184.538 84.0427 184.634 83.5491ZM183.037 81.0436C182.957 81.4616 183.253 81.7937 183.825 81.9042C184.402 82.0159 184.809 81.8201 184.889 81.4021C184.975 80.9637 184.647 80.64 184.089 80.5325C183.533 80.4244 183.123 80.6052 183.037 81.0436Z" fill="#263238"/>
<path d="M200.858 80.329L190.451 78.3162L188.439 88.7228L198.845 90.7356L200.858 80.329Z" fill="white"/>
<path d="M194.483 81.8788L193.541 86.7534L192.635 86.578L193.431 82.4631L192.401 82.2643L192.548 81.5046L194.483 81.8788Z" fill="#263238"/>
<path d="M197.134 82.3886L196.192 87.2631L195.287 87.0884L196.083 82.9735L195.052 82.7741L195.199 82.0144L197.134 82.3886Z" fill="#263238"/>
<path d="M211.782 82.4423L201.375 80.4294L199.362 90.8361L209.769 92.8489L211.782 82.4423Z" fill="white"/>
<path d="M206.574 84.2145L206.457 84.821L203.738 88.7234L202.77 88.5366L205.395 84.782L203.48 84.4121L203.32 85.2408L202.477 85.0775L202.786 83.4824L206.574 84.2145Z" fill="#263238"/>
<path d="M208.884 84.6603L207.942 89.5348L207.037 89.3601L207.833 85.2452L206.802 85.0458L206.949 84.2861L208.884 84.6603Z" fill="#263238"/>
<path d="M222.719 84.535L212.313 82.5232L210.301 92.9298L220.708 94.9416L222.719 84.535Z" fill="white"/>
<path d="M218.01 90.6922L217.861 91.4573L214.268 90.7625L214.385 90.1571L216.676 88.693C217.238 88.3315 217.377 88.0618 217.429 87.791C217.515 87.3454 217.258 87.0277 216.66 86.9124C216.186 86.8211 215.758 86.904 215.42 87.1995L214.88 86.5893C215.355 86.1527 216.088 85.9846 216.888 86.1395C217.947 86.3443 218.526 87.0127 218.359 87.8757C218.267 88.3495 218.051 88.7561 217.253 89.2593L215.711 90.2472L218.01 90.6922Z" fill="#263238"/>
<path d="M233.645 86.648L223.239 84.6362L221.227 95.0429L231.634 97.0546L233.645 86.648Z" fill="white"/>
<path d="M226.463 88.0627L225.521 92.9373L224.616 92.7626L225.412 88.6471L224.381 88.4477L224.528 87.688L226.463 88.0627Z" fill="#263238"/>
<path d="M231.108 88.9595L230.991 89.566L228.271 93.4684L227.303 93.2816L229.93 89.5276L228.014 89.1571L227.854 89.9858L227.011 89.8231L227.32 88.228L231.108 88.9595Z" fill="#263238"/>
<path d="M187.852 89.0516L177.446 87.0398L175.434 97.4464L185.841 99.4582L187.852 89.0516Z" fill="white"/>
<path d="M182.629 90.8445L182.512 91.451L179.793 95.3528L178.825 95.166L181.451 91.4114L179.536 91.0415L179.375 91.8702L178.533 91.7075L178.841 90.113L182.629 90.8445Z" fill="#263238"/>
<path d="M184.94 91.2903L183.997 96.1649L183.092 95.9895L183.888 91.8746L182.858 91.6752L183.005 90.9155L184.94 91.2903Z" fill="#263238"/>
<path d="M198.76 91.1823L188.353 89.1694L186.34 99.5761L196.747 101.589L198.76 91.1823Z" fill="white"/>
<path d="M191.947 96.1846C191.789 97.0061 191.032 97.5977 189.722 97.3442C189.033 97.2109 188.384 96.8686 188 96.426L188.526 95.7984C188.817 96.1582 189.31 96.4482 189.86 96.5545C190.507 96.6794 190.946 96.468 191.033 96.0158C191.118 95.5774 190.853 95.2297 190.115 95.0874L189.67 95.0009L189.789 94.3806L191.151 93.2792L188.936 92.851L189.083 92.0913L192.404 92.7333L192.287 93.3398L190.832 94.5169C191.729 94.8136 192.089 95.4531 191.947 96.1846Z" fill="#263238"/>
<path d="M196.496 95.968C196.173 97.6399 195.02 98.3702 193.607 98.0969C193.119 98.0027 192.673 97.8087 192.386 97.5354L192.852 96.9181C193.083 97.1427 193.39 97.2676 193.732 97.3331C194.652 97.5108 195.34 97.052 195.554 95.944L195.555 95.9374C195.197 96.2227 194.698 96.2995 194.155 96.1944C193.193 96.0083 192.59 95.284 192.766 94.3724C192.953 93.4049 193.858 92.9437 194.855 93.1359C196.184 93.3941 196.799 94.4012 196.496 95.968ZM195.617 94.8733C195.706 94.4138 195.414 93.982 194.766 93.8565C194.202 93.7472 193.75 93.9929 193.652 94.5003C193.553 95.0096 193.874 95.4035 194.466 95.5176C195.051 95.6305 195.524 95.3537 195.617 94.8733Z" fill="#263238"/>
<path d="M209.699 93.2742L199.292 91.2625L197.28 101.669L207.687 103.681L209.699 93.2742Z" fill="white"/>
<path d="M202.601 94.7043L201.659 99.5789L200.754 99.4036L201.549 95.2887L200.519 95.0893L200.666 94.3296L202.601 94.7043Z" fill="#263238"/>
<path d="M206.459 98.9547C206.293 99.811 205.536 100.402 204.227 100.149C203.538 100.015 202.882 99.6711 202.504 99.2297L203.023 98.6009C203.322 98.9625 203.815 99.2519 204.365 99.3582C205.012 99.4837 205.451 99.2717 205.54 98.8129C205.63 98.3469 205.387 97.9968 204.377 97.801L203.2 97.5734L203.964 94.9683L206.826 95.522L206.679 96.2817L204.583 95.8763L204.26 96.9837L204.727 97.0738C206.169 97.3524 206.626 98.0911 206.459 98.9547Z" fill="#263238"/>
<path d="M220.624 95.3858L210.217 93.374L208.205 103.781L218.612 105.792L220.624 95.3858Z" fill="white"/>
<path d="M213.967 100.443C213.808 101.265 213.052 101.856 211.742 101.603C211.052 101.469 210.403 101.127 210.02 100.684L210.546 100.057C210.837 100.417 211.331 100.706 211.88 100.813C212.528 100.938 212.966 100.726 213.053 100.274C213.139 99.8359 212.873 99.4888 212.135 99.3458L211.69 99.26L211.81 98.6396L213.171 97.5382L210.956 97.11L211.104 96.3503L214.425 96.9929L214.308 97.5995L212.852 98.7759C213.749 99.0714 214.109 99.7116 213.967 100.443Z" fill="#263238"/>
<path d="M217.921 101.929L217.772 102.695L214.179 102.001L214.297 101.395L216.588 99.93C217.149 99.5685 217.288 99.2994 217.34 99.0286C217.427 98.583 217.17 98.2653 216.571 98.1494C216.097 98.0581 215.669 98.141 215.331 98.437L214.791 97.8263C215.266 97.3903 215.999 97.2216 216.8 97.3765C217.858 97.5813 218.437 98.2497 218.27 99.1133C218.178 99.5871 217.962 99.9931 217.165 100.496L215.623 101.484L217.921 101.929Z" fill="#263238"/>
<path d="M231.548 97.4969L221.141 95.4851L219.129 105.892L229.536 107.904L231.548 97.4969Z" fill="white"/>
<path d="M224.143 98.8704L223.201 103.745L222.296 103.57L223.091 99.4547L222.061 99.2553L222.207 98.4956L224.143 98.8704Z" fill="#263238"/>
<path d="M224.638 101.495C224.948 99.8925 226.001 99.1568 227.156 99.3802C228.319 99.6048 229.022 100.68 228.712 102.282C228.402 103.884 227.349 104.619 226.186 104.395C225.031 104.171 224.328 103.096 224.638 101.495ZM227.8 102.105C228.028 100.928 227.673 100.296 227.004 100.168C226.343 100.04 225.778 100.494 225.55 101.671C225.323 102.848 225.678 103.48 226.34 103.607C227.007 103.736 227.572 103.283 227.8 102.105Z" fill="#263238"/>
<path d="M208.256 72.8071L208.78 74.7174L210.651 75.369L208.996 76.4572L208.954 78.4378L207.407 77.2001L205.511 77.7718L206.21 75.9185L205.08 74.2917L207.058 74.3842L208.256 72.8071Z" fill="#DA1919"/>
<path d="M235.403 39.2674C232.156 38.6393 229.319 40.4661 228.72 43.5637C228.121 46.6613 230.072 49.4142 233.32 50.0417C236.567 50.6699 239.402 48.8581 240.003 45.7455C240.605 42.6329 238.65 39.8956 235.403 39.2674Z" fill="#DA1919"/>
<path d="M235.08 40.9177L235.754 43.3763L238.162 44.2153L236.031 45.6158L235.977 48.1645L233.987 46.5712L231.547 47.3075L232.447 44.9227L230.992 42.8286L233.539 42.9476L235.08 40.9177Z" fill="#263238"/>
<path d="M198.478 40.1994C198.13 41.995 196.521 42.7709 193.828 42.2497L188.62 41.2426L190.645 30.7673L195.553 31.7168C198.067 32.2026 199.209 33.5256 198.888 35.1873C198.679 36.2647 197.987 36.9535 197.095 37.2316C198.148 37.8069 198.741 38.8374 198.478 40.1994ZM192.296 32.6698L191.737 35.5585L194.491 36.0905C195.838 36.3512 196.693 36.0197 196.878 35.0618C197.066 34.0889 196.395 33.4626 195.049 33.2019L192.296 32.6698ZM196.555 39.6253C196.757 38.578 196.054 37.9606 194.587 37.6766L191.445 37.0688L190.86 40.0919L194.003 40.6997C195.469 40.9837 196.352 40.6733 196.555 39.6253Z" fill="#DA1919"/>
<path d="M202.032 32.9705L203.978 33.3464L201.953 43.8216L200.007 43.4457L202.032 32.9705Z" fill="#DA1919"/>
<path d="M216.112 35.6919L214.086 46.1671L212.485 45.8573L208.08 37.6473L206.709 44.7409L204.778 44.3673L206.804 33.8921L208.405 34.202L212.81 42.4126L214.181 35.319L216.112 35.6919Z" fill="#DA1919"/>
<path d="M225.092 42.7364L226.932 43.0926L226.125 47.2675C224.862 47.9389 223.249 48.0927 221.767 47.8062C218.519 47.178 216.562 44.4558 217.167 41.3282C217.772 38.2006 220.603 36.4037 223.88 37.0373C225.631 37.376 226.985 38.2432 227.756 39.5566L226.297 40.5168C225.633 39.5344 224.763 38.9783 223.64 38.7609C221.41 38.3297 219.547 39.5374 219.127 41.7071C218.716 43.8318 219.986 45.6923 222.201 46.1205C222.949 46.2652 223.712 46.2574 224.46 45.9986L225.092 42.7364Z" fill="#DA1919"/>
<path opacity="0.2" d="M244.707 37.3574L187.648 26.3269L173.705 98.4516L230.764 109.482L244.707 37.3574Z" fill="white"/>
<path opacity="0.2" d="M226.924 33.5462C226.924 33.5462 204.413 83.1418 173.698 98.4628L187.645 26.3367L226.924 33.5462Z" fill="black"/>
<path d="M253.468 84.518C253.468 85.2327 253.414 85.9293 253.306 86.6079C252.303 92.9436 246.814 97.79 240.196 97.79C232.87 97.79 226.93 91.8446 226.93 84.518C226.93 77.1854 232.87 71.2461 240.196 71.2461C242.581 71.2461 244.815 71.8707 246.748 72.9757C248.105 73.7443 249.313 74.7472 250.315 75.9303C251.781 77.6539 252.814 79.7557 253.24 82.0678C253.24 82.0738 253.24 82.0799 253.24 82.0799C253.39 82.8726 253.468 83.6833 253.468 84.518Z" fill="#DA1919"/>
<g opacity="0.8">
<path d="M253.239 82.0813C253.275 82.4236 253.293 82.7599 253.293 83.1082C253.293 88.7113 248.735 93.2634 243.138 93.2634C237.541 93.2634 232.983 88.7113 232.983 83.1082C232.983 77.5112 237.541 72.9531 243.138 72.9531C245.937 72.9531 248.477 74.0941 250.314 75.9318C249.312 74.7487 248.104 73.7458 246.747 72.9771C245.618 72.5747 244.405 72.3525 243.138 72.3525C237.205 72.3525 232.382 77.1809 232.382 83.1082C232.382 89.0416 237.205 93.8639 243.138 93.8639C247.84 93.8639 251.852 90.8252 253.305 86.6094C253.413 85.9308 253.467 85.2341 253.467 84.5195C253.467 83.6847 253.389 82.874 253.239 82.0813Z" fill="white"/>
</g>
<path opacity="0.8" d="M243.739 91.1824C248.352 91.1824 252.092 87.4424 252.092 82.8289C252.092 78.2153 248.352 74.4753 243.739 74.4753C239.125 74.4753 235.385 78.2153 235.385 82.8289C235.385 87.4424 239.125 91.1824 243.739 91.1824Z" fill="white"/>
<path d="M248.56 81.3097C249.39 84.2836 248.112 86.4035 245.597 87.1061C244.73 87.3481 243.847 87.3944 243.16 87.1854L243.416 85.8053C243.974 85.9831 244.575 85.9356 245.182 85.7663C246.818 85.3093 247.562 84.0061 247.012 82.0357L247.009 82.0231C246.658 82.7756 245.91 83.3053 244.944 83.5749C243.234 84.0523 241.668 83.3677 241.214 81.7445C240.733 80.0221 241.828 78.5406 243.601 78.0463C245.967 77.3857 247.781 78.522 248.56 81.3097ZM246.245 80.2467C246.017 79.4294 245.193 78.964 244.04 79.2859C243.037 79.5663 242.502 80.3296 242.754 81.2346C243.007 82.139 243.847 82.5192 244.901 82.2243C245.942 81.9342 246.484 81.1019 246.245 80.2467Z" fill="#263238"/>
<path opacity="0.2" d="M253.467 84.5177C253.467 85.2323 253.413 85.9289 253.305 86.6075C252.302 92.9432 246.813 97.7896 240.195 97.7896C233.403 97.7896 227.806 92.679 227.025 86.0971C229.223 90.3669 233.679 93.2915 238.814 93.2915C245.432 93.2915 250.921 88.4452 251.924 82.1095C252.032 81.4309 252.086 80.7342 252.086 80.0196C252.086 79.4731 252.05 78.9386 251.984 78.4102C252.572 79.5452 252.999 80.7763 253.239 82.0674C253.239 82.0735 253.239 82.0795 253.239 82.0795C253.389 82.8722 253.467 83.6829 253.467 84.5177Z" fill="black"/>
<path opacity="0.2" d="M236.079 81.5786C238.382 81.5786 240.249 79.7116 240.249 77.4084C240.249 75.1053 238.382 73.2383 236.079 73.2383C233.776 73.2383 231.909 75.1053 231.909 77.4084C231.909 79.7116 233.776 81.5786 236.079 81.5786Z" fill="white"/>
<path opacity="0.2" d="M230.523 83.4377C231.551 83.4377 232.384 82.6045 232.384 81.5767C232.384 80.5488 231.551 79.7156 230.523 79.7156C229.495 79.7156 228.662 80.5488 228.662 81.5767C228.662 82.6045 229.495 83.4377 230.523 83.4377Z" fill="white"/>
<path d="M124.827 140.371C124.827 151.169 116.173 159.949 105.418 160.147C105.292 160.153 105.171 160.153 105.045 160.153C103.61 160.153 102.217 160.003 100.872 159.715C97.5206 158.994 94.4878 157.421 92.0016 155.247C90.8546 154.232 89.8156 153.085 88.9268 151.836C88.9208 151.83 88.9148 151.824 88.9148 151.824C86.6207 148.587 85.2695 144.635 85.2695 140.371C85.2695 129.448 94.1215 120.59 105.045 120.59C115.975 120.59 124.827 129.448 124.827 140.371Z" fill="#263238"/>
<path opacity="0.2" d="M107.797 132.762C110.047 130.512 110.047 126.864 107.797 124.614C105.547 122.364 101.899 122.364 99.6487 124.614C97.3987 126.864 97.3987 130.512 99.6487 132.762C101.899 135.012 105.547 135.012 107.797 132.762Z" fill="white"/>
<path d="M69.2917 80.1034C69.4611 80.6295 69.5926 81.155 69.6935 81.684C70.9462 88.1765 67.1826 94.7272 60.7292 96.8062C53.7557 99.0529 46.2814 95.2214 44.0324 88.2419C41.7857 81.2685 45.6172 73.7935 52.5907 71.5469C54.3454 70.9818 56.1363 70.8022 57.867 70.9638C59.184 71.0761 60.4607 71.3962 61.6654 71.885C64.5198 73.0477 66.9538 75.197 68.4347 78.0514L68.4365 78.0568C68.7776 78.7042 69.0617 79.3888 69.2917 80.1034Z" fill="#DA1919"/>
<g opacity="0.8">
<path d="M68.4376 78.0556C68.4965 78.2196 68.556 78.3835 68.6094 78.5493C70.3258 83.8767 67.3849 89.6131 62.0575 91.3294C56.7247 93.0476 50.9937 90.1055 49.2774 84.7781C47.5611 79.4507 50.4959 73.7161 55.8287 71.998C57.7949 71.3644 59.8139 71.3638 61.666 71.8839C60.4613 71.395 59.1845 71.0743 57.8675 70.9626C57.1277 71.0371 56.3818 71.1891 55.6443 71.4263C49.9968 73.2459 46.886 79.315 48.7051 84.9625C50.5247 90.6099 56.5938 93.7214 62.2407 91.9017C66.785 90.4376 69.6856 86.2218 69.6934 81.6829C69.5925 81.1538 69.461 80.6284 69.2916 80.1023C69.0622 79.3876 68.7782 78.703 68.4376 78.0556Z" fill="white"/>
</g>
<path opacity="0.8" d="M66.9524 85.2932C69.0571 81.1876 67.4351 76.1532 63.3295 74.0485C59.2239 71.9438 54.1895 73.5659 52.0848 77.6714C49.9801 81.777 51.6022 86.8114 55.7077 88.9161C59.8133 91.0208 64.8477 89.3988 66.9524 85.2932Z" fill="white"/>
<path d="M62.1868 81.8584C62.7591 83.3429 62.0403 85.1121 59.8501 86.1192C58.6947 86.6513 57.4341 86.8087 56.4925 86.5204C56.5778 86.0051 56.6528 85.4935 56.7183 84.9854C57.499 85.2226 58.4899 85.147 59.4129 84.7236C60.4963 84.2251 60.9827 83.421 60.6795 82.6229C60.3696 81.8134 59.6399 81.5527 57.9464 82.3316C57.2882 82.6343 56.63 82.9376 55.9712 83.2403C55.4434 81.6776 54.7786 80.1793 53.9858 78.7632C55.5905 78.0246 57.1951 77.2853 58.7998 76.5466C59.0658 76.934 59.3216 77.3279 59.5661 77.7279C58.3914 78.2684 57.2174 78.8089 56.0427 79.3494C56.349 79.9709 56.6318 80.6063 56.8907 81.2543C57.1519 81.1342 57.4125 81.0141 57.6738 80.894C60.0909 79.7799 61.6127 80.3601 62.1868 81.8584Z" fill="#263238"/>
<path d="M62.9966 74.615C64.6979 77.106 65.9663 79.8757 66.7446 82.8057C66.2389 83.0382 65.7339 83.2712 65.2288 83.5036C64.5694 81.0306 63.5611 78.6722 62.2381 76.4995C61.6604 76.7649 61.0833 77.031 60.5056 77.2964C60.2611 76.8964 60.0065 76.5025 59.7405 76.1145C60.8257 75.6143 61.9114 75.1146 62.9966 74.615Z" fill="#263238"/>
<path opacity="0.2" d="M69.7984 82.3003C70.7077 88.588 66.9777 94.7934 60.7303 96.8064C53.7568 99.053 46.2825 95.2216 44.0335 88.2421C43.2137 85.6982 43.1999 83.0906 43.8605 80.6951C43.965 81.4313 44.1326 82.1658 44.3662 82.8919C46.6146 89.8713 54.0895 93.7028 61.063 91.4562C65.4986 90.0263 68.6658 86.4819 69.7984 82.3003Z" fill="black"/>
<path opacity="0.2" d="M59.0748 74.0411C59.6742 75.9022 57.9837 78.1127 55.2986 78.9775C52.6136 79.8429 49.9502 79.0352 49.3509 77.1741C48.751 75.313 50.4421 73.1024 53.1271 72.2377C55.8121 71.3723 58.4749 72.18 59.0748 74.0411Z" fill="white"/>
<path opacity="0.2" d="M52.9962 82.1136C52.9301 82.9207 51.932 83.4979 50.7676 83.4018C49.6031 83.3063 48.7125 82.5742 48.7786 81.7671C48.8447 80.96 49.8428 80.3829 51.0072 80.479C52.1717 80.5744 53.0623 81.3065 52.9962 82.1136Z" fill="white"/>
<path d="M218.262 150.22C224.291 144.192 224.291 134.417 218.262 128.389C212.233 122.36 202.459 122.36 196.43 128.389C190.402 134.417 190.402 144.192 196.43 150.22C202.459 156.249 212.233 156.249 218.262 150.22Z" fill="#DA1919"/>
<path d="M238.148 13.2043C238.148 20.5309 232.209 26.4763 224.876 26.4763C217.55 26.4763 211.61 20.5309 211.61 13.2043C211.61 11.9672 211.779 10.7721 212.097 9.63711C212.403 8.5201 212.853 7.46916 213.436 6.49628C215.292 3.32543 218.432 0.99533 222.144 0.214628C223.027 0.0284602 223.939 -0.067627 224.876 -0.067627C225.117 -0.067627 225.351 -0.0616223 225.585 -0.0496115C232.587 0.316718 238.148 6.11194 238.148 13.2043Z" fill="#263238"/>
<g opacity="0.8">
<path d="M225.587 -0.0496115C225.353 -0.0616223 225.119 -0.067627 224.879 -0.067627C223.942 -0.067627 223.029 0.0284603 222.146 0.214628C222.374 0.196612 222.603 0.19061 222.831 0.19061C228.428 0.19061 232.986 4.7427 232.986 10.3457C232.986 15.9428 228.428 20.5009 222.831 20.5009C217.228 20.5009 212.676 15.9428 212.676 10.3457C212.676 8.98252 212.946 7.68536 213.438 6.49629C212.856 7.46916 212.405 8.52011 212.099 9.63711C212.081 9.87133 212.075 10.1055 212.075 10.3457C212.075 16.2731 216.898 21.1014 222.831 21.1014C228.758 21.1014 233.587 16.2731 233.587 10.3457C233.587 5.36727 230.187 1.16949 225.587 -0.0496115Z" fill="white"/>
</g>
<path opacity="0.8" d="M222.242 18.2234C226.855 18.2234 230.595 14.4834 230.595 9.86988C230.595 5.25636 226.855 1.51636 222.242 1.51636C217.628 1.51636 213.888 5.25636 213.888 9.86988C213.888 14.4834 217.628 18.2234 222.242 18.2234Z" fill="white"/>
<path d="M222.827 3.64261C220.435 6.17389 218.604 9.03186 217.467 11.9919C216.966 11.801 216.464 11.61 215.962 11.419C216.929 8.92016 218.39 6.49638 220.265 4.28099C219.701 4.06599 219.137 3.85101 218.573 3.63601C218.92 3.22824 219.281 2.82708 219.656 2.43433C220.713 2.83729 221.77 3.24025 222.827 3.64261Z" fill="#263238"/>
<path d="M227.175 5.30058C224.802 7.84387 222.993 10.709 221.882 13.6733C221.379 13.4823 220.877 13.2914 220.376 13.1004C221.321 10.5985 222.763 8.16875 224.621 5.94435C224.057 5.72936 223.493 5.51437 222.929 5.29938C223.273 4.88981 223.631 4.48744 224.003 4.09229C225.06 4.49465 226.117 4.89762 227.175 5.30058Z" fill="#263238"/>
<path opacity="0.2" d="M238.148 13.2048C238.148 20.5314 232.208 26.4767 224.876 26.4767C218.132 26.4767 212.559 21.4382 211.718 14.9163C213.97 19.042 218.342 21.8466 223.374 21.8466C230.707 21.8466 236.646 15.9012 236.646 8.57462C236.646 7.9921 236.61 7.41558 236.532 6.85107C237.565 8.73677 238.148 10.8987 238.148 13.2048Z" fill="black"/>
<path opacity="0.2" d="M233.158 5.94314C233.158 8.1129 231.399 9.87187 229.23 9.87187C227.06 9.87187 225.301 8.1129 225.301 5.94314C225.301 3.77339 227.06 2.0144 229.23 2.0144C231.399 2.0144 233.158 3.77339 233.158 5.94314Z" fill="white"/>
<path opacity="0.2" d="M234.823 11.5349C234.823 12.4538 234.078 13.199 233.159 13.199C232.24 13.199 231.495 12.4538 231.495 11.5349C231.495 10.6161 232.24 9.87085 233.159 9.87085C234.078 9.87145 234.823 10.6161 234.823 11.5349Z" fill="white"/>
<path d="M157.572 -20.9126L54.0398 -0.691406L79.6002 130.178L183.133 109.956L157.572 -20.9126Z" fill="#DA1919"/>
<path d="M128.972 57.6187L110.09 61.3066L113.778 80.189L132.66 76.5011L128.972 57.6187Z" fill="white"/>
<path d="M128.302 73.571C130.885 69.7345 129.868 64.5307 126.032 61.948C122.195 59.3653 116.991 60.3818 114.409 64.2184C111.826 68.0549 112.843 73.2587 116.679 75.8414C120.516 78.4241 125.719 77.4076 128.302 73.571Z" fill="#DA1919"/>
<path d="M81.6392 25.9858L62.7568 29.6738L66.4448 48.5562L85.3272 44.8682L81.6392 25.9858Z" fill="white"/>
<path d="M74.2085 40.2381L74.4799 41.6271L67.9647 42.8997L67.7503 41.8013L70.6094 37.7819C71.3073 36.794 71.3583 36.2463 71.2622 35.7539C71.1043 34.9455 70.4575 34.5876 69.3717 34.7996C68.5135 34.9672 67.8499 35.3983 67.4812 36.1256L66.1594 35.4662C66.6609 34.4111 67.7803 33.6291 69.2324 33.3457C71.1517 32.971 72.5786 33.7012 72.8843 35.2674C73.0518 36.1262 72.9653 36.9555 71.9648 38.344L70.0425 41.053L74.2085 40.2381Z" fill="#263238"/>
<path d="M81.5579 38.8024L81.8294 40.1914L75.3141 41.464L75.0997 40.3656L77.9589 36.3462C78.6573 35.3577 78.7078 34.8106 78.6111 34.3181C78.4531 33.5098 77.8064 33.1519 76.7206 33.3639C75.8618 33.5314 75.1988 33.9626 74.8301 34.6899L73.5083 34.0305C74.0104 32.9753 75.1292 32.1934 76.5813 31.9094C78.5006 31.5346 79.9275 32.2655 80.2337 33.8311C80.4013 34.6899 80.3148 35.5192 79.3143 36.9071L77.392 39.6161L81.5579 38.8024Z" fill="#263238"/>
<path d="M101.46 22.1138L82.5776 25.8018L86.2656 44.6842L105.148 40.9962L101.46 22.1138Z" fill="white"/>
<path d="M90.4989 29.3223L92.2249 38.161L90.5836 38.4817L89.1261 31.0194L87.2572 31.3839L86.9888 30.0075L90.4989 29.3223Z" fill="#263238"/>
<path d="M99.7398 33.9411C100.03 35.431 99.1584 36.9384 96.7851 37.4026C95.5348 37.6464 94.2112 37.5119 93.2647 37.0285L93.7229 35.6148C94.458 36.0214 95.4843 36.1751 96.4812 35.9799C97.6559 35.7505 98.2492 35.0971 98.0889 34.2762C97.9333 33.4811 97.2517 33.0763 95.9131 33.3376L95.1048 33.4955L94.885 32.3719L96.426 29.5938L92.4108 30.3781L92.1423 29.0017L98.1651 27.8252L98.3795 28.9236L96.7311 31.8933C98.4396 31.7828 99.4803 32.6151 99.7398 33.9411Z" fill="#263238"/>
<path d="M121.281 18.2417L102.399 21.9297L106.087 40.8121L124.969 37.1241L121.281 18.2417Z" fill="white"/>
<path d="M113.621 31.1647C113.924 32.7177 113.051 34.225 110.677 34.6892C109.428 34.9331 108.091 34.8009 107.157 34.3151L107.603 32.9038C108.35 33.308 109.377 33.4617 110.374 33.2666C111.548 33.0372 112.141 32.3838 111.979 31.5508C111.814 30.7047 111.167 30.2801 109.336 30.638L107.202 31.0548L106.717 26.1556L111.907 25.1418L112.175 26.5183L108.374 27.2606L108.584 29.3432L109.431 29.1781C112.045 28.667 113.315 29.5991 113.621 31.1647Z" fill="#263238"/>
<path d="M120.932 29.7373C121.236 31.2909 120.363 32.7982 117.99 33.2613C116.739 33.5057 115.402 33.373 114.469 32.8871L114.914 31.4759C115.662 31.88 116.688 32.0338 117.686 31.8392C118.86 31.6098 119.453 30.9564 119.29 30.1234C119.125 29.2773 118.478 28.8527 116.648 29.2106L114.514 29.6274L114.029 24.7276L119.219 23.7139L119.487 25.0903L115.687 25.8326L115.897 27.9153L116.743 27.7501C119.356 27.2396 120.627 28.1711 120.932 29.7373Z" fill="#263238"/>
<path d="M141.102 14.3706L122.219 18.0586L125.907 36.941L144.79 33.253L141.102 14.3706Z" fill="white"/>
<path d="M133.657 28.6269L133.928 30.016L127.413 31.2885L127.198 30.1902L130.058 26.1707C130.755 25.1822 130.806 24.6352 130.71 24.1421C130.552 23.3338 129.905 22.9759 128.819 23.1878C127.961 23.3554 127.297 23.7866 126.929 24.5138L125.607 23.8538C126.108 22.7987 127.227 22.0168 128.679 21.7333C130.599 21.3586 132.026 22.0895 132.332 23.6551C132.499 24.5138 132.412 25.3432 131.412 26.7316L129.49 29.4407L133.657 28.6269Z" fill="#263238"/>
<path d="M140.776 25.8597C141.079 27.4127 140.207 28.9207 137.833 29.3843C136.583 29.6287 135.246 29.496 134.312 29.0102L134.758 27.5989C135.505 28.0037 136.532 28.1568 137.529 27.9622C138.704 27.7328 139.297 27.0794 139.134 26.2459C138.969 25.3997 138.322 24.9757 136.492 25.3331L134.358 25.7498L133.873 20.8506L139.063 19.8369L139.331 21.2133L135.53 21.9556L135.74 24.0383L136.587 23.8731C139.2 23.3627 140.47 24.2941 140.776 25.8597Z" fill="#263238"/>
<path d="M160.922 10.4995L142.04 14.1875L145.728 33.0699L164.61 29.3819L160.922 10.4995Z" fill="white"/>
<path d="M155.658 23.6836L154.092 23.9893L154.485 25.9969L152.894 26.308L152.502 24.3004L147.653 25.2474L147.431 24.1106L150.675 17.5653L152.43 17.2224L149.388 23.4662L152.28 22.9017L151.932 21.1211L153.472 20.8202L153.82 22.6009L155.385 22.2952L155.658 23.6836Z" fill="#263238"/>
<path d="M157.762 16.1838L159.488 25.0226L157.847 25.3433L156.39 17.881L154.521 18.2461L154.252 16.8697L157.762 16.1838Z" fill="#263238"/>
<path d="M85.4854 45.6733L66.603 49.3613L70.291 68.2437L89.1734 64.5557L85.4854 45.6733Z" fill="white"/>
<path d="M75.7939 52.6309L77.5198 61.4702L75.8791 61.7903L74.421 54.328L72.5521 54.6925L72.2837 53.3161L75.7939 52.6309Z" fill="#263238"/>
<path d="M80.6067 51.6934L82.3333 60.5321L80.692 60.8528L79.2339 53.3899L77.3656 53.755L77.0972 52.3786L80.6067 51.6934Z" fill="#263238"/>
<path d="M105.305 41.8013L86.4229 45.4893L90.1108 64.3717L108.993 60.6837L105.305 41.8013Z" fill="white"/>
<path d="M98.6825 55.2549L97.1169 55.5606L97.509 57.5688L95.9182 57.8793L95.526 55.8717L90.6773 56.8187L90.4551 55.6819L93.6992 49.1366L95.454 48.7937L92.4134 55.0381L95.3044 54.4736L94.9567 52.693L96.4971 52.3921L96.8448 54.1727L98.4104 53.8671L98.6825 55.2549Z" fill="#263238"/>
<path d="M105.401 53.2731C105.691 54.7631 104.819 56.2704 102.446 56.734C101.196 56.9785 99.872 56.8439 98.9255 56.3599L99.3831 54.9462C100.118 55.3534 101.145 55.5071 102.142 55.312C103.317 55.0826 103.91 54.4286 103.75 53.6082C103.594 52.8125 102.912 52.4084 101.574 52.6696L100.766 52.8275L100.546 51.7039L102.087 48.9252L98.0722 49.7095L97.8037 48.3331L103.827 47.1572L104.041 48.2556L102.392 51.2247C104.101 51.1142 105.142 51.9471 105.401 53.2731Z" fill="#263238"/>
<path d="M125.126 37.9312L106.243 41.6191L109.931 60.5015L128.814 56.8136L125.126 37.9312Z" fill="white"/>
<path d="M117.865 51.5107L116.299 51.8163L116.691 53.8245L115.1 54.135L114.708 52.1274L109.859 53.0745L109.637 51.9376L112.881 45.3917L114.636 45.0488L111.596 51.2926L114.487 50.7281L114.139 48.9475L115.679 48.6467L116.027 50.4273L117.593 50.1216L117.865 51.5107Z" fill="#263238"/>
<path d="M118.09 48.9606C117.523 46.0557 118.793 44.104 120.889 43.6944C122.998 43.2824 124.909 44.6132 125.477 47.5175C126.044 50.4217 124.774 52.374 122.665 52.786C120.568 53.1956 118.656 51.8642 118.09 48.9606ZM123.822 47.8405C123.406 45.7062 122.38 44.8847 121.168 45.1213C119.968 45.3555 119.327 46.5031 119.744 48.6369C120.161 50.7706 121.187 51.5927 122.386 51.3591C123.598 51.1225 124.239 49.9749 123.822 47.8405Z" fill="#263238"/>
<path d="M144.947 34.0591L126.064 37.7471L129.752 56.6295L148.635 52.9415L144.947 34.0591Z" fill="white"/>
<path d="M133.698 41.3232L135.424 50.162L133.783 50.4827L132.325 43.0204L130.456 43.3855L130.188 42.0091L133.698 41.3232Z" fill="#263238"/>
<path d="M143.095 43.9187C143.687 46.949 142.245 48.9614 139.682 49.4622C138.798 49.6352 137.915 49.6106 137.247 49.3475L137.612 47.9921C138.153 48.2143 138.756 48.2143 139.375 48.093C141.041 47.7675 141.888 46.528 141.495 44.5198L141.493 44.5078C141.083 45.2296 140.297 45.6987 139.311 45.8908C137.569 46.2307 136.061 45.4242 135.738 43.7703C135.396 42.0155 136.605 40.6253 138.41 40.2728C140.823 39.8007 142.54 41.0775 143.095 43.9187ZM140.873 42.6749C140.711 41.842 139.926 41.3135 138.751 41.5429C137.729 41.7429 137.135 42.4617 137.315 43.3836C137.495 44.3054 138.303 44.7504 139.377 44.5408C140.437 44.333 141.043 43.5463 140.873 42.6749Z" fill="#263238"/>
<path d="M164.768 30.188L145.885 33.876L149.573 52.7584L168.456 49.0704L164.768 30.188Z" fill="white"/>
<path d="M156.866 43.1284C157.209 44.8838 155.999 46.2735 154.193 46.6266C151.781 47.0974 150.064 45.8207 149.509 42.9795C148.917 39.9492 150.359 37.9374 152.922 37.4365C153.806 37.2641 154.689 37.2882 155.357 37.5512L154.992 38.9072C154.451 38.685 153.848 38.685 153.228 38.8057C151.562 39.1312 150.716 40.3713 151.108 42.379L151.11 42.3916C151.52 41.6691 152.307 41.2007 153.292 41.0085C155.035 40.6674 156.543 41.4745 156.866 43.1284ZM155.289 43.5146C155.109 42.5933 154.301 42.1477 153.228 42.3573C152.167 42.5645 151.561 43.3518 151.731 44.2226C151.894 45.0562 152.679 45.5846 153.853 45.3552C154.876 45.1558 155.47 44.437 155.289 43.5146Z" fill="#263238"/>
<path d="M157.399 41.2809C156.832 38.3767 158.102 36.4243 160.198 36.0147C162.307 35.6028 164.219 36.9336 164.786 39.8378C165.353 42.742 164.083 44.6943 161.974 45.1063C159.878 45.5159 157.966 44.1851 157.399 41.2809ZM163.132 40.1609C162.715 38.0265 161.689 37.205 160.477 37.4416C159.278 37.6764 158.637 38.8234 159.054 40.9578C159.47 43.0915 160.496 43.9136 161.696 43.6794C162.908 43.4428 163.549 42.2952 163.132 40.1609Z" fill="#263238"/>
<path d="M89.3302 65.3618L70.4478 69.0498L74.1357 87.9322L93.0181 84.2442L89.3302 65.3618Z" fill="white"/>
<path d="M80.6479 72.123L80.8623 73.222L78.9394 81.6332L77.1846 81.9755L79.0505 73.8772L75.5775 74.5558L75.8706 76.0584L74.3428 76.3568L73.7783 73.4652L80.6479 72.123Z" fill="#263238"/>
<path d="M89.0581 76.8372C89.3614 78.3902 88.4894 79.8982 86.1155 80.3612C84.8651 80.6056 83.5283 80.4729 82.5945 79.9871L83.0401 78.5758C83.7872 78.9806 84.8141 79.1343 85.8116 78.9391C86.9863 78.7097 87.579 78.0557 87.4162 77.2228C87.2511 76.3772 86.6043 75.9527 84.7739 76.31L82.6395 76.7267L82.1543 71.8269L87.3442 70.8132L87.6126 72.1897L83.8118 72.9319L84.022 75.0146L84.8675 74.8495C87.4823 74.3402 88.7524 75.2716 89.0581 76.8372Z" fill="#263238"/>
<path d="M109.151 61.4907L90.269 65.1787L93.957 84.0611L112.839 80.3731L109.151 61.4907Z" fill="white"/>
<path d="M105.395 75.0244L105.667 76.4135L99.1517 77.686L98.9373 76.5876L101.796 72.5682C102.495 71.5797 102.545 71.0326 102.449 70.5402C102.291 69.7318 101.645 69.3739 100.559 69.5853C99.7 69.7529 99.037 70.184 98.6682 70.9113L97.3464 70.2519C97.8479 69.1968 98.9673 68.4143 100.419 68.1308C102.339 67.7561 103.766 68.4869 104.072 70.0525C104.239 70.9113 104.152 71.7413 103.152 73.1291L101.23 75.8381L105.395 75.0244Z" fill="#263238"/>
<path d="M148.789 53.7476L129.907 57.4355L133.595 76.318L152.477 72.63L148.789 53.7476Z" fill="white"/>
<path d="M141.469 66.574C141.812 68.3294 140.602 69.7191 138.796 70.0716C136.384 70.543 134.666 69.2657 134.112 66.4251C133.52 63.3942 134.962 61.3824 137.526 60.8815C138.41 60.7092 139.292 60.7326 139.96 60.9962L139.596 62.3522C139.054 62.13 138.451 62.13 137.832 62.2507C136.165 62.5768 135.319 63.8164 135.711 65.8246L135.714 65.8366C136.124 65.1141 136.91 64.6457 137.896 64.4529C139.638 64.1136 141.146 64.9207 141.469 66.574ZM139.892 66.9608C139.712 66.0396 138.904 65.594 137.831 65.8035C136.77 66.0107 136.164 66.7974 136.334 67.6682C136.497 68.5024 137.282 69.0308 138.456 68.8014C139.479 68.6021 140.072 67.8826 139.892 66.9608Z" fill="#263238"/>
<path d="M148.623 65.2702C148.913 66.7607 148.042 68.2681 145.668 68.7317C144.418 68.9755 143.094 68.841 142.148 68.3576L142.605 66.9439C143.34 67.3511 144.367 67.5048 145.364 67.3096C146.539 67.0796 147.132 66.4262 146.972 65.6053C146.816 64.8102 146.134 64.4054 144.796 64.6667L143.988 64.8252L143.769 63.7016L145.31 60.9229L141.294 61.7072L141.026 60.3308L147.049 59.1543L147.263 60.2533L145.615 63.2224C147.323 63.1119 148.364 63.9436 148.623 65.2702Z" fill="#263238"/>
<path d="M168.614 49.8755L149.731 53.5635L153.419 72.4459L172.302 68.7579L168.614 49.8755Z" fill="white"/>
<path d="M160.62 64.2383L160.891 65.628L154.375 66.9005L154.161 65.8021L157.021 61.7827C157.718 60.7948 157.769 60.2471 157.673 59.7547C157.515 58.9463 156.868 58.5884 155.782 58.7998C154.924 58.9674 154.261 59.3985 153.892 60.1264L152.571 59.4664C153.072 58.4113 154.191 57.6294 155.643 57.3459C157.562 56.9706 158.99 57.7014 159.295 59.267C159.463 60.1258 159.376 60.9558 158.376 62.3436L156.454 65.0526L160.62 64.2383Z" fill="#263238"/>
<path d="M160.94 61.0295C160.373 58.1247 161.644 56.1723 163.74 55.7628C165.849 55.3508 167.76 56.6816 168.328 59.5864C168.894 62.49 167.624 64.443 165.516 64.8544C163.42 65.2645 161.508 63.9331 160.94 61.0295ZM166.674 59.9101C166.257 57.7758 165.231 56.9536 164.019 57.1909C162.819 57.4251 162.179 58.5727 162.595 60.7064C163.012 62.8401 164.037 63.6623 165.237 63.4281C166.449 63.1915 167.09 62.0432 166.674 59.9101Z" fill="#263238"/>
<path d="M93.1754 85.0493L74.293 88.7373L77.981 107.62L96.8634 103.932L93.1754 85.0493Z" fill="white"/>
<path d="M89.5234 97.3668C89.8441 99.0087 88.6172 100.31 86.4198 100.739C84.2224 101.168 82.6214 100.419 82.3013 98.7774C82.1115 97.8052 82.4754 96.9872 83.303 96.3921C82.5193 96.1387 82.0046 95.5838 81.8419 94.7508C81.5458 93.2357 82.6868 92.0298 84.644 91.6472C86.6138 91.2623 88.1373 91.9481 88.4334 93.4633C88.5961 94.2968 88.3157 95.0066 87.6725 95.5387C88.6754 95.7759 89.3336 96.3951 89.5234 97.3668ZM83.4729 94.5112C83.6213 95.2691 84.3461 95.6252 85.3814 95.4228C86.4294 95.218 86.9801 94.6121 86.8317 93.8554C86.6762 93.0597 85.9057 92.7384 84.895 92.9354C83.8855 93.133 83.318 93.7161 83.4729 94.5112ZM87.8599 97.64C87.6899 96.7686 86.8257 96.3741 85.6138 96.6101C84.4014 96.8467 83.7756 97.5325 83.9455 98.4039C84.1209 99.3005 84.9563 99.6879 86.1688 99.4513C87.3806 99.2146 88.0346 98.536 87.8599 97.64Z" fill="#263238"/>
<path d="M112.996 81.1773L94.1138 84.8652L97.8018 103.748L116.684 100.06L112.996 81.1773Z" fill="white"/>
<path d="M105.035 94.1578C105.338 95.7108 104.466 97.2182 102.092 97.6818C100.843 97.9256 99.5051 97.7929 98.5719 97.3076L99.0175 95.8964C99.7646 96.3012 100.791 96.4549 101.788 96.2591C102.962 96.0297 103.556 95.3763 103.393 94.5434C103.228 93.6978 102.581 93.2732 100.751 93.6305L98.6169 94.0467L98.1311 89.1475L103.322 88.1338L103.59 89.5102L99.7892 90.2519L99.9994 92.3346L100.845 92.17C103.459 91.6602 104.729 92.5922 105.035 94.1578Z" fill="#263238"/>
<path d="M112.428 90.7853C113.02 93.8162 111.578 95.828 109.014 96.3288C108.13 96.5012 107.247 96.4772 106.58 96.2141L106.944 94.8587C107.485 95.0803 108.088 95.0803 108.707 94.9596C110.374 94.6341 111.22 93.3946 110.828 91.3864L110.825 91.3738C110.416 92.0956 109.629 92.5647 108.644 92.7568C106.901 93.0973 105.394 92.2908 105.071 90.6363C104.728 88.8815 105.937 87.4913 107.743 87.1388C110.156 86.6673 111.873 87.9441 112.428 90.7853ZM110.206 89.5415C110.043 88.7086 109.258 88.1801 108.084 88.4095C107.061 88.6089 106.468 89.3278 106.647 90.2496C106.827 91.1714 107.635 91.6164 108.709 91.4074C109.769 91.1996 110.376 90.4129 110.206 89.5415Z" fill="#263238"/>
<path d="M132.817 77.3071L113.935 80.9951L117.623 99.8775L136.505 96.1895L132.817 77.3071Z" fill="white"/>
<path d="M125.237 83.8535L125.451 84.9519L123.528 93.3631L121.773 93.706L123.639 85.6077L120.166 86.2857L120.459 87.7883L118.932 88.0867L118.367 85.1951L125.237 83.8535Z" fill="#263238"/>
<path d="M129.43 83.0342L131.157 91.8735L129.515 92.1936L128.058 84.7313L126.189 85.0958L125.921 83.7194L129.43 83.0342Z" fill="#263238"/>
<path d="M152.638 73.4351L133.755 77.123L137.443 96.0054L156.326 92.3174L152.638 73.4351Z" fill="white"/>
<path d="M144.975 86.3542C145.278 87.9078 144.406 89.4152 142.032 89.8788C140.782 90.1226 139.445 89.9905 138.511 89.5047L138.957 88.0934C139.705 88.4982 140.731 88.6519 141.729 88.4567C142.903 88.2273 143.496 87.5739 143.333 86.741C143.168 85.8948 142.521 85.4702 140.691 85.8282L138.557 86.2449L138.071 81.3457L143.261 80.332L143.53 81.7091L139.729 82.4507L139.939 84.5334L140.785 84.3682C143.399 83.8572 144.669 84.7886 144.975 86.3542Z" fill="#263238"/>
<path d="M152.29 84.926C152.593 86.4796 151.72 87.9869 149.347 88.45C148.097 88.6938 146.76 88.5617 145.826 88.0758L146.272 86.6646C147.019 87.0693 148.046 87.2231 149.043 87.0279C150.217 86.7979 150.811 86.1445 150.648 85.3115C150.483 84.4654 149.836 84.0408 148.005 84.3981L145.872 84.8149L145.386 79.9151L150.576 78.9014L150.845 80.2778L147.044 81.0219L147.254 83.104L148.1 82.9394C150.714 82.4283 151.984 83.3604 152.29 84.926Z" fill="#263238"/>
<path d="M172.456 69.5659L153.574 73.2539L157.262 92.1363L176.144 88.4483L172.456 69.5659Z" fill="white"/>
<path d="M165.168 76.0508L166.895 84.8901L165.254 85.2102L163.796 77.7479L161.927 78.1124L161.659 76.736L165.168 76.0508Z" fill="#263238"/>
<path d="M97.0216 104.738L78.1392 108.426L81.8271 127.308L100.71 123.62L97.0216 104.738Z" fill="white"/>
<path d="M86.0456 111.945L87.7715 120.784L86.1302 121.105L84.6727 113.642L82.8038 114.007L82.5354 112.631L86.0456 111.945Z" fill="#263238"/>
<path d="M95.4254 116.471C95.7287 118.024 94.8567 119.532 92.4828 119.995C91.2325 120.239 89.8963 120.106 88.9624 119.621L89.408 118.21C90.1557 118.615 91.182 118.768 92.1795 118.573C93.3542 118.343 93.9469 117.69 93.7842 116.857C93.619 116.011 92.9722 115.587 91.1418 115.944L89.0075 116.36L88.5222 111.461L93.7121 110.447L93.9805 111.824L90.1797 112.565L90.3899 114.648L91.2361 114.483C93.8496 113.974 95.1198 114.906 95.4254 116.471Z" fill="#263238"/>
<path d="M116.842 100.867L97.96 104.555L101.648 123.437L120.53 119.749L116.842 100.867Z" fill="white"/>
<path d="M109.088 113.868C109.379 115.359 108.507 116.866 106.133 117.329C104.883 117.574 103.559 117.439 102.612 116.955L103.071 115.542C103.806 115.949 104.832 116.102 105.83 115.907C107.004 115.678 107.598 115.024 107.437 114.204C107.282 113.408 106.599 113.004 105.261 113.265L104.453 113.423L104.233 112.299L105.775 109.521L101.76 110.305L101.491 108.928L107.514 107.752L107.728 108.851L106.08 111.82C107.788 111.71 108.829 112.542 109.088 113.868Z" fill="#263238"/>
<path d="M116.452 112.365C116.755 113.919 115.882 115.426 113.509 115.89C112.259 116.134 110.922 116.001 109.988 115.516L110.434 114.104C111.181 114.509 112.208 114.662 113.205 114.467C114.379 114.238 114.972 113.584 114.81 112.751C114.645 111.905 113.998 111.481 112.167 111.838L110.034 112.255L109.548 107.356L114.738 106.342L115.007 107.718L111.206 108.46L111.416 110.543L112.262 110.378C114.876 109.868 116.146 110.799 116.452 112.365Z" fill="#263238"/>
<path d="M136.663 96.9956L117.781 100.684L121.469 119.566L140.351 115.878L136.663 96.9956Z" fill="white"/>
<path d="M125.536 104.234L127.263 113.074L125.621 113.394L124.163 105.931L122.295 106.296L122.027 104.919L125.536 104.234Z" fill="#263238"/>
<path d="M133.96 102.589L134.174 103.687L132.251 112.098L130.496 112.441L132.362 104.343L128.889 105.021L129.182 106.524L127.655 106.822L127.091 103.93L133.96 102.589Z" fill="#263238"/>
<path d="M156.484 93.1245L137.602 96.8125L141.29 115.695L160.172 112.007L156.484 93.1245Z" fill="white"/>
<path d="M148.707 106.128C148.998 107.617 148.127 109.125 145.753 109.59C144.502 109.833 143.179 109.699 142.232 109.215L142.69 107.802C143.425 108.209 144.451 108.363 145.449 108.167C146.624 107.938 147.217 107.285 147.057 106.464C146.901 105.669 146.219 105.264 144.881 105.525L144.072 105.682L143.853 104.559L145.394 101.781L141.379 102.565L141.111 101.189L147.133 100.013L147.348 101.111L145.699 104.08C147.408 103.969 148.448 104.801 148.707 106.128Z" fill="#263238"/>
<path d="M156.368 105.943L156.64 107.332L150.125 108.605L149.91 107.506L152.769 103.487C153.468 102.498 153.518 101.951 153.422 101.458C153.264 100.65 152.617 100.293 151.532 100.505C150.673 100.672 150.01 101.103 149.641 101.83L148.319 101.171C148.821 100.115 149.94 99.3335 151.392 99.05C153.311 98.6747 154.739 99.4055 155.045 100.971C155.212 101.83 155.125 102.659 154.125 104.048L152.203 106.757L156.368 105.943Z" fill="#263238"/>
<path d="M176.301 89.2544L157.419 92.9424L161.107 111.825L179.989 108.137L176.301 89.2544Z" fill="white"/>
<path d="M172.043 99.578C172.635 102.609 171.192 104.621 168.629 105.122C167.745 105.294 166.863 105.27 166.195 105.007L166.559 103.651C167.1 103.873 167.703 103.873 168.322 103.752C169.989 103.427 170.835 102.187 170.442 100.179L170.44 100.167C170.03 100.888 169.244 101.357 168.259 101.55C166.517 101.889 165.009 101.084 164.686 99.4291C164.343 97.6743 165.552 96.284 167.358 95.9315C169.77 95.4607 171.488 96.7374 172.043 99.578ZM169.82 98.3343C169.657 97.5013 168.873 96.9723 167.698 97.2023C166.675 97.4016 166.082 98.1205 166.261 99.0423C166.442 99.9642 167.249 100.409 168.323 100.2C169.384 99.993 169.99 99.2057 169.82 98.3343Z" fill="#263238"/>
<path d="M120.312 63.502L122.491 66.3611L126.082 66.1864L124.037 69.1434L125.312 72.5046L121.868 71.4723L119.065 73.7243L118.983 70.1301L115.975 68.161L119.368 66.9713L120.312 63.502Z" fill="white"/>
<path d="M143.199 -11.3998C137.307 -10.2492 133.774 -5.24605 134.872 0.374408C135.969 5.99487 141.125 9.30025 147.017 8.14961C152.909 6.99898 156.447 2.02349 155.344 -3.624C154.241 -9.27208 149.09 -12.551 143.199 -11.3998Z" fill="white"/>
<path d="M143.785 -8.40039L146.59 -4.72028L151.212 -4.94488L148.579 -1.13986L150.221 3.18643L145.788 1.85803L142.182 4.75624L142.075 0.13028L138.204 -2.4046L142.571 -3.93537L143.785 -8.40039Z" fill="#DA1919"/>
<path d="M81.6932 15.2719C82.3298 18.5298 80.1486 20.929 75.2614 21.8838L65.8125 23.7293L62.1006 4.72278L71.0066 2.9836C75.5683 2.0924 78.3884 3.54331 78.977 6.55742C79.3589 8.51218 78.6623 10.1421 77.3501 11.2158C79.5133 11.4698 81.2104 12.8012 81.6932 15.2719ZM66.171 6.80304L67.1944 12.0434L72.1903 11.0675C74.6339 10.5901 75.8494 9.45083 75.5095 7.71286C75.1647 5.94787 73.6099 5.34974 71.1663 5.82657L66.171 6.80304ZM78.0672 15.6136C77.696 13.7129 76.0926 13.152 73.4316 13.672L67.7301 14.7854L68.8014 20.2702L74.5029 19.1568C77.1639 18.6373 78.4383 17.5143 78.0672 15.6136Z" fill="white"/>
<path d="M82.761 0.685511L86.291 -0.00390625L90.0029 19.0026L86.4729 19.692L82.761 0.685511Z" fill="white"/>
<path d="M108.31 -4.30347L112.022 14.703L109.116 15.2705L96.1223 4.4476L98.6362 17.3178L95.1332 18.0018L91.4207 -1.0047L94.3261 -1.57222L107.321 9.25072L104.807 -3.61946L108.31 -4.30347Z" fill="white"/>
<path d="M128.205 1.451L131.545 0.798815L133.024 8.37403C131.355 10.363 128.745 11.7184 126.057 12.2433C120.165 13.3939 115.02 10.1432 113.912 4.46811C112.803 -1.2064 116.347 -6.15484 122.293 -7.31629C125.47 -7.93665 128.337 -7.39737 130.527 -5.71105L128.725 -3.1041C126.94 -4.30578 125.097 -4.65049 123.06 -4.25293C119.015 -3.46262 116.699 -0.163859 117.469 3.77328C118.222 7.62875 121.624 9.89579 125.643 9.11089C127 8.84605 128.278 8.31457 129.362 7.36992L128.205 1.451Z" fill="white"/>
<path opacity="0.1" d="M157.563 -20.9136C157.563 -20.9136 160.215 91.8511 88.6743 128.396L183.123 109.95L157.563 -20.9136Z" fill="black"/>
</g>
<path d="M102.981 55.1859L101.049 66.8223H98.9238L95.0886 59.4984H94.9976L93.7761 66.8223H91.3158L93.2476 55.1859H95.4067L99.2249 62.5041H99.3215L100.532 55.1859H102.981ZM109.252 63.1064L110.087 58.095H112.508L111.053 66.8223H108.729L108.991 65.237H108.9C108.631 65.7484 108.239 66.1594 107.723 66.47C107.208 66.7806 106.623 66.9359 105.968 66.9359C105.384 66.9359 104.892 66.8033 104.491 66.5382C104.093 66.273 103.811 65.8961 103.644 65.4075C103.477 64.9189 103.449 64.3336 103.559 63.6518L104.491 58.095H106.911L106.059 63.22C105.979 63.7351 106.051 64.1423 106.275 64.4416C106.498 64.7408 106.839 64.8904 107.297 64.8904C107.589 64.8904 107.871 64.8242 108.144 64.6916C108.42 64.5552 108.659 64.3545 108.86 64.0893C109.061 63.8242 109.191 63.4965 109.252 63.1064ZM113.006 66.8223L114.461 58.095H116.762L116.512 59.6348H116.608C116.874 59.1234 117.243 58.72 117.716 58.4245C118.194 58.1291 118.73 57.9814 119.324 57.9814C119.915 57.9814 120.396 58.131 120.768 58.4302C121.143 58.7257 121.358 59.1272 121.415 59.6348H121.506C121.764 59.1348 122.152 58.7351 122.671 58.4359C123.19 58.1329 123.769 57.9814 124.41 57.9814C125.216 57.9814 125.834 58.2408 126.262 58.7598C126.69 59.2787 126.824 60.0098 126.665 60.9529L125.688 66.8223H123.268L124.177 61.4302C124.249 60.9416 124.177 60.5779 123.961 60.3393C123.745 60.0969 123.444 59.9757 123.057 59.9757C122.618 59.9757 122.252 60.1158 121.961 60.3961C121.669 60.6726 121.489 61.0382 121.421 61.4927L120.518 66.8223H118.171L119.091 61.3791C119.156 60.9473 119.086 60.6064 118.881 60.3564C118.68 60.1026 118.379 59.9757 117.978 59.9757C117.713 59.9757 117.461 60.0439 117.222 60.1802C116.987 60.3128 116.788 60.5003 116.625 60.7427C116.463 60.9814 116.357 61.2617 116.307 61.5836L115.421 66.8223H113.006ZM127.628 66.8223L129.56 55.1859H131.981L131.265 59.5609H131.333C131.477 59.3261 131.67 59.0874 131.912 58.845C132.159 58.5988 132.46 58.3942 132.816 58.2314C133.172 58.0647 133.594 57.9814 134.083 57.9814C134.719 57.9814 135.278 58.148 135.759 58.4814C136.24 58.8109 136.587 59.309 136.799 59.9757C137.011 60.6386 137.034 61.47 136.867 62.47C136.708 63.4435 136.414 64.2654 135.986 64.9359C135.562 65.6026 135.053 66.1083 134.458 66.4529C133.867 66.7939 133.24 66.9643 132.577 66.9643C132.107 66.9643 131.721 66.8867 131.418 66.7314C131.119 66.5761 130.886 66.381 130.719 66.1461C130.553 65.9075 130.433 65.667 130.361 65.4245H130.242L130.015 66.8223H127.628ZM130.725 62.4586C130.642 62.9776 130.64 63.4302 130.719 63.8166C130.803 64.2029 130.962 64.5041 131.197 64.72C131.435 64.9321 131.748 65.0382 132.134 65.0382C132.532 65.0382 132.884 64.9302 133.191 64.7143C133.501 64.4946 133.759 64.1916 133.964 63.8052C134.168 63.4151 134.312 62.9662 134.395 62.4586C134.475 61.9548 134.477 61.5117 134.401 61.1291C134.325 60.7465 134.17 60.4473 133.935 60.2314C133.7 60.0154 133.382 59.9075 132.981 59.9075C132.59 59.9075 132.24 60.0117 131.929 60.22C131.623 60.4283 131.365 60.7238 131.157 61.1064C130.952 61.4889 130.808 61.9397 130.725 62.4586ZM141.709 66.9927C140.815 66.9927 140.075 66.8109 139.488 66.4473C138.901 66.0798 138.488 65.5609 138.249 64.8904C138.014 64.2162 137.974 63.4189 138.13 62.4984C138.281 61.6007 138.586 60.8128 139.045 60.1348C139.507 59.4567 140.086 58.9283 140.783 58.5495C141.48 58.1708 142.257 57.9814 143.113 57.9814C143.688 57.9814 144.209 58.0742 144.675 58.2598C145.145 58.4416 145.535 58.7181 145.846 59.0893C146.156 59.4567 146.368 59.917 146.482 60.47C146.599 61.023 146.598 61.6708 146.476 62.4132L146.368 63.0779H139.005L139.238 61.5779H144.329C144.385 61.2295 144.363 60.9208 144.26 60.6518C144.158 60.3829 143.988 60.1726 143.749 60.0211C143.51 59.8658 143.217 59.7882 142.868 59.7882C142.512 59.7882 142.179 59.8753 141.868 60.0495C141.558 60.2238 141.296 60.4529 141.084 60.737C140.876 61.0173 140.741 61.3223 140.681 61.6518L140.414 63.1404C140.338 63.5988 140.353 63.9795 140.459 64.2825C140.569 64.5855 140.759 64.8128 141.027 64.9643C141.296 65.112 141.637 65.1859 142.05 65.1859C142.319 65.1859 142.571 65.148 142.806 65.0723C143.045 64.9965 143.257 64.8848 143.442 64.737C143.628 64.5855 143.779 64.398 143.897 64.1745L146.107 64.3223C145.902 64.8601 145.592 65.3298 145.175 65.7314C144.759 66.1291 144.257 66.4397 143.67 66.6632C143.086 66.8829 142.433 66.9927 141.709 66.9927ZM147.333 66.8223L148.787 58.095H151.134L150.878 59.6177H150.969C151.219 59.0761 151.554 58.667 151.975 58.3904C152.399 58.1101 152.856 57.97 153.344 57.97C153.465 57.97 153.592 57.9776 153.725 57.9927C153.861 58.0041 153.982 58.023 154.089 58.0495L153.725 60.2029C153.619 60.1651 153.467 60.1348 153.27 60.112C153.077 60.0855 152.893 60.0723 152.719 60.0723C152.367 60.0723 152.039 60.1499 151.736 60.3052C151.433 60.4567 151.178 60.6689 150.969 60.9416C150.765 61.2143 150.63 61.5287 150.566 61.8848L149.753 66.8223H147.333ZM166.651 58.9473C166.621 58.6708 166.556 58.4264 166.458 58.2143C166.363 57.9984 166.232 57.8166 166.066 57.6689C165.899 57.5173 165.697 57.4018 165.458 57.3223C165.219 57.2427 164.943 57.2029 164.628 57.2029C164.034 57.2029 163.477 57.3507 162.958 57.6461C162.443 57.9416 162.003 58.3715 161.64 58.9359C161.276 59.4965 161.028 60.1821 160.895 60.9927C160.759 61.8033 160.759 62.4927 160.895 63.0609C161.036 63.6291 161.299 64.0628 161.685 64.362C162.075 64.6575 162.577 64.8052 163.191 64.8052C163.748 64.8052 164.248 64.7067 164.691 64.5098C165.134 64.309 165.496 64.0268 165.776 63.6632C166.06 63.2995 166.242 62.8696 166.322 62.3734L166.81 62.4473H163.816L164.123 60.595H168.992L168.742 62.0609C168.579 63.0836 168.221 63.9624 167.668 64.6973C167.115 65.4321 166.426 65.9965 165.6 66.3904C164.778 66.7844 163.876 66.9814 162.895 66.9814C161.804 66.9814 160.886 66.7408 160.14 66.2598C159.397 65.7749 158.869 65.0874 158.554 64.1973C158.244 63.3033 158.189 62.2427 158.39 61.0154C158.545 60.0723 158.822 59.2314 159.219 58.4927C159.621 57.7503 160.111 57.1215 160.691 56.6064C161.27 56.0912 161.912 55.6992 162.617 55.4302C163.325 55.1613 164.062 55.0268 164.827 55.0268C165.486 55.0268 166.083 55.1234 166.617 55.3166C167.155 55.506 167.615 55.7749 167.998 56.1234C168.384 56.4719 168.676 56.8867 168.873 57.3677C169.073 57.845 169.166 58.3715 169.151 58.9473H166.651ZM172.221 66.987C171.668 66.987 171.188 66.8904 170.783 66.6973C170.382 66.5003 170.086 66.2086 169.897 65.8223C169.707 65.4359 169.66 64.9567 169.755 64.3848C169.838 63.8999 169.995 63.4946 170.226 63.1689C170.461 62.8393 170.747 62.5742 171.084 62.3734C171.421 62.1726 171.795 62.0192 172.204 61.9132C172.616 61.8071 173.043 61.7351 173.482 61.6973C173.99 61.6442 174.402 61.5931 174.721 61.5439C175.043 61.4946 175.283 61.4245 175.442 61.3336C175.601 61.2389 175.698 61.0988 175.732 60.9132V60.8791C175.789 60.523 175.723 60.2465 175.533 60.0495C175.348 59.8488 175.05 59.7484 174.641 59.7484C174.209 59.7484 173.842 59.8431 173.539 60.0325C173.24 60.2219 173.026 60.4624 172.897 60.7541L170.692 60.5723C170.889 60.042 171.187 59.5836 171.584 59.1973C171.986 58.8071 172.469 58.5079 173.033 58.2995C173.598 58.0874 174.23 57.9814 174.931 57.9814C175.416 57.9814 175.868 58.0382 176.289 58.1518C176.713 58.2654 177.079 58.4416 177.385 58.6802C177.696 58.9189 177.92 59.2257 178.056 59.6007C178.196 59.9719 178.224 60.417 178.141 60.9359L177.158 66.8223H174.863L175.067 65.612H174.999C174.813 65.8848 174.586 66.1253 174.317 66.3336C174.048 66.5382 173.74 66.6992 173.391 66.8166C173.043 66.9302 172.652 66.987 172.221 66.987ZM173.192 65.3166C173.545 65.3166 173.868 65.2465 174.164 65.1064C174.463 64.9624 174.709 64.7692 174.902 64.5268C175.099 64.2844 175.224 64.0098 175.277 63.7029L175.425 62.7768C175.349 62.8261 175.24 62.8696 175.096 62.9075C174.956 62.9454 174.802 62.9814 174.635 63.0154C174.473 63.0458 174.308 63.0742 174.141 63.1007C173.974 63.1234 173.825 63.1461 173.692 63.1689C173.401 63.2105 173.139 63.2768 172.908 63.3677C172.677 63.4586 172.49 63.5817 172.346 63.737C172.202 63.8886 172.113 64.0779 172.079 64.3052C172.026 64.6348 172.103 64.8867 172.312 65.0609C172.524 65.2314 172.817 65.3166 173.192 65.3166ZM179.053 66.8223L180.508 58.095H182.809L182.559 59.6348H182.655C182.92 59.1234 183.29 58.72 183.763 58.4245C184.241 58.1291 184.777 57.9814 185.371 57.9814C185.962 57.9814 186.443 58.131 186.814 58.4302C187.189 58.7257 187.405 59.1272 187.462 59.6348H187.553C187.811 59.1348 188.199 58.7351 188.718 58.4359C189.237 58.1329 189.816 57.9814 190.456 57.9814C191.263 57.9814 191.881 58.2408 192.309 58.7598C192.737 59.2787 192.871 60.0098 192.712 60.9529L191.735 66.8223H189.314L190.224 61.4302C190.295 60.9416 190.223 60.5779 190.008 60.3393C189.792 60.0969 189.491 59.9757 189.104 59.9757C188.665 59.9757 188.299 60.1158 188.008 60.3961C187.716 60.6726 187.536 61.0382 187.468 61.4927L186.564 66.8223H184.218L185.138 61.3791C185.203 60.9473 185.133 60.6064 184.928 60.3564C184.727 60.1026 184.426 59.9757 184.025 59.9757C183.759 59.9757 183.508 60.0439 183.269 60.1802C183.034 60.3128 182.835 60.5003 182.672 60.7427C182.509 60.9814 182.403 61.2617 182.354 61.5836L181.468 66.8223H179.053ZM197.584 66.9927C196.69 66.9927 195.95 66.8109 195.363 66.4473C194.776 66.0798 194.363 65.5609 194.124 64.8904C193.889 64.2162 193.849 63.4189 194.005 62.4984C194.156 61.6007 194.461 60.8128 194.92 60.1348C195.382 59.4567 195.961 58.9283 196.658 58.5495C197.355 58.1708 198.132 57.9814 198.988 57.9814C199.563 57.9814 200.084 58.0742 200.55 58.2598C201.02 58.4416 201.41 58.7181 201.721 59.0893C202.031 59.4567 202.243 59.917 202.357 60.47C202.474 61.023 202.473 61.6708 202.351 62.4132L202.243 63.0779H194.88L195.113 61.5779H200.204C200.26 61.2295 200.238 60.9208 200.135 60.6518C200.033 60.3829 199.863 60.1726 199.624 60.0211C199.385 59.8658 199.092 59.7882 198.743 59.7882C198.387 59.7882 198.054 59.8753 197.743 60.0495C197.433 60.2238 197.171 60.4529 196.959 60.737C196.751 61.0173 196.616 61.3223 196.556 61.6518L196.289 63.1404C196.213 63.5988 196.228 63.9795 196.334 64.2825C196.444 64.5855 196.634 64.8128 196.902 64.9643C197.171 65.112 197.512 65.1859 197.925 65.1859C198.194 65.1859 198.446 65.148 198.681 65.0723C198.92 64.9965 199.132 64.8848 199.317 64.737C199.503 64.5855 199.654 64.398 199.772 64.1745L201.982 64.3223C201.777 64.8601 201.467 65.3298 201.05 65.7314C200.634 66.1291 200.132 66.4397 199.545 66.6632C198.961 66.8829 198.308 66.9927 197.584 66.9927ZM211.498 60.5836L209.299 60.72C209.287 60.5268 209.234 60.3545 209.14 60.2029C209.049 60.0476 208.914 59.9245 208.736 59.8336C208.562 59.7427 208.342 59.6973 208.077 59.6973C207.679 59.6973 207.325 59.7882 207.015 59.97C206.704 60.1518 206.528 60.3848 206.486 60.6689C206.452 60.8507 206.5 61.0041 206.628 61.1291C206.757 61.2541 207.017 61.3601 207.407 61.4473L208.941 61.7654C209.759 61.9397 210.35 62.2295 210.714 62.6348C211.081 63.0401 211.212 63.5704 211.106 64.2257C211.011 64.7825 210.767 65.2692 210.373 65.6859C209.979 66.0988 209.479 66.4208 208.873 66.6518C208.267 66.8791 207.594 66.9927 206.856 66.9927C205.67 66.9927 204.768 66.7503 204.151 66.2654C203.534 65.7806 203.236 65.1234 203.259 64.2939L205.623 64.1689C205.642 64.5249 205.767 64.7939 205.998 64.9757C206.229 65.1537 206.545 65.2446 206.947 65.2484C207.397 65.256 207.78 65.1632 208.094 64.97C208.412 64.773 208.592 64.5344 208.634 64.2541C208.664 64.0571 208.607 63.898 208.464 63.7768C208.323 63.6556 208.066 63.5552 207.691 63.4757L206.236 63.1745C205.411 63.0041 204.818 62.6992 204.458 62.2598C204.098 61.8204 203.975 61.2617 204.089 60.5836C204.179 60.042 204.405 59.5779 204.765 59.1916C205.128 58.8014 205.596 58.5022 206.168 58.2939C206.744 58.0855 207.393 57.9814 208.117 57.9814C209.25 57.9814 210.102 58.2143 210.674 58.6802C211.25 59.1461 211.524 59.7806 211.498 60.5836Z" fill="white"/>
</g>
<defs>
<linearGradient id="paint0_linear_9320_3589" x1="151" y1="0" x2="151" y2="122.839" gradientUnits="userSpaceOnUse">
<stop stop-color="#DD1818"/>
<stop offset="1" stop-color="#333333"/>
</linearGradient>
<clipPath id="clip0_9320_3589">
<rect x="0.86377" width="300.272" height="122.839" rx="12.7957" fill="white"/>
</clipPath>
</defs>
</svg>
