<svg width="302" height="123" viewBox="0 0 302 123" fill="none" xmlns="http://www.w3.org/2000/svg">
<g clip-path="url(#clip0_10349_47142)">
<rect x="0.863892" width="300.272" height="122.839" rx="12.7957" fill="url(#paint0_linear_10349_47142)"/>
<g opacity="0.05">
<path d="M242.743 37.2506L152.399 47.9552L223.852 -8.35866L207.766 -24.4441L151.452 47.0082L162.157 -43.3359H139.409L150.114 47.0088L93.7991 -24.4441L77.7142 -8.35866L149.166 47.9552L58.8218 37.2506V59.9985L149.166 49.2938L77.7142 105.608L93.7991 121.693L150.113 50.2409L139.409 140.585H162.157L151.452 50.2409L207.766 121.693L223.852 105.608L152.399 49.2938L242.743 59.9985V37.2506Z" fill="#F5F5F5"/>
<path d="M149.805 -20.072L171.252 23.3837L219.208 30.3524L184.507 64.1778L192.699 111.941L149.805 89.3897L106.912 111.941L115.104 64.1778L80.4022 30.3524L128.359 23.3837L149.805 -20.072Z" fill="#E0E0E0"/>
<path d="M220.218 -18.5554L226.713 -14.2958L233.903 -17.2306L231.859 -9.73828L236.871 -3.80615L229.114 -3.43562L225.022 3.16553L222.272 -4.09801L214.729 -5.95008L220.788 -10.8102L220.218 -18.5554Z" fill="#E0E0E0"/>
<path d="M225.925 95.8408L232.419 100.1L239.61 97.1656L237.565 104.658L242.578 110.59L234.821 110.961L230.728 117.562L227.979 110.298L220.436 108.446L226.494 103.586L225.925 95.8408Z" fill="#E0E0E0"/>
<path d="M58.7641 111.579L65.2583 115.838L72.4486 112.904L70.4044 120.397L75.4171 126.328L67.6599 126.699L63.5672 133.3L60.8173 126.036L53.2751 124.184L59.3328 119.325L58.7641 111.579Z" fill="#E0E0E0"/>
<path d="M46.3898 48.5132L49.7174 50.6961L53.4023 49.1924L52.3544 53.0317L54.9235 56.071L50.9485 56.2614L48.8514 59.6436L47.442 55.922L43.5769 54.9726L46.6811 52.4822L46.3898 48.5132Z" fill="#E0E0E0"/>
<path d="M249.457 42.2295L252.784 44.4125L256.469 42.9087L255.421 46.748L257.99 49.7873L254.015 49.9777L251.918 53.3599L250.509 49.6378L246.644 48.6889L249.748 46.1985L249.457 42.2295Z" fill="#E0E0E0"/>
<path d="M211.906 59.1462L216.49 62.1531L221.567 60.0819L220.123 65.3708L223.662 69.5578L218.186 69.8196L215.297 74.4792L213.356 69.3518L208.032 68.0444L212.308 64.6136L211.906 59.1462Z" fill="#E0E0E0"/>
<path d="M181.334 116.551L183.457 117.944L185.809 116.984L185.14 119.434L186.779 121.374L184.243 121.495L182.904 123.654L182.005 121.279L179.539 120.673L181.519 119.084L181.334 116.551Z" fill="#E0E0E0"/>
<path d="M131.952 114.01L134.075 115.403L136.427 114.443L135.758 116.894L137.397 118.833L134.861 118.955L133.522 121.114L132.623 118.739L130.157 118.133L132.138 116.544L131.952 114.01Z" fill="#E0E0E0"/>
<path d="M66.7991 20.1447L66.2484 22.6244L67.9792 24.4837L65.4509 24.7263L64.2174 26.9465L63.2055 24.617L60.7126 24.1305L62.6152 22.4478L62.3083 19.9268L64.4961 21.2161L66.7991 20.1447Z" fill="#E0E0E0"/>
<path d="M84.119 71.8425L87.4472 74.0255L91.1315 72.5217L90.0841 76.361L92.6527 79.4009L88.6777 79.5907L86.5806 82.9729L85.1711 79.2514L81.3066 78.3019L84.4108 75.8115L84.119 71.8425Z" fill="#E0E0E0"/>
<path d="M106.848 -4.74731L110.176 -2.56434L113.861 -4.0681L112.813 -0.228847L115.382 2.81109L111.406 3.00086L109.309 6.3837L107.9 2.66156L104.035 1.71211L107.14 -0.777742L106.848 -4.74731Z" fill="#E0E0E0"/>
<path d="M244.708 37.3574L187.649 26.3269L173.706 98.4516L230.764 109.482L244.708 37.3574Z" fill="#263238"/>
<path d="M213.88 71.5946L203.473 69.5818L201.46 79.9884L211.867 82.0013L213.88 71.5946Z" fill="white"/>
<path d="M212.212 76.6575C211.729 79.1593 209.308 80.7952 206.806 80.3118C204.304 79.8283 202.668 77.4076 203.152 74.9057C203.636 72.4039 206.056 70.768 208.558 71.2514C211.06 71.7355 212.696 74.1556 212.212 76.6575Z" fill="#263238"/>
<path d="M196.243 45.6483L185.837 43.6365L183.825 54.0431L194.231 56.0549L196.243 45.6483Z" fill="white"/>
<path d="M191.182 47.4731L190.239 52.3477L189.334 52.173L190.13 48.0575L189.099 47.8581L189.246 47.0984L191.182 47.4731Z" fill="#263238"/>
<path d="M207.166 47.7598L196.759 45.748L194.747 56.1547L205.154 58.1665L207.166 47.7598Z" fill="white"/>
<path d="M200.079 49.1923L199.137 54.0668L198.231 53.8921L199.027 49.7772L197.997 49.5778L198.144 48.8181L200.079 49.1923Z" fill="#263238"/>
<path d="M203.847 53.4602C203.688 54.2818 202.931 54.8727 201.622 54.6193C200.933 54.486 200.284 54.1442 199.9 53.701L200.425 53.0735C200.717 53.4338 201.21 53.7233 201.76 53.8302C202.408 53.9551 202.846 53.7431 202.934 53.2915C203.019 52.8525 202.753 52.5054 202.015 52.3624L201.569 52.2766L201.69 51.6562L203.051 50.5554L200.837 50.1266L200.983 49.3669L204.305 50.0095L204.188 50.6155L202.732 51.7925C203.629 52.088 203.989 52.7288 203.847 53.4602Z" fill="#263238"/>
<path d="M218.077 49.8915L207.671 47.8787L205.658 58.2853L216.064 60.2981L218.077 49.8915Z" fill="white"/>
<path d="M211.933 55.3926L211.07 55.2262L210.856 56.3336L209.979 56.1637L210.192 55.0563L207.518 54.5398L207.64 53.9128L210.649 51.2368L211.617 51.4236L208.773 53.9879L210.368 54.2966L210.558 53.3147L211.408 53.4786L211.218 54.4605L212.082 54.6269L211.933 55.3926Z" fill="#263238"/>
<path d="M215.776 55.768C215.617 56.5895 214.86 57.1804 213.55 56.927C212.862 56.7937 212.212 56.452 211.828 56.0094L212.354 55.3812C212.646 55.7415 213.138 56.031 213.688 56.1379C214.336 56.2628 214.775 56.052 214.862 55.5998C214.947 55.1602 214.682 54.8131 213.944 54.6708L213.498 54.5843L213.618 53.9646L214.979 52.8632L212.764 52.435L212.911 51.6753L216.233 52.3173L216.116 52.9232L214.66 54.1003C215.557 54.3963 215.917 55.0371 215.776 55.768Z" fill="#263238"/>
<path d="M229 52.0058L218.593 49.9929L216.58 60.3996L226.987 62.4124L229 52.0058Z" fill="white"/>
<path d="M222.37 57.0426C222.211 57.8648 221.454 58.4551 220.144 58.2017C219.455 58.0684 218.806 57.7266 218.422 57.284L218.948 56.6559C219.24 57.0162 219.732 57.3063 220.282 57.4126C220.93 57.5375 221.369 57.3261 221.456 56.8745C221.541 56.4355 221.276 56.0878 220.538 55.9455L220.092 55.859L220.212 55.2392L221.574 54.1378L219.359 53.7096L219.506 52.95L222.827 53.5919L222.71 54.1979L221.255 55.3755C222.151 55.6716 222.511 56.3124 222.37 57.0426Z" fill="#263238"/>
<path d="M226.442 57.7938C226.276 58.6501 225.519 59.2405 224.21 58.987C223.521 58.8537 222.865 58.5102 222.488 58.0688L223.007 57.4394C223.305 57.801 223.798 58.091 224.349 58.1973C224.996 58.3228 225.434 58.1108 225.523 57.652C225.613 57.1854 225.371 56.8353 224.361 56.6395L223.183 56.4119L223.947 53.8074L226.81 54.3611L226.663 55.1208L224.567 54.7154L224.245 55.8228L224.711 55.9129C226.152 56.1915 226.609 56.9302 226.442 57.7938Z" fill="#263238"/>
<path d="M239.937 54.0965L229.531 52.0847L227.519 62.4914L237.926 64.5032L239.937 54.0965Z" fill="white"/>
<path d="M233.29 58.0525C232.967 59.7238 231.814 60.4547 230.4 60.1814C229.913 60.0871 229.467 59.8932 229.18 59.6199L229.646 59.0026C229.877 59.2278 230.185 59.3521 230.526 59.4181C231.445 59.5959 232.134 59.1359 232.348 58.0291L232.349 58.0231C231.991 58.3077 231.492 58.3846 230.949 58.2795C229.988 58.0933 229.384 57.3697 229.56 56.4581C229.747 55.49 230.652 55.0288 231.648 55.2216C232.979 55.4786 233.593 56.4863 233.29 58.0525ZM232.41 56.9583C232.499 56.4989 232.207 56.0665 231.56 55.9416C230.996 55.8323 230.544 56.0773 230.446 56.5854C230.348 57.094 230.669 57.488 231.26 57.6027C231.845 57.715 232.318 57.4388 232.41 56.9583Z" fill="#263238"/>
<path d="M233.886 58.2536C234.196 56.6519 235.249 55.9157 236.404 56.1397C237.567 56.3649 238.269 57.4398 237.959 59.0415C237.65 60.6431 236.597 61.3788 235.434 61.1536C234.279 60.9296 233.577 59.8552 233.886 58.2536ZM237.048 58.8643C237.275 57.6873 236.921 57.0555 236.252 56.9258C235.59 56.7979 235.026 57.2525 234.799 58.4295C234.571 59.606 234.926 60.2378 235.587 60.3657C236.256 60.4954 236.82 60.0408 237.048 58.8643Z" fill="#263238"/>
<path d="M194.144 56.4989L183.737 54.4871L181.726 64.8937L192.132 66.9055L194.144 56.4989Z" fill="white"/>
<path d="M188.256 61.6652C188.091 62.5216 187.333 63.1125 186.024 62.8591C185.335 62.7258 184.679 62.3817 184.302 61.9403L184.821 61.3121C185.119 61.6724 185.612 61.9631 186.162 62.07C186.81 62.1949 187.248 61.9829 187.337 61.5235C187.427 61.0581 187.184 60.7074 186.175 60.5116L184.998 60.284L185.762 57.6794L188.624 58.2325L188.477 58.9922L186.381 58.5869L186.058 59.6948L186.525 59.7843C187.966 60.0636 188.423 60.801 188.256 61.6652Z" fill="#263238"/>
<path d="M191.115 58.714L190.173 63.5885L189.268 63.4132L190.063 59.2977L189.033 59.0983L189.179 58.3386L191.115 58.714Z" fill="#263238"/>
<path d="M205.068 58.6112L194.661 56.5994L192.649 67.006L203.056 69.0178L205.068 58.6112Z" fill="white"/>
<path d="M199.335 63.9076C199.16 64.8126 198.264 65.2252 197.052 64.991C195.84 64.7568 195.176 64.0427 195.351 63.1377C195.455 62.6014 195.811 62.2591 196.356 62.1258C196.008 61.8352 195.859 61.4448 195.948 60.9854C196.11 60.1488 196.942 59.7687 198.021 59.9765C199.108 60.1873 199.745 60.8521 199.583 61.688C199.494 62.148 199.204 62.4525 198.766 62.5924C199.229 62.9197 199.438 63.3713 199.335 63.9076ZM198.427 63.704C198.52 63.223 198.16 62.8429 197.491 62.7137C196.823 62.5846 196.361 62.8056 196.268 63.2867C196.173 63.7803 196.52 64.1508 197.188 64.28C197.858 64.4097 198.332 64.1977 198.427 63.704ZM196.831 61.1986C196.751 61.6166 197.048 61.9481 197.619 62.0586C198.197 62.1709 198.603 61.9751 198.684 61.5571C198.769 61.1187 198.442 60.795 197.884 60.6875C197.327 60.58 196.916 60.7602 196.831 61.1986Z" fill="#263238"/>
<path d="M202.274 60.8728L201.332 65.7474L200.427 65.5726L201.222 61.4571L200.192 61.2577L200.338 60.498L202.274 60.8728Z" fill="#263238"/>
<path d="M215.978 60.7441L205.571 58.7312L203.558 69.1378L213.965 71.1507L215.978 60.7441Z" fill="white"/>
<path d="M209.954 66.6189L209.806 67.3845L206.213 66.6903L206.33 66.0844L208.621 64.6197C209.182 64.2587 209.32 63.9885 209.373 63.7176C209.46 63.272 209.203 62.9549 208.604 62.839C208.13 62.7478 207.702 62.8306 207.364 63.1267L206.824 62.5172C207.299 62.0818 208.033 61.9118 208.833 62.0667C209.892 62.2715 210.47 62.9399 210.303 63.8035C210.212 64.2773 209.996 64.6833 209.198 65.1866L207.656 66.1744L209.954 66.6189Z" fill="#263238"/>
<path d="M212.956 62.9356L212.013 67.8102L211.108 67.6349L211.904 63.5194L210.873 63.32L211.021 62.5603L212.956 62.9356Z" fill="#263238"/>
<path d="M226.917 62.8358L216.51 60.824L214.498 71.2306L224.905 73.2424L226.917 62.8358Z" fill="white"/>
<path d="M219.739 64.2489L218.796 69.1235L217.891 68.9481L218.686 64.8326L217.656 64.6332L217.803 63.8735L219.739 64.2489Z" fill="#263238"/>
<path d="M224.383 65.1476L224.266 65.7541L221.546 69.6559L220.578 69.4691L223.204 65.7151L221.289 65.3452L221.129 66.1733L220.286 66.01L220.595 64.4155L224.383 65.1476Z" fill="#263238"/>
<path d="M237.839 64.9471L227.433 62.9353L225.421 73.3419L235.827 75.3537L237.839 64.9471Z" fill="white"/>
<path d="M231.309 70.3963L230.445 70.2294L230.231 71.3368L229.353 71.1674L229.567 70.06L226.893 69.543L227.014 68.9166L230.024 66.24L230.992 66.4268L228.148 68.9911L229.743 69.2997L229.933 68.3179L230.783 68.4818L230.593 69.4637L231.457 69.6306L231.309 70.3963Z" fill="#263238"/>
<path d="M236.035 71.3088L235.171 71.1425L234.957 72.2499L234.079 72.0799L234.293 70.9725L231.619 70.456L231.74 69.8297L234.75 67.1531L235.718 67.3398L232.875 69.9041L234.469 70.2122L234.659 69.2303L235.509 69.3949L235.319 70.3768L236.182 70.5431L236.035 71.3088Z" fill="#263238"/>
<path d="M192.05 67.3512L181.643 65.3394L179.631 75.746L190.038 77.7578L192.05 67.3512Z" fill="white"/>
<path d="M185.608 72.5123C185.433 73.4179 184.537 73.8293 183.325 73.5957C182.113 73.3609 181.45 72.6474 181.625 71.7418C181.728 71.2055 182.083 70.8632 182.629 70.7299C182.281 70.4392 182.132 70.0489 182.221 69.5895C182.382 68.7535 183.215 68.3728 184.295 68.5812C185.381 68.7914 186.018 69.4562 185.856 70.2921C185.768 70.7521 185.477 71.0572 185.039 71.1959C185.503 71.525 185.711 71.9766 185.608 72.5123ZM184.701 72.3081C184.793 71.8271 184.434 71.447 183.765 71.3184C183.097 71.1887 182.635 71.4097 182.542 71.8908C182.446 72.385 182.793 72.7549 183.462 72.8847C184.131 73.0138 184.605 72.803 184.701 72.3081ZM183.104 69.8039C183.024 70.2219 183.321 70.554 183.892 70.6645C184.469 70.7762 184.876 70.5798 184.956 70.1618C185.041 69.7234 184.714 69.4003 184.156 69.2928C183.6 69.1841 183.19 69.3649 183.104 69.8039Z" fill="#263238"/>
<path d="M189.757 73.2127C189.591 74.0691 188.834 74.6594 187.525 74.4066C186.836 74.2727 186.18 73.9298 185.803 73.4884L186.322 72.859C186.621 73.2205 187.113 73.5106 187.663 73.6169C188.311 73.7424 188.749 73.531 188.838 73.071C188.928 72.605 188.686 72.2542 187.675 72.0585L186.498 71.8309L187.262 69.2263L190.124 69.78L189.977 70.5397L187.881 70.1343L187.559 71.2417L188.026 71.3318C189.467 71.6105 189.924 72.3497 189.757 73.2127Z" fill="#263238"/>
<path d="M202.972 69.4617L192.566 67.45L190.554 77.8566L200.961 79.8684L202.972 69.4617Z" fill="white"/>
<path d="M198.408 74.8856C198.243 75.7419 197.485 76.3329 196.176 76.0794C195.487 75.9461 194.831 75.6026 194.454 75.1612L194.973 74.5324C195.271 74.8934 195.764 75.1834 196.314 75.2903C196.962 75.4152 197.4 75.2038 197.489 74.7438C197.579 74.2778 197.336 73.9277 196.326 73.7319L195.149 73.5043L195.913 70.8992L198.775 71.4529L198.628 72.2125L196.532 71.8072L196.21 72.9146L196.676 73.0047C198.118 73.2839 198.575 74.0226 198.408 74.8856Z" fill="#263238"/>
<path d="M224.818 73.6854L214.411 71.6736L212.399 82.0802L222.806 84.092L224.818 73.6854Z" fill="white"/>
<path d="M218.959 75.3558L218.842 75.9624L216.123 79.8641L215.154 79.6767L217.781 75.9227L215.866 75.5528L215.706 76.3816L214.863 76.2188L215.172 74.6238L218.959 75.3558Z" fill="#263238"/>
<path d="M222.262 79.5364C222.103 80.3579 221.346 80.9489 220.037 80.696C219.347 80.5627 218.698 80.2204 218.314 79.7778L218.84 79.1503C219.132 79.51 219.625 79.8 220.175 79.9063C220.823 80.0318 221.261 79.8205 221.348 79.3676C221.433 78.9293 221.168 78.5815 220.43 78.4392L219.984 78.3527L220.104 77.733L221.466 76.631L219.251 76.2028L219.398 75.4431L222.72 76.0851L222.603 76.6916L221.147 77.8693C222.043 78.1648 222.403 78.8049 222.262 79.5364Z" fill="#263238"/>
<path d="M235.741 75.7967L225.335 73.7849L223.323 84.1916L233.729 86.2034L235.741 75.7967Z" fill="white"/>
<path d="M228.7 81.4999L228.552 82.2656L224.959 81.5707L225.076 80.9648L227.367 79.5007C227.928 79.1404 228.067 78.8707 228.119 78.5987C228.205 78.1531 227.949 77.836 227.35 77.7207C226.876 77.6294 226.449 77.7123 226.11 78.0077L225.571 77.3976C226.045 76.9616 226.778 76.7928 227.579 76.9478C228.638 77.1526 229.216 77.821 229.049 78.6845C228.958 79.1584 228.741 79.5643 227.943 80.0676L226.402 81.0555L228.7 81.4999Z" fill="#263238"/>
<path d="M229.522 79.9246C229.831 78.3236 230.884 77.5867 232.04 77.8101C233.203 78.0353 233.905 79.1109 233.595 80.7119C233.285 82.3142 232.233 83.0499 231.07 82.8246C229.914 82.6012 229.212 81.5269 229.522 79.9246ZM232.683 80.536C232.91 79.3589 232.556 78.7272 231.887 78.5974C231.225 78.4695 230.661 78.9241 230.433 80.1012C230.206 81.2783 230.56 81.91 231.222 82.0379C231.891 82.1671 232.456 81.7124 232.683 80.536Z" fill="#263238"/>
<path d="M189.95 78.2012L179.544 76.1895L177.532 86.5961L187.939 88.6079L189.95 78.2012Z" fill="white"/>
<path d="M185.54 83.7532C185.365 84.6583 184.47 85.0702 183.258 84.836C182.046 84.6018 181.382 83.8884 181.557 82.9833C181.661 82.4471 182.016 82.1042 182.562 81.9714C182.213 81.6802 182.065 81.2898 182.154 80.831C182.316 79.9945 183.148 79.6143 184.227 79.8227C185.313 80.0329 185.951 80.6977 185.789 81.5342C185.7 81.9937 185.41 82.2981 184.972 82.4375C185.436 82.7647 185.644 83.217 185.54 83.7532ZM184.634 83.5491C184.727 83.068 184.367 82.6873 183.699 82.5588C183.03 82.4296 182.568 82.6506 182.475 83.1317C182.38 83.6253 182.727 83.9965 183.396 84.1256C184.064 84.2547 184.538 84.0427 184.634 83.5491ZM183.037 81.0436C182.957 81.4616 183.254 81.7937 183.825 81.9042C184.402 82.0159 184.809 81.8201 184.889 81.4021C184.975 80.9637 184.647 80.64 184.09 80.5325C183.533 80.4244 183.123 80.6052 183.037 81.0436Z" fill="#263238"/>
<path d="M200.858 80.329L190.452 78.3162L188.439 88.7228L198.845 90.7356L200.858 80.329Z" fill="white"/>
<path d="M194.483 81.8788L193.541 86.7534L192.636 86.578L193.431 82.4631L192.401 82.2643L192.548 81.5046L194.483 81.8788Z" fill="#263238"/>
<path d="M197.135 82.3886L196.192 87.2631L195.287 87.0884L196.083 82.9735L195.052 82.7741L195.2 82.0144L197.135 82.3886Z" fill="#263238"/>
<path d="M211.782 82.4423L201.375 80.4294L199.362 90.8361L209.769 92.8489L211.782 82.4423Z" fill="white"/>
<path d="M206.574 84.2145L206.457 84.821L203.738 88.7234L202.77 88.5366L205.395 84.782L203.48 84.4121L203.32 85.2408L202.477 85.0775L202.786 83.4824L206.574 84.2145Z" fill="#263238"/>
<path d="M208.884 84.6603L207.942 89.5348L207.037 89.3601L207.833 85.2452L206.802 85.0458L206.949 84.2861L208.884 84.6603Z" fill="#263238"/>
<path d="M222.719 84.535L212.313 82.5232L210.301 92.9298L220.708 94.9416L222.719 84.535Z" fill="white"/>
<path d="M218.01 90.6922L217.861 91.4573L214.268 90.7625L214.386 90.1571L216.677 88.693C217.238 88.3315 217.377 88.0618 217.429 87.791C217.515 87.3454 217.259 87.0277 216.66 86.9124C216.186 86.8211 215.758 86.904 215.42 87.1995L214.88 86.5893C215.355 86.1527 216.088 85.9846 216.889 86.1395C217.947 86.3443 218.526 87.0127 218.359 87.8757C218.267 88.3495 218.051 88.7561 217.253 89.2593L215.712 90.2472L218.01 90.6922Z" fill="#263238"/>
<path d="M233.646 86.648L223.239 84.6362L221.227 95.0429L231.634 97.0546L233.646 86.648Z" fill="white"/>
<path d="M226.463 88.0627L225.521 92.9373L224.616 92.7626L225.412 88.6471L224.381 88.4477L224.528 87.688L226.463 88.0627Z" fill="#263238"/>
<path d="M231.108 88.9595L230.991 89.566L228.272 93.4684L227.303 93.2816L229.93 89.5276L228.015 89.1571L227.854 89.9858L227.012 89.8231L227.32 88.228L231.108 88.9595Z" fill="#263238"/>
<path d="M187.852 89.0516L177.446 87.0398L175.434 97.4464L185.841 99.4582L187.852 89.0516Z" fill="white"/>
<path d="M182.629 90.8445L182.512 91.451L179.793 95.3528L178.825 95.166L181.451 91.4114L179.536 91.0415L179.376 91.8702L178.533 91.7075L178.842 90.113L182.629 90.8445Z" fill="#263238"/>
<path d="M184.94 91.2903L183.998 96.1649L183.093 95.9895L183.888 91.8746L182.858 91.6752L183.005 90.9155L184.94 91.2903Z" fill="#263238"/>
<path d="M198.76 91.1823L188.353 89.1694L186.34 99.5761L196.747 101.589L198.76 91.1823Z" fill="white"/>
<path d="M191.948 96.1846C191.789 97.0061 191.032 97.5977 189.722 97.3442C189.033 97.2109 188.384 96.8686 188 96.426L188.526 95.7984C188.817 96.1582 189.31 96.4482 189.86 96.5545C190.507 96.6794 190.946 96.468 191.034 96.0158C191.118 95.5774 190.853 95.2297 190.115 95.0874L189.67 95.0009L189.789 94.3806L191.151 93.2792L188.936 92.851L189.083 92.0913L192.405 92.7333L192.287 93.3398L190.832 94.5169C191.729 94.8136 192.089 95.4531 191.948 96.1846Z" fill="#263238"/>
<path d="M196.496 95.968C196.173 97.6399 195.02 98.3702 193.607 98.0969C193.119 98.0027 192.673 97.8087 192.386 97.5354L192.852 96.9181C193.083 97.1427 193.391 97.2676 193.732 97.3331C194.652 97.5108 195.34 97.052 195.554 95.944L195.556 95.9374C195.197 96.2227 194.698 96.2995 194.155 96.1944C193.194 96.0083 192.59 95.284 192.766 94.3724C192.953 93.4049 193.858 92.9437 194.855 93.1359C196.184 93.3941 196.799 94.4012 196.496 95.968ZM195.617 94.8733C195.706 94.4138 195.414 93.982 194.766 93.8565C194.202 93.7472 193.75 93.9929 193.652 94.5003C193.553 95.0096 193.875 95.4035 194.466 95.5176C195.051 95.6305 195.524 95.3537 195.617 94.8733Z" fill="#263238"/>
<path d="M209.699 93.2742L199.292 91.2625L197.28 101.669L207.687 103.681L209.699 93.2742Z" fill="white"/>
<path d="M202.602 94.7043L201.659 99.5789L200.754 99.4036L201.549 95.2887L200.519 95.0893L200.666 94.3296L202.602 94.7043Z" fill="#263238"/>
<path d="M206.459 98.9547C206.293 99.811 205.536 100.402 204.227 100.149C203.538 100.015 202.882 99.6711 202.505 99.2297L203.023 98.6009C203.322 98.9625 203.815 99.2519 204.365 99.3582C205.012 99.4837 205.451 99.2717 205.54 98.8129C205.63 98.3469 205.387 97.9968 204.377 97.801L203.2 97.5734L203.964 94.9683L206.826 95.522L206.679 96.2817L204.583 95.8763L204.26 96.9837L204.727 97.0738C206.169 97.3524 206.626 98.0911 206.459 98.9547Z" fill="#263238"/>
<path d="M220.624 95.3858L210.217 93.374L208.205 103.781L218.612 105.792L220.624 95.3858Z" fill="white"/>
<path d="M213.968 100.443C213.809 101.265 213.052 101.856 211.742 101.603C211.053 101.469 210.404 101.127 210.02 100.684L210.546 100.057C210.837 100.417 211.331 100.706 211.88 100.813C212.528 100.938 212.967 100.726 213.054 100.274C213.139 99.8359 212.873 99.4888 212.135 99.3458L211.69 99.26L211.81 98.6396L213.171 97.5382L210.957 97.11L211.104 96.3503L214.425 96.9929L214.308 97.5995L212.853 98.7759C213.749 99.0714 214.109 99.7116 213.968 100.443Z" fill="#263238"/>
<path d="M217.921 101.929L217.773 102.695L214.18 102.001L214.297 101.395L216.588 99.93C217.149 99.5685 217.288 99.2994 217.34 99.0286C217.427 98.583 217.17 98.2653 216.571 98.1494C216.097 98.0581 215.67 98.141 215.331 98.437L214.792 97.8263C215.266 97.3903 215.999 97.2216 216.8 97.3765C217.859 97.5813 218.437 98.2497 218.27 99.1133C218.178 99.5871 217.962 99.9931 217.165 100.496L215.623 101.484L217.921 101.929Z" fill="#263238"/>
<path d="M231.548 97.4969L221.141 95.4851L219.129 105.892L229.536 107.904L231.548 97.4969Z" fill="white"/>
<path d="M224.143 98.8704L223.201 103.745L222.296 103.57L223.091 99.4547L222.061 99.2553L222.207 98.4956L224.143 98.8704Z" fill="#263238"/>
<path d="M224.638 101.495C224.948 99.8925 226.001 99.1568 227.156 99.3802C228.319 99.6048 229.022 100.68 228.712 102.282C228.402 103.884 227.349 104.619 226.186 104.395C225.031 104.171 224.328 103.096 224.638 101.495ZM227.8 102.105C228.028 100.928 227.673 100.296 227.004 100.168C226.343 100.04 225.778 100.494 225.55 101.671C225.323 102.848 225.678 103.48 226.34 103.607C227.007 103.736 227.572 103.283 227.8 102.105Z" fill="#263238"/>
<path d="M208.256 72.8071L208.78 74.7174L210.651 75.369L208.996 76.4572L208.954 78.4378L207.407 77.2001L205.511 77.7718L206.21 75.9185L205.08 74.2917L207.058 74.3842L208.256 72.8071Z" fill="#DA1919"/>
<path d="M235.403 39.2674C232.156 38.6393 229.319 40.4661 228.72 43.5637C228.121 46.6613 230.072 49.4142 233.32 50.0417C236.567 50.6699 239.402 48.8581 240.003 45.7455C240.605 42.6329 238.65 39.8956 235.403 39.2674Z" fill="#DA1919"/>
<path d="M235.08 40.9177L235.754 43.3763L238.161 44.2153L236.031 45.6158L235.977 48.1645L233.987 46.5712L231.546 47.3075L232.447 44.9227L230.992 42.8286L233.538 42.9476L235.08 40.9177Z" fill="#263238"/>
<path d="M198.478 40.1994C198.13 41.995 196.521 42.7709 193.828 42.2497L188.62 41.2426L190.645 30.7673L195.553 31.7168C198.067 32.2026 199.209 33.5256 198.888 35.1873C198.679 36.2647 197.987 36.9535 197.095 37.2316C198.148 37.8069 198.741 38.8374 198.478 40.1994ZM192.296 32.6698L191.737 35.5585L194.491 36.0905C195.838 36.3512 196.693 36.0197 196.878 35.0618C197.066 34.0889 196.395 33.4626 195.049 33.2019L192.296 32.6698ZM196.555 39.6253C196.757 38.578 196.054 37.9606 194.587 37.6766L191.445 37.0688L190.86 40.0919L194.003 40.6997C195.469 40.9837 196.352 40.6733 196.555 39.6253Z" fill="#DA1919"/>
<path d="M202.033 32.9705L203.978 33.3464L201.953 43.8216L200.007 43.4457L202.033 32.9705Z" fill="#DA1919"/>
<path d="M216.112 35.6919L214.086 46.1671L212.485 45.8573L208.08 37.6473L206.709 44.7409L204.778 44.3673L206.804 33.8921L208.405 34.202L212.81 42.4126L214.181 35.319L216.112 35.6919Z" fill="#DA1919"/>
<path d="M225.092 42.7364L226.932 43.0926L226.125 47.2675C224.862 47.9389 223.249 48.0927 221.767 47.8062C218.519 47.178 216.562 44.4558 217.167 41.3282C217.772 38.2006 220.603 36.4037 223.88 37.0373C225.631 37.376 226.985 38.2432 227.756 39.5566L226.297 40.5168C225.633 39.5344 224.763 38.9783 223.64 38.7609C221.41 38.3297 219.547 39.5374 219.127 41.7071C218.716 43.8318 219.986 45.6923 222.201 46.1205C222.949 46.2652 223.712 46.2574 224.46 45.9986L225.092 42.7364Z" fill="#DA1919"/>
<path opacity="0.2" d="M244.708 37.3574L187.649 26.3269L173.706 98.4516L230.764 109.482L244.708 37.3574Z" fill="white"/>
<path opacity="0.2" d="M226.924 33.5462C226.924 33.5462 204.413 83.1418 173.698 98.4628L187.645 26.3367L226.924 33.5462Z" fill="black"/>
<path d="M253.468 84.518C253.468 85.2327 253.414 85.9293 253.306 86.6079C252.303 92.9436 246.814 97.79 240.196 97.79C232.87 97.79 226.93 91.8446 226.93 84.518C226.93 77.1854 232.87 71.2461 240.196 71.2461C242.58 71.2461 244.814 71.8707 246.748 72.9757C248.105 73.7443 249.312 74.7472 250.315 75.9303C251.781 77.6539 252.814 79.7557 253.24 82.0678C253.24 82.0738 253.24 82.0799 253.24 82.0799C253.39 82.8726 253.468 83.6833 253.468 84.518Z" fill="#DA1919"/>
<g opacity="0.8">
<path d="M253.239 82.0813C253.275 82.4236 253.293 82.7599 253.293 83.1082C253.293 88.7113 248.735 93.2634 243.138 93.2634C237.541 93.2634 232.983 88.7113 232.983 83.1082C232.983 77.5112 237.541 72.9531 243.138 72.9531C245.936 72.9531 248.477 74.0941 250.314 75.9318C249.311 74.7487 248.104 73.7458 246.747 72.9771C245.618 72.5747 244.405 72.3525 243.138 72.3525C237.204 72.3525 232.382 77.1809 232.382 83.1082C232.382 89.0416 237.204 93.8639 243.138 93.8639C247.84 93.8639 251.852 90.8252 253.305 86.6094C253.413 85.9308 253.467 85.2341 253.467 84.5195C253.467 83.6847 253.389 82.874 253.239 82.0813Z" fill="white"/>
</g>
<path opacity="0.8" d="M243.738 91.1824C248.352 91.1824 252.092 87.4424 252.092 82.8289C252.092 78.2153 248.352 74.4753 243.738 74.4753C239.125 74.4753 235.385 78.2153 235.385 82.8289C235.385 87.4424 239.125 91.1824 243.738 91.1824Z" fill="white"/>
<path d="M248.56 81.3097C249.39 84.2836 248.112 86.4035 245.597 87.1061C244.73 87.3481 243.847 87.3944 243.16 87.1854L243.416 85.8053C243.973 85.9831 244.575 85.9356 245.182 85.7663C246.818 85.3093 247.562 84.0061 247.012 82.0357L247.009 82.0231C246.658 82.7756 245.91 83.3053 244.944 83.5749C243.234 84.0523 241.667 83.3677 241.214 81.7445C240.733 80.0221 241.828 78.5406 243.601 78.0463C245.967 77.3857 247.781 78.522 248.56 81.3097ZM246.245 80.2467C246.017 79.4294 245.193 78.964 244.04 79.2859C243.037 79.5663 242.502 80.3296 242.754 81.2346C243.007 82.139 243.847 82.5192 244.901 82.2243C245.942 81.9342 246.484 81.1019 246.245 80.2467Z" fill="#263238"/>
<path opacity="0.2" d="M253.467 84.5177C253.467 85.2323 253.413 85.9289 253.305 86.6075C252.302 92.9432 246.813 97.7896 240.195 97.7896C233.403 97.7896 227.806 92.679 227.025 86.0971C229.223 90.3669 233.679 93.2915 238.814 93.2915C245.432 93.2915 250.921 88.4452 251.924 82.1095C252.032 81.4309 252.086 80.7342 252.086 80.0196C252.086 79.4731 252.05 78.9386 251.984 78.4102C252.572 79.5452 252.999 80.7763 253.239 82.0674C253.239 82.0735 253.239 82.0795 253.239 82.0795C253.389 82.8722 253.467 83.6829 253.467 84.5177Z" fill="black"/>
<path opacity="0.2" d="M236.079 81.5786C238.382 81.5786 240.249 79.7116 240.249 77.4084C240.249 75.1053 238.382 73.2383 236.079 73.2383C233.775 73.2383 231.908 75.1053 231.908 77.4084C231.908 79.7116 233.775 81.5786 236.079 81.5786Z" fill="white"/>
<path opacity="0.2" d="M230.523 83.4377C231.551 83.4377 232.384 82.6045 232.384 81.5767C232.384 80.5488 231.551 79.7156 230.523 79.7156C229.495 79.7156 228.662 80.5488 228.662 81.5767C228.662 82.6045 229.495 83.4377 230.523 83.4377Z" fill="white"/>
<path d="M124.827 140.371C124.827 151.169 116.173 159.949 105.418 160.147C105.291 160.153 105.171 160.153 105.045 160.153C103.61 160.153 102.217 160.003 100.871 159.715C97.5204 158.994 94.4877 157.421 92.0015 155.247C90.8544 154.232 89.8155 153.085 88.9267 151.836C88.9207 151.83 88.9147 151.824 88.9147 151.824C86.6206 148.587 85.2694 144.635 85.2694 140.371C85.2694 129.448 94.1214 120.59 105.045 120.59C115.974 120.59 124.827 129.448 124.827 140.371Z" fill="#263238"/>
<path opacity="0.2" d="M107.797 132.762C110.047 130.512 110.047 126.864 107.797 124.614C105.547 122.364 101.899 122.364 99.6486 124.614C97.3986 126.864 97.3986 130.512 99.6486 132.762C101.899 135.012 105.547 135.012 107.797 132.762Z" fill="white"/>
<path d="M69.2916 80.1034C69.4609 80.6295 69.5925 81.155 69.6933 81.684C70.9461 88.1765 67.1825 94.7272 60.7291 96.8062C53.7556 99.0529 46.2813 95.2214 44.0322 88.2419C41.7856 81.2685 45.6171 73.7935 52.5905 71.5469C54.3453 70.9818 56.1361 70.8022 57.8669 70.9638C59.1839 71.0761 60.4606 71.3962 61.6653 71.885C64.5197 73.0477 66.9537 75.197 68.4346 78.0514L68.4364 78.0568C68.7775 78.7042 69.0616 79.3888 69.2916 80.1034Z" fill="#DA1919"/>
<g opacity="0.8">
<path d="M68.4375 78.0556C68.4964 78.2196 68.5558 78.3835 68.6093 78.5493C70.3256 83.8767 67.3848 89.6131 62.0574 91.3294C56.7246 93.0476 50.9936 90.1055 49.2773 84.7781C47.5609 79.4507 50.4958 73.7161 55.8286 71.998C57.7947 71.3644 59.8138 71.3638 61.6658 71.8839C60.4611 71.395 59.1844 71.0743 57.8674 70.9626C57.1275 71.0371 56.3817 71.1891 55.6442 71.4263C49.9967 73.2459 46.8859 79.315 48.705 84.9625C50.5246 90.6099 56.5937 93.7214 62.2405 91.9017C66.7848 90.4376 69.6854 86.2218 69.6933 81.6829C69.5924 81.1538 69.4608 80.6284 69.2915 80.1023C69.0621 79.3876 68.778 78.703 68.4375 78.0556Z" fill="white"/>
</g>
<path opacity="0.8" d="M66.9523 85.2932C69.057 81.1876 67.4349 76.1532 63.3294 74.0485C59.2238 71.9438 54.1894 73.5659 52.0847 77.6714C49.98 81.777 51.602 86.8114 55.7076 88.9161C59.8132 91.0208 64.8476 89.3988 66.9523 85.2932Z" fill="white"/>
<path d="M62.1867 81.8584C62.759 83.3429 62.0402 85.1121 59.85 86.1192C58.6946 86.6513 57.434 86.8087 56.4924 86.5204C56.5777 86.0051 56.6527 85.4935 56.7182 84.9854C57.4989 85.2226 58.4898 85.147 59.4128 84.7236C60.4962 84.2251 60.9826 83.421 60.6793 82.6229C60.3695 81.8134 59.6398 81.5527 57.9463 82.3316C57.2881 82.6343 56.6299 82.9376 55.9711 83.2403C55.4432 81.6776 54.7784 80.1793 53.9857 78.7632C55.5904 78.0246 57.195 77.2853 58.7997 76.5466C59.0657 76.934 59.3215 77.3279 59.5659 77.7279C58.3913 78.2684 57.2172 78.8089 56.0426 79.3494C56.3488 79.9709 56.6317 80.6063 56.8905 81.2543C57.1518 81.1342 57.4124 81.0141 57.6736 80.894C60.0908 79.7799 61.6126 80.3601 62.1867 81.8584Z" fill="#263238"/>
<path d="M62.9965 74.615C64.6978 77.106 65.9662 79.8757 66.7445 82.8057C66.2388 83.0382 65.7337 83.2712 65.2287 83.5036C64.5693 81.0306 63.561 78.6722 62.238 76.4995C61.6603 76.7649 61.0832 77.031 60.5054 77.2964C60.261 76.8964 60.0064 76.5025 59.7404 76.1145C60.8255 75.6143 61.9113 75.1146 62.9965 74.615Z" fill="#263238"/>
<path opacity="0.2" d="M69.7983 82.3003C70.7075 88.588 66.9776 94.7934 60.7302 96.8064C53.7567 99.053 46.2824 95.2216 44.0333 88.2421C43.2136 85.6982 43.1998 83.0906 43.8604 80.6951C43.9649 81.4313 44.1324 82.1658 44.366 82.8919C46.6145 89.8713 54.0894 93.7028 61.0629 91.4562C65.4985 90.0263 68.6657 86.4819 69.7983 82.3003Z" fill="black"/>
<path opacity="0.2" d="M59.0747 74.0411C59.6741 75.9022 57.9835 78.1127 55.2985 78.9775C52.6135 79.8429 49.9501 79.0352 49.3508 77.1741C48.7508 75.313 50.442 73.1024 53.127 72.2377C55.812 71.3723 58.4748 72.18 59.0747 74.0411Z" fill="white"/>
<path opacity="0.2" d="M52.9961 82.1136C52.93 82.9207 51.9319 83.4979 50.7675 83.4018C49.603 83.3063 48.7124 82.5742 48.7785 81.7671C48.8445 80.96 49.8426 80.3829 51.0071 80.479C52.1715 80.5744 53.0621 81.3065 52.9961 82.1136Z" fill="white"/>
<path d="M218.262 150.22C224.29 144.192 224.29 134.417 218.262 128.389C212.233 122.36 202.459 122.36 196.43 128.389C190.401 134.417 190.401 144.192 196.43 150.22C202.459 156.249 212.233 156.249 218.262 150.22Z" fill="#DA1919"/>
<path d="M238.148 13.2043C238.148 20.5309 232.209 26.4763 224.876 26.4763C217.55 26.4763 211.61 20.5309 211.61 13.2043C211.61 11.9672 211.779 10.7721 212.097 9.63711C212.403 8.5201 212.853 7.46916 213.436 6.49628C215.292 3.32543 218.432 0.99533 222.144 0.214628C223.027 0.0284602 223.939 -0.067627 224.876 -0.067627C225.117 -0.067627 225.351 -0.0616223 225.585 -0.0496115C232.587 0.316718 238.148 6.11194 238.148 13.2043Z" fill="#263238"/>
<g opacity="0.8">
<path d="M225.587 -0.0496115C225.353 -0.0616223 225.119 -0.067627 224.879 -0.067627C223.942 -0.067627 223.029 0.0284603 222.146 0.214628C222.374 0.196612 222.603 0.19061 222.831 0.19061C228.428 0.19061 232.986 4.7427 232.986 10.3457C232.986 15.9428 228.428 20.5009 222.831 20.5009C217.228 20.5009 212.676 15.9428 212.676 10.3457C212.676 8.98252 212.946 7.68536 213.438 6.49629C212.856 7.46916 212.405 8.52011 212.099 9.63711C212.081 9.87133 212.075 10.1055 212.075 10.3457C212.075 16.2731 216.898 21.1014 222.831 21.1014C228.758 21.1014 233.587 16.2731 233.587 10.3457C233.587 5.36727 230.187 1.16949 225.587 -0.0496115Z" fill="white"/>
</g>
<path opacity="0.8" d="M222.242 18.2234C226.855 18.2234 230.595 14.4834 230.595 9.86988C230.595 5.25636 226.855 1.51636 222.242 1.51636C217.628 1.51636 213.888 5.25636 213.888 9.86988C213.888 14.4834 217.628 18.2234 222.242 18.2234Z" fill="white"/>
<path d="M222.827 3.64261C220.435 6.17389 218.604 9.03186 217.467 11.9919C216.966 11.801 216.464 11.61 215.962 11.419C216.929 8.92016 218.39 6.49638 220.265 4.28099C219.701 4.06599 219.137 3.85101 218.573 3.63601C218.92 3.22824 219.281 2.82708 219.656 2.43433C220.713 2.83729 221.77 3.24025 222.827 3.64261Z" fill="#263238"/>
<path d="M227.175 5.30058C224.802 7.84387 222.993 10.709 221.882 13.6733C221.38 13.4823 220.878 13.2914 220.376 13.1004C221.321 10.5985 222.763 8.16875 224.621 5.94435C224.057 5.72936 223.494 5.51437 222.93 5.29938C223.273 4.88981 223.631 4.48744 224.003 4.09229C225.06 4.49465 226.117 4.89762 227.175 5.30058Z" fill="#263238"/>
<path opacity="0.2" d="M238.148 13.2048C238.148 20.5314 232.208 26.4767 224.876 26.4767C218.132 26.4767 212.559 21.4382 211.718 14.9163C213.97 19.042 218.342 21.8466 223.374 21.8466C230.707 21.8466 236.646 15.9012 236.646 8.57462C236.646 7.9921 236.61 7.41558 236.532 6.85107C237.565 8.73677 238.148 10.8987 238.148 13.2048Z" fill="black"/>
<path opacity="0.2" d="M233.158 5.94314C233.158 8.1129 231.399 9.87187 229.23 9.87187C227.06 9.87187 225.301 8.1129 225.301 5.94314C225.301 3.77339 227.06 2.0144 229.23 2.0144C231.399 2.0144 233.158 3.77339 233.158 5.94314Z" fill="white"/>
<path opacity="0.2" d="M234.823 11.5349C234.823 12.4538 234.078 13.199 233.159 13.199C232.24 13.199 231.495 12.4538 231.495 11.5349C231.495 10.6161 232.24 9.87085 233.159 9.87085C234.078 9.87145 234.823 10.6161 234.823 11.5349Z" fill="white"/>
<path d="M157.572 -20.9126L54.0399 -0.691406L79.6004 130.178L183.133 109.956L157.572 -20.9126Z" fill="#DA1919"/>
<path d="M128.972 57.6187L110.09 61.3066L113.778 80.189L132.66 76.5011L128.972 57.6187Z" fill="white"/>
<path d="M128.302 73.571C130.885 69.7345 129.868 64.5307 126.032 61.948C122.195 59.3653 116.992 60.3818 114.409 64.2184C111.826 68.0549 112.843 73.2587 116.679 75.8414C120.516 78.4241 125.72 77.4076 128.302 73.571Z" fill="#DA1919"/>
<path d="M81.6394 25.9858L62.757 29.6738L66.4449 48.5562L85.3273 44.8682L81.6394 25.9858Z" fill="white"/>
<path d="M74.2086 40.2381L74.48 41.6271L67.9648 42.8997L67.7504 41.8013L70.6096 37.7819C71.3074 36.794 71.3584 36.2463 71.2623 35.7539C71.1044 34.9455 70.4576 34.5876 69.3718 34.7996C68.5137 34.9672 67.8501 35.3983 67.4813 36.1256L66.1595 35.4662C66.661 34.4111 67.7804 33.6291 69.2325 33.3457C71.1518 32.971 72.5787 33.7012 72.8844 35.2674C73.052 36.1262 72.9655 36.9555 71.965 38.344L70.0426 41.053L74.2086 40.2381Z" fill="#263238"/>
<path d="M81.5579 38.8024L81.8294 40.1914L75.3141 41.464L75.0997 40.3656L77.9589 36.3462C78.6573 35.3577 78.7078 34.8106 78.6111 34.3181C78.4531 33.5098 77.8064 33.1519 76.7206 33.3639C75.8618 33.5314 75.1988 33.9626 74.8301 34.6899L73.5083 34.0305C74.0104 32.9753 75.1292 32.1934 76.5813 31.9094C78.5006 31.5346 79.9275 32.2655 80.2337 33.8311C80.4013 34.6899 80.3148 35.5192 79.3143 36.9071L77.392 39.6161L81.5579 38.8024Z" fill="#263238"/>
<path d="M101.46 22.1138L82.5778 25.8018L86.2657 44.6842L105.148 40.9962L101.46 22.1138Z" fill="white"/>
<path d="M90.499 29.3223L92.225 38.161L90.5837 38.4817L89.1262 31.0194L87.2573 31.3839L86.9889 30.0075L90.499 29.3223Z" fill="#263238"/>
<path d="M99.7399 33.9411C100.031 35.431 99.1586 36.9384 96.7852 37.4026C95.5349 37.6464 94.2113 37.5119 93.2649 37.0285L93.7231 35.6148C94.4581 36.0214 95.4845 36.1751 96.4814 35.9799C97.656 35.7505 98.2493 35.0971 98.089 34.2762C97.9335 33.4811 97.2518 33.0763 95.9132 33.3376L95.1049 33.4955L94.8851 32.3719L96.4261 29.5938L92.4109 30.3781L92.1425 29.0017L98.1653 27.8252L98.3797 28.9236L96.7312 31.8933C98.4397 31.7828 99.4805 32.6151 99.7399 33.9411Z" fill="#263238"/>
<path d="M121.281 18.2417L102.399 21.9297L106.087 40.8121L124.969 37.1241L121.281 18.2417Z" fill="white"/>
<path d="M113.621 31.1647C113.924 32.7177 113.051 34.225 110.677 34.6892C109.428 34.9331 108.091 34.8009 107.157 34.3151L107.603 32.9038C108.35 33.308 109.377 33.4617 110.374 33.2666C111.548 33.0372 112.142 32.3838 111.979 31.5508C111.814 30.7047 111.167 30.2801 109.336 30.638L107.202 31.0548L106.717 26.1556L111.907 25.1418L112.175 26.5183L108.374 27.2606L108.585 29.3432L109.431 29.1781C112.045 28.667 113.315 29.5991 113.621 31.1647Z" fill="#263238"/>
<path d="M120.932 29.7373C121.236 31.2909 120.363 32.7982 117.99 33.2613C116.739 33.5057 115.403 33.373 114.469 32.8871L114.914 31.4759C115.662 31.88 116.688 32.0338 117.686 31.8392C118.86 31.6098 119.453 30.9564 119.291 30.1234C119.125 29.2773 118.479 28.8527 116.648 29.2106L114.514 29.6274L114.029 24.7276L119.219 23.7139L119.487 25.0903L115.687 25.8326L115.897 27.9153L116.743 27.7501C119.356 27.2396 120.627 28.1711 120.932 29.7373Z" fill="#263238"/>
<path d="M141.102 14.3706L122.219 18.0586L125.907 36.941L144.79 33.253L141.102 14.3706Z" fill="white"/>
<path d="M133.657 28.6269L133.928 30.016L127.413 31.2885L127.198 30.1902L130.058 26.1707C130.755 25.1822 130.806 24.6352 130.71 24.1421C130.552 23.3338 129.905 22.9759 128.819 23.1878C127.961 23.3554 127.298 23.7866 126.929 24.5138L125.607 23.8538C126.109 22.7987 127.227 22.0168 128.679 21.7333C130.599 21.3586 132.026 22.0895 132.332 23.6551C132.499 24.5138 132.412 25.3432 131.412 26.7316L129.49 29.4407L133.657 28.6269Z" fill="#263238"/>
<path d="M140.776 25.8597C141.079 27.4127 140.207 28.9207 137.833 29.3843C136.583 29.6287 135.246 29.496 134.312 29.0102L134.758 27.5989C135.505 28.0037 136.532 28.1568 137.529 27.9622C138.704 27.7328 139.297 27.0794 139.134 26.2459C138.969 25.3997 138.322 24.9757 136.492 25.3331L134.358 25.7498L133.873 20.8506L139.063 19.8369L139.331 21.2133L135.53 21.9556L135.74 24.0383L136.587 23.8731C139.2 23.3627 140.47 24.2941 140.776 25.8597Z" fill="#263238"/>
<path d="M160.923 10.4995L142.04 14.1875L145.728 33.0699L164.611 29.3819L160.923 10.4995Z" fill="white"/>
<path d="M155.658 23.6836L154.093 23.9893L154.485 25.9969L152.894 26.308L152.502 24.3004L147.653 25.2474L147.431 24.1106L150.675 17.5653L152.43 17.2224L149.389 23.4662L152.28 22.9017L151.932 21.1211L153.472 20.8202L153.82 22.6009L155.386 22.2952L155.658 23.6836Z" fill="#263238"/>
<path d="M157.762 16.1838L159.488 25.0226L157.847 25.3433L156.39 17.881L154.521 18.2461L154.252 16.8697L157.762 16.1838Z" fill="#263238"/>
<path d="M85.4856 45.6733L66.6031 49.3613L70.2911 68.2437L89.1735 64.5557L85.4856 45.6733Z" fill="white"/>
<path d="M75.794 52.6309L77.5199 61.4702L75.8792 61.7903L74.4211 54.328L72.5523 54.6925L72.2838 53.3161L75.794 52.6309Z" fill="#263238"/>
<path d="M80.6067 51.6934L82.3333 60.5321L80.692 60.8528L79.2339 53.3899L77.3656 53.755L77.0972 52.3786L80.6067 51.6934Z" fill="#263238"/>
<path d="M105.305 41.8013L86.423 45.4893L90.111 64.3717L108.993 60.6837L105.305 41.8013Z" fill="white"/>
<path d="M98.6826 55.2549L97.117 55.5606L97.5091 57.5688L95.9183 57.8793L95.5262 55.8717L90.6774 56.8187L90.4552 55.6819L93.6993 49.1366L95.4541 48.7937L92.4136 55.0381L95.3046 54.4736L94.9568 52.693L96.4972 52.3921L96.845 54.1727L98.4106 53.8671L98.6826 55.2549Z" fill="#263238"/>
<path d="M105.401 53.2731C105.691 54.7631 104.819 56.2704 102.446 56.734C101.196 56.9785 99.8722 56.8439 98.9258 56.3599L99.3834 54.9462C100.118 55.3534 101.145 55.5071 102.142 55.312C103.317 55.0826 103.91 54.4286 103.75 53.6082C103.594 52.8125 102.912 52.4084 101.574 52.6696L100.766 52.8275L100.546 51.7039L102.088 48.9252L98.0724 49.7095L97.804 48.3331L103.827 47.1572L104.041 48.2556L102.393 51.2247C104.101 51.1142 105.142 51.9471 105.401 53.2731Z" fill="#263238"/>
<path d="M125.126 37.9312L106.244 41.6191L109.932 60.5015L128.814 56.8136L125.126 37.9312Z" fill="white"/>
<path d="M117.865 51.5107L116.299 51.8163L116.691 53.8245L115.1 54.135L114.708 52.1274L109.86 53.0745L109.637 51.9376L112.881 45.3917L114.636 45.0488L111.596 51.2926L114.487 50.7281L114.14 48.9475L115.679 48.6467L116.027 50.4273L117.593 50.1216L117.865 51.5107Z" fill="#263238"/>
<path d="M118.09 48.9606C117.523 46.0557 118.793 44.104 120.889 43.6944C122.998 43.2824 124.909 44.6132 125.477 47.5175C126.044 50.4217 124.774 52.374 122.665 52.786C120.568 53.1956 118.657 51.8642 118.09 48.9606ZM123.822 47.8405C123.406 45.7062 122.38 44.8847 121.168 45.1213C119.968 45.3555 119.327 46.5031 119.744 48.6369C120.161 50.7706 121.187 51.5927 122.387 51.3591C123.598 51.1225 124.239 49.9749 123.822 47.8405Z" fill="#263238"/>
<path d="M144.947 34.0591L126.065 37.7471L129.753 56.6295L148.635 52.9415L144.947 34.0591Z" fill="white"/>
<path d="M133.698 41.3232L135.424 50.162L133.783 50.4827L132.325 43.0204L130.457 43.3855L130.188 42.0091L133.698 41.3232Z" fill="#263238"/>
<path d="M143.095 43.9187C143.688 46.949 142.246 48.9614 139.682 49.4622C138.798 49.6352 137.915 49.6106 137.247 49.3475L137.612 47.9921C138.154 48.2143 138.756 48.2143 139.375 48.093C141.042 47.7675 141.888 46.528 141.496 44.5198L141.493 44.5078C141.083 45.2296 140.297 45.6987 139.311 45.8908C137.569 46.2307 136.061 45.4242 135.738 43.7703C135.396 42.0155 136.605 40.6253 138.411 40.2728C140.824 39.8007 142.541 41.0775 143.095 43.9187ZM140.873 42.6749C140.711 41.842 139.926 41.3135 138.752 41.5429C137.729 41.7429 137.136 42.4617 137.315 43.3836C137.495 44.3054 138.303 44.7504 139.377 44.5408C140.437 44.333 141.043 43.5463 140.873 42.6749Z" fill="#263238"/>
<path d="M164.768 30.188L145.885 33.876L149.573 52.7584L168.456 49.0704L164.768 30.188Z" fill="white"/>
<path d="M156.866 43.1284C157.209 44.8838 155.999 46.2735 154.193 46.6266C151.781 47.0974 150.064 45.8207 149.509 42.9795C148.917 39.9492 150.359 37.9374 152.922 37.4365C153.806 37.2641 154.689 37.2882 155.357 37.5512L154.992 38.9072C154.451 38.685 153.848 38.685 153.229 38.8057C151.562 39.1312 150.716 40.3713 151.108 42.379L151.11 42.3916C151.521 41.6691 152.307 41.2007 153.292 41.0085C155.035 40.6674 156.543 41.4745 156.866 43.1284ZM155.29 43.5146C155.109 42.5933 154.301 42.1477 153.229 42.3573C152.167 42.5645 151.561 43.3518 151.731 44.2226C151.894 45.0562 152.679 45.5846 153.853 45.3552C154.876 45.1558 155.47 44.437 155.29 43.5146Z" fill="#263238"/>
<path d="M157.399 41.2809C156.832 38.3767 158.102 36.4243 160.198 36.0147C162.307 35.6028 164.219 36.9336 164.786 39.8378C165.353 42.742 164.083 44.6943 161.974 45.1063C159.878 45.5159 157.966 44.1851 157.399 41.2809ZM163.132 40.1609C162.715 38.0265 161.689 37.205 160.477 37.4416C159.278 37.6764 158.637 38.8234 159.054 40.9578C159.47 43.0915 160.496 43.9136 161.696 43.6794C162.908 43.4428 163.549 42.2952 163.132 40.1609Z" fill="#263238"/>
<path d="M89.3303 65.3618L70.4479 69.0498L74.1359 87.9322L93.0183 84.2442L89.3303 65.3618Z" fill="white"/>
<path d="M80.648 72.123L80.8624 73.222L78.9395 81.6332L77.1847 81.9755L79.0506 73.8772L75.5777 74.5558L75.8707 76.0584L74.3429 76.3568L73.7784 73.4652L80.648 72.123Z" fill="#263238"/>
<path d="M89.0582 76.8372C89.3615 78.3902 88.4895 79.8982 86.1156 80.3612C84.8653 80.6056 83.5285 80.4729 82.5946 79.9871L83.0402 78.5758C83.7873 78.9806 84.8142 79.1343 85.8117 78.9391C86.9864 78.7097 87.5791 78.0557 87.4164 77.2228C87.2512 76.3772 86.6044 75.9527 84.774 76.31L82.6397 76.7267L82.1544 71.8269L87.3443 70.8132L87.6127 72.1897L83.8119 72.9319L84.0221 75.0146L84.8677 74.8495C87.4824 74.3402 88.7526 75.2716 89.0582 76.8372Z" fill="#263238"/>
<path d="M109.152 61.4907L90.2692 65.1787L93.9571 84.0611L112.84 80.3731L109.152 61.4907Z" fill="white"/>
<path d="M105.396 75.0244L105.667 76.4135L99.1518 77.686L98.9374 76.5876L101.797 72.5682C102.495 71.5797 102.545 71.0326 102.449 70.5402C102.291 69.7318 101.645 69.3739 100.559 69.5853C99.7001 69.7529 99.0371 70.184 98.6683 70.9113L97.3466 70.2519C97.848 69.1968 98.9674 68.4143 100.42 68.1308C102.339 67.7561 103.766 68.4869 104.072 70.0525C104.24 70.9113 104.152 71.7413 103.153 73.1291L101.23 75.8381L105.396 75.0244Z" fill="#263238"/>
<path d="M148.789 53.7476L129.907 57.4355L133.595 76.318L152.477 72.63L148.789 53.7476Z" fill="white"/>
<path d="M141.469 66.574C141.812 68.3294 140.602 69.7191 138.796 70.0716C136.384 70.543 134.667 69.2657 134.112 66.4251C133.52 63.3942 134.962 61.3824 137.526 60.8815C138.41 60.7092 139.292 60.7326 139.96 60.9962L139.596 62.3522C139.054 62.13 138.451 62.13 137.832 62.2507C136.165 62.5768 135.319 63.8164 135.711 65.8246L135.714 65.8366C136.124 65.1141 136.91 64.6457 137.896 64.4529C139.638 64.1136 141.146 64.9207 141.469 66.574ZM139.892 66.9608C139.712 66.0396 138.904 65.594 137.831 65.8035C136.77 66.0107 136.164 66.7974 136.334 67.6682C136.497 68.5024 137.282 69.0308 138.456 68.8014C139.479 68.6021 140.073 67.8826 139.892 66.9608Z" fill="#263238"/>
<path d="M148.623 65.2702C148.914 66.7607 148.042 68.2681 145.668 68.7317C144.418 68.9755 143.094 68.841 142.148 68.3576L142.605 66.9439C143.34 67.3511 144.367 67.5048 145.364 67.3096C146.539 67.0796 147.132 66.4262 146.972 65.6053C146.816 64.8102 146.134 64.4054 144.796 64.6667L143.988 64.8252L143.769 63.7016L145.31 60.9229L141.294 61.7072L141.026 60.3308L147.049 59.1543L147.263 60.2533L145.615 63.2224C147.323 63.1119 148.364 63.9436 148.623 65.2702Z" fill="#263238"/>
<path d="M168.614 49.8755L149.732 53.5635L153.42 72.4459L172.302 68.7579L168.614 49.8755Z" fill="white"/>
<path d="M160.62 64.2383L160.891 65.628L154.375 66.9005L154.161 65.8021L157.021 61.7827C157.719 60.7948 157.769 60.2471 157.673 59.7547C157.515 58.9463 156.868 58.5884 155.782 58.7998C154.924 58.9674 154.261 59.3985 153.892 60.1264L152.571 59.4664C153.072 58.4113 154.191 57.6294 155.643 57.3459C157.562 56.9706 158.99 57.7014 159.296 59.267C159.463 60.1258 159.376 60.9558 158.376 62.3436L156.454 65.0526L160.62 64.2383Z" fill="#263238"/>
<path d="M160.94 61.0295C160.373 58.1247 161.644 56.1723 163.74 55.7628C165.849 55.3508 167.76 56.6816 168.328 59.5864C168.894 62.49 167.624 64.443 165.516 64.8544C163.42 65.2645 161.508 63.9331 160.94 61.0295ZM166.674 59.9101C166.257 57.7758 165.231 56.9536 164.019 57.1909C162.819 57.4251 162.179 58.5727 162.595 60.7064C163.012 62.8401 164.037 63.6623 165.237 63.4281C166.449 63.1915 167.09 62.0432 166.674 59.9101Z" fill="#263238"/>
<path d="M93.1755 85.0493L74.2931 88.7373L77.9811 107.62L96.8635 103.932L93.1755 85.0493Z" fill="white"/>
<path d="M89.5235 97.3668C89.8442 99.0087 88.6173 100.31 86.4199 100.739C84.2225 101.168 82.6215 100.419 82.3014 98.7774C82.1116 97.8052 82.4755 96.9872 83.3031 96.3921C82.5194 96.1387 82.0047 95.5838 81.842 94.7508C81.5459 93.2357 82.6869 92.0298 84.6441 91.6472C86.6139 91.2623 88.1374 91.9481 88.4335 93.4633C88.5963 94.2968 88.3158 95.0066 87.6726 95.5387C88.6755 95.7759 89.3337 96.3951 89.5235 97.3668ZM83.473 94.5112C83.6214 95.2691 84.3462 95.6252 85.3816 95.4228C86.4295 95.218 86.9802 94.6121 86.8319 93.8554C86.6763 93.0597 85.9058 92.7384 84.8951 92.9354C83.8856 93.133 83.3181 93.7161 83.473 94.5112ZM87.86 97.64C87.69 96.7686 86.8259 96.3741 85.614 96.6101C84.4015 96.8467 83.7757 97.5325 83.9457 98.4039C84.121 99.3005 84.9564 99.6879 86.1689 99.4513C87.3808 99.2146 88.0347 98.536 87.86 97.64Z" fill="#263238"/>
<path d="M112.996 81.1773L94.1139 84.8652L97.8019 103.748L116.684 100.06L112.996 81.1773Z" fill="white"/>
<path d="M105.035 94.1578C105.338 95.7108 104.466 97.2182 102.092 97.6818C100.843 97.9256 99.5053 97.7929 98.572 97.3076L99.0176 95.8964C99.7647 96.3012 100.791 96.4549 101.789 96.2591C102.963 96.0297 103.556 95.3763 103.393 94.5434C103.228 93.6978 102.581 93.2732 100.751 93.6305L98.6171 94.0467L98.1312 89.1475L103.322 88.1338L103.59 89.5102L99.7893 90.2519L99.9995 92.3346L100.845 92.17C103.459 91.6602 104.729 92.5922 105.035 94.1578Z" fill="#263238"/>
<path d="M112.428 90.7853C113.02 93.8162 111.578 95.828 109.014 96.3288C108.13 96.5012 107.247 96.4772 106.58 96.2141L106.944 94.8587C107.485 95.0803 108.088 95.0803 108.707 94.9596C110.374 94.6341 111.22 93.3946 110.828 91.3864L110.825 91.3738C110.416 92.0956 109.629 92.5647 108.644 92.7568C106.901 93.0973 105.394 92.2908 105.071 90.6363C104.728 88.8815 105.937 87.4913 107.743 87.1388C110.156 86.6673 111.873 87.9441 112.428 90.7853ZM110.206 89.5415C110.043 88.7086 109.258 88.1801 108.084 88.4095C107.061 88.6089 106.468 89.3278 106.647 90.2496C106.827 91.1714 107.635 91.6164 108.709 91.4074C109.769 91.1996 110.376 90.4129 110.206 89.5415Z" fill="#263238"/>
<path d="M132.817 77.3071L113.935 80.9951L117.623 99.8775L136.505 96.1895L132.817 77.3071Z" fill="white"/>
<path d="M125.237 83.8535L125.451 84.9519L123.528 93.3631L121.773 93.706L123.639 85.6077L120.167 86.2857L120.46 87.7883L118.932 88.0867L118.367 85.1951L125.237 83.8535Z" fill="#263238"/>
<path d="M129.43 83.0342L131.157 91.8735L129.516 92.1936L128.058 84.7313L126.189 85.0958L125.921 83.7194L129.43 83.0342Z" fill="#263238"/>
<path d="M152.638 73.4351L133.755 77.123L137.443 96.0054L156.326 92.3174L152.638 73.4351Z" fill="white"/>
<path d="M144.975 86.3542C145.278 87.9078 144.406 89.4152 142.032 89.8788C140.782 90.1226 139.445 89.9905 138.512 89.5047L138.957 88.0934C139.705 88.4982 140.731 88.6519 141.729 88.4567C142.903 88.2273 143.496 87.5739 143.333 86.741C143.168 85.8948 142.521 85.4702 140.691 85.8282L138.557 86.2449L138.071 81.3457L143.261 80.332L143.53 81.7091L139.729 82.4507L139.939 84.5334L140.785 84.3682C143.399 83.8572 144.669 84.7886 144.975 86.3542Z" fill="#263238"/>
<path d="M152.29 84.926C152.593 86.4796 151.72 87.9869 149.347 88.45C148.097 88.6938 146.76 88.5617 145.826 88.0758L146.272 86.6646C147.019 87.0693 148.046 87.2231 149.043 87.0279C150.217 86.7979 150.811 86.1445 150.648 85.3115C150.483 84.4654 149.836 84.0408 148.005 84.3981L145.872 84.8149L145.386 79.9151L150.576 78.9014L150.845 80.2778L147.044 81.0219L147.254 83.104L148.1 82.9394C150.714 82.4283 151.984 83.3604 152.29 84.926Z" fill="#263238"/>
<path d="M172.456 69.5659L153.574 73.2539L157.262 92.1363L176.144 88.4483L172.456 69.5659Z" fill="white"/>
<path d="M165.168 76.0508L166.895 84.8901L165.254 85.2102L163.796 77.7479L161.927 78.1124L161.659 76.736L165.168 76.0508Z" fill="#263238"/>
<path d="M97.0217 104.738L78.1393 108.426L81.8273 127.308L100.71 123.62L97.0217 104.738Z" fill="white"/>
<path d="M86.0457 111.945L87.7716 120.784L86.1304 121.105L84.6728 113.642L82.804 114.007L82.5355 112.631L86.0457 111.945Z" fill="#263238"/>
<path d="M95.4257 116.471C95.729 118.024 94.857 119.532 92.483 119.995C91.2327 120.239 89.8965 120.106 88.9627 119.621L89.4083 118.21C90.1559 118.615 91.1823 118.768 92.1798 118.573C93.3544 118.343 93.9471 117.69 93.7844 116.857C93.6193 116.011 92.9725 115.587 91.142 115.944L89.0077 116.36L88.5225 111.461L93.7123 110.447L93.9808 111.824L90.18 112.565L90.3901 114.648L91.2363 114.483C93.8499 113.974 95.12 114.906 95.4257 116.471Z" fill="#263238"/>
<path d="M116.842 100.867L97.9601 104.555L101.648 123.437L120.53 119.749L116.842 100.867Z" fill="white"/>
<path d="M109.088 113.868C109.379 115.359 108.507 116.866 106.133 117.329C104.883 117.574 103.559 117.439 102.613 116.955L103.071 115.542C103.806 115.949 104.832 116.102 105.83 115.907C107.004 115.678 107.598 115.024 107.437 114.204C107.282 113.408 106.6 113.004 105.262 113.265L104.453 113.423L104.233 112.299L105.775 109.521L101.76 110.305L101.491 108.928L107.514 107.752L107.729 108.851L106.08 111.82C107.788 111.71 108.829 112.542 109.088 113.868Z" fill="#263238"/>
<path d="M116.452 112.365C116.755 113.919 115.882 115.426 113.509 115.89C112.259 116.134 110.922 116.001 109.988 115.516L110.434 114.104C111.181 114.509 112.208 114.662 113.205 114.467C114.379 114.238 114.973 113.584 114.81 112.751C114.645 111.905 113.998 111.481 112.168 111.838L110.034 112.255L109.549 107.356L114.738 106.342L115.007 107.718L111.206 108.46L111.416 110.543L112.262 110.378C114.876 109.868 116.146 110.799 116.452 112.365Z" fill="#263238"/>
<path d="M136.663 96.9956L117.781 100.684L121.469 119.566L140.351 115.878L136.663 96.9956Z" fill="white"/>
<path d="M125.536 104.234L127.263 113.074L125.621 113.394L124.163 105.931L122.295 106.296L122.027 104.919L125.536 104.234Z" fill="#263238"/>
<path d="M133.96 102.589L134.174 103.687L132.252 112.098L130.496 112.441L132.362 104.343L128.89 105.021L129.183 106.524L127.655 106.822L127.091 103.93L133.96 102.589Z" fill="#263238"/>
<path d="M156.484 93.1245L137.602 96.8125L141.29 115.695L160.172 112.007L156.484 93.1245Z" fill="white"/>
<path d="M148.708 106.128C148.998 107.617 148.127 109.125 145.753 109.59C144.503 109.833 143.179 109.699 142.233 109.215L142.69 107.802C143.425 108.209 144.452 108.363 145.449 108.167C146.624 107.938 147.217 107.285 147.057 106.464C146.901 105.669 146.219 105.264 144.881 105.525L144.073 105.682L143.853 104.559L145.394 101.781L141.379 102.565L141.111 101.189L147.134 100.013L147.348 101.111L145.699 104.08C147.408 103.969 148.448 104.801 148.708 106.128Z" fill="#263238"/>
<path d="M156.369 105.943L156.64 107.332L150.125 108.605L149.91 107.506L152.77 103.487C153.468 102.498 153.518 101.951 153.422 101.458C153.264 100.65 152.618 100.293 151.532 100.505C150.673 100.672 150.01 101.103 149.641 101.83L148.32 101.171C148.822 100.115 149.94 99.3335 151.393 99.05C153.311 98.6747 154.739 99.4055 155.045 100.971C155.213 101.83 155.126 102.659 154.126 104.048L152.203 106.757L156.369 105.943Z" fill="#263238"/>
<path d="M176.301 89.2544L157.419 92.9424L161.107 111.825L179.989 108.137L176.301 89.2544Z" fill="white"/>
<path d="M172.043 99.578C172.635 102.609 171.193 104.621 168.629 105.122C167.745 105.294 166.863 105.27 166.195 105.007L166.559 103.651C167.101 103.873 167.703 103.873 168.322 103.752C169.989 103.427 170.835 102.187 170.443 100.179L170.44 100.167C170.031 100.888 169.244 101.357 168.259 101.55C166.517 101.889 165.009 101.084 164.686 99.4291C164.343 97.6743 165.552 96.284 167.358 95.9315C169.771 95.4607 171.488 96.7374 172.043 99.578ZM169.82 98.3343C169.658 97.5013 168.873 96.9723 167.698 97.2023C166.675 97.4016 166.082 98.1205 166.262 99.0423C166.442 99.9642 167.249 100.409 168.323 100.2C169.384 99.993 169.99 99.2057 169.82 98.3343Z" fill="#263238"/>
<path d="M120.312 63.502L122.491 66.3611L126.082 66.1864L124.037 69.1434L125.312 72.5046L121.868 71.4723L119.066 73.7243L118.983 70.1301L115.975 68.161L119.368 66.9713L120.312 63.502Z" fill="white"/>
<path d="M143.199 -11.3998C137.307 -10.2492 133.774 -5.24605 134.872 0.374408C135.97 5.99487 141.125 9.30025 147.017 8.14961C152.909 6.99898 156.447 2.02349 155.344 -3.624C154.241 -9.27208 149.09 -12.551 143.199 -11.3998Z" fill="white"/>
<path d="M143.785 -8.40039L146.59 -4.72028L151.212 -4.94488L148.579 -1.13986L150.221 3.18643L145.789 1.85803L142.182 4.75624L142.075 0.13028L138.204 -2.4046L142.571 -3.93537L143.785 -8.40039Z" fill="#DA1919"/>
<path d="M81.6935 15.2719C82.33 18.5298 80.1489 20.929 75.2617 21.8838L65.8128 23.7293L62.1008 4.72278L71.0068 2.9836C75.5686 2.0924 78.3887 3.54331 78.9772 6.55742C79.3592 8.51218 78.6625 10.1421 77.3504 11.2158C79.5135 11.4698 81.2106 12.8012 81.6935 15.2719ZM66.1713 6.80304L67.1946 12.0434L72.1905 11.0675C74.6341 10.5901 75.8496 9.45083 75.5097 7.71286C75.165 5.94787 73.6102 5.34974 71.1666 5.82657L66.1713 6.80304ZM78.0674 15.6136C77.6963 13.7129 76.0928 13.152 73.4318 13.672L67.7303 14.7854L68.8017 20.2702L74.5032 19.1568C77.1642 18.6373 78.4385 17.5143 78.0674 15.6136Z" fill="white"/>
<path d="M82.7612 0.685511L86.2912 -0.00390625L90.0031 19.0026L86.4732 19.692L82.7612 0.685511Z" fill="white"/>
<path d="M108.31 -4.30347L112.022 14.703L109.116 15.2705L96.1225 4.4476L98.6364 17.3178L95.1334 18.0018L91.4209 -1.0047L94.3263 -1.57222L107.321 9.25072L104.807 -3.61946L108.31 -4.30347Z" fill="white"/>
<path d="M128.205 1.451L131.545 0.798815L133.025 8.37403C131.356 10.363 128.745 11.7184 126.057 12.2433C120.165 13.3939 115.02 10.1432 113.912 4.46811C112.803 -1.2064 116.347 -6.15484 122.293 -7.31629C125.47 -7.93665 128.337 -7.39737 130.528 -5.71105L128.725 -3.1041C126.941 -4.30578 125.097 -4.65049 123.06 -4.25293C119.015 -3.46262 116.7 -0.163859 117.469 3.77328C118.222 7.62875 121.624 9.89579 125.643 9.11089C127 8.84605 128.278 8.31457 129.362 7.36992L128.205 1.451Z" fill="white"/>
<path opacity="0.1" d="M157.563 -20.9136C157.563 -20.9136 160.215 91.8511 88.6743 128.396L183.123 109.95L157.563 -20.9136Z" fill="black"/>
</g>
</g>
<defs>
<linearGradient id="paint0_linear_10349_47142" x1="151" y1="0" x2="151" y2="122.839" gradientUnits="userSpaceOnUse">
<stop stop-color="#DD1818"/>
<stop offset="1" stop-color="#333333"/>
</linearGradient>
<clipPath id="clip0_10349_47142">
<rect x="0.863892" width="300.272" height="122.839" rx="12.7957" fill="white"/>
</clipPath>
</defs>
</svg>
