<svg width="32" height="33" viewBox="0 0 32 33" fill="none" xmlns="http://www.w3.org/2000/svg">
<g id="Frame 1171275552">
<path id="Vector" d="M2.00268 1.08551C1.58516 1.46221 1.33594 2.09051 1.33594 2.92454V2.73599V30.2577V30.0763C1.33594 30.8466 1.54971 31.4414 1.91173 31.8245L2.00413 31.913C2.29715 32.1774 2.67288 32.3182 3.10351 32.3177C3.52427 32.3177 3.99768 32.1835 4.49731 31.9003L22.5562 21.6395L28.7593 18.1146C29.5471 17.6671 29.9894 17.0898 30.0634 16.5017V16.4993C29.9894 15.9098 29.5471 15.3329 28.7594 14.8853L22.5557 11.3608L4.49736 1.10005C3.99667 0.816282 3.52294 0.681641 3.10104 0.681641C2.67092 0.681641 2.29558 0.821594 2.00268 1.08551Z" fill="#00C1FF"/>
<path id="Vector_2" d="M2.00419 31.9134L1.91172 31.825C1.54971 31.4419 1.33594 30.847 1.33594 30.0769V30.2581V2.74324V2.92497C1.33594 2.09094 1.58516 1.46263 2.00268 1.08594L17.4173 16.5002L2.00419 31.9134Z" fill="url(#paint0_linear_5404_26136)"/>
<path id="Vector_3" d="M22.553 21.64L17.4141 16.5003L22.5526 11.3613L28.7562 14.8858C29.5439 15.3334 29.9862 15.9103 30.0602 16.4998V16.502C29.9862 17.0902 29.5439 17.6676 28.7562 18.1151L22.553 21.64Z" fill="url(#paint1_linear_5404_26136)"/>
<path id="Vector_4" d="M3.09926 32.318C2.6687 32.3184 2.29296 32.178 2 31.9136L17.4131 16.5L22.5521 21.6397L4.49306 31.9005C3.99344 32.1839 3.52004 32.318 3.09926 32.318Z" fill="url(#paint2_linear_5404_26136)"/>
<path id="Vector_5" d="M17.4147 16.4997L2 1.08551C2.29302 0.821597 2.66825 0.681641 3.09831 0.681641C3.5202 0.681641 3.994 0.816227 4.49463 1.10005L22.5531 11.3608L17.4147 16.4997Z" fill="url(#paint3_linear_5404_26136)"/>
<path id="Vector_6" d="M3.10623 32.4991C2.67567 32.4991 2.29943 32.3587 2.00641 32.0943C2.00521 32.0931 2.00341 32.0924 2.00205 32.0913L1.9219 32.0131C1.91938 32.0105 1.91703 32.0077 1.91406 32.0049L2.00647 31.9125C2.29949 32.1768 2.67517 32.3173 3.10585 32.3168C3.52655 32.3168 3.99997 32.1827 4.49958 31.8993L22.5585 21.6387L22.6741 21.7544L22.5571 21.8209L4.49953 32.0811C4.04421 32.3392 3.61113 32.4737 3.21993 32.4963C3.18206 32.498 3.14415 32.4989 3.10623 32.4991Z" fill="url(#paint4_linear_5404_26136)"/>
<path id="Vector_7" d="M1.91274 32.0056C1.55008 31.6226 1.33594 31.0282 1.33594 30.2575V30.0762C1.33594 30.8464 1.55008 31.4412 1.91274 31.8243L2.00531 31.9128L1.91274 32.0056Z" fill="url(#paint5_linear_5404_26136)"/>
<path id="Vector_8" d="M22.6703 21.7556L22.5547 21.6398L28.7578 18.115C29.5456 17.6674 29.9879 17.0901 30.0618 16.502C30.0618 16.7178 30.0136 16.9336 29.9179 17.1436C29.725 17.5669 29.3382 17.9668 28.7578 18.2968L22.6703 21.7556Z" fill="url(#paint6_linear_5404_26136)"/>
<path id="Vector_9" d="M30.0623 16.5002C29.9883 15.9107 29.546 15.3339 28.7583 14.8862L22.5547 11.3618L22.6703 11.2461L28.7583 14.705C29.6268 15.1987 30.0618 15.8494 30.0623 16.5002Z" fill="url(#paint7_linear_5404_26136)"/>
<path id="Vector_10" d="M1.33594 2.92454V2.73443C1.33594 2.66587 1.33779 2.59883 1.34132 2.53375V2.53079L1.34166 2.52794V2.5206C1.37919 1.85718 1.5856 1.33969 1.91274 0.994141L2.00385 1.08545C1.5856 1.4622 1.33594 2.09051 1.33594 2.92454Z" fill="url(#paint8_linear_5404_26136)"/>
<path id="Vector_11" d="M22.558 11.361L4.49958 1.10013C3.99895 0.816364 3.52521 0.681779 3.10333 0.681779C2.67321 0.681779 2.29798 0.821732 2.00501 1.08565L1.91406 0.994284C1.94247 0.964213 1.97198 0.935212 2.00255 0.907337C2.0035 0.906331 2.00501 0.905324 2.00597 0.904373C2.29663 0.642471 2.66789 0.502516 3.09414 0.5H3.10333C3.52521 0.5 3.99895 0.634643 4.49958 0.91852L22.6741 11.2449L22.558 11.361Z" fill="url(#paint9_linear_5404_26136)"/>
</g>
<defs>
<linearGradient id="paint0_linear_5404_26136" x1="11.1868" y1="2.45244" x2="-2.07564" y2="15.7577" gradientUnits="userSpaceOnUse">
<stop stop-color="#00A0FF"/>
<stop offset="0.00657" stop-color="#00A1FF"/>
<stop offset="0.2601" stop-color="#00BEFF"/>
<stop offset="0.5122" stop-color="#00D2FF"/>
<stop offset="0.7604" stop-color="#00DFFF"/>
<stop offset="1" stop-color="#00E3FF"/>
</linearGradient>
<linearGradient id="paint1_linear_5404_26136" x1="31.0201" y1="16.4114" x2="0.915596" y2="16.4114" gradientUnits="userSpaceOnUse">
<stop stop-color="#FFE000"/>
<stop offset="0.4087" stop-color="#FFBD00"/>
<stop offset="0.7754" stop-color="#FFA500"/>
<stop offset="1" stop-color="#FF9C00"/>
</linearGradient>
<linearGradient id="paint2_linear_5404_26136" x1="19.8237" y1="21.3867" x2="-2.65078" y2="43.7691" gradientUnits="userSpaceOnUse">
<stop stop-color="#FF3A44"/>
<stop offset="1" stop-color="#C31162"/>
</linearGradient>
<linearGradient id="paint3_linear_5404_26136" x1="-1.9728" y1="-1.19972" x2="8.04355" y2="8.79094" gradientUnits="userSpaceOnUse">
<stop stop-color="#32A071"/>
<stop offset="0.0685" stop-color="#2DA771"/>
<stop offset="0.4762" stop-color="#15CF74"/>
<stop offset="0.8009" stop-color="#06E775"/>
<stop offset="1" stop-color="#00F076"/>
</linearGradient>
<linearGradient id="paint4_linear_5404_26136" x1="19.8189" y1="24.9508" x2="1.82052" y2="43.0075" gradientUnits="userSpaceOnUse">
<stop stop-color="#CC2E36"/>
<stop offset="1" stop-color="#9C0E4E"/>
</linearGradient>
<linearGradient id="paint5_linear_5404_26136" x1="3.393" y1="2.45179" x2="-8.29094" y2="14.1943" gradientUnits="userSpaceOnUse">
<stop stop-color="#008DE0"/>
<stop offset="0.00657" stop-color="#008DE0"/>
<stop offset="0.2601" stop-color="#00A7E0"/>
<stop offset="0.5122" stop-color="#00B8E0"/>
<stop offset="0.7604" stop-color="#00C4E0"/>
<stop offset="1" stop-color="#00C7E0"/>
</linearGradient>
<linearGradient id="paint6_linear_5404_26136" x1="31.0216" y1="16.5008" x2="0.91718" y2="16.5008" gradientUnits="userSpaceOnUse">
<stop stop-color="#E0C500"/>
<stop offset="0.4087" stop-color="#E0A600"/>
<stop offset="0.7754" stop-color="#E09100"/>
<stop offset="1" stop-color="#E08900"/>
</linearGradient>
<linearGradient id="paint7_linear_5404_26136" x1="31.0222" y1="16.5015" x2="0.917781" y2="16.5015" gradientUnits="userSpaceOnUse">
<stop stop-color="#FFE840"/>
<stop offset="0.4087" stop-color="#FFCE40"/>
<stop offset="0.7754" stop-color="#FFBC40"/>
<stop offset="1" stop-color="#FFB540"/>
</linearGradient>
<linearGradient id="paint8_linear_5404_26136" x1="3.38028" y1="2.47314" x2="-7.8751" y2="13.2947" gradientUnits="userSpaceOnUse">
<stop stop-color="#40B8FF"/>
<stop offset="0.00657" stop-color="#40B9FF"/>
<stop offset="0.2601" stop-color="#40CEFF"/>
<stop offset="0.5122" stop-color="#40DDFF"/>
<stop offset="0.7604" stop-color="#40E7FF"/>
<stop offset="1" stop-color="#40EAFF"/>
</linearGradient>
<linearGradient id="paint9_linear_5404_26136" x1="-1.9903" y1="2.06023" x2="6.04682" y2="10.1234" gradientUnits="userSpaceOnUse">
<stop stop-color="#65B895"/>
<stop offset="0.0685" stop-color="#62BD95"/>
<stop offset="0.4762" stop-color="#50DB97"/>
<stop offset="0.8009" stop-color="#44ED98"/>
<stop offset="1" stop-color="#40F498"/>
</linearGradient>
</defs>
</svg>
