<svg width="25" height="24" viewBox="0 0 25 24" fill="none" xmlns="http://www.w3.org/2000/svg">
<g id="group_share_light">
<path id="Ellipse 48" d="M9.5 6C9.5 6.39397 9.5776 6.78407 9.72836 7.14805C9.87913 7.51203 10.1001 7.84274 10.3787 8.12132C10.6573 8.3999 10.988 8.62087 11.352 8.77164C11.7159 8.9224 12.106 9 12.5 9C12.894 9 13.2841 8.9224 13.6481 8.77164C14.012 8.62087 14.3427 8.3999 14.6213 8.12132C14.8999 7.84274 15.1209 7.51203 15.2716 7.14805C15.4224 6.78407 15.5 6.39396 15.5 6C15.5 5.60603 15.4224 5.21593 15.2716 4.85195C15.1209 4.48797 14.8999 4.15725 14.6213 3.87868C14.3427 3.6001 14.012 3.37912 13.648 3.22836C13.2841 3.0776 12.894 3 12.5 3C12.106 3 11.7159 3.0776 11.3519 3.22836C10.988 3.37913 10.6573 3.6001 10.3787 3.87868C10.1001 4.15726 9.87912 4.48797 9.72836 4.85195C9.5776 5.21593 9.5 5.60604 9.5 6L9.5 6Z" stroke="#222222"/>
<path id="Ellipse 49" d="M4.93708 13.9015C4.5959 14.0985 4.29685 14.3607 4.05702 14.6733C3.81719 14.9858 3.64127 15.3426 3.5393 15.7231C3.43734 16.1037 3.41132 16.5006 3.46275 16.8912C3.51417 17.2818 3.64202 17.6584 3.839 17.9996C4.03599 18.3408 4.29824 18.6398 4.6108 18.8796C4.92335 19.1195 5.28008 19.2954 5.66062 19.3974C6.04117 19.4993 6.43806 19.5253 6.82866 19.4739C7.21925 19.4225 7.5959 19.2946 7.93708 19.0977C8.27827 18.9007 8.57731 18.6384 8.81714 18.3259C9.05697 18.0133 9.23289 17.6566 9.33486 17.276C9.43682 16.8955 9.46284 16.4986 9.41141 16.108C9.35999 15.7174 9.23214 15.3408 9.03516 14.9996C8.83817 14.6584 8.57592 14.3594 8.26336 14.1195C7.95081 13.8797 7.59408 13.7038 7.21354 13.6018C6.83299 13.4998 6.4361 13.4738 6.0455 13.5252C5.6549 13.5767 5.27826 13.7045 4.93708 13.9015L4.93708 13.9015Z" stroke="#222222"/>
<path id="Ellipse 49_2" d="M20.0629 13.9015C20.4041 14.0985 20.7031 14.3607 20.943 14.6733C21.1828 14.9859 21.3587 15.3426 21.4607 15.7231C21.5627 16.1037 21.5887 16.5006 21.5373 16.8912C21.4858 17.2818 21.358 17.6584 21.161 17.9996C20.964 18.3408 20.7018 18.6398 20.3892 18.8796C20.0766 19.1195 19.7199 19.2954 19.3394 19.3974C18.9588 19.4993 18.5619 19.5253 18.1713 19.4739C17.7807 19.4225 17.4041 19.2946 17.0629 19.0977C16.7217 18.9007 16.4227 18.6384 16.1829 18.3259C15.943 18.0133 15.7671 17.6566 15.6651 17.276C15.5632 16.8955 15.5372 16.4986 15.5886 16.108C15.64 15.7174 15.7679 15.3408 15.9648 14.9996C16.1618 14.6584 16.4241 14.3594 16.7366 14.1195C17.0492 13.8797 17.4059 13.7038 17.7865 13.6018C18.167 13.4998 18.5639 13.4738 18.9545 13.5252C19.3451 13.5767 19.7217 13.7045 20.0629 13.9015L20.0629 13.9015Z" stroke="#222222"/>
<path id="Subtract" fill-rule="evenodd" clip-rule="evenodd" d="M9.5023 6.12505C9.50056 6.0834 9.49969 6.04168 9.49969 5.99991C9.49969 5.65258 9.56 5.30825 9.67759 4.98218C9.53283 5.03314 9.3893 5.08807 9.24719 5.14694C8.21592 5.57411 7.27889 6.20021 6.48959 6.98951C5.70029 7.77881 5.07419 8.71584 4.64702 9.74711C4.21986 10.7784 4 11.8837 4 12.9999C4 13.526 4.04883 14.0496 4.14519 14.5642C4.36875 14.2994 4.63675 14.0751 4.9375 13.9014C4.97371 13.8805 5.01033 13.8604 5.04732 13.841C5.01586 13.5623 5 13.2815 5 12.9999C5 12.015 5.19399 11.0397 5.5709 10.1298C5.94781 9.21985 6.50026 8.39306 7.1967 7.69662C7.86045 7.03286 8.6426 6.49991 9.5023 6.12505ZM15.4971 6.12478C16.357 6.49965 17.1394 7.0327 17.8033 7.69661C18.4997 8.39305 19.0522 9.21984 19.4291 10.1298C19.806 11.0397 20 12.015 20 12.9999C20 13.2816 19.9841 13.5625 19.9526 13.8413C19.9894 13.8606 20.0259 13.8806 20.0619 13.9014C20.3629 14.0752 20.631 14.2997 20.8547 14.5648C20.9511 14.05 21 13.5262 21 12.9999C21 11.8837 20.7801 10.7784 20.353 9.7471C19.9258 8.71583 19.2997 7.7788 18.5104 6.9895C17.7211 6.20021 16.7841 5.5741 15.7528 5.14694C15.6105 5.08797 15.4667 5.03296 15.3217 4.98193C15.4393 5.30808 15.4997 5.6525 15.4997 5.99991C15.4997 6.04159 15.4988 6.08322 15.4971 6.12478ZM18.033 19.4525C17.6915 19.3914 17.3629 19.2714 17.0619 19.0976C17.0259 19.0768 16.9904 19.0553 16.9554 19.0331C16.4664 19.3942 15.9343 19.6953 15.3701 19.929C14.4602 20.3059 13.4849 20.4999 12.5 20.4999C11.5151 20.4999 10.5398 20.3059 9.62988 19.929C9.06563 19.6953 8.53337 19.3941 8.04432 19.0329C8.0092 19.0552 7.97359 19.0767 7.9375 19.0976C7.63663 19.2713 7.30817 19.3912 6.9669 19.4524C7.64725 20.0358 8.41666 20.5089 9.24719 20.8529C10.2785 21.2801 11.3838 21.4999 12.5 21.4999C13.6162 21.4999 14.7215 21.2801 15.7528 20.8529C16.5833 20.5089 17.3527 20.0359 18.033 19.4525Z" fill="#222222"/>
</g>
</svg>
