<svg width="25" height="24" viewBox="0 0 25 24" fill="none" xmlns="http://www.w3.org/2000/svg">
<g id="Setting_line_light">
<path id="Subtract" d="M14.6361 3.36136H15.1361V3.33642L15.1337 3.3116L14.6361 3.36136ZM14.6361 3.36137H14.1361V3.38631L14.1386 3.41112L14.6361 3.36137ZM14.9309 4.81738L15.3285 4.51421L15.3285 4.51421L14.9309 4.81738ZM15.8596 5.20208L15.7929 4.70656L15.8596 5.20208ZM17.0975 4.38101L16.8202 3.96498L16.7998 3.97855L16.7809 3.99403L17.0975 4.38101ZM17.0975 4.381L17.3749 4.79703L17.3952 4.78347L17.4142 4.76798L17.0975 4.381ZM17.7847 3.90923L17.9369 4.38549L17.9369 4.38549L17.7847 3.90923ZM18.4869 3.94425L18.288 4.403L18.288 4.403L18.4869 3.94425ZM19.1237 4.48206L19.4772 4.12851V4.12851L19.1237 4.48206ZM20.0173 5.37568L20.3708 5.02213L20.0173 5.37568ZM20.5553 6.01274L21.0141 5.81394L20.5553 6.01274ZM20.5903 6.71466L21.0666 6.86682V6.86682L20.5903 6.71466ZM20.1184 7.40207L20.4921 7.73426L20.4989 7.72661L20.5053 7.71869L20.1184 7.40207ZM20.1184 7.40209L19.7446 7.06991L19.7379 7.07755L19.7314 7.08547L20.1184 7.40209ZM19.297 8.64049L18.8015 8.57382V8.57382L19.297 8.64049ZM19.6816 9.56889L19.3783 9.96643L19.3783 9.96643L19.6816 9.56889ZM21.1383 9.86383L21.0885 10.3613L21.1383 9.86383ZM21.9585 10.0163L22.1878 9.57195L22.1878 9.57195L21.9585 10.0163ZM22.4299 10.5372L22.8949 10.3533L22.8949 10.3533L22.4299 10.5372ZM22.4301 13.4624L22.8951 13.6461V13.6461L22.4301 13.4624ZM21.9581 13.9839L22.1871 14.4284H22.1872L21.9581 13.9839ZM21.139 14.1361L21.1887 14.6336L21.139 14.1361ZM19.6837 14.4307L19.9867 14.8283L19.9867 14.8283L19.6837 14.4307ZM19.2988 15.3598L19.7943 15.2929V15.2929L19.2988 15.3598ZM20.1198 16.5974L19.7328 16.914L20.1198 16.5974ZM20.5918 17.2848L20.1155 17.437L20.5918 17.2848ZM20.5568 17.9869L21.0155 18.1857L20.5568 17.9869ZM18.488 20.0555L18.2893 19.5966H18.2893L18.488 20.0555ZM17.7866 20.0905L17.6346 20.5668L17.7866 20.0905ZM17.0986 19.6182L17.4152 19.2312L17.0986 19.6182ZM15.8591 18.7963L15.9256 18.3007L15.8591 18.7963ZM14.9315 19.1805L15.3288 19.484L14.9315 19.1805ZM14.6362 20.6382L14.1387 20.5884L14.6362 20.6382ZM14.4836 21.4587L14.0393 21.2293H14.0393L14.4836 21.4587ZM13.963 21.9298L14.147 22.3948L14.147 22.3948L13.963 21.9298ZM11.0372 21.9299L11.2211 21.465L11.2211 21.465L11.0372 21.9299ZM10.5163 21.4585L10.9606 21.2292L10.9606 21.2292L10.5163 21.4585ZM10.3638 20.6384L10.8614 20.5887L10.3638 20.6384ZM10.0688 19.1815L10.4663 18.8782H10.4663L10.0688 19.1815ZM9.14068 18.7971L9.0741 18.3015L9.14068 18.7971ZM7.90177 19.6187L8.21839 20.0057L7.90177 19.6187ZM7.21395 20.0909L7.36602 20.5672H7.36602L7.21395 20.0909ZM6.51237 20.0559L6.71109 19.5971H6.71109L6.51237 20.0559ZM5.87498 19.5177L6.22854 19.1641H6.22854L5.87498 19.5177ZM4.98169 18.6244L4.6054 18.9536L4.61637 18.9661L4.62814 18.9779L4.98169 18.6244ZM4.98168 18.6244L5.35797 18.2951L5.34701 18.2826L5.33524 18.2708L4.98168 18.6244ZM4.44364 17.9872L3.98486 18.186L3.98486 18.186L4.44364 17.9872ZM4.40864 17.2854L3.93235 17.1332L3.93235 17.1332L4.40864 17.2854ZM4.8807 16.5978L5.26768 16.9144L4.8807 16.5978ZM5.702 15.3596L6.19752 15.4263V15.4263L5.702 15.3596ZM5.31733 14.4309L5.01414 14.8285L5.01414 14.8285L5.31733 14.4309ZM3.86128 14.1361L3.91104 13.6386L3.88622 13.6361H3.86128V14.1361ZM3.86128 14.1361L3.81152 14.6336L3.83634 14.6361H3.86128V14.1361ZM3.04172 13.9838L2.81258 14.4282L2.81258 14.4282L3.04172 13.9838ZM2.57 13.4626L2.105 13.6464H2.105L2.57 13.4626ZM2.57017 10.537L3.03509 10.721H3.03509L2.57017 10.537ZM3.04131 10.0164L3.27065 10.4607L3.27066 10.4607L3.04131 10.0164ZM3.86203 9.8638L3.91178 10.3613L3.86203 9.8638ZM5.31934 9.5687L5.01601 9.17122L5.01601 9.17122L5.31934 9.5687ZM5.70377 8.6406L6.19932 8.57403V8.57403L5.70377 8.6406ZM4.88221 7.40176L4.48221 7.70176L4.48854 7.71021L4.49523 7.71838L4.88221 7.40176ZM4.8822 7.40176L5.2822 7.10176L5.26088 7.07333L5.23576 7.0482L4.8822 7.40176ZM4.8822 7.40175L4.49522 7.71837L4.51101 7.73767L4.52865 7.75531L4.8822 7.40175ZM4.41012 6.71408L4.88643 6.56198L4.88643 6.56198L4.41012 6.71408ZM4.44512 6.0124L3.98631 5.81366L3.98631 5.81366L4.44512 6.0124ZM5.8769 4.4815L6.23045 4.83505H6.23045L5.8769 4.4815ZM6.51346 3.94385L6.71239 4.40258L6.71239 4.40258L6.51346 3.94385ZM7.2159 3.90882L7.06361 4.38506L7.06361 4.38506L7.2159 3.90882ZM7.90281 4.38046L8.23206 4.00417L8.22583 3.99872L8.21942 3.99348L7.90281 4.38046ZM7.90281 4.38047L7.57356 4.75676L7.57979 4.76221L7.58619 4.76745L7.90281 4.38047ZM9.14023 5.20129L9.20711 4.70578H9.20711L9.14023 5.20129ZM10.0693 4.81645L10.467 5.11954L10.0693 4.81645ZM10.3639 3.36106L9.86637 3.31131V3.31131L10.3639 3.36106ZM10.5161 2.54188L10.9605 2.77094V2.77094L10.5161 2.54188ZM11.0376 2.06994L11.2213 2.53497L11.2213 2.53497L11.0376 2.06994ZM13.9626 2.07001L13.7788 2.53501V2.53501L13.9626 2.07001ZM14.4838 2.5417L14.9282 2.31255L14.9282 2.31255L14.4838 2.5417ZM15.1361 3.36136V3.36136H14.1361V3.36136H15.1361ZM15.1361 3.36137V3.36136H14.1361V3.36137H15.1361ZM15.3285 4.51421C15.3172 4.49938 15.2805 4.43828 15.242 4.22413C15.2043 4.01476 15.1755 3.7303 15.1337 3.31162L14.1386 3.41112C14.1788 3.81303 14.2115 4.144 14.2578 4.40121C14.3032 4.65363 14.3729 4.91024 14.5333 5.12055L15.3285 4.51421ZM15.7929 4.70656C15.6148 4.73056 15.4375 4.65712 15.3285 4.51421L14.5333 5.12054C14.8602 5.5493 15.3921 5.76961 15.9264 5.6976L15.7929 4.70656ZM16.7809 3.99403C16.4553 4.26046 16.2338 4.44121 16.0591 4.56261C15.8805 4.68678 15.8113 4.70407 15.7929 4.70656L15.9264 5.6976C16.1885 5.66228 16.4192 5.53012 16.6298 5.38375C16.8444 5.23461 17.1016 5.02374 17.4142 4.76799L16.7809 3.99403ZM16.8202 3.96498L16.8202 3.96498L17.3749 4.79703L17.3749 4.79703L16.8202 3.96498ZM17.6324 3.43297C17.4726 3.48407 17.3371 3.56517 17.2094 3.6562C17.0857 3.74434 16.9444 3.8603 16.7809 3.99403L17.4142 4.76798C17.5879 4.62585 17.6994 4.53491 17.7897 4.47062C17.8758 4.40922 17.9154 4.39237 17.9369 4.38549L17.6324 3.43297ZM18.6857 3.4855C18.3526 3.34108 17.9783 3.32241 17.6324 3.43297L17.9369 4.38549C18.0522 4.34864 18.177 4.35486 18.288 4.403L18.6857 3.4855ZM19.4772 4.12851C19.3279 3.97918 19.1988 3.84974 19.0845 3.74972C18.9664 3.64643 18.8397 3.55226 18.6857 3.4855L18.288 4.403C18.3087 4.41198 18.3464 4.43269 18.4261 4.50236C18.5094 4.57531 18.6114 4.6769 18.7701 4.83562L19.4772 4.12851ZM20.3708 5.02213L19.4772 4.12851L18.7701 4.83562L19.6637 5.72923L20.3708 5.02213ZM21.0141 5.81394C20.9473 5.65986 20.8531 5.53313 20.7498 5.41501C20.6497 5.30065 20.5202 5.17152 20.3708 5.02213L19.6637 5.72923C19.8225 5.88801 19.9241 5.99001 19.9971 6.07343C20.0668 6.1531 20.0875 6.19081 20.0965 6.21154L21.0141 5.81394ZM21.0666 6.86682C21.177 6.52106 21.1584 6.14698 21.0141 5.81394L20.0965 6.21154C20.1446 6.32255 20.1508 6.44725 20.114 6.5625L21.0666 6.86682ZM20.5053 7.71869C20.6391 7.55518 20.7551 7.41381 20.8433 7.29006C20.9344 7.16225 21.0155 7.02677 21.0666 6.86682L20.114 6.56249C20.1071 6.58401 20.0903 6.6236 20.0289 6.7098C19.9645 6.80007 19.8736 6.91167 19.7314 7.08546L20.5053 7.71869ZM20.4921 7.73427L20.4921 7.73426L19.7447 7.06989L19.7446 7.06991L20.4921 7.73427ZM19.7925 8.70715C19.795 8.68866 19.8123 8.61952 19.9365 8.4408C20.058 8.26606 20.2388 8.04447 20.5053 7.71871L19.7314 7.08547C19.4755 7.39817 19.2646 7.65543 19.1154 7.8701C18.9689 8.08079 18.8368 8.31162 18.8015 8.57382L19.7925 8.70715ZM19.9848 9.17136C19.842 9.0624 19.7686 8.8852 19.7925 8.70715L18.8015 8.57382C18.7296 9.10794 18.9498 9.63956 19.3783 9.96643L19.9848 9.17136ZM21.188 9.36631C20.7691 9.32442 20.4845 9.29559 20.275 9.25789C20.0608 9.21934 19.9997 9.18267 19.9848 9.17136L19.3783 9.96643C19.5887 10.1269 19.8454 10.1966 20.0979 10.2421C20.3553 10.2884 20.6864 10.3211 21.0885 10.3613L21.188 9.36631ZM22.1878 9.57195C22.0385 9.49493 21.8852 9.45647 21.7304 9.43047C21.5805 9.40529 21.3984 9.38734 21.188 9.36631L21.0885 10.3613C21.3121 10.3837 21.4554 10.3983 21.5648 10.4167C21.6693 10.4342 21.7092 10.4503 21.7293 10.4606L22.1878 9.57195ZM22.8949 10.3533C22.7614 10.0159 22.5102 9.73831 22.1878 9.57195L21.7293 10.4606C21.8367 10.5161 21.9205 10.6086 21.965 10.7211L22.8949 10.3533ZM23 11.3684C23 11.157 23.0003 10.9741 22.9901 10.8224C22.9797 10.6658 22.9566 10.5095 22.8949 10.3533L21.965 10.7211C21.9733 10.7421 21.9853 10.7834 21.9923 10.8891C21.9997 10.9997 22 11.1438 22 11.3684H23ZM23 12.6322V11.3684H22V12.6322H23ZM22.8951 13.6461C22.9567 13.49 22.9797 13.3339 22.9902 13.1775C23.0003 13.026 23 12.8433 23 12.6322H22C22 12.8565 21.9997 13.0004 21.9924 13.1109C21.9853 13.2164 21.9733 13.2577 21.965 13.2787L22.8951 13.6461ZM22.1872 14.4284C22.5101 14.2619 22.7616 13.984 22.8951 13.6461L21.965 13.2787C21.9205 13.3913 21.8367 13.484 21.729 13.5395L22.1872 14.4284ZM21.1887 14.6336C21.3988 14.6126 21.5806 14.5947 21.7303 14.5696C21.885 14.5436 22.038 14.5052 22.1871 14.4284L21.729 13.5395C21.709 13.5498 21.6691 13.5658 21.5648 13.5834C21.4556 13.6017 21.3125 13.6163 21.0892 13.6386L21.1887 14.6336ZM19.9867 14.8283C20.0016 14.817 20.0626 14.7804 20.2767 14.7419C20.4859 14.7043 20.7703 14.6755 21.1887 14.6336L21.0892 13.6386C20.6875 13.6788 20.3567 13.7115 20.0996 13.7577C19.8473 13.8031 19.5908 13.8727 19.3806 14.033L19.9867 14.8283ZM19.7943 15.2929C19.7703 15.1147 19.8437 14.9373 19.9867 14.8283L19.3806 14.033C18.9516 14.3599 18.7311 14.8921 18.8033 15.4267L19.7943 15.2929ZM20.5068 16.2808C20.2404 15.9552 20.0597 15.7337 19.9383 15.5591C19.8141 15.3804 19.7968 15.3114 19.7943 15.2929L18.8033 15.4267C18.8387 15.6887 18.9708 15.9193 19.1172 16.1299C19.2663 16.3444 19.4771 16.6015 19.7328 16.914L20.5068 16.2808ZM21.068 17.1326C21.0169 16.9727 20.9358 16.8372 20.8448 16.7094C20.7566 16.5857 20.6406 16.4443 20.5068 16.2808L19.7328 16.914C19.875 17.0878 19.966 17.1994 20.0303 17.2897C20.0918 17.3759 20.1086 17.4155 20.1155 17.437L21.068 17.1326ZM21.0155 18.1857C21.1599 17.8526 21.1786 17.4784 21.068 17.1326L20.1155 17.437C20.1523 17.5523 20.1461 17.677 20.098 17.7881L21.0155 18.1857ZM20.3724 18.9774C20.5218 18.828 20.6512 18.6989 20.7513 18.5846C20.8546 18.4665 20.9488 18.3398 21.0155 18.1857L20.098 17.7881C20.089 17.8088 20.0683 17.8465 19.9986 17.9261C19.9257 18.0095 19.8241 18.1115 19.6653 18.2702L20.3724 18.9774ZM19.4791 19.8706L20.3724 18.9774L19.6653 18.2702L18.772 19.1635L19.4791 19.8706ZM18.6866 20.5143C18.8408 20.4476 18.9677 20.3533 19.0859 20.2499C19.2004 20.1498 19.3296 20.0202 19.4791 19.8706L18.772 19.1635C18.6131 19.3225 18.511 19.4242 18.4275 19.4972C18.3478 19.5669 18.3101 19.5877 18.2893 19.5966L18.6866 20.5143ZM17.6346 20.5668C17.9801 20.6771 18.3538 20.6584 18.6866 20.5143L18.2893 19.5966C18.1784 19.6447 18.0538 19.6509 17.9386 19.6141L17.6346 20.5668ZM16.782 20.0052C16.9456 20.1391 17.0871 20.2552 17.211 20.3434C17.3389 20.4345 17.4745 20.5157 17.6346 20.5668L17.9386 19.6141C17.9171 19.6073 17.8775 19.5904 17.7912 19.5289C17.7009 19.4646 17.5892 19.3735 17.4152 19.2312L16.782 20.0052ZM15.7927 19.2918C15.8112 19.2943 15.8804 19.3116 16.0593 19.4359C16.2342 19.5574 16.4559 19.7384 16.782 20.0052L17.4152 19.2312C17.1022 18.9751 16.8448 18.764 16.6299 18.6147C16.419 18.4682 16.188 18.3359 15.9256 18.3007L15.7927 19.2918ZM15.3288 19.484C15.4378 19.3413 15.6148 19.268 15.7927 19.2918L15.9256 18.3007C15.3919 18.2292 14.8608 18.4491 14.5341 18.8771L15.3288 19.484ZM15.1337 20.6879C15.1756 20.2687 15.2045 19.9839 15.2422 19.7743C15.2808 19.56 15.3175 19.4988 15.3288 19.484L14.5341 18.8771C14.3734 19.0875 14.3035 19.3444 14.258 19.5972C14.2117 19.8547 14.1789 20.186 14.1387 20.5884L15.1337 20.6879ZM14.9279 21.688C15.005 21.5387 15.0435 21.3854 15.0695 21.2305C15.0947 21.0805 15.1127 20.8983 15.1337 20.6879L14.1387 20.5884C14.1163 20.8121 14.1017 20.9554 14.0833 21.0648C14.0658 21.1693 14.0497 21.2092 14.0393 21.2293L14.9279 21.688ZM14.147 22.3948C14.4842 22.2613 14.7616 22.0102 14.9279 21.688L14.0393 21.2293C13.9839 21.3367 13.8914 21.4204 13.779 21.4649L14.147 22.3948ZM13.1314 22.5C13.3428 22.5 13.5259 22.5003 13.6776 22.4901C13.8343 22.4796 13.9907 22.4566 14.147 22.3948L13.779 21.4649C13.758 21.4732 13.7166 21.4853 13.6109 21.4923C13.5002 21.4997 13.3561 21.5 13.1314 21.5V22.5ZM11.8684 22.5H13.1314V21.5H11.8684V22.5ZM10.8533 22.3949C11.0095 22.4566 11.1658 22.4797 11.3224 22.4901C11.4741 22.5003 11.657 22.5 11.8684 22.5V21.5C11.6437 21.5 11.4997 21.4997 11.3891 21.4924C11.2834 21.4853 11.2421 21.4733 11.2211 21.465L10.8533 22.3949ZM10.0719 21.6877C10.2383 22.0102 10.5159 22.2614 10.8533 22.3949L11.2211 21.465C11.1086 21.4205 11.0161 21.3367 10.9606 21.2292L10.0719 21.6877ZM9.86632 20.6882C9.88735 20.8985 9.9053 21.0805 9.93047 21.2304C9.95647 21.3853 9.99492 21.5385 10.0719 21.6877L10.9606 21.2292C10.9503 21.2092 10.9342 21.1692 10.9167 21.0648C10.8983 20.9555 10.8837 20.8122 10.8614 20.5887L9.86632 20.6882ZM9.67131 19.4848C9.68264 19.4997 9.71932 19.5608 9.75789 19.7751C9.79559 19.9846 9.82443 20.2692 9.86632 20.6882L10.8614 20.5887C10.8211 20.1865 10.7884 19.8553 10.7421 19.5979C10.6966 19.3454 10.6268 19.0886 10.4663 18.8782L9.67131 19.4848ZM9.20725 19.2926C9.38523 19.2687 9.56237 19.3421 9.67131 19.4848L10.4663 18.8782C10.1394 18.4499 9.60804 18.2298 9.0741 18.3015L9.20725 19.2926ZM8.21839 20.0057C8.54429 19.739 8.76597 19.5581 8.94079 19.4366C9.11959 19.3124 9.18876 19.2951 9.20725 19.2926L9.0741 18.3015C8.81179 18.3368 8.58087 18.469 8.37011 18.6155C8.15535 18.7647 7.89799 18.9758 7.58515 19.2317L8.21839 20.0057ZM7.36602 20.5672C7.52607 20.5161 7.66162 20.4349 7.7895 20.3438C7.91333 20.2556 8.05478 20.1395 8.21839 20.0057L7.58515 19.2317C7.41126 19.374 7.29959 19.465 7.20927 19.5294C7.12301 19.5908 7.0834 19.6077 7.06187 19.6146L7.36602 20.5672ZM6.31366 20.5147C6.64656 20.6589 7.02043 20.6775 7.36602 20.5672L7.06188 19.6146C6.94668 19.6514 6.82205 19.6451 6.71109 19.5971L6.31366 20.5147ZM5.52143 19.8712C5.6709 20.0207 5.80009 20.1502 5.91452 20.2503C6.0327 20.3537 6.1595 20.4479 6.31366 20.5147L6.71109 19.5971C6.69035 19.5881 6.65262 19.5674 6.57291 19.4977C6.48945 19.4246 6.3874 19.323 6.22854 19.1641L5.52143 19.8712ZM4.62814 18.9779L5.52143 19.8712L6.22854 19.1641L5.33525 18.2708L4.62814 18.9779ZM4.60539 18.9536L4.6054 18.9536L5.35798 18.2951L5.35797 18.2951L4.60539 18.9536ZM3.98486 18.186C4.05162 18.3401 4.14583 18.4669 4.24917 18.585C4.34922 18.6994 4.47873 18.8285 4.62813 18.9779L5.33524 18.2708C5.17644 18.112 5.0748 18.01 5.00182 17.9266C4.93213 17.8469 4.91141 17.8092 4.90243 17.7885L3.98486 18.186ZM3.93235 17.1332C3.82191 17.479 3.84057 17.853 3.98486 18.186L4.90243 17.7885C4.85434 17.6775 4.84812 17.5528 4.88493 17.4375L3.93235 17.1332ZM4.49372 16.2812C4.3599 16.4447 4.24386 16.5861 4.15567 16.7099C4.06459 16.8378 3.98345 16.9733 3.93235 17.1332L4.88493 17.4375C4.8918 17.416 4.90866 17.3764 4.9701 17.2902C5.03444 17.1999 5.12544 17.0883 5.26768 16.9144L4.49372 16.2812ZM5.20647 15.2928C5.20398 15.3113 5.18669 15.3804 5.06248 15.5591C4.94104 15.7339 4.76023 15.9554 4.49372 16.2812L5.26768 16.9144C5.52351 16.6017 5.73444 16.3445 5.88362 16.1299C6.03002 15.9192 6.16221 15.6885 6.19752 15.4263L5.20647 15.2928ZM5.01414 14.8285C5.15703 14.9375 5.23046 15.1147 5.20647 15.2928L6.19752 15.4263C6.26949 14.892 6.04921 14.3602 5.62052 14.0333L5.01414 14.8285ZM3.81153 14.6336C4.23022 14.6755 4.51469 14.7043 4.72406 14.742C4.93821 14.7805 4.99931 14.8172 5.01414 14.8285L5.62053 14.0333C5.41021 13.8729 5.15359 13.8032 4.90115 13.7578C4.64393 13.7115 4.31295 13.6788 3.91104 13.6386L3.81153 14.6336ZM3.86128 14.6361H3.86128V13.6361H3.86128V14.6361ZM2.81258 14.4282C2.96178 14.5052 3.11489 14.5436 3.26962 14.5695C3.41943 14.5947 3.60137 14.6126 3.81152 14.6336L3.91103 13.6386C3.68766 13.6163 3.54446 13.6017 3.43519 13.5833C3.33083 13.5658 3.29093 13.5498 3.27086 13.5394L2.81258 14.4282ZM2.105 13.6464C2.23846 13.984 2.48987 14.2618 2.81258 14.4282L3.27086 13.5394C3.16329 13.484 3.07949 13.3914 3.035 13.2788L2.105 13.6464ZM2 12.6319C2 12.8431 1.99974 13.026 2.00986 13.1775C2.02031 13.3341 2.0433 13.4902 2.105 13.6464L3.035 13.2788C3.0267 13.2578 3.01469 13.2165 3.00764 13.1109C3.00026 13.0004 3 12.8564 3 12.6319H2ZM2 11.3686V12.6319H3V11.3686H2ZM2.10526 10.353C2.04341 10.5093 2.02036 10.6656 2.00988 10.8224C1.99974 10.9741 2 11.1572 2 11.3686H3C3 11.1439 3.00026 10.9998 3.00766 10.8891C3.01472 10.7834 3.02677 10.742 3.03509 10.721L2.10526 10.353ZM2.81196 9.57209C2.48975 9.73842 2.2387 10.0158 2.10526 10.353L3.03509 10.721C3.07957 10.6086 3.16325 10.5161 3.27065 10.4607L2.81196 9.57209ZM3.81228 9.36628C3.6018 9.38733 3.41959 9.40529 3.26958 9.43048C3.11465 9.4565 2.96133 9.49499 2.81196 9.57209L3.27066 10.4607C3.29074 10.4503 3.33069 10.4342 3.43521 10.4167C3.54465 10.3983 3.68808 10.3837 3.91178 10.3613L3.81228 9.36628ZM5.01601 9.17122C5.00118 9.18254 4.94005 9.21923 4.72568 9.25781C4.51612 9.29552 4.23136 9.32437 3.81228 9.36628L3.91178 10.3613C4.31408 10.3211 4.64537 10.2883 4.9028 10.242C5.15543 10.1965 5.41226 10.1268 5.62267 9.96618L5.01601 9.17122ZM5.20823 8.70717C5.23214 8.88515 5.15877 9.06228 5.01601 9.17122L5.62267 9.96618C6.05094 9.63935 6.27105 9.10796 6.19932 8.57403L5.20823 8.70717ZM4.49523 7.71838C4.76185 8.04425 4.94274 8.26592 5.06422 8.44072C5.18846 8.61951 5.20574 8.68867 5.20823 8.70717L6.19932 8.57403C6.16408 8.31172 6.03186 8.08081 5.88539 7.87005C5.73616 7.6553 5.52512 7.39796 5.26919 7.08514L4.49523 7.71838ZM4.4822 7.70176L4.48221 7.70176L5.28221 7.10176L5.2822 7.10176L4.4822 7.70176ZM4.52865 7.75531L4.52865 7.75531L5.23576 7.0482L5.23575 7.0482L4.52865 7.75531ZM3.93382 6.86618C3.98492 7.0262 4.06606 7.16172 4.15715 7.28958C4.24535 7.41338 4.36139 7.5548 4.49522 7.71837L5.26918 7.08513C5.12694 6.91128 5.03593 6.79964 4.9716 6.70934C4.91016 6.62311 4.8933 6.58351 4.88643 6.56198L3.93382 6.86618ZM3.98631 5.81366C3.84209 6.14661 3.82344 6.52054 3.93382 6.86618L4.88643 6.56198C4.84963 6.44677 4.85585 6.32212 4.90392 6.21114L3.98631 5.81366ZM4.62973 5.02156C4.48029 5.171 4.35075 5.30018 4.25067 5.41459C4.14731 5.53275 4.05308 5.65953 3.98631 5.81366L4.90392 6.21114C4.91291 6.19041 4.93362 6.15268 5.00334 6.07299C5.07634 5.98954 5.178 5.8875 5.33684 5.72867L4.62973 5.02156ZM5.52335 4.12795L4.62973 5.02156L5.33684 5.72867L6.23045 4.83505L5.52335 4.12795ZM6.31453 3.48513C6.16059 3.55188 6.03396 3.64603 5.91594 3.74929C5.80166 3.84927 5.67262 3.97867 5.52335 4.12795L6.23045 4.83505C6.38912 4.67639 6.49104 4.57483 6.57439 4.50191C6.654 4.43226 6.69168 4.41156 6.71239 4.40258L6.31453 3.48513ZM7.36819 3.43257C7.0222 3.32193 6.6478 3.3406 6.31453 3.48513L6.71239 4.40258C6.82348 4.3544 6.94827 4.34818 7.06361 4.38506L7.36819 3.43257ZM8.21942 3.99348C8.05603 3.8598 7.91476 3.74388 7.7911 3.65576C7.66338 3.56476 7.52801 3.48368 7.36819 3.43257L7.06361 4.38506C7.0851 4.39193 7.12466 4.40879 7.2108 4.47017C7.301 4.53444 7.41252 4.62535 7.58619 4.76744L8.21942 3.99348ZM8.23206 4.00418L8.23206 4.00417L7.57355 4.75675L7.57356 4.75676L8.23206 4.00418ZM9.20711 4.70578C9.18864 4.70329 9.11955 4.68599 8.94096 4.56186C8.76636 4.4405 8.54494 4.25981 8.21943 3.99349L7.58619 4.76745C7.89866 5.0231 8.15572 5.2339 8.37022 5.38299C8.58074 5.52931 8.81137 5.66144 9.07335 5.6968L9.20711 4.70578ZM9.67165 4.51336C9.56266 4.65636 9.38529 4.72983 9.20711 4.70578L9.07335 5.6968C9.6079 5.76894 10.14 5.54853 10.467 5.11954L9.67165 4.51336ZM9.86637 3.31131C9.82453 3.7298 9.79572 4.01413 9.75808 4.2234C9.71957 4.43746 9.68295 4.49854 9.67165 4.51336L10.467 5.11954C10.6272 4.90929 10.6969 4.65278 10.7423 4.40046C10.7885 4.14336 10.8212 3.81253 10.8614 3.41082L9.86637 3.31131ZM10.0717 2.31282C9.99479 2.46196 9.9564 2.61501 9.93044 2.76966C9.90531 2.9194 9.88738 3.10126 9.86637 3.31131L10.8614 3.41082C10.8837 3.18755 10.8983 3.04442 10.9166 2.9352C10.9342 2.83089 10.9502 2.791 10.9605 2.77094L10.0717 2.31282ZM10.8539 1.60491C10.516 1.73837 10.2381 1.98991 10.0717 2.31282L10.9605 2.77094C11.016 2.6633 11.1087 2.57946 11.2213 2.53497L10.8539 1.60491ZM11.8679 1.5C11.6567 1.5 11.474 1.49974 11.3225 1.50985C11.166 1.52029 11.0099 1.54326 10.8539 1.60491L11.2213 2.53497C11.2423 2.52668 11.2836 2.51468 11.3891 2.50763C11.4996 2.50026 11.6435 2.5 11.8679 2.5V1.5ZM13.1319 1.5H11.8679V2.5H13.1319V1.5ZM14.1464 1.60502C13.9903 1.54331 13.8341 1.52032 13.6775 1.50986C13.526 1.49974 13.3431 1.5 13.1319 1.5V2.5C13.3564 2.5 13.5003 2.50026 13.6109 2.50764C13.7165 2.51469 13.7578 2.5267 13.7788 2.53501L14.1464 1.60502ZM14.9282 2.31255C14.7618 1.98986 14.484 1.73847 14.1464 1.60502L13.7788 2.53501C13.8914 2.57949 13.9839 2.66329 14.0394 2.77085L14.9282 2.31255ZM15.1337 3.3116C15.1126 3.10142 15.0947 2.91945 15.0695 2.76963C15.0436 2.61489 15.0051 2.46176 14.9282 2.31255L14.0394 2.77085C14.0498 2.79092 14.0658 2.83082 14.0833 2.9352C14.1017 3.04449 14.1163 3.18771 14.1386 3.41111L15.1337 3.3116ZM16 12C16 13.933 14.433 15.5 12.5 15.5V16.5C14.9853 16.5 17 14.4853 17 12H16ZM12.5 8.5C14.433 8.5 16 10.067 16 12H17C17 9.51472 14.9853 7.5 12.5 7.5V8.5ZM9 12C9 10.067 10.567 8.5 12.5 8.5V7.5C10.0147 7.5 8 9.51472 8 12H9ZM12.5 15.5C10.567 15.5 9 13.933 9 12H8C8 14.4853 10.0147 16.5 12.5 16.5V15.5Z" fill="#222222"/>
</g>
</svg>
