<svg width="162" height="138" viewBox="0 0 162 138" fill="none" xmlns="http://www.w3.org/2000/svg">
<g id="freepik--Wallet--inject-295">
<path id="Vector" d="M152.947 0H13.2167C8.37865 0 4.45667 3.922 4.45667 8.76001V129.07C4.45667 133.908 8.37865 137.83 13.2167 137.83H152.947C157.785 137.83 161.707 133.908 161.707 129.07V8.76001C161.707 3.922 157.785 0 152.947 0Z" fill="#5500C3"/>
<g id="Group" opacity="0.3">
<path id="Vector_2" d="M4.45667 90.3799H61.7367C62.7975 90.3799 63.8149 89.9585 64.5651 89.2083C65.3152 88.4582 65.7367 87.4407 65.7367 86.3799H4.61666L4.45667 90.3799Z" fill="black"/>
</g>
<path id="Vector_3" d="M63.0967 51.1201H5.23671C2.4808 51.1201 0.246704 53.3542 0.246704 56.1101V81.9001C0.246704 84.656 2.4808 86.8901 5.23671 86.8901H63.0967C65.8526 86.8901 68.0867 84.656 68.0867 81.9001V56.1101C68.0867 53.3542 65.8526 51.1201 63.0967 51.1201Z" fill="#5500C3"/>
<path id="Vector_4" d="M63.0967 86.91C63.7639 86.8691 64.4196 86.717 65.0367 86.46C65.7878 86.1213 66.4489 85.6109 66.9667 84.97C67.6282 84.0881 67.9798 83.0123 67.9667 81.91C67.9667 76.91 67.9167 69.6 67.8867 60.63C67.8867 59.51 67.8867 58.36 67.8867 57.18C67.9022 56.5959 67.8821 56.0115 67.8267 55.43C67.7485 54.8503 67.5619 54.2906 67.2767 53.78C66.6888 52.7199 65.7201 51.9228 64.5667 51.55C63.9704 51.3716 63.3485 51.2939 62.7267 51.32H60.7267H43.8567H5.20667C4.40188 51.3268 3.61214 51.5388 2.91219 51.9361C2.21223 52.3333 1.62521 52.9025 1.20667 53.59C0.780816 54.2721 0.54597 55.0561 0.526667 55.86C0.526667 56.68 0.526667 57.54 0.526667 58.37C0.526667 61.7033 0.526667 64.99 0.526667 68.23V77.75C0.526667 79.29 0.526667 80.87 0.526667 82.34C0.593467 83.0619 0.82466 83.7591 1.20253 84.3779C1.5804 84.9967 2.09493 85.5208 2.70667 85.91C3.31429 86.2846 3.99727 86.5203 4.70667 86.6C5.38667 86.67 6.14667 86.6 6.86667 86.6H19.3067H34.0067L55.2867 86.69H61.0767H62.5767H63.0967C63.0967 86.69 62.9167 86.69 62.5767 86.69H61.0767L55.2867 86.74L33.9667 87.07H19.2667H11.0767H6.83666C6.09666 87.07 5.40666 87.07 4.62667 87.07C3.85409 86.9821 3.11184 86.7187 2.45667 86.3C1.78467 85.8814 1.21668 85.3155 0.795687 84.645C0.374691 83.9745 0.11172 83.2171 0.0266667 82.43C-0.0333333 80.86 0.0266667 79.36 0.0266667 77.79C0.0266667 74.68 0.0266667 71.5 0.0266667 68.27V58.41C0.0266667 57.57 0.0266667 56.74 0.0266667 55.88C0.053965 54.9892 0.312421 54.1208 0.776667 53.36C1.2528 52.6083 1.9115 51.9894 2.69137 51.561C3.47124 51.1326 4.34688 50.9086 5.23667 50.91H43.8867H60.7567H62.7567C63.4327 50.8799 64.1089 50.9645 64.7567 51.16C66.0108 51.5708 67.0618 52.443 67.6967 53.6C67.9982 54.1524 68.1948 54.7559 68.2767 55.38C68.336 55.9814 68.356 56.586 68.3367 57.19C68.3367 58.37 68.3367 59.52 68.3367 60.64C68.3367 69.64 68.2667 76.88 68.2467 81.93C68.2513 83.1848 67.784 84.3955 66.9374 85.3218C66.0908 86.248 64.9269 86.8221 63.6767 86.93L63.0967 86.91Z" fill="#263238"/>
<g id="Group_2" opacity="0.3">
<path id="Vector_5" d="M51.3567 82.9201C56.9016 82.9201 61.3967 78.425 61.3967 72.8801C61.3967 67.3352 56.9016 62.8401 51.3567 62.8401C45.8117 62.8401 41.3167 67.3352 41.3167 72.8801C41.3167 78.425 45.8117 82.9201 51.3567 82.9201Z" fill="black"/>
</g>
<path id="Vector_6" d="M58.457 76.479C62.3779 72.5581 62.3779 66.2012 58.457 62.2803C54.5361 58.3594 48.1792 58.3594 44.2583 62.2803C40.3374 66.2011 40.3374 72.5581 44.2583 76.479C48.1792 80.3999 54.5361 80.3999 58.457 76.479Z" fill="#EBEBEB"/>
<path id="Vector_7" d="M61.4066 69.3799C61.3366 69.3799 61.4066 68.4899 60.9866 66.9499C60.4045 64.7914 59.1159 62.8902 57.3266 61.55C56.0139 60.5596 54.4734 59.9151 52.8466 59.6757C51.2198 59.4364 49.5589 59.6097 48.0166 60.1799C47.1304 60.4951 46.2975 60.9436 45.5466 61.5099C44.7482 62.0901 44.0491 62.796 43.4766 63.5999C42.2428 65.2764 41.5774 67.3034 41.5774 69.3849C41.5774 71.4665 42.2428 73.4935 43.4766 75.1699C44.6235 76.7288 46.2018 77.9177 48.0166 78.5899C49.3124 79.0642 50.6929 79.2629 52.0699 79.1734C53.4468 79.0838 54.79 78.708 56.0134 78.0699C57.2369 77.4319 58.3138 76.5455 59.1753 75.4676C60.0368 74.3897 60.6639 73.144 61.0166 71.8099C61.1976 71.0076 61.3378 70.1965 61.4366 69.3799C61.4931 70.213 61.4189 71.0498 61.2166 71.86C60.6961 74.1088 59.4092 76.1064 57.5766 77.5099C56.3206 78.4894 54.8505 79.1576 53.2866 79.4599C51.4814 79.8047 49.6168 79.6597 47.8866 79.0399C46.9506 78.713 46.0703 78.2442 45.2766 77.6499C44.4395 77.0428 43.7037 76.3071 43.0966 75.4699C41.7919 73.7094 41.0876 71.5762 41.0876 69.3849C41.0876 67.1937 41.7919 65.0605 43.0966 63.3C43.7009 62.4605 44.4371 61.7243 45.2766 61.1199C46.0699 60.5225 46.9501 60.0504 47.8866 59.7199C49.6177 59.1036 51.4823 58.962 53.2866 59.3099C55.2008 59.6766 56.968 60.5892 58.375 61.9377C59.7821 63.2862 60.769 65.0131 61.2166 66.9099C61.4078 67.7184 61.4719 68.5517 61.4066 69.3799Z" fill="#263238"/>
</g>
</svg>
