<svg width="301" height="123" viewBox="0 0 301 123" fill="none" xmlns="http://www.w3.org/2000/svg">
<g clip-path="url(#clip0_10349_47450)">
<rect x="0.727539" width="300.272" height="122.839" rx="12.7957" fill="white"/>
<rect x="0.727539" width="300.272" height="122.839" rx="12.7957" fill="url(#paint0_linear_10349_47450)"/>
<g opacity="0.1">
<path d="M205.321 13.7787C214.802 3.97544 214.802 -11.9188 205.321 -21.7221C195.84 -31.5254 180.469 -31.5254 170.988 -21.7221C161.507 -11.9188 161.507 3.97545 170.988 13.7787C180.469 23.582 195.84 23.582 205.321 13.7787Z" fill="#E69148"/>
<path d="M203.009 11.3762C211.208 2.89763 211.208 -10.8488 203.009 -19.3274C194.809 -27.8059 181.515 -27.8059 173.315 -19.3273C165.116 -10.8488 165.116 2.89763 173.315 11.3762C181.515 19.8547 194.809 19.8547 203.009 11.3762Z" fill="#EDCB4D"/>
<path d="M181.072 -6.68997C182.312 -7.21018 184.198 -7.33897 186.733 -7.07636C187.263 -7.02065 187.988 -6.93198 188.906 -6.81178C191.896 -6.41966 193.685 -6.78384 194.277 -7.90253C194.659 -8.62498 194.71 -9.33846 194.431 -10.0434C194.15 -10.7486 193.575 -11.3474 192.703 -11.8404C191.804 -12.349 190.928 -12.5516 190.078 -12.4477C189.227 -12.3434 188.315 -11.9237 187.341 -11.1887L184.424 -14.6324C185.832 -15.9061 187.356 -16.6067 188.996 -16.7342C190.071 -16.8171 191.186 -16.6502 192.338 -16.2367L193.881 -19.1543L197.436 -17.1439L195.888 -14.2166C197.042 -13.2579 197.863 -12.1381 198.349 -10.8566C199.048 -9.01405 198.926 -7.20265 197.983 -5.4208C197.428 -4.37126 196.716 -3.55261 195.844 -2.96523C194.975 -2.37696 193.99 -2.0461 192.895 -1.9714C191.778 -1.88291 189.961 -2.03517 187.446 -2.42909C187.083 -2.49322 186.801 -2.53674 186.601 -2.56003C185.163 -2.78108 184.094 -2.79183 183.39 -2.59102C182.688 -2.39111 182.155 -1.949 181.794 -1.26596C181.339 -0.404686 181.288 0.454077 181.643 1.3107C181.999 2.16785 182.713 2.89961 183.785 3.50562C184.733 4.04159 185.696 4.23667 186.675 4.08924C187.655 3.94217 188.738 3.43952 189.926 2.58058L192.687 6.32162C191.066 7.66853 189.338 8.40172 187.503 8.52084C186.393 8.59321 185.26 8.43915 184.104 8.0619L182.443 11.2025L178.888 9.19206L180.48 6.18153C178.964 5.07071 177.937 3.76769 177.405 2.26995C176.731 0.371672 176.932 -1.59772 178.011 -3.63699C178.812 -5.15138 179.833 -6.16887 181.072 -6.68997Z" fill="#E69148"/>
<g opacity="0.2">
<path d="M181.897 -24.7021C180.035 -6.46218 192.853 7.34136 200.309 13.7261C193.964 18.3791 185.356 19.1902 178.072 15.071C167.898 9.31738 164.162 -3.87494 169.726 -14.3948C172.445 -19.5357 176.883 -23.086 181.897 -24.7021Z" fill="#E69148"/>
</g>
<path d="M188.845 21.2657C184.552 21.4022 180.286 20.3563 176.419 18.1692C176.351 18.1311 176.326 18.0433 176.363 17.9736C176.4 17.903 176.486 17.8781 176.553 17.9163C182.209 21.1149 188.732 21.8449 194.92 19.971C201.107 18.097 206.219 13.8438 209.313 7.99477C215.699 -4.07958 211.395 -19.2753 199.718 -25.8795C199.65 -25.9176 199.625 -26.0054 199.662 -26.0749C199.699 -26.1455 199.785 -26.17 199.852 -26.1322C211.664 -19.4521 216.018 -4.08048 209.557 8.13305C206.428 14.0499 201.257 18.3525 194.998 20.2479C192.969 20.8621 190.904 21.2002 188.845 21.2657Z" fill="#21111D"/>
<path d="M178.118 15.2148C178.093 15.2155 178.069 15.2098 178.046 15.1971C167.821 9.41465 164.052 -3.8916 169.645 -14.4643C175.237 -25.0375 188.106 -28.9349 198.33 -23.1517C198.398 -23.1136 198.423 -23.0258 198.386 -22.9563C198.349 -22.8857 198.263 -22.8612 198.197 -22.899C193.309 -25.6632 187.672 -26.2941 182.326 -24.6746C176.979 -23.0552 172.563 -19.3802 169.889 -14.3262C164.371 -3.89286 168.09 9.23767 178.18 14.9442C178.248 14.9823 178.273 15.0701 178.235 15.1398C178.211 15.1865 178.165 15.2132 178.118 15.2148Z" fill="#21111D"/>
<path d="M178.878 9.33336C178.853 9.33408 178.829 9.32835 178.806 9.31563C178.739 9.27747 178.714 9.1897 178.751 9.12002L180.284 6.22163C178.804 5.11261 177.786 3.79955 177.259 2.31686C176.573 0.385796 176.78 -1.64182 177.874 -3.70903C177.911 -3.7796 177.997 -3.80451 178.063 -3.76635C178.131 -3.72819 178.156 -3.64042 178.119 -3.57091C177.066 -1.57966 176.864 0.367523 177.521 2.21708C178.04 3.67756 179.058 4.97073 180.546 6.06094L180.647 6.13493L178.996 9.25794C178.971 9.30505 178.925 9.33193 178.878 9.33336Z" fill="#21111D"/>
<path d="M187.236 8.67969C186.201 8.71265 185.134 8.55179 184.059 8.20105C183.985 8.17722 183.944 8.09625 183.968 8.02012C183.991 7.94417 184.069 7.90172 184.143 7.92608C185.279 8.29689 186.401 8.45005 187.491 8.37857C189.248 8.26428 190.93 7.56477 192.49 6.29847L189.893 2.7792C188.735 3.59928 187.658 4.08848 186.692 4.23358C185.686 4.38316 184.685 4.18307 183.715 3.63349C182.62 3.0144 181.878 2.25272 181.511 1.36887C181.14 0.47338 181.193 -0.4359 181.668 -1.33372C182.047 -2.04936 182.612 -2.51887 183.35 -2.72882C183.425 -2.74817 183.501 -2.70463 183.521 -2.62796C183.542 -2.55111 183.498 -2.47158 183.424 -2.45044C182.762 -2.26199 182.254 -1.8396 181.913 -1.19543C181.475 -0.367476 181.427 0.43415 181.768 1.25548C182.109 2.07806 182.809 2.79317 183.848 3.38073C184.765 3.8995 185.708 4.08956 186.652 3.94804C187.605 3.80492 188.679 3.30568 189.843 2.46428L189.952 2.38492L192.877 6.34755L192.771 6.43568C191.135 7.79531 189.364 8.5457 187.508 8.66661C187.417 8.67217 187.327 8.67682 187.236 8.67969Z" fill="#21111D"/>
<path d="M177.342 117.547C177.342 117.547 205.192 113.018 222.956 144.869C222.956 144.869 181.046 149.51 177.342 117.547Z" fill="#E69148"/>
<path d="M181.115 120.421H153.776H150.583H123.244L112.275 178.172H150.583H153.776H192.085L181.115 120.421Z" fill="#4D35AD"/>
<path d="M152.257 144.392C191.196 144.392 222.762 111.752 222.762 71.488C222.762 31.2244 191.196 -1.41577 152.257 -1.41577C113.319 -1.41577 81.7528 31.2244 81.7528 71.488C81.7528 111.752 113.319 144.392 152.257 144.392Z" fill="#EDF8FF"/>
<path d="M152.244 138.938C188.273 138.938 217.48 108.737 217.48 71.4829C217.48 34.2284 188.273 4.02759 152.244 4.02759C116.216 4.02759 87.0085 34.2284 87.0085 71.4829C87.0085 108.737 116.216 138.938 152.244 138.938Z" fill="#7F62D6"/>
<path d="M196.436 21.8505C183.419 9.47181 165.609 2.57461 146.603 4.28588L152.257 71.4345L196.436 21.8505Z" fill="#C84D71"/>
<g opacity="0.5">
<path d="M108.084 121.1C121.101 133.479 138.911 140.376 157.918 138.664L152.263 71.5159L108.084 121.1Z" fill="#4D35AD"/>
</g>
<g opacity="0.5">
<path d="M217.244 65.6438L152.304 71.4907L200.257 117.172C212.228 103.713 218.899 85.2966 217.244 65.6438Z" fill="#4D35AD"/>
</g>
<g opacity="0.5">
<path d="M104.261 25.7874C92.2897 39.2466 85.6194 57.663 87.2743 77.3158L152.214 71.4689L104.261 25.7874Z" fill="#4D35AD"/>
</g>
<path d="M158.932 57.2735C159.213 57.247 159.439 57.1596 159.612 57.0116C159.785 56.8636 159.914 56.6455 159.998 56.3571C160.101 56.0065 160.075 55.7285 159.92 55.5228C159.766 55.3174 159.427 55.1329 158.904 54.9695L153.685 53.3387L153.882 52.6653L159.23 54.3362C159.835 54.5254 160.246 54.805 160.463 55.175C160.68 55.545 160.706 56.0135 160.54 56.5803C160.426 56.9702 160.248 57.274 160.006 57.4917C159.765 57.7095 159.447 57.8517 159.054 57.9184L158.932 57.2735Z" fill="white"/>
<path d="M161.207 53.8213L154.842 49.3487L155.106 48.4442L162.802 48.3652L162.599 49.0583L160.081 49.0655L159.305 51.7197L161.398 53.1676L161.207 53.8213ZM158.791 51.3659L159.465 49.0606L155.422 49.0474L158.791 51.3659Z" fill="white"/>
<path d="M162.398 41.7849C163.103 42.1878 163.581 42.6509 163.831 43.1741C164.081 43.6976 164.108 44.2933 163.913 44.9619C163.656 45.84 163.138 46.4173 162.356 46.6936C161.575 46.9698 160.592 46.9229 159.407 46.5524C158.26 46.194 157.446 45.6795 156.966 45.0092C156.486 44.3389 156.374 43.5645 156.631 42.6863C156.812 42.0671 157.125 41.6115 157.569 41.3195C158.015 41.0277 158.608 40.8903 159.35 40.9077L159.31 41.5766C158.711 41.5898 158.239 41.7041 157.892 41.9195C157.546 42.1348 157.308 42.4621 157.18 42.9011C156.993 43.5401 157.115 44.1164 157.544 44.6294C157.973 45.1426 158.677 45.5523 159.657 45.8583C160.633 46.1633 161.446 46.2189 162.095 46.0249C162.745 45.831 163.165 45.4081 163.356 44.7559C163.498 44.271 163.465 43.8298 163.258 43.4324C163.05 43.0351 162.663 42.6709 162.096 42.3399L162.398 41.7849Z" fill="white"/>
<path d="M164.915 41.1494L157.885 38.9525L158.082 38.2791L161.88 39.4659L159.031 35.03L159.281 34.1748L161.289 37.3503L166.395 36.0867L166.174 36.8437L161.677 37.9759L162.773 39.7453L165.112 40.4762L164.915 41.1494Z" fill="white"/>
<path d="M160.229 30.9497C160.481 30.0879 160.834 29.491 161.287 29.1587C161.741 28.8266 162.29 28.7614 162.937 28.9635C163.587 29.1664 164.016 29.5279 164.226 30.0474C164.435 30.5671 164.42 31.2365 164.181 32.0557L163.793 33.3827L166.906 34.3556L166.71 35.0289L159.679 32.832L160.229 30.9497ZM163.208 33.2002L163.643 31.7108C163.795 31.1931 163.792 30.7577 163.634 30.4042C163.476 30.051 163.175 29.805 162.731 29.6664C162.262 29.5199 161.871 29.5594 161.558 29.7852C161.245 30.011 160.999 30.4286 160.821 31.038L160.442 32.3357L163.208 33.2002Z" fill="white"/>
<path d="M164.774 28.5404C163.675 28.1968 162.871 27.6605 162.363 26.9312C161.855 26.2021 161.726 25.4098 161.976 24.5546C162.226 23.6993 162.757 23.1162 163.569 22.8049C164.381 22.4937 165.337 22.5098 166.436 22.8534C167.536 23.197 168.341 23.731 168.85 24.455C169.359 25.1793 169.489 25.9689 169.239 26.8243C168.989 27.6795 168.458 28.2652 167.644 28.5814C166.831 28.8979 165.874 28.8841 164.774 28.5404ZM164.981 27.8326C165.932 28.1296 166.737 28.1719 167.395 27.9594C168.054 27.7468 168.48 27.3095 168.674 26.6476C168.867 25.9857 168.747 25.3778 168.312 24.8235C167.877 24.2693 167.185 23.8437 166.234 23.5467C165.28 23.2486 164.474 23.2061 163.817 23.4191C163.16 23.6323 162.735 24.0697 162.541 24.7316C162.348 25.3935 162.468 26.0013 162.901 26.555C163.334 27.1087 164.027 27.5345 164.981 27.8326Z" fill="white"/>
<path d="M170.758 21.0916L164.293 19.0715L163.664 21.2243L163.098 21.0475L164.555 16.0635L165.12 16.2403L164.491 18.3931L170.956 20.4132L170.758 21.0916Z" fill="white"/>
<path d="M171.302 15.8419L172.219 16.1285L171.975 16.9642L171.058 16.6774L171.302 15.8419ZM169.966 15.6551L169.845 16.068L164.959 14.718L165.174 13.9807L169.966 15.6551Z" fill="white"/>
<path d="M152.263 144.559C142.722 144.559 133.468 142.627 124.755 138.817C116.34 135.136 108.783 129.867 102.293 123.157C95.8025 116.446 90.7072 108.631 87.1478 99.9295C83.4628 90.9206 81.5942 81.3509 81.5942 71.4864C81.5942 61.6216 83.4627 52.0519 87.1478 43.0431C90.7072 34.3416 95.8025 26.5269 102.293 19.8162C108.783 13.1053 116.34 7.83656 124.755 4.15607C133.468 0.345527 142.722 -1.58643 152.263 -1.58643C165.805 -1.58643 178.963 2.38587 190.315 9.90109L190.139 10.1856C178.84 2.70527 165.742 -1.24858 152.263 -1.24858C113.476 -1.24858 81.9208 31.3802 81.9208 71.4864C81.9208 111.593 113.476 144.221 152.263 144.221C177.01 144.221 199.482 131.159 212.375 109.279L212.654 109.455C206.457 119.972 197.724 128.771 187.4 134.9C176.757 141.219 164.607 144.559 152.263 144.559Z" fill="black"/>
<path d="M81.7695 75.1548C83.7559 75.1548 85.3662 73.4898 85.3662 71.4358C85.3662 69.3819 83.7559 67.7168 81.7695 67.7168C79.7831 67.7168 78.1729 69.3819 78.1729 71.4358C78.1729 73.4898 79.7831 75.1548 81.7695 75.1548Z" fill="#EDCB4D"/>
<path d="M223.001 75.157C224.987 75.157 226.597 73.492 226.597 71.438C226.597 69.3841 224.987 67.719 223.001 67.719C221.014 67.719 219.404 69.3841 219.404 71.438C219.404 73.492 221.014 75.157 223.001 75.157Z" fill="#EDCB4D"/>
<path d="M99.1795 27.3748C101.166 27.3748 102.776 25.7097 102.776 23.6558C102.776 21.6018 101.166 19.9368 99.1795 19.9368C97.1932 19.9368 95.5829 21.6018 95.5829 23.6558C95.5829 25.7097 97.1932 27.3748 99.1795 27.3748Z" fill="#EDCB4D"/>
<path d="M207.011 27.0876C208.846 26.3016 209.717 24.126 208.957 22.2284C208.197 20.3307 206.093 19.4296 204.258 20.2157C202.423 21.0017 201.551 23.1773 202.311 25.0749C203.072 26.9726 205.176 27.8737 207.011 27.0876Z" fill="#EDCB4D"/>
<path d="M207.5 122.409C209.19 121.329 209.713 119.037 208.669 117.29C207.625 115.543 205.409 115.002 203.719 116.081C202.029 117.161 201.506 119.453 202.55 121.2C203.594 122.947 205.81 123.489 207.5 122.409Z" fill="#EDCB4D"/>
<path d="M99.166 122.938C101.152 122.938 102.763 121.273 102.763 119.219C102.763 117.165 101.152 115.5 99.166 115.5C97.1796 115.5 95.5693 117.165 95.5693 119.219C95.5693 121.273 97.1796 122.938 99.166 122.938Z" fill="#EDCB4D"/>
<path d="M152.254 139.105C140.788 139.105 129.502 136.011 119.616 130.159C110.027 124.482 101.915 116.333 96.1587 106.593L96.4375 106.416C108.409 126.673 129.275 138.767 152.254 138.767C188.269 138.767 217.569 108.559 217.569 71.428C217.569 34.2972 188.269 4.08907 152.254 4.08907C139.738 4.08907 127.577 7.74967 117.085 14.675L116.909 14.3904C127.453 7.43027 139.676 3.75122 152.254 3.75122C161.116 3.75122 169.712 5.54059 177.805 9.06953C185.621 12.4781 192.641 17.3577 198.67 23.573C204.698 29.7882 209.431 37.0258 212.737 45.0847C216.16 53.4284 217.896 62.2914 217.896 71.4276C217.896 80.5638 216.16 89.4269 212.737 97.7706C209.431 105.83 204.698 113.067 198.67 119.282C192.641 125.498 185.622 130.377 177.805 133.786C169.712 137.315 161.116 139.105 152.254 139.105Z" fill="black"/>
<path d="M152.27 -6.80811H143.442L152.27 13.2325L161.097 -6.80811H152.27Z" fill="#D87830"/>
<path d="M117.912 23.2342L117.714 22.9653C122.646 19.0865 128.299 17.3512 128.356 17.3342L128.448 17.6583C128.392 17.6751 122.794 19.3945 117.912 23.2342Z" fill="black"/>
<path d="M120.051 25.5758L119.854 25.307C123.667 22.3075 128.039 20.9656 128.083 20.9524L128.175 21.2764C128.132 21.2895 123.815 22.6155 120.051 25.5758Z" fill="black"/>
<path d="M208.802 90.1065L208.525 89.9277C211.773 84.5446 212.911 78.6247 212.922 78.5654L213.243 78.6297C213.231 78.6896 212.082 84.6709 208.802 90.1065Z" fill="black"/>
<path d="M206.373 88.1317L206.096 87.9529C208.6 83.802 209.477 79.2379 209.486 79.1924L209.807 79.2567C209.798 79.3027 208.909 83.9283 206.373 88.1317Z" fill="black"/>
<path d="M73.6892 -4.79018L110.295 0.807861L115.107 -32.837L78.5014 -38.435L73.6892 -4.79018Z" fill="#EDCB4D"/>
<path d="M110.293 0.702707C110.417 0.721338 110.533 0.633921 110.551 0.507273L113.883 -22.7853C113.901 -22.9123 113.815 -23.0306 113.691 -23.0497H113.69C113.566 -23.0684 113.45 -22.981 113.432 -22.8543L110.1 0.438303C110.082 0.56531 110.168 0.68354 110.292 0.702707C110.293 0.702707 110.293 0.702707 110.293 0.702707Z" fill="black"/>
<path d="M48.794 12.8069C46.1962 13.7323 42.7266 13.913 41.2468 12.1237C40.2544 10.9237 40.3412 9.16528 41.5047 6.89744C41.873 6.18001 42.7664 5.41994 44.9324 5.87674C45.985 6.09868 47.2532 6.5775 48.7015 7.30013C50.0216 7.95863 51.5786 9.02823 51.5012 10.3845C51.469 10.9507 51.1719 11.45 50.6007 11.8908C50.1617 12.2295 49.5607 12.5337 48.794 12.8069ZM42.5801 7.4875C41.9573 8.70131 41.3812 10.349 42.172 11.3054C43.183 12.528 46.1313 12.4237 48.3973 11.6165C50.1149 11.0048 50.2769 10.4622 50.2856 10.3105C50.3083 9.91262 49.6635 9.17818 48.1722 8.43405C45.511 7.10649 43.5193 6.67405 42.7894 7.23743C42.7007 7.30604 42.6306 7.38933 42.5801 7.4875Z" fill="#EDF8FF"/>
<path d="M51.8029 10.8165C50.5235 10.5073 49.9747 8.65941 49.7398 7.16364C49.4818 5.52241 49.3986 4.12911 49.4924 3.02259C49.685 0.74562 50.6437 0.0760129 51.414 -0.0850286C53.8475 -0.593053 55.5024 -0.178897 56.3326 1.14616C57.5708 3.12201 56.4158 6.51033 54.819 8.82206C54.3474 9.50456 53.8946 10.0137 53.4556 10.3524C52.8846 10.7931 52.337 10.9455 51.8029 10.8165ZM51.6549 1.14902C50.6834 1.35162 50.4104 3.57898 50.9417 6.96157C51.2073 8.6517 51.7048 9.49972 52.0801 9.59037C52.223 9.62494 52.772 9.61885 53.8281 8.09012C55.2213 6.07343 56.1566 3.18058 55.3109 1.83045C54.6491 0.774456 52.9575 0.876917 51.6549 1.14902Z" fill="#EDF8FF"/>
<path d="M51.3953 40.2653L78.9087 19.0332L65.2427 0.0992486L37.7293 21.3314L51.3953 40.2653Z" fill="#7F62D6"/>
<path d="M39.4931 25.5682L68.6476 3.06934L66.0597 -0.516178L36.9052 21.9827L39.4931 25.5682Z" fill="#4D35AD"/>
<path d="M78.6519 18.6751C78.7401 18.6065 78.7581 18.4772 78.6921 18.3857L68.0064 3.58131C67.9402 3.48959 67.8148 3.47078 67.7261 3.53921L67.7256 3.53957C67.6374 3.60818 67.6194 3.73751 67.6854 3.82905L78.3711 18.6334C78.4372 18.7251 78.5627 18.7439 78.6512 18.6755C78.6515 18.6755 78.6519 18.6751 78.6519 18.6751Z" fill="black"/>
<path d="M68.9418 3.1044L66.234 -0.647201C66.1678 -0.738918 66.0424 -0.757735 65.9539 -0.689306L65.9534 -0.688945C65.8652 -0.620337 65.8472 -0.490997 65.9132 -0.39946L68.3815 3.0202L39.3872 25.3958L39.3867 25.3962C39.2985 25.4648 39.2805 25.5941 39.3465 25.6857C39.4127 25.7772 39.5381 25.7962 39.6267 25.7278L68.9418 3.1044Z" fill="black"/>
<path d="M48.9327 36.8668C49.0211 36.7984 49.0391 36.6689 48.9729 36.5775L40.4752 24.8047C40.4091 24.7131 40.2836 24.6941 40.1949 24.7625L40.1946 24.7629C40.1063 24.8313 40.0882 24.9609 40.1544 25.0524L48.652 36.8253C48.7182 36.9168 48.8436 36.9358 48.9323 36.8674L48.9327 36.8668Z" fill="black"/>
<path d="M52.7852 32.9612C52.8155 32.9376 52.8397 32.9048 52.8534 32.8652L54.0046 29.5167C54.0417 29.4088 53.9871 29.2906 53.883 29.2523C53.7789 29.2139 53.6642 29.2703 53.6273 29.378L52.4761 32.7266C52.439 32.8342 52.4936 32.9526 52.5977 32.991C52.6635 33.015 52.7334 33.0015 52.7852 32.9612Z" fill="black"/>
<path d="M53.8839 33.8855C53.9142 33.8618 53.9384 33.829 53.9521 33.7893L55.1033 30.4407C55.1404 30.3331 55.0858 30.2147 54.9817 30.1763C54.8776 30.138 54.763 30.1944 54.726 30.3021L53.5748 33.6506C53.5379 33.7583 53.5923 33.8767 53.6964 33.915C53.7621 33.9392 53.8319 33.9258 53.8839 33.8855Z" fill="black"/>
<path d="M72.9756 9.67205L72.2743 8.70044L43.9523 30.557L44.6536 31.5286L72.9756 9.67205Z" fill="#EDF8FF"/>
<path d="M64.7881 29.9451L65.7278 29.22L52.0618 10.2862L51.1222 11.0113L64.7881 29.9451Z" fill="#EDF8FF"/>
<path d="M51.4391 40.2627L60.3029 33.4226L49.2247 18.0742L40.361 24.9143L51.4391 40.2627Z" fill="#7F62D6"/>
<path d="M39.5484 25.5629L49.5132 17.873L46.9253 14.2875L36.9605 21.9774L39.5484 25.5629Z" fill="#4D35AD"/>
<path d="M48.5697 105.581C48.8415 113.853 50.0245 146.21 52.5118 167.379C52.6756 168.775 53.8194 169.828 55.1788 169.824C56.6837 169.82 58.777 169.634 61.0966 168.902C62.2178 168.548 62.9961 167.494 63.015 166.282L64.0262 101.867C64.0286 101.711 64.0184 101.554 63.9954 101.4L63.9481 101.082C63.6874 99.3284 61.9271 98.272 60.3254 98.9083L50.2931 102.893C49.2228 103.318 48.5307 104.396 48.5697 105.581Z" fill="#4D35AD"/>
<path d="M37.9835 101.849C37.9835 101.849 37.8481 118.284 35.6047 136.409C34.3591 146.471 30.799 156.922 30.2233 165.688C30.1471 166.85 30.9036 167.89 32.0032 168.142C33.5599 168.5 35.9595 168.837 38.7648 168.497C39.7161 168.382 40.497 167.663 40.7143 166.698L48.5357 138.961L53.2752 110.918L58.3566 95.667L37.9835 101.849Z" fill="#7F62D6"/>
<path d="M40.9794 165.808C40.9689 165.808 40.9579 165.807 40.9472 165.804C40.8862 165.785 40.8511 165.719 40.8689 165.656L48.4054 138.93L51.9386 118.024C51.9496 117.959 52.009 117.917 52.0719 117.928C52.1344 117.939 52.1763 118.001 52.1654 118.065L48.6299 138.984L48.6282 138.991L41.0899 165.723C41.0752 165.775 41.0293 165.808 40.9794 165.808Z" fill="black"/>
<path d="M67.9289 70.5045C67.9289 70.5045 72.2334 64.4666 72.6552 63.5104C73.6082 61.3491 77.4952 41.0144 77.4952 41.0144L71.5586 39.9944L66.7512 55.8395L61.3708 65.4896L67.9289 70.5045Z" fill="#EBB2BB"/>
<path d="M78.8559 34.0491C78.5794 33.9101 78.2451 34.0328 78.093 34.3091L77.147 36.0284C77.1174 36.0823 77.0578 36.1106 76.9989 36.0992C76.9121 36.0821 76.8621 35.9872 76.8952 35.9023L77.9545 33.194C78.076 32.8837 77.915 32.5786 77.597 32.5161C77.2791 32.4536 76.9196 32.6562 76.7981 32.9665L75.718 35.7282C75.6929 35.7923 75.6276 35.8292 75.5617 35.8163L75.5151 35.8072C75.4391 35.7921 75.3892 35.7163 75.4035 35.6377L76.0009 32.3916C76.0584 32.0794 75.8807 31.7618 75.5829 31.6822C75.2567 31.5952 74.9324 31.8116 74.8703 32.1484L74.2694 35.4145C74.255 35.4931 74.1815 35.5447 74.1055 35.5299L73.9579 35.5008C73.8887 35.4872 73.8401 35.4227 73.844 35.35L74.0163 32.266C74.0341 31.9486 73.8179 31.6577 73.5126 31.6188C73.1783 31.5764 72.8839 31.8345 72.8647 32.1766C72.8647 32.1766 72.3578 36.8648 72.2208 37.5908L71.0414 36.37C70.862 36.0974 70.5031 36.0268 70.2394 36.2122C69.9759 36.3976 69.9075 36.7689 70.0868 37.0414L71.8061 40.4489C71.923 40.6266 72.3313 40.7083 72.675 40.6927C75.9633 41.6129 76.4771 41.7267 77.3858 41.8904L77.9454 38.1703C78.1068 37.0969 78.4559 36.0628 78.9753 35.1186L79.1057 34.8814C79.2701 34.5837 79.1589 34.2014 78.8559 34.0491Z" fill="#EBB2BB"/>
<path d="M33.7025 71.1439C33.7025 71.1439 29.398 65.106 28.9762 64.1498C28.0232 61.9885 24.136 41.6538 24.136 41.6538L30.0726 40.6338L34.88 56.4789L40.2604 66.129L33.7025 71.1439Z" fill="#EBB2BB"/>
<path d="M22.7855 34.6709C23.062 34.5319 23.3964 34.6546 23.5485 34.9308L24.4944 36.6501C24.524 36.704 24.5836 36.7323 24.6425 36.7209C24.7293 36.7038 24.7794 36.6089 24.7463 36.5242L23.6871 33.8158C23.5656 33.5056 23.7266 33.2005 24.0447 33.138C24.3626 33.0755 24.722 33.2781 24.8435 33.5883L25.9236 36.3501C25.9488 36.4142 26.0141 36.4511 26.0799 36.4382L26.1263 36.4291C26.2024 36.414 26.2523 36.3382 26.2379 36.2596L25.6406 33.0135C25.583 32.7013 25.7608 32.3837 26.0586 32.3041C26.3848 32.2171 26.7091 32.4335 26.7711 32.7702L27.3721 36.0364C27.3867 36.115 27.4599 36.1666 27.536 36.1518L27.6837 36.1227C27.7529 36.1091 27.8016 36.0446 27.7974 35.9719L27.6252 32.8879C27.6075 32.5705 27.8237 32.2796 28.1288 32.2409C28.4632 32.1984 28.7575 32.4566 28.7767 32.7987C28.7767 32.7987 29.2836 37.4867 29.4207 38.2129L30.6001 36.9921C30.7794 36.7196 31.1385 36.6489 31.402 36.8343C31.6655 37.0197 31.7339 37.391 31.5546 37.6635L29.8354 41.071C29.7185 41.2487 29.31 41.3304 28.9664 41.3148C25.6783 42.235 25.1643 42.3487 24.2557 42.5124L23.6961 38.7924C23.5346 37.719 23.1856 36.6849 22.6662 35.7406L22.5357 35.5035C22.3712 35.2054 22.4826 34.8231 22.7855 34.6709Z" fill="#EBB2BB"/>
<path d="M43.8012 66.9351C43.8012 66.9351 56.2731 67.4045 57.3008 67.0181C58.3283 66.6317 62.8851 61.1344 62.8851 61.1344C62.8851 61.1344 65.9568 61.1344 71.9681 66.5382C71.9681 66.5382 66.1617 75.3888 65.8814 76.8377C65.6013 78.2865 65.9376 111.252 65.9376 111.252C65.9376 111.252 50.3753 116.672 36.0594 111.109C36.0594 111.109 39.0866 79.7267 38.5262 78.1812C37.9657 76.6358 29.679 67.281 29.679 67.281C29.679 67.281 33.5155 61.5108 38.0652 60.3914L43.8012 66.9351Z" fill="#E69148"/>
<path d="M52.2044 57.7766L53.4925 62.4456C53.4925 62.4456 53.9916 64.0051 52.7105 64.5963L53.5407 66.6283C53.8492 67.3838 53.6034 68.2665 52.9421 68.719C52.6188 68.9403 52.2178 69.1504 51.7365 69.2924C50.2103 69.7426 49.0568 68.8029 48.7665 68.2486C48.4759 67.6944 48.0775 64.7541 48.0775 64.7541L47.6477 63.3783L46.3361 57.9434L52.2044 57.7766Z" fill="#EBB2BB"/>
<path d="M49.1424 61.2082C49.1265 61.2129 49.109 61.2114 49.0934 61.2028C49.0612 61.1851 49.0489 61.1439 49.0659 61.1104C49.0719 61.0984 49.6914 59.9152 50.6746 60.3453C50.7082 60.36 50.7239 60.4001 50.7097 60.4349C50.6955 60.4698 50.6567 60.4859 50.6231 60.4712C49.7521 60.0902 49.2058 61.1299 49.183 61.1743C49.174 61.1915 49.159 61.2032 49.1424 61.2082Z" fill="#4D35AD"/>
<path d="M51.6659 60.0342C51.648 60.0394 51.6283 60.0369 51.6115 60.0256C51.581 60.005 51.5723 59.9626 51.5923 59.931C51.6115 59.9006 52.0702 59.1851 52.5475 59.4121C52.5806 59.4278 52.5951 59.4685 52.5799 59.5027C52.5647 59.5371 52.5255 59.5522 52.4922 59.5364C52.1184 59.3587 51.7071 59.9995 51.703 60.0061C51.6941 60.0202 51.6808 60.0299 51.6659 60.0342Z" fill="#4D35AD"/>
<path d="M50.4819 61.0888C50.5123 61.1979 50.4505 61.3116 50.3437 61.3426C50.2369 61.3739 50.1256 61.3105 50.0952 61.2015C50.0646 61.0924 50.1267 60.9787 50.2334 60.9477C50.3402 60.9165 50.4513 60.9796 50.4819 61.0888Z" fill="black"/>
<path d="M52.4905 60.2873C52.5209 60.3964 52.4591 60.5101 52.3523 60.5411C52.2456 60.5722 52.1342 60.509 52.1039 60.4C52.0733 60.2909 52.1353 60.1772 52.2421 60.1461C52.3488 60.1149 52.46 60.1783 52.4905 60.2873Z" fill="black"/>
<path d="M46.5993 58.1563L48.094 59.4009C48.094 59.4009 51.6771 59.7449 52.9071 57.7226C54.1373 55.7005 53.4251 55.1135 52.7285 54.4883C52.3851 54.1802 51.0318 53.7456 49.8099 54.8007C49.1429 55.3767 48.2895 54.4969 47.5443 55.2857C46.799 56.0744 46.0002 57.2952 46.2171 57.621C46.4341 57.9469 46.5993 58.1563 46.5993 58.1563Z" fill="#4D35AD"/>
<path d="M46.4446 57.4829C46.4446 57.4829 44.9561 57.843 44.9495 59.4251C44.9428 61.0072 45.7052 61.61 45.8394 62.0415C45.9739 62.473 46.4985 65.4945 48.4322 64.6871L47.6323 59.6768L46.4054 57.9499L46.4446 57.4829Z" fill="#4D35AD"/>
<path d="M48.9362 61.481C49.1166 62.1346 48.7503 62.8159 48.118 63.0024C47.4859 63.1888 46.827 62.8101 46.6467 62.1563C46.4663 61.5025 46.8326 60.8214 47.4649 60.6349C48.0972 60.4484 48.7559 60.8273 48.9362 61.481Z" fill="#EBB2BB"/>
<path d="M47.8661 62.5694C47.6282 62.6394 47.4184 62.5015 47.3152 62.3322C47.1931 62.132 47.2053 61.8989 47.3465 61.738C47.5551 61.5005 47.8138 61.5372 47.9536 61.5825C47.8671 61.4627 47.7627 61.3878 47.6421 61.3593C47.3812 61.2975 47.1272 61.4734 47.1246 61.4752C47.1095 61.486 47.0889 61.4819 47.0787 61.4663C47.0685 61.4507 47.0723 61.4296 47.0874 61.4188C47.0987 61.4108 47.367 61.2244 47.6563 61.2925C47.8233 61.3319 47.9617 61.448 48.0674 61.6375L48.1267 61.7439L48.0227 61.6847C48.008 61.6762 47.6603 61.4828 47.3954 61.7841C47.2488 61.9508 47.2906 62.164 47.371 62.2957C47.4545 62.4325 47.6289 62.5681 47.8476 62.5036C47.8498 62.5029 47.8517 62.5022 47.8542 62.5017C47.8715 62.4965 47.8897 62.5067 47.8948 62.5248C47.9 62.5429 47.8902 62.5619 47.8727 62.5674C47.8706 62.568 47.8683 62.5687 47.8661 62.5694Z" fill="#C84D71"/>
<path d="M49.2454 64.1692C49.2454 64.1692 50.0637 66.7844 53.3238 66.0954L52.7114 64.5966C52.7114 64.5966 50.7609 65.637 49.2454 64.1692Z" fill="#C84D71"/>
<path d="M53.499 61.6477C53.499 61.6477 54.7872 64.6869 52.7877 65.3982C49.9266 66.416 49.1721 64.7843 48.6125 63.4324L47.7844 60.5455L47.6459 59.6777C47.9175 59.8572 48.1261 60.1216 48.2418 60.4328C48.4935 61.1094 49.1584 62.9362 49.3488 62.9695C49.618 63.0164 52.9628 61.4766 53.499 61.6477Z" fill="#4D35AD"/>
<path d="M51.5512 62.221C51.5378 62.2249 51.5229 62.2199 51.5147 62.2074C51.5045 62.1918 51.5083 62.1705 51.5236 62.1599L52.1033 61.754L51.4714 60.2621C51.4641 60.2448 51.4717 60.2247 51.4886 60.2172C51.5055 60.2091 51.5249 60.2175 51.5323 60.2349L52.1861 61.7787L51.561 62.2165C51.5577 62.2185 51.5545 62.2199 51.5512 62.221Z" fill="#C84D71"/>
<path d="M51.2523 63.004C51.2709 62.9944 52.5021 62.5986 52.5021 62.5986C52.5021 62.5986 52.4927 63.1747 52.0354 63.3231C51.5782 63.4714 51.2523 63.004 51.2523 63.004Z" fill="#FBFDFC"/>
<path d="M45.7058 67C45.7058 67 48.538 69.4011 51.2241 69.3947C53.91 69.3882 56.2844 67.1317 56.2844 67.1317L45.7058 67Z" fill="#EBB2BB"/>
<path d="M33.1072 149.646C33.0986 149.646 33.0899 149.645 33.0813 149.642C33.0191 149.628 32.9804 149.564 32.9946 149.499C33.856 145.64 35.1026 138.057 35.7691 133.88C35.7883 133.76 35.8015 133.677 35.8145 133.621C35.8147 133.621 35.8147 133.621 35.8148 133.62C35.815 133.566 35.8211 133.489 35.8299 133.378L37.5592 111.676C37.5644 111.61 37.6203 111.56 37.6837 111.567C37.7473 111.572 37.7946 111.63 37.7893 111.696C37.7719 111.913 36.0598 133.379 36.0409 133.64C36.0409 133.643 36.0406 133.645 36.0404 133.648L36.0276 133.764L36.0217 133.764C36.0152 133.805 36.007 133.856 35.9969 133.919C35.3301 138.098 34.0826 145.687 33.2197 149.553C33.2074 149.608 33.1599 149.646 33.1072 149.646Z" fill="black"/>
<path d="M63.007 164.207C63.0065 164.207 63.0058 164.207 63.0051 164.207C62.9413 164.206 62.8906 164.152 62.8916 164.086L63.7112 111.874C63.7123 111.809 63.7609 111.754 63.8285 111.757C63.8922 111.758 63.943 111.812 63.942 111.878L63.1224 164.09C63.1213 164.155 63.0699 164.207 63.007 164.207Z" fill="black"/>
<path d="M71.9756 66.6568C71.9478 66.6568 71.9201 66.6466 71.8979 66.626C67.1782 62.1939 63.4876 61.3654 62.9455 61.264C62.2697 62.2636 61.3607 63.3475 60.2426 64.4866C60.1974 64.533 60.1243 64.5327 60.0795 64.4854C60.0348 64.4384 60.0353 64.363 60.0806 64.3166C61.2117 63.1643 62.1258 62.0705 62.7976 61.0659L62.8378 61.0059L62.9078 61.0155C62.9471 61.0211 66.905 61.6144 72.0533 66.449C72.1005 66.4934 72.1039 66.5689 72.0611 66.6176C72.0383 66.6436 72.0069 66.6568 71.9756 66.6568Z" fill="black"/>
<path d="M50.3427 113.718C49.5058 113.718 48.6422 113.7 47.7533 113.661C47.6897 113.658 47.6402 113.603 47.6429 113.537C47.6457 113.471 47.6984 113.417 47.7632 113.423C58.1005 113.878 65.0324 111.457 65.8232 111.166C65.8126 109.788 65.6787 92.1232 65.6574 83.2815C65.6356 74.1763 64.7439 71.8939 64.7349 71.8719C64.7101 71.8113 64.7373 71.7413 64.7959 71.7155C64.8543 71.6895 64.922 71.7177 64.9471 71.7782C64.9847 71.8687 65.8662 74.0987 65.8882 83.2811C65.9102 92.4384 66.0533 111.062 66.0546 111.249L66.0553 111.332L65.9803 111.361C65.915 111.386 59.8557 113.718 50.3427 113.718Z" fill="black"/>
<path d="M37.6544 93.4482C37.651 93.4482 37.6475 93.448 37.6442 93.4476C37.5808 93.4419 37.5338 93.3839 37.5394 93.3183C37.9117 88.9705 38.3971 78.2831 38.402 78.1756C38.4049 78.1098 38.4569 78.0559 38.5227 78.062C38.5863 78.065 38.6355 78.1209 38.6325 78.1869C38.6277 78.2943 38.1419 88.987 37.7693 93.3396C37.7639 93.4014 37.7135 93.4482 37.6544 93.4482Z" fill="black"/>
<path d="M42.6925 109.566C42.6613 109.566 42.6301 109.553 42.6074 109.527L40.1644 106.769C40.1212 106.721 40.1245 106.645 40.1716 106.601C40.2186 106.556 40.2915 106.559 40.3346 106.608L42.7779 109.366C42.821 109.414 42.8177 109.49 42.7706 109.534C42.7484 109.555 42.7204 109.566 42.6925 109.566Z" fill="black"/>
<path d="M42.6699 110.983C42.639 110.983 42.6082 110.97 42.5853 110.945L40.7389 108.894C40.6956 108.846 40.698 108.77 40.7446 108.725C40.7913 108.68 40.8643 108.683 40.9077 108.732L42.7543 110.782C42.7976 110.83 42.7952 110.906 42.7485 110.951C42.7264 110.972 42.6981 110.983 42.6699 110.983Z" fill="black"/>
<path d="M29.6951 67.3917C29.6728 67.3917 29.6501 67.3851 29.6302 67.3711C29.5775 67.334 29.5638 67.2597 29.5998 67.2054C33.8811 60.7065 37.9026 60.2789 38.0716 60.264L38.1286 60.2588L43.8702 66.809L47.6493 66.9305C47.713 66.9326 47.7629 66.9876 47.761 67.0535C47.7589 67.1195 47.7108 67.1687 47.642 67.1691L43.7649 67.0442L43.7319 67.0068L38.0363 60.5092C37.5365 60.5852 33.7359 61.3506 29.7904 67.3396C29.768 67.3735 29.7319 67.3917 29.6951 67.3917Z" fill="black"/>
<path d="M147.256 130.37H150.263V134.682H146.097L114.324 134.678V130.37H111.316V126.058H115.818V121.747H111.316V117.435H113.714V113.124H111.316V108.812H147.256V113.124H149.653V117.435H147.256V121.747H151.757V126.058H147.256V130.37Z" fill="#E69148"/>
<g opacity="0.3">
<path d="M115.826 126.064H151.765V121.753H115.826V126.064Z" fill="#E69148"/>
</g>
<g opacity="0.3">
<path d="M113.686 117.431H149.625V113.12H113.686V117.431Z" fill="#E69148"/>
</g>
<path d="M119.264 111.208C119.445 112.847 120.907 113.287 120.907 113.287C120.907 113.287 119.445 113.726 119.264 115.365C119.083 113.726 117.621 113.287 117.621 113.287C117.621 113.287 119.083 112.847 119.264 111.208Z" fill="white"/>
<path d="M131.553 109.531C131.649 110.403 132.428 110.637 132.428 110.637C132.428 110.637 131.649 110.871 131.553 111.743C131.457 110.871 130.679 110.637 130.679 110.637C130.679 110.637 131.457 110.403 131.553 109.531Z" fill="white"/>
<path d="M238.806 22.5877C244.56 16.6378 244.56 6.99109 238.806 1.04116C233.052 -4.90876 223.722 -4.90876 217.968 1.04116C212.214 6.99109 212.214 16.6378 217.968 22.5877C223.722 28.5377 233.052 28.5377 238.806 22.5877Z" fill="#E69148"/>
<path d="M237.431 21.125C242.407 15.9791 242.407 7.63605 237.431 2.4902C232.454 -2.65566 224.386 -2.65564 219.409 2.49021C214.433 7.63607 214.432 15.9792 219.409 21.125C224.386 26.2709 232.454 26.2709 237.431 21.125Z" fill="#EDCB4D"/>
<path d="M224.6 14.4455C224.795 13.6304 225.407 12.6267 226.437 11.434C226.653 11.1849 226.953 10.8485 227.338 10.4253C228.591 9.04798 229.058 8.00973 228.738 7.31003C228.531 6.85825 228.211 6.57755 227.776 6.46792C227.341 6.35847 226.851 6.43692 226.306 6.7033C225.744 6.97827 225.335 7.35051 225.081 7.81912C224.827 8.28863 224.7 8.9011 224.702 9.65776L222.026 9.90926C221.924 8.73988 222.135 7.7163 222.66 6.83837C223.004 6.26281 223.481 5.75693 224.089 5.31967L223.255 3.49501L225.478 2.4082L226.315 4.23896C227.182 3.99552 228.007 3.97849 228.789 4.18916C229.913 4.49207 230.729 5.20072 231.239 6.31512C231.539 6.97146 231.673 7.62512 231.641 8.27717C231.61 8.92868 231.416 9.54616 231.06 10.1291C230.703 10.7277 229.983 11.5951 228.898 12.731C228.738 12.8927 228.616 13.0203 228.534 13.1134C227.916 13.7642 227.529 14.3032 227.373 14.7319C227.217 15.16 227.237 15.588 227.432 16.015C227.679 16.5537 228.068 16.8858 228.602 17.0114C229.136 17.1368 229.738 17.0354 230.408 16.7079C231.001 16.4183 231.438 15.9986 231.717 15.4492C231.997 14.8994 232.145 14.17 232.161 13.2607L234.923 13.1948C234.984 14.4981 234.715 15.6367 234.116 16.6112C233.754 17.2002 233.277 17.7202 232.685 18.1725L233.583 20.1367L231.36 21.2235L230.499 19.3407C229.431 19.714 228.445 19.7699 227.544 19.5055C226.403 19.17 225.54 18.3646 224.957 17.0893C224.523 16.1415 224.404 15.2605 224.6 14.4455Z" fill="#E69148"/>
<g opacity="0.2">
<path d="M216.317 7.58105C224.312 15.0368 235.44 13.4577 241.132 11.9525C241.076 16.8339 238.389 21.4924 233.834 23.7192C227.471 26.8295 219.874 24.0173 216.866 17.4379C215.396 14.2226 215.295 10.703 216.317 7.58105Z" fill="#E69148"/>
</g>
<path d="M240.65 20.4613C239.183 22.6887 237.163 24.4809 234.745 25.663C234.702 25.6838 234.652 25.6652 234.632 25.6213C234.612 25.5774 234.63 25.5249 234.672 25.5049C238.21 23.7755 240.885 20.7254 242.204 16.9157C243.523 13.1063 243.328 8.99372 241.656 5.33563C238.204 -2.21595 229.453 -5.45523 222.15 -1.88563C222.108 -1.86485 222.057 -1.88348 222.038 -1.92719C222.017 -1.97107 222.036 -2.02339 222.078 -2.04363C229.465 -5.65479 238.317 -2.37806 241.809 5.26093C243.501 8.9613 243.698 13.1215 242.363 16.9749C241.931 18.224 241.354 19.393 240.65 20.4613Z" fill="#21111D"/>
<path d="M233.92 23.7722C233.912 23.7848 233.9 23.7952 233.886 23.802C227.491 26.928 219.829 24.0914 216.806 17.4791C213.783 10.8665 216.526 2.94342 222.921 -0.181932C222.964 -0.202711 223.014 -0.184086 223.034 -0.140199C223.054 -0.0961316 223.035 -0.0439993 222.994 -0.0237571C219.937 1.47058 217.625 4.10636 216.486 7.39813C215.346 10.6899 215.514 14.2434 216.959 17.4044C219.942 23.9295 227.503 26.7285 233.814 23.644C233.856 23.6232 233.907 23.6418 233.926 23.6857C233.94 23.7146 233.936 23.7473 233.92 23.7722Z" fill="#21111D"/>
<path d="M233.215 0.965739C233.213 0.968426 233.211 0.971115 233.209 0.973622C233.179 1.01017 233.125 1.01447 233.09 0.982938C233.07 0.965204 231.066 -0.785839 228.604 -0.543112C228.557 -0.538455 228.516 -0.573745 228.511 -0.621932C228.507 -0.66976 228.541 -0.712745 228.588 -0.717403C231.123 -0.967294 233.18 0.831927 233.2 0.85002C233.233 0.879577 233.239 0.929375 233.215 0.965739Z" fill="#21111D"/>
<path d="M232.557 2.35148C232.556 2.35417 232.554 2.35686 232.551 2.35937C232.521 2.39591 232.468 2.40021 232.432 2.36868C232.412 2.35095 230.409 0.600096 227.946 0.842643C227.9 0.847301 227.858 0.812011 227.854 0.763824C227.85 0.715995 227.884 0.67282 227.93 0.668342C230.466 0.41845 232.522 2.21749 232.542 2.23576C232.575 2.2655 232.581 2.3153 232.557 2.35148Z" fill="#21111D"/>
<path d="M228.881 4.23018C228.861 4.25992 228.825 4.27514 228.79 4.26565C228.027 4.06 227.209 4.07667 226.36 4.31527L226.291 4.33444L225.424 2.43741C225.404 2.39352 225.423 2.34139 225.465 2.32097C225.507 2.30019 225.557 2.319 225.577 2.36271L226.384 4.12771C227.238 3.89914 228.061 3.88839 228.832 4.09637C228.878 4.10855 228.905 4.15638 228.893 4.20313C228.89 4.21298 228.886 4.22212 228.881 4.23018Z" fill="#21111D"/>
<path d="M228.793 7.35523C228.785 7.36777 228.773 7.37816 228.759 7.38497C228.717 7.40575 228.666 7.38711 228.646 7.34323C228.45 6.91259 228.154 6.65284 227.741 6.54877C227.328 6.44469 226.852 6.52172 226.328 6.77806C225.784 7.04372 225.385 7.407 225.14 7.85753C224.895 8.31091 224.77 8.91513 224.772 9.65334V9.73341L221.934 9.99996L221.927 9.91255C221.824 8.72937 222.041 7.67803 222.573 6.78809C222.921 6.20519 223.41 5.68642 224.026 5.24325C224.065 5.21566 224.117 5.22532 224.144 5.26509C224.171 5.30486 224.161 5.3595 224.123 5.38691C223.526 5.8163 223.053 6.3184 222.717 6.87999C222.218 7.71511 222.006 8.70035 222.088 9.80937L224.603 9.57309C224.61 8.84061 224.741 8.23477 224.992 7.77153C225.255 7.28787 225.679 6.90095 226.256 6.61953C226.816 6.34545 227.329 6.26431 227.781 6.37824C228.24 6.49396 228.582 6.79329 228.799 7.26799C228.813 7.29755 228.809 7.33051 228.793 7.35523Z" fill="#21111D"/>
<path d="M231.415 21.2751C231.407 21.2876 231.395 21.298 231.381 21.3048C231.339 21.3256 231.289 21.307 231.269 21.2631L230.44 19.4504C229.385 19.8058 228.399 19.8536 227.507 19.5921C226.345 19.2507 225.457 18.422 224.866 17.1288C224.845 17.085 224.864 17.0326 224.906 17.0124C224.948 16.9916 224.999 17.0103 225.018 17.0541C225.588 18.2995 226.44 19.0966 227.553 19.4236C228.431 19.6813 229.409 19.6263 230.457 19.26L230.529 19.2351L231.422 21.1884C231.435 21.2174 231.431 21.2504 231.415 21.2751Z" fill="#21111D"/>
<path d="M234.101 16.7983C233.748 17.3353 233.29 17.8197 232.74 18.2401C232.702 18.2689 232.649 18.2607 232.622 18.2217C232.594 18.1826 232.602 18.128 232.64 18.0993C233.221 17.6549 233.695 17.1399 234.049 16.5614C234.622 15.6287 234.891 14.5254 234.846 13.2815L232.249 13.3435C232.225 14.2239 232.073 14.9449 231.797 15.4872C231.509 16.0511 231.056 16.4876 230.449 16.7841C229.764 17.1189 229.138 17.2233 228.588 17.094C228.03 16.9627 227.617 16.6114 227.361 16.0498C227.156 15.6024 227.135 15.1477 227.298 14.6984C227.316 14.6535 227.364 14.6304 227.407 14.6472C227.451 14.6644 227.474 14.7147 227.457 14.7601C227.31 15.1631 227.329 15.5719 227.513 15.9751C227.75 16.4928 228.114 16.8031 228.625 16.9235C229.137 17.0437 229.727 16.9437 230.376 16.6261C230.95 16.3458 231.377 15.9354 231.647 15.4057C231.919 14.8706 232.065 14.1474 232.081 13.2564L232.083 13.1724L235.008 13.1025L235.012 13.188C235.073 14.5035 234.797 15.6703 234.192 16.6557C234.163 16.7035 234.132 16.7511 234.101 16.7983Z" fill="#21111D"/>
<path d="M11.2852 54.4063C9.12191 54.0919 8.00399 55.6545 7.26425 56.6886C7.19166 56.7904 7.12012 56.8902 7.04927 56.9865C6.61131 57.5812 6.31663 57.5578 5.24635 57.1993C4.13276 56.8264 2.45005 56.263 0.94043 58.4061L2.27127 59.4086C3.0784 58.2629 3.66828 58.4604 4.73908 58.8191C5.70698 59.1433 7.16967 59.633 8.35932 58.018C8.43485 57.9155 8.51072 57.8093 8.58798 57.7013C9.38143 56.5922 9.94326 55.9307 11.0562 56.0923L11.2852 54.4063Z" fill="#FEBAC7"/>
<path d="M276.796 56.4136C276.894 54.1571 278.584 53.3073 279.703 52.745C279.813 52.6898 279.921 52.6353 280.026 52.581C280.671 52.245 280.703 51.941 280.559 50.7874C280.408 49.587 280.181 47.7733 282.495 46.6318L283.205 48.1683C281.967 48.7786 282.047 49.4143 282.191 50.5687C282.322 51.6119 282.52 53.1887 280.766 54.1017C280.655 54.1596 280.54 54.2174 280.423 54.2762C279.223 54.8793 278.491 55.3291 278.441 56.4901L276.796 56.4136Z" fill="#C84D71"/>
<path d="M90.7702 14.0195C88.7867 13.0728 88.6649 11.1333 88.5844 9.84961C88.5766 9.7235 88.5688 9.59954 88.5596 9.4788C88.5028 8.73378 88.2428 8.58833 87.1552 8.29061C86.0237 7.98071 84.3138 7.51245 84.1667 4.86539L85.8105 4.76758C85.8893 6.18274 86.4887 6.34683 87.5767 6.64473C88.5602 6.91396 90.0464 7.32096 90.2009 9.34481C90.2106 9.47307 90.2189 9.60509 90.2274 9.73909C90.3139 11.1157 90.4398 11.9865 91.4602 12.4736L90.7702 14.0195Z" fill="#C84D71"/>
<path d="M279.369 -0.0111464C279.311 2.24684 277.636 3.12801 276.527 3.71127C276.418 3.76859 276.311 3.82484 276.207 3.88108C275.568 4.22914 275.541 4.53366 275.706 5.68442C275.877 6.88175 276.136 8.69102 273.842 9.87545L273.106 8.35245C274.332 7.71921 274.242 7.0849 274.077 5.9336C273.928 4.89284 273.703 3.32021 275.44 2.37456C275.551 2.31455 275.665 2.25472 275.78 2.19382C276.969 1.56846 277.693 1.10504 277.724 -0.0566406L279.369 -0.0111464Z" fill="#7F62D6"/>
<path d="M237.232 94.1786C235.742 92.5264 233.922 93.0131 232.718 93.3352C232.6 93.3669 232.484 93.3979 232.37 93.4267C231.668 93.6039 231.453 93.3938 230.839 92.4187C230.201 91.4043 229.237 89.8713 226.759 90.5541L227.183 92.1991C228.507 91.834 228.846 92.3714 229.459 93.3472C230.014 94.2291 230.853 95.5616 232.76 95.0808C232.881 95.0504 233.005 95.0173 233.131 94.9836C234.422 94.6382 235.262 94.4897 236.028 95.3397L237.232 94.1786Z" fill="#7F62D6"/>
<path d="M24.1924 17.3514C22.7027 15.6992 20.883 16.1859 19.6786 16.508C19.5603 16.5397 19.444 16.5707 19.3302 16.5996C18.6281 16.7767 18.4133 16.5666 17.7996 15.5916C17.1613 14.5771 16.1968 13.0441 13.7191 13.727L14.143 15.372C15.4676 15.0071 15.8056 15.5445 16.4196 16.52C16.9743 17.4019 17.8128 18.7345 19.7204 18.2537C19.8413 18.2232 19.9651 18.1901 20.0909 18.1564C21.3824 17.8111 22.222 17.6625 22.9882 18.5125L24.1924 17.3514Z" fill="#7F62D6"/>
<path d="M253.047 8.10783L254.806 8.85249L256.396 7.77661L256.255 9.73616L257.736 10.9675L255.89 11.4342L255.215 13.271L254.215 11.5997L252.317 11.5037L253.545 10.0041L253.047 8.10783Z" fill="#F7AB48"/>
<path d="M255.634 66.4402C255.634 66.4402 254.985 64.1885 257.559 62.7137C260.134 61.2389 260.145 64.3204 261.023 64.7225C261.901 65.1247 263.592 65.0023 263.984 66.8471C264.376 68.6918 263.713 70.036 264.312 70.8709C265.312 72.265 267.821 75.3457 265.354 79.9262C263.734 82.934 259.339 86.0769 259.339 86.0769C259.339 86.0769 250.701 78.3526 250.296 74.9516C249.891 71.5506 251.255 70.2895 252.949 69.3915C253.99 68.8399 255.978 68.5358 255.634 66.4402Z" fill="#D87830"/>
<path d="M256.846 67.646C256.846 67.646 255.24 72.0027 255.76 73.1676C255.76 73.1676 256.005 73.7804 256.858 73.9913L256.259 76.8098L260.106 77.6836L262.071 68.4369L256.846 67.646Z" fill="#EBB2BB"/>
<path d="M257.301 71.4626C257.317 71.4664 257.334 71.458 257.342 71.4417C257.35 71.423 257.342 71.401 257.324 71.3926C257.109 71.2914 257.027 70.9716 257.006 70.8686C257.365 70.7645 257.609 70.5788 257.733 70.3163C257.936 69.8886 257.746 69.4169 257.737 69.397C257.729 69.3782 257.708 69.3694 257.69 69.3775C257.672 69.3856 257.664 69.4074 257.671 69.4262C257.673 69.4309 257.857 69.8873 257.668 70.2843C257.55 70.5342 257.31 70.7097 256.956 70.8061L256.925 70.8145L256.929 70.8475C256.932 70.8668 257.002 71.3231 257.294 71.4603C257.296 71.4612 257.299 71.4621 257.301 71.4626Z" fill="#C84D71"/>
<path d="M256.551 75.1281L256.792 73.9943C256.792 73.9943 258.669 74.3027 259.964 73.8201C259.964 73.8201 258.095 75.0038 256.551 75.1281Z" fill="#C84D71"/>
<path d="M259.882 70.0487C259.9 70.0526 259.919 70.0499 259.935 70.0395C259.969 70.018 259.98 69.9725 259.959 69.9376C259.952 69.926 259.255 68.772 258.289 69.2694C258.253 69.2877 258.239 69.3323 258.257 69.3689C258.274 69.4054 258.317 69.4205 258.353 69.4022C259.201 68.9656 259.811 69.9718 259.837 70.0148C259.847 70.0327 259.864 70.0446 259.882 70.0487Z" fill="#33192C"/>
<path d="M257.484 69.3432C257.503 69.3477 257.525 69.3435 257.542 69.3301C257.574 69.3056 257.58 69.2592 257.557 69.2264C257.535 69.1968 257.029 68.5031 256.559 68.7642C256.524 68.7836 256.511 68.8285 256.529 68.8647C256.548 68.9009 256.591 68.9145 256.626 68.895C256.988 68.6947 257.437 69.309 257.442 69.3151C257.452 69.3299 257.468 69.3396 257.484 69.3432Z" fill="#33192C"/>
<path d="M256.527 69.714C256.503 69.8256 256.572 69.936 256.681 69.9604C256.79 69.985 256.899 69.9143 256.923 69.8028C256.947 69.6912 256.877 69.5807 256.768 69.5561C256.659 69.5316 256.551 69.6024 256.527 69.714Z" fill="black"/>
<path d="M258.49 70.1289C258.466 70.2404 258.535 70.3509 258.644 70.3755C258.754 70.4001 258.862 70.3294 258.886 70.2178C258.91 70.1063 258.841 69.9958 258.731 69.9712C258.622 69.9466 258.514 70.0173 258.49 70.1289Z" fill="black"/>
<path d="M260.543 71.5203C260.41 72.1453 260.793 72.7633 261.397 72.9007C262.002 73.0381 262.6 72.6425 262.732 72.0175C262.865 71.3925 262.483 70.7745 261.878 70.6371C261.274 70.4997 260.676 70.8951 260.543 71.5203Z" fill="#EBB2BB"/>
<path d="M261.56 72.4961C261.79 72.5482 261.981 72.4048 262.069 72.2378C262.174 72.0404 262.149 71.8197 262.006 71.6755C261.802 71.4704 261.568 71.5102 261.435 71.5594C261.508 71.4496 261.598 71.3778 261.705 71.3453C261.946 71.2724 262.191 71.4213 262.194 71.4229C262.211 71.4333 262.233 71.4276 262.243 71.41C262.253 71.3925 262.248 71.3697 262.231 71.3591C262.22 71.3522 261.955 71.192 261.685 71.2741C261.529 71.3215 261.405 71.4398 261.315 71.6255L261.258 71.7446L261.367 71.6734C261.38 71.6646 261.693 71.4641 261.956 71.7285C262.101 71.8745 262.074 72.0748 262.006 72.202C261.936 72.3352 261.779 72.4725 261.57 72.4221C261.551 72.4173 261.531 72.4298 261.527 72.4497C261.522 72.4696 261.534 72.4897 261.553 72.4943C261.556 72.495 261.558 72.4956 261.56 72.4961Z" fill="#C84D71"/>
<path d="M256.774 67.6423C256.774 67.6423 257.477 65.976 259.772 66.2963C262.067 66.6166 261.999 68.433 261.999 68.433L259.312 68.3882L256.943 67.6679L256.774 67.6423Z" fill="#EBB2BB"/>
<path d="M257.124 66.16C257.124 66.16 258.224 67.8976 260.112 67.9893C260.112 67.9893 260.231 70.425 261.57 70.6179C262.909 70.8108 262.869 67.465 262.869 67.465C262.869 67.465 260.628 65.8694 260.472 65.8341C260.316 65.7986 257.74 65.0447 257.74 65.0447L257.124 66.16Z" fill="#D87830"/>
<path d="M256.816 71.8895C256.837 71.8861 258.184 71.9103 258.184 71.9103C258.184 71.9103 257.992 72.4785 257.492 72.471C256.991 72.4633 256.816 71.8895 256.816 71.8895Z" fill="#FBFDFC"/>
<path d="M246.18 82.8728C246.18 82.8728 238.816 79.7021 237.338 78.212C235.86 76.722 234.08 58.6995 234.08 58.6995L239.447 58.0115L243.195 72.4226L250.306 75.9616L246.18 82.8728Z" fill="#EBB2BB"/>
<path d="M251.658 75.7022C251.658 75.7022 247.333 74.0097 245.207 72.6587C245.207 72.6587 240.988 76.5848 240.46 81.0954C240.46 81.0954 246.101 84.9681 249.075 85.0592C252.048 85.1506 251.658 75.7022 251.658 75.7022Z" fill="#4D35AD"/>
<path d="M259.578 124.083L258.128 173.354L250.871 174.095L245.547 122.167L259.578 124.083Z" fill="#EBB2BB"/>
<path d="M258.677 124.075L271.207 173.346L278.631 174.088L272.278 122.159L258.677 124.075Z" fill="#EBB2BB"/>
<path d="M278.488 129.944C278.158 127.285 274.832 115.587 273.567 111.851C272.302 108.115 269.375 102.005 269.375 102.005L267.104 97.536L266.744 91.3691C267.226 87.5274 268.425 84.2059 268.213 80.3382L267.995 76.8349C267.995 76.8349 261.205 75.6783 260.663 75.6648C259.619 76.1859 254.211 75.8327 251.228 75.6482C250.101 75.5785 249.91 77.2098 249.707 78.3588L249.166 81.4195C249.166 81.4195 248.438 82.372 248.241 82.7483C248.044 83.1245 247.199 84.5495 247.444 86.5469C247.595 87.7741 247.949 88.5266 248.199 88.9258L248.272 88.9535L248.579 89.4044L249.079 97.2876V97.7585L248.408 99.0037L246.909 102.402L246.024 104.826L244.939 108.459L244.39 110.886L243.793 113.849L243.298 116.399L242.953 118.55L242.686 120.945C242.686 120.945 242.448 122.386 242.448 122.427C242.448 122.468 242.269 124.742 242.269 124.742L242.161 126.742L241.979 129.892L242.074 132.36L241.979 134.422L242.476 137.656C258.644 144.869 279.636 136.095 279.636 136.095L278.488 129.944Z" fill="#4D35AD"/>
<path d="M265.063 97.8777C265.007 97.8777 264.958 97.8336 264.952 97.7745C264.946 97.7111 264.99 97.6543 265.052 97.6477L267.081 97.4252C267.143 97.4186 267.197 97.4646 267.204 97.5278C267.21 97.5913 267.166 97.648 267.104 97.6547L265.075 97.8771C265.071 97.8775 265.067 97.8777 265.063 97.8777Z" fill="black"/>
<path d="M242.258 137.656C242.199 137.656 242.15 137.609 242.147 137.547C241.335 124.035 243.234 113.923 244.971 107.819C246.756 101.543 248.742 98.0979 248.961 97.7285L248.36 89.3255C245.663 85.0519 248.915 81.5834 248.948 81.5488C248.991 81.5036 249.062 81.5031 249.106 81.5482C249.149 81.593 249.15 81.6661 249.106 81.7113C249.074 81.7446 245.938 85.0976 248.562 89.2238L248.578 89.2489L248.58 89.2786L249.188 97.7867L249.168 97.819C249.147 97.853 247.055 101.304 245.181 107.896C243.451 113.98 241.559 124.06 242.369 137.533C242.373 137.596 242.326 137.651 242.264 137.655C242.262 137.656 242.26 137.656 242.258 137.656Z" fill="black"/>
<path d="M258.668 89.3005H250.848C250.787 89.3005 250.736 89.2489 250.736 89.1852C250.736 89.1216 250.786 89.0698 250.848 89.0698H258.668C258.73 89.0698 258.78 89.1214 258.78 89.1852C258.78 89.2489 258.73 89.3005 258.668 89.3005Z" fill="black"/>
<path d="M257.165 90.7129H251.983C251.921 90.7129 251.871 90.6613 251.871 90.5975C251.871 90.5339 251.921 90.4822 251.983 90.4822H257.165C257.226 90.4822 257.276 90.5338 257.276 90.5975C257.276 90.6613 257.226 90.7129 257.165 90.7129Z" fill="black"/>
<path d="M266.099 81.6369C266.099 81.6369 271.027 86.7931 271.847 87.3531C273.699 88.6185 291.891 95.5094 291.891 95.5094L293.724 89.802L279.816 82.6766L268.262 76.322L266.099 81.6369Z" fill="#EBB2BB"/>
<path d="M298.141 97.8839C298.311 97.6319 298.248 97.2833 298.015 97.0918L296.57 95.8997C296.525 95.8624 296.507 95.7994 296.527 95.7429C296.555 95.6598 296.651 95.6245 296.724 95.67L299.066 97.1225C299.334 97.2889 299.64 97.1758 299.745 96.8713C299.851 96.5668 299.718 96.1815 299.449 96.015L297.062 94.534C297.006 94.4996 296.982 94.4295 297.004 94.3665L297.019 94.3219C297.045 94.249 297.122 94.2112 297.192 94.2371L300.1 95.3143C300.38 95.4178 300.7 95.2901 300.818 95.0081C300.947 94.6991 300.796 94.3466 300.494 94.2348L297.569 93.1509C297.498 93.1247 297.462 93.0446 297.487 92.9717L297.536 92.8304C297.559 92.7641 297.626 92.7258 297.692 92.7408L300.514 93.3741C300.804 93.4393 301.105 93.2696 301.187 92.9741C301.277 92.6504 301.082 92.3209 300.769 92.2507C300.769 92.2507 296.517 91.0462 295.867 90.8021L297.171 89.8209C297.45 89.6848 297.569 89.341 297.437 89.053C297.306 88.765 296.973 88.6417 296.695 88.7778L293.29 89.9634C293.109 90.052 292.972 90.4431 292.935 90.7847C291.592 93.8925 291.409 94.3828 291.122 95.2551L294.472 96.3661C295.439 96.6868 296.342 97.1866 297.135 97.8413L297.335 98.0058C297.585 98.2125 297.955 98.1602 298.141 97.8839Z" fill="#EBB2BB"/>
<path d="M260.659 75.6668C260.659 75.6668 260.607 75.7731 262.051 75.7777C262.337 75.7786 264.176 75.5943 264.496 75.6057C266.741 75.6855 269.217 76.04 271.682 77.2996C274.342 78.6585 278.102 80.5889 278.102 80.5889C278.102 80.5889 275.945 87.9767 272.596 89.1875L265.106 83.8828L260.659 75.6668Z" fill="#4D35AD"/>
<path d="M269.025 78.9435C269.002 78.9435 268.978 78.9322 268.963 78.9111C268.204 77.8656 266.965 77.4407 266.953 77.4366C266.912 77.4228 266.889 77.377 266.902 77.3343C266.916 77.2917 266.96 77.2682 267.001 77.282C267.054 77.2996 268.299 77.7259 269.088 78.8135C269.114 78.8493 269.107 78.9002 269.073 78.9272C269.058 78.9383 269.042 78.9435 269.025 78.9435Z" fill="#21111D"/>
<path d="M268.874 79.6925C268.85 79.6925 268.827 79.6812 268.811 79.6601C268.053 78.6147 266.814 78.1898 266.801 78.1857C266.76 78.1719 266.738 78.126 266.751 78.0834C266.764 78.0407 266.809 78.0173 266.85 78.0311C266.902 78.0486 268.148 78.4749 268.937 79.5625C268.963 79.5983 268.956 79.6492 268.921 79.6762C268.907 79.6871 268.89 79.6925 268.874 79.6925Z" fill="#21111D"/>
<path d="M253.182 75.7673C253.182 75.7673 253.654 78.112 258.448 78.5224C262.408 78.8615 264.516 75.6052 264.516 75.6052L253.182 75.7673Z" fill="#EBB2BB"/>
<path d="M253.008 52.5449C252.99 52.4677 252.972 52.39 252.957 52.3112C252.396 49.399 254.224 46.5676 257.04 45.987C257.167 45.9607 257.295 45.9413 257.422 45.925L254.859 32.6319C254.736 32.6671 254.611 32.6996 254.484 32.7259C251.667 33.3065 248.929 31.4161 248.368 28.5039C248.357 28.4514 248.35 28.3989 248.341 28.3464L212.106 35.8149C212.118 35.8667 212.13 35.9183 212.14 35.9707C212.701 38.8829 210.873 41.7145 208.057 42.2949L210.613 55.556C213.43 54.9754 216.168 56.8658 216.729 59.778C216.745 59.8568 216.757 59.9355 216.769 60.0141L253.008 52.5449Z" fill="#FF83A6"/>
<g opacity="0.5">
<path d="M216.012 38.5674L219.21 55.4316L249.398 49.3803L246.264 32.45L216.012 38.5674Z" fill="#FFF7EE"/>
</g>
<path d="M249.805 49.5149L219.077 55.8484L215.72 38.4367L246.449 32.1033L249.805 49.5149ZM219.519 55.1634L249.143 49.0576L246.007 32.7879L216.383 38.8937L219.519 55.1634Z" fill="#FF424D"/>
<path d="M224.004 40.1004C224.285 39.9905 224.657 39.869 225.141 39.7692C225.736 39.6465 226.199 39.7001 226.525 39.9004C226.825 40.0763 227.045 40.3955 227.128 40.824C227.212 41.2607 227.153 41.6292 226.966 41.928C226.716 42.3439 226.232 42.6296 225.644 42.7507C225.464 42.7878 225.297 42.8145 225.152 42.8075L225.524 44.738L224.922 44.8622L224.004 40.1004ZM225.054 42.2999C225.192 42.309 225.361 42.2888 225.561 42.2474C226.288 42.0976 226.66 41.6421 226.532 40.9771C226.409 40.3409 225.914 40.1227 225.25 40.2595C224.987 40.3138 224.791 40.3767 224.693 40.4265L225.054 42.2999Z" fill="#FF424D"/>
<path d="M227.685 39.3493C227.977 39.2219 228.406 39.0967 228.821 39.0111C229.464 38.8785 229.902 38.9147 230.245 39.1261C230.522 39.2923 230.716 39.5943 230.788 39.9657C230.911 40.6025 230.605 41.1039 230.147 41.3769L230.151 41.3984C230.535 41.4528 230.816 41.7516 231.023 42.2296C231.304 42.8701 231.505 43.3124 231.638 43.4781L231.016 43.6064C230.913 43.4866 230.729 43.0928 230.482 42.5196C230.216 41.8833 229.919 41.6843 229.368 41.7753L228.801 41.8921L229.204 43.9799L228.602 44.104L227.685 39.3493ZM228.71 41.42L229.326 41.2932C229.969 41.1607 230.307 40.7121 230.201 40.1613C230.081 39.5395 229.593 39.3575 228.955 39.4817C228.664 39.5415 228.463 39.6128 228.371 39.6613L228.71 41.42Z" fill="#FF424D"/>
<path d="M232.003 38.3923L232.933 43.2118L232.331 43.3359L231.402 38.5165L232.003 38.3923Z" fill="#FF424D"/>
<path d="M233.587 42.6969L235.42 38.2526L235.416 38.2311L233.05 38.7185L232.95 38.1963L236.096 37.5479L236.169 37.9269L234.348 42.3542L234.352 42.3751L236.959 41.8377L237.06 42.3599L233.658 43.0612L233.587 42.6969Z" fill="#FF424D"/>
<path d="M239.787 39.45L237.975 39.8235L238.31 41.5608L240.329 41.1447L240.43 41.6668L237.809 42.2071L236.88 37.3877L239.397 36.8689L239.498 37.3911L237.582 37.7859L237.876 39.3089L239.688 38.9354L239.787 39.45Z" fill="#FF424D"/>
<path d="M225.627 46.9399C225.927 46.8279 226.288 46.716 226.69 46.633C227.42 46.4826 227.973 46.5504 228.381 46.8116C228.795 47.071 229.09 47.4995 229.216 48.1571C229.344 48.8206 229.25 49.4044 228.955 49.8539C228.661 50.3097 228.094 50.6401 227.329 50.7977C226.967 50.8724 226.661 50.9167 226.398 50.939L225.627 46.9399ZM226.828 50.4307C226.961 50.4283 227.149 50.3957 227.347 50.3547C228.432 50.1312 228.901 49.3824 228.689 48.2846C228.51 47.3241 227.867 46.8229 226.794 47.0439C226.532 47.098 226.338 47.1636 226.209 47.2211L226.828 50.4307Z" fill="#FF424D"/>
<path d="M229.525 46.1415C229.771 46.034 230.132 45.9283 230.483 45.8561C231.026 45.7442 231.395 45.7748 231.684 45.9537C231.918 46.0937 232.082 46.3484 232.142 46.6622C232.246 47.1991 231.988 47.622 231.601 47.8524L231.605 47.8705C231.929 47.9165 232.166 48.1684 232.341 48.5718C232.578 49.1122 232.747 49.4854 232.859 49.6251L232.334 49.7333C232.248 49.6321 232.093 49.3 231.884 48.8163C231.659 48.2794 231.409 48.1116 230.944 48.1883L230.466 48.2868L230.806 50.0482L230.298 50.1528L229.525 46.1415ZM230.389 47.8886L230.909 47.7816C231.451 47.6698 231.736 47.2913 231.647 46.8267C231.545 46.3022 231.134 46.1485 230.596 46.2533C230.351 46.3038 230.18 46.364 230.103 46.4048L230.389 47.8886Z" fill="#FF424D"/>
<path d="M233.852 48.0836L233.69 49.4468L233.165 49.555L233.717 45.2137L234.329 45.0874L236.455 48.8768L235.912 48.9887L235.246 47.7963L233.852 48.0836ZM235.062 47.4077L234.451 46.317C234.312 46.0694 234.208 45.8401 234.104 45.6169L234.092 45.6194C234.08 45.8725 234.064 46.1334 234.036 46.396L233.877 47.6517L235.062 47.4077Z" fill="#FF424D"/>
<path d="M237.368 48.6914L235.586 44.8311L236.123 44.7204L236.987 46.6812C237.201 47.1641 237.403 47.6494 237.549 48.0268L237.561 48.0245C237.547 47.6071 237.576 47.0995 237.61 46.5466L237.739 44.3874L238.27 44.2779L239.146 46.2428C239.35 46.7023 239.548 47.1636 239.689 47.5799L239.701 47.5776C239.696 47.1141 239.72 46.6389 239.745 46.1067L239.869 43.9485L240.388 43.8416L240.057 48.1372L239.526 48.2466L238.622 46.2314C238.4 45.7379 238.242 45.3568 238.11 44.957L238.098 44.9593C238.106 45.3782 238.095 45.7945 238.051 46.3491L237.899 48.582L237.368 48.6914Z" fill="#FF424D"/>
<path d="M253.431 52.8288L216.469 60.4471L216.413 60.0703C216.402 59.9969 216.39 59.9234 216.376 59.8498C215.853 57.1395 213.296 55.3742 210.675 55.9144L210.329 55.9857L207.634 42.0088L207.981 41.9375C210.602 41.3972 212.309 38.7527 211.786 36.0425C211.78 36.0083 211.772 35.9747 211.765 35.941L211.674 35.5309L248.621 27.9158L248.689 28.3305C248.694 28.3647 248.7 28.3989 248.706 28.4329C249.229 31.1432 251.786 32.9086 254.407 32.3683C254.513 32.3465 254.628 32.3178 254.757 32.2805L255.124 32.1756L257.835 46.2394L257.458 46.2876C257.324 46.3046 257.207 46.3236 257.102 46.3454C254.481 46.8857 252.773 49.5303 253.296 52.2404C253.31 52.314 253.327 52.3866 253.344 52.4586L253.431 52.8288ZM217.043 59.5847L252.581 52.2599C252.057 49.1985 254.001 46.2405 256.964 45.6298C256.975 45.6277 256.985 45.6253 256.996 45.6232L254.578 33.0775C254.567 33.0798 254.556 33.082 254.545 33.0843C251.608 33.6898 248.74 31.7671 248.056 28.7763L212.514 36.102C212.972 39.0151 211.205 41.8173 208.462 42.5707L210.885 55.1388C213.723 54.7436 216.417 56.6684 217.043 59.5847Z" fill="#FF424D"/>
<path d="M240.775 54.6641C240.545 54.4875 240.22 54.5371 240.05 54.775L238.947 55.826L233.867 56.8653L234.155 59.4884C234.977 59.3763 235.442 59.2939 238.427 58.5938C238.735 58.6209 239.105 58.5634 239.216 58.4082L240.882 55.4147C241.053 55.1767 241.005 54.8406 240.775 54.6641Z" fill="#EBB2BB"/>
<path d="M216.394 60.5414L216.398 60.4466C216.399 60.4284 216.449 58.5963 214.608 56.982C212.768 55.3687 210.373 56.0528 210.349 56.06L210.274 56.0822L210.259 56.003L207.565 42.0261L207.706 41.9971L210.385 55.8975C210.815 55.7934 212.988 55.3669 214.701 56.8686C216.358 58.3214 216.525 59.9554 216.541 60.3592L236.233 56.2852L236.261 56.431L216.394 60.5414Z" fill="black"/>
<path d="M257.77 46.2567L255.077 32.288C254.722 32.4544 253.332 32.9685 251.262 32.0005C249.117 30.997 248.639 28.4877 248.566 28.0067L222.56 33.3667L222.532 33.2207L248.689 27.8293L248.698 27.9101C248.701 27.9388 249.032 30.7937 251.322 31.8647C253.613 32.9365 255.079 32.1214 255.094 32.1132L255.18 32.0635L255.199 32.1635L257.911 46.2273L257.77 46.2567Z" fill="black"/>
<path d="M232.941 53.07L232.913 52.924L249.714 49.4614L246.385 32.1955L215.727 38.5145L215.699 38.3685L246.498 32.0205L249.883 49.5781L232.941 53.07Z" fill="black"/>
<path d="M218.744 51.5664L216.29 38.8371L239.407 34.0725L239.435 34.2183L216.459 38.9539L218.885 51.5373L218.744 51.5664Z" fill="black"/>
<path d="M243.069 34.5095L242.99 34.6338L245.612 36.4194L245.692 36.2951L243.069 34.5095Z" fill="black"/>
<path d="M242.945 35.6891L242.866 35.8135L245.489 37.5991L245.568 37.4748L242.945 35.6891Z" fill="black"/>
<path d="M214.069 41.7749L211.448 43.5625L211.527 43.6868L214.148 41.8992L214.069 41.7749Z" fill="black"/>
<path d="M214.185 42.9592L211.565 44.7471L211.644 44.8713L214.265 43.0834L214.185 42.9592Z" fill="black"/>
<path d="M224.875 44.9517L223.943 40.1169L224.084 40.0879L224.988 44.7767L225.519 44.6671L225.547 44.8131L224.875 44.9517Z" fill="black"/>
<path d="M239.536 48.3218L239.508 48.176L239.985 48.0775L240.312 43.8379L240.455 43.8495L240.12 48.2014L239.536 48.3218Z" fill="black"/>
<path d="M225.701 46.92L225.558 46.9495L226.33 50.9507L226.473 50.9212L225.701 46.92Z" fill="black"/>
<path d="M237.813 39.3996L237.506 37.8037L237.647 37.7747L237.926 39.2246L239.667 38.8658L239.696 39.0118L237.813 39.3996Z" fill="black"/>
<path d="M240.361 41.6825L240.275 41.2334L238.326 41.6348L238.298 41.489L240.387 41.0583L240.502 41.6534L240.361 41.6825Z" fill="black"/>
</g>
</g>
<defs>
<linearGradient id="paint0_linear_10349_47450" x1="150.864" y1="0" x2="150.864" y2="122.839" gradientUnits="userSpaceOnUse">
<stop stop-color="#1488CC"/>
<stop offset="1" stop-color="#2B32B2"/>
</linearGradient>
<clipPath id="clip0_10349_47450">
<rect x="0.727539" width="300.272" height="122.839" rx="12.7957" fill="white"/>
</clipPath>
</defs>
</svg>
