<svg width="500" height="500" viewBox="0 0 500 500" fill="none" xmlns="http://www.w3.org/2000/svg">
<path d="M412.41 331.377H438.891V320.187H412.41V331.377Z" fill="#EBEBEB"/>
<path d="M427.178 345.489L440.534 345.21L447.113 345.098C449.301 345.051 451.477 345.061 453.659 345.043L453.213 345.489L453.159 334.299L453.658 334.798L440.418 334.735C436.005 334.73 431.591 334.622 427.178 334.571L427.451 334.298C427.432 336.129 427.365 337.971 427.32 339.834L427.178 345.489ZM427.178 345.489L427.036 339.953C426.991 338.086 426.924 336.198 426.905 334.299L426.902 334.029L427.178 334.026C431.591 333.975 436.005 333.867 440.418 333.862L453.658 333.799L454.16 333.797L454.158 334.299L454.104 345.489L454.102 345.938L453.658 345.934C451.426 345.916 449.189 345.926 446.963 345.879L440.302 345.767L427.178 345.489Z" fill="#EBEBEB"/>
<path d="M232.145 235.581L245.501 235.302L252.08 235.19C254.268 235.143 256.444 235.153 258.626 235.135L258.18 235.581L258.126 224.391L258.625 224.89L245.385 224.827C240.972 224.822 236.558 224.714 232.145 224.663L232.418 224.39C232.399 226.221 232.332 228.063 232.287 229.926L232.145 235.581ZM232.145 235.581L232.003 230.045C231.958 228.178 231.891 226.29 231.872 224.391L231.869 224.121L232.145 224.118C236.558 224.067 240.972 223.959 245.385 223.954L258.625 223.891L259.127 223.889L259.125 224.391L259.071 235.581L259.069 236.03L258.625 236.027C256.393 236.009 254.156 236.019 251.93 235.972L245.269 235.86L232.145 235.581Z" fill="#EBEBEB"/>
<path d="M246.915 249.691H273.396V238.501H246.915V249.691Z" fill="#EBEBEB"/>
<path d="M217.147 249.692L230.503 249.413L237.082 249.301C239.27 249.254 241.446 249.264 243.628 249.246L243.182 249.692L243.128 238.502L243.627 239.001L230.387 238.938C225.974 238.933 221.56 238.825 217.147 238.774L217.42 238.501C217.401 240.332 217.334 242.174 217.289 244.037L217.147 249.692ZM217.147 249.692L217.005 244.156C216.96 242.289 216.893 240.401 216.874 238.502L216.871 238.232L217.147 238.229C221.56 238.178 225.974 238.07 230.387 238.065L243.627 238.002L244.129 238L244.127 238.502L244.073 249.692L244.071 250.141L243.627 250.138C241.395 250.12 239.158 250.13 236.932 250.083L230.271 249.971L217.147 249.692Z" fill="#EBEBEB"/>
<path d="M272.917 107.959H299.398V96.769H272.917V107.959Z" fill="#EBEBEB"/>
<path d="M46.3463 345.489L59.7023 345.21L66.2813 345.098C68.4693 345.051 70.6453 345.061 72.8273 345.043L72.3813 345.489L72.3273 334.299L72.8263 334.798L59.5863 334.735C55.1733 334.73 50.7593 334.622 46.3463 334.571L46.6193 334.298C46.6003 336.129 46.5333 337.971 46.4883 339.834L46.3463 345.489ZM46.3463 345.489L46.2043 339.953C46.1593 338.086 46.0923 336.198 46.0733 334.299L46.0703 334.029L46.3463 334.026C50.7593 333.975 55.1733 333.867 59.5863 333.862L72.8263 333.799L73.3283 333.797L73.3263 334.299L73.2723 345.489L73.2703 345.938L72.8263 345.934C70.5943 345.916 68.3573 345.926 66.1313 345.879L59.4703 345.767L46.3463 345.489Z" fill="#EBEBEB"/>
<path d="M61.1139 62.1998L74.4699 61.9208L81.0489 61.8088C83.2369 61.7618 85.4129 61.7718 87.5949 61.7538L87.1489 62.1998L87.0949 51.0098L87.5939 51.5088L74.3539 51.4458C69.9409 51.4408 65.5269 51.3338 61.1139 51.2818L61.3869 51.0088C61.3679 52.8398 61.3009 54.6818 61.2559 56.5448L61.1139 62.1998ZM61.1139 62.1998L60.9719 56.6638C60.9269 54.7968 60.8599 52.9088 60.8409 51.0098L60.8379 50.7398L61.1139 50.7368C65.5269 50.6858 69.9409 50.5778 74.3539 50.5728L87.5939 50.5098L88.0959 50.5078L88.0939 51.0098L88.0399 62.1998L88.0379 62.6488L87.5939 62.6458C85.3619 62.6278 83.1249 62.6378 80.8989 62.5908L74.2379 62.4788L61.1139 62.1998Z" fill="#EBEBEB"/>
<path d="M46.3452 76.3086H72.8262V65.1186H46.3452V76.3086Z" fill="#EBEBEB"/>
<path d="M427.178 62.1998L440.534 61.9208L447.113 61.8088C449.301 61.7618 451.477 61.7718 453.659 61.7538L453.213 62.1998L453.159 51.0098L453.658 51.5088L440.418 51.4458C436.005 51.4408 431.591 51.3338 427.178 51.2818L427.451 51.0088C427.432 52.8398 427.365 54.6818 427.32 56.5448L427.178 62.1998ZM427.178 62.1998L427.036 56.6638C426.991 54.7968 426.924 52.9088 426.905 51.0098L426.902 50.7398L427.178 50.7368C431.591 50.6858 436.005 50.5778 440.418 50.5728L453.658 50.5098L454.16 50.5078L454.158 51.0098L454.104 62.1998L454.102 62.6488L453.658 62.6458C451.426 62.6278 449.189 62.6378 446.963 62.5908L440.302 62.4788L427.178 62.1998Z" fill="#EBEBEB"/>
<path d="M169.275 381.771H97.3281V461.443H169.275V381.771Z" fill="#EBEBEB"/>
<path d="M60.1781 461.447H97.3281L97.3281 381.772H60.1781L60.1781 461.447Z" fill="#DBDBDB"/>
<path d="M62.7402 455.96C65.4912 450.294 68.2202 444.612 70.9192 438.909L78.9792 421.772L86.9362 404.56C89.5752 398.814 92.1852 393.046 94.7722 387.262C92.0202 392.927 89.2922 398.609 86.5922 404.312L78.5332 421.449L70.5772 438.661C67.9372 444.409 65.3272 450.177 62.7402 455.96Z" fill="#EBEBEB"/>
<path d="M62.7402 387.262C65.3272 393.046 67.9372 398.814 70.5772 404.56L78.5332 421.772L86.5922 438.909C89.2912 444.612 92.0192 450.294 94.7722 455.959C92.1852 450.174 89.5752 444.407 86.9362 438.661L78.9792 421.449L70.9192 404.312C68.2202 398.61 65.4912 392.928 62.7402 387.262Z" fill="#EBEBEB"/>
<path d="M169.275 261.441H97.3281V335.624H169.275V261.441Z" fill="#EBEBEB"/>
<path d="M60.1781 335.629H97.3281L97.3281 261.442H60.1781L60.1781 335.629Z" fill="#DBDBDB"/>
<path d="M127.199 278.659H128.721H129.866L130.519 277.333L131.435 278.659L132.678 275.93L133.855 278.659H137.223H138.759L139.315 276.838L139.838 278.659H140.838V261.441H127.199V278.659Z" fill="#DBDBDB"/>
<path d="M62.7402 330.895C65.4912 325.62 68.2202 320.329 70.9192 315.019L78.9792 299.063L86.9362 283.037C89.5752 277.687 92.1852 272.317 94.7722 266.93C92.0202 272.205 89.2922 277.495 86.5922 282.805L78.5332 298.762L70.5772 314.788C67.9372 320.14 65.3272 325.51 62.7402 330.895Z" fill="#EBEBEB"/>
<path d="M62.7402 266.932C65.3272 272.317 67.9372 277.688 70.5772 283.038L78.5332 299.064L86.5922 315.021C89.2912 320.331 92.0192 325.622 94.7722 330.896C92.1852 325.51 89.5752 320.14 86.9362 314.789L78.9792 298.763L70.9192 282.807C68.2202 277.498 65.4912 272.207 62.7402 266.932Z" fill="#EBEBEB"/>
<path d="M102.068 331.018H110.055V323.031H102.068V331.018Z" fill="white"/>
<path d="M164.478 335.629H92.5312V381.771H164.478V335.629Z" fill="#DBDBDB"/>
<path d="M55.3793 381.773H92.5293V335.629H55.3793L55.3793 381.773Z" fill="#C7C7C7"/>
<path d="M122.4 352.847H123.922H125.067L125.721 351.521L126.636 352.847L127.879 350.118L129.056 352.847H132.424H133.96L134.516 351.026L135.039 352.847H136.039V335.629H122.4V352.847Z" fill="white"/>
<path d="M57.9375 379.029C60.6885 375.676 63.4175 372.314 66.1165 368.939L74.1765 358.798L82.1335 348.613C84.7725 345.213 87.3825 341.8 89.9695 338.377C87.2175 341.729 84.4895 345.092 81.7895 348.467L73.7305 358.608L65.7745 368.793C63.1345 372.193 60.5255 375.606 57.9375 379.029Z" fill="#DBDBDB"/>
<path d="M57.9375 338.377C60.5245 341.8 63.1345 345.213 65.7745 348.613L73.7305 358.798L81.7895 368.939C84.4885 372.314 87.2165 375.676 89.9695 379.028C87.3825 375.605 84.7725 372.192 82.1335 368.792L74.1765 358.607L66.1165 348.466C63.4175 345.092 60.6885 341.73 57.9375 338.377Z" fill="#DBDBDB"/>
<path d="M444.623 391.748H372.676V461.444H444.623V391.748Z" fill="#DBDBDB"/>
<path d="M335.526 461.449H372.676V391.75H335.526V461.449Z" fill="#C7C7C7"/>
<path d="M402.545 408.966H404.067H405.211L405.865 407.64L406.781 408.966L408.023 406.236L409.2 408.966H412.568H414.105L414.661 407.144L415.184 408.966H416.183V391.748H402.545V408.966Z" fill="white"/>
<path d="M338.088 457.301C340.839 452.237 343.568 447.158 346.267 442.06L354.327 426.742L362.284 411.358C364.923 406.222 367.533 401.067 370.12 395.896C367.368 400.96 364.64 406.038 361.94 411.136L353.881 426.454L345.925 441.839C343.285 446.975 340.675 452.131 338.088 457.301Z" fill="#DBDBDB"/>
<path d="M338.088 395.896C340.675 401.066 343.285 406.221 345.925 411.357L353.881 426.742L361.94 442.06C364.639 447.158 367.368 452.237 370.12 457.3C367.533 452.13 364.923 446.975 362.284 441.839L354.327 426.455L346.267 411.137C343.568 406.039 340.839 400.961 338.088 395.896Z" fill="#DBDBDB"/>
<path d="M319.52 46.9512V217.051H436.58V46.9512H319.52ZM432.26 212.731H323.84V51.2712H432.26V212.731Z" fill="#EBEBEB"/>
<path d="M432.26 51.2715H323.84V212.731H432.26V51.2715Z" fill="white"/>
<path d="M323.843 139.158H432.264V134.84H323.843V139.158Z" fill="#EBEBEB"/>
<path d="M311.567 229.445L444.533 229.445V217.05L311.567 217.05V229.445Z" fill="#DBDBDB"/>
<path d="M315.09 234.404L441.008 237.041V229.443H315.09V234.404Z" fill="#EBEBEB"/>
<path d="M323.836 51.2676H432.257V162.201H323.836V51.2676ZM428.257 55.2676H327.835V158.201H428.257V55.2676Z" fill="#DBDBDB"/>
<path d="M397.651 51.2676H395.492V158.201H397.651V51.2676Z" fill="#DBDBDB"/>
<path d="M360.597 51.2676H358.438V158.201H360.597V51.2676Z" fill="#DBDBDB"/>
<path d="M63.418 46.9512V217.051H180.478V46.9512H63.418ZM176.158 212.731H67.738V51.2712H176.158V212.731Z" fill="#EBEBEB"/>
<path d="M176.158 51.2715H67.7383V212.731H176.158V51.2715Z" fill="white"/>
<path d="M67.7352 139.156H176.156V134.838H67.7352V139.156Z" fill="#EBEBEB"/>
<path d="M55.4637 229.445L188.43 229.445V217.05L55.4637 217.05V229.445Z" fill="#DBDBDB"/>
<path d="M58.9883 234.404L184.906 237.041V229.443H58.9883V234.404Z" fill="#EBEBEB"/>
<path d="M67.7363 51.2676H176.157V162.201H67.7363V51.2676ZM172.158 55.2676H71.7363V158.201H172.158V55.2676Z" fill="#DBDBDB"/>
<path d="M141.555 51.2676H139.396V158.201H141.555V51.2676Z" fill="#DBDBDB"/>
<path d="M104.497 51.2676H102.338V158.201H104.497V51.2676Z" fill="#DBDBDB"/>
<path d="M338.707 379.055H239.027V461.413H338.707V379.055Z" fill="#A967FF"/>
<path opacity="0.1" d="M338.707 379.055H239.027V461.413H338.707V379.055Z" fill="black"/>
<path d="M378.201 379.055H338.705V461.417H378.201V379.055Z" fill="#A967FF"/>
<path opacity="0.2" d="M378.201 379.055H338.705V461.417H378.201V379.055Z" fill="black"/>
<path d="M375.486 455.743C372.561 449.886 369.66 444.014 366.791 438.118L358.222 420.403L349.763 402.611C346.957 396.671 344.182 390.709 341.432 384.729C344.358 390.585 347.259 396.459 350.128 402.354L358.696 420.069L367.154 437.862C369.96 443.802 372.735 449.763 375.486 455.743Z" fill="#A967FF"/>
<path d="M375.486 384.729C372.735 390.708 369.96 396.669 367.154 402.609L358.696 420.403L350.128 438.118C347.258 444.013 344.358 449.887 341.432 455.743C344.182 449.763 346.957 443.801 349.763 437.861L358.222 420.069L366.791 402.354C369.66 396.46 372.561 390.586 375.486 384.729Z" fill="#A967FF"/>
<path d="M295.916 396.852H294.342H293.159L292.483 395.481L291.537 396.852L290.252 394.031L289.036 396.852H285.554H283.966L283.391 394.969L282.85 396.852H281.818V379.055H295.916V396.852Z" fill="white"/>
<path d="M344.722 296.699H270.354V379.053H344.722V296.699Z" fill="#A967FF"/>
<path d="M383.124 296.699H344.723V379.056H383.124V296.699Z" fill="#A967FF"/>
<path opacity="0.1" d="M383.124 296.699H344.723V379.056H383.124V296.699Z" fill="black"/>
<g opacity="0.1">
<path d="M339.273 373.384C333.812 367.527 328.395 361.654 323.037 355.759L307.037 338.045L291.242 320.254C286.003 314.314 280.821 308.353 275.686 302.373C281.149 308.229 286.565 314.102 291.923 319.997L307.921 337.711L323.714 355.502C328.956 361.444 334.137 367.406 339.273 373.384Z" fill="black"/>
<path d="M339.274 302.373C334.138 308.352 328.957 314.313 323.717 320.253L307.924 338.045L291.926 355.759C286.567 361.654 281.152 367.527 275.689 373.383C280.824 367.404 286.005 361.442 291.245 355.502L307.04 337.711L323.04 319.997C328.396 314.102 333.813 308.229 339.274 302.373Z" fill="black"/>
</g>
<path d="M377.716 365.119H370.988V374.62H377.716V365.119Z" fill="white"/>
<path d="M41.4453 461.45L93.5823 461.207L145.719 461.119L249.993 460.951L354.267 461.118L406.404 461.205L458.541 461.45L406.404 461.695L354.267 461.783L249.993 461.949L145.719 461.782L93.5823 461.693L41.4453 461.45Z" fill="#263238"/>
<path d="M288.234 176.422C288.8 176.765 289.365 177.12 289.927 177.486" stroke="#263238" stroke-width="1.25" stroke-miterlimit="10"/>
<path d="M293.259 179.797C311.348 193.178 325.434 217.509 309.668 241.284C300.383 255.287 284.642 249.521 279.214 244.502C273.219 238.958 278.735 233.282 284.723 237.076C295.104 243.654 296.563 258.875 285.061 270.128C277.566 277.461 267.818 277.92 262.453 277.489" stroke="#263238" stroke-width="1.25" stroke-miterlimit="10" stroke-dasharray="6.76 6.76"/>
<path d="M260.441 277.269C259.198 277.093 258.475 276.914 258.475 276.914" stroke="#263238" stroke-width="1.25" stroke-miterlimit="10"/>
<path d="M250.303 276.15C249.832 280.183 258.002 282.39 258.617 277.122C259.233 271.853 250.774 272.117 250.303 276.15Z" fill="#263238"/>
<path d="M261.027 282.763C260.266 284.278 257.58 284.484 254.8 282.552C252.02 280.62 250.098 277.275 250.098 277.275C250.098 277.275 253.932 276.811 257.142 277.888C260.353 278.964 261.792 281.241 261.027 282.763Z" fill="#EBEBEB"/>
<path d="M250.094 277.273C251.672 277.981 253.219 278.752 254.769 279.518C256.309 280.303 257.851 281.083 259.362 281.927C257.783 281.219 256.237 280.448 254.687 279.682C253.147 278.897 251.605 278.117 250.094 277.273Z" fill="#263238"/>
<path d="M257.352 282.734C256.99 282.322 256.687 281.872 256.379 281.424C256.089 280.965 255.794 280.509 255.559 280.014C255.922 280.425 256.224 280.876 256.532 281.324C256.821 281.783 257.116 282.239 257.352 282.734Z" fill="#263238"/>
<path d="M253.977 279.224C254.53 279.068 255.093 278.982 255.655 278.889C256.22 278.818 256.785 278.742 257.359 278.736C256.806 278.893 256.243 278.979 255.681 279.07C255.116 279.141 254.552 279.217 253.977 279.224Z" fill="#263238"/>
<path d="M253.124 279.884C252.935 279.676 252.81 279.436 252.679 279.199C252.568 278.952 252.451 278.708 252.398 278.432C252.587 278.64 252.712 278.88 252.843 279.117C252.955 279.364 253.071 279.608 253.124 279.884Z" fill="#263238"/>
<path d="M262.324 272.3C261.933 270.65 259.367 269.83 256.216 271.069C253.065 272.308 250.424 275.12 250.424 275.12C250.424 275.12 254.048 276.455 257.42 276.148C260.792 275.841 262.717 273.957 262.324 272.3Z" fill="#EBEBEB"/>
<path d="M250.426 275.119C252.125 274.794 253.808 274.4 255.493 274.012C257.172 273.603 258.853 273.2 260.517 272.727C258.818 273.051 257.135 273.445 255.45 273.834C253.771 274.243 252.091 274.647 250.426 275.119Z" fill="#263238"/>
<path d="M258.749 271.479C258.302 271.796 257.903 272.165 257.5 272.529C257.112 272.909 256.72 273.285 256.377 273.712C256.825 273.395 257.223 273.026 257.626 272.662C258.014 272.282 258.406 271.906 258.749 271.479Z" fill="#263238"/>
<path d="M254.654 274.117C255.156 274.396 255.684 274.61 256.21 274.829C256.744 275.028 257.275 275.233 257.833 275.371C257.331 275.091 256.803 274.878 256.277 274.659C255.744 274.46 255.212 274.256 254.654 274.117Z" fill="#263238"/>
<path d="M253.977 273.279C253.746 273.438 253.568 273.642 253.386 273.843C253.221 274.057 253.051 274.268 252.936 274.525C253.168 274.366 253.345 274.162 253.527 273.961C253.692 273.746 253.861 273.535 253.977 273.279Z" fill="#263238"/>
<path d="M250.303 276.149C251.106 276.243 251.682 276.97 251.588 277.774C251.494 278.577 250.767 279.152 249.963 279.059C249.16 278.965 248.585 278.238 248.678 277.434C248.772 276.63 249.5 276.055 250.303 276.149Z" fill="#455A64"/>
<path d="M250.641 273.239C251.444 273.333 252.02 274.06 251.926 274.864C251.832 275.668 251.105 276.242 250.301 276.149C249.498 276.055 248.923 275.328 249.016 274.524C249.11 273.721 249.838 273.145 250.641 273.239Z" fill="#455A64"/>
<path d="M159.963 370.309C159.963 370.309 138.675 413.003 138.667 413.035C136.905 421.853 135.519 429.616 135.176 433.699C135.171 433.72 135.166 433.742 135.172 433.765C135.041 435.305 135.061 436.309 135.278 436.619C135.294 436.645 135.3 436.669 135.319 436.685C137.589 438.987 207.651 455.118 210.284 454.858C212.925 454.611 212.383 447.074 210.164 444.279C207.923 441.479 183.871 423.308 183.871 423.308L204.718 380.549L159.963 370.309Z" fill="#D3766A"/>
<path d="M209.222 454.86C206.592 455.115 137.585 438.983 135.322 436.687C135.3 436.665 135.289 436.643 135.278 436.62C135.056 436.309 135.045 435.3 135.167 433.769C135.167 433.736 135.167 433.725 135.178 433.703C135.522 429.62 136.909 421.854 138.662 413.033C138.662 413.022 141.397 407.558 143.76 402.809L187.956 414.931L183.873 423.307C183.873 423.307 206.87 441.481 209.1 444.276C211.33 447.072 211.863 454.605 209.222 454.86Z" fill="#EBEBEB"/>
<path d="M210.173 453.739C207.509 453.941 137.281 436.036 135.043 433.655C134.176 432.765 136.189 422.38 138.981 409.902C139.012 409.772 139.042 409.642 139.072 409.512L184.509 420.557L184.295 421.322C184.295 421.322 208.111 440.198 210.298 443.076C212.465 445.939 212.835 453.548 210.173 453.739Z" fill="#263238"/>
<path d="M210.074 450.813C198.31 447.504 150.548 435.269 138.668 432.892C138.571 432.873 138.554 432.938 138.649 432.966C150.238 436.5 198.097 448.348 210.025 451.006C210.277 451.063 210.322 450.883 210.074 450.813Z" fill="white"/>
<path d="M188.07 422.428C183.633 420.371 177.753 419.633 173.347 422.045C173.176 422.138 173.312 422.379 173.475 422.371C178.441 422.094 182.97 422.258 187.902 423.012C188.249 423.065 188.388 422.575 188.07 422.428Z" fill="white"/>
<path d="M190.913 425.313C186.476 423.256 180.596 422.519 176.19 424.93C176.019 425.023 176.155 425.265 176.318 425.255C181.284 424.978 185.813 425.142 190.744 425.896C191.092 425.95 191.231 425.46 190.913 425.313Z" fill="white"/>
<path d="M193.763 428.196C189.326 426.139 183.446 425.401 179.04 427.813C178.869 427.906 179.004 428.147 179.168 428.138C184.133 427.861 188.663 428.025 193.594 428.779C193.942 428.832 194.08 428.343 193.763 428.196Z" fill="white"/>
<path d="M211.889 451.495C213.023 452.3 211.675 456.452 210.681 456.559C209.687 456.666 133.201 436.806 131.974 436.183C130.746 435.559 132.416 431.012 133.988 431.158C135.56 431.302 211.889 451.495 211.889 451.495Z" fill="#A967FF"/>
<path d="M148.661 420.332C144.219 416.488 138.238 423.386 142.687 427.236C147.13 431.08 153.111 424.182 148.661 420.332Z" fill="white"/>
<path d="M143.918 399.394L195.155 412.316C195.155 412.316 242.917 326.124 241.848 304.218C240.372 273.964 204.891 181.074 204.891 181.074H162.414C162.414 181.074 190.609 281.526 190.973 298.425C191.163 307.265 143.918 399.394 143.918 399.394Z" fill="#455A64"/>
<path d="M197.349 401.923C194.619 400.832 170.227 393.789 152.034 389.944C151.912 389.918 151.878 390.09 151.991 390.13C157.723 392.155 193.877 401.659 197.273 402.127C197.385 402.142 197.472 401.973 197.349 401.923Z" fill="#263238"/>
<path d="M194.516 276.85C191.139 262.67 187.574 248.531 183.72 234.473C179.849 220.352 175.847 206.251 171.383 192.305C170.838 190.602 170.275 188.904 169.717 187.205C169.631 186.943 169.23 187.063 169.307 187.329C173.282 201.212 177.327 215.077 181.103 229.016C184.879 242.954 188.501 256.935 191.905 270.969C192.748 274.444 193.578 277.922 194.395 281.403C195.239 284.997 196.146 288.6 196.566 292.274C196.969 295.804 196.768 299.301 195.864 302.74C194.976 306.116 193.547 309.313 192.091 312.475C185.963 325.777 179.817 339.07 173.717 352.385C167.604 365.728 166.608 368.764 160.748 382.221C160.021 383.89 159.293 385.557 158.594 387.238C158.548 387.349 158.704 387.442 158.761 387.33C165.461 374.149 166.495 370.972 172.715 357.56C178.973 344.065 185.216 330.562 191.428 317.046C194.23 310.95 197.521 304.729 197.94 297.907C198.375 290.817 196.142 283.677 194.516 276.85Z" fill="#263238"/>
<path d="M196.828 387.193C196.828 387.193 198.473 434.188 198.472 434.22C198.739 443.209 199.134 451.084 199.718 455.14C199.718 455.162 199.718 455.184 199.728 455.206C199.947 456.736 200.192 457.71 200.474 457.963C200.496 457.985 200.507 458.007 200.528 458.018C203.257 459.751 275.153 459.709 277.659 458.864C280.176 458.029 277.953 450.807 275.162 448.583C272.349 446.358 244.826 434.063 244.826 434.063L242.736 387.104L196.828 387.193Z" fill="#D3766A"/>
<path d="M198.137 424.571C198.137 424.571 198.474 434.186 198.474 434.219C198.741 443.208 199.136 451.083 199.72 455.139C199.72 455.161 199.72 455.183 199.73 455.205C200.037 456.714 200.303 457.709 200.476 457.962C200.498 457.984 200.509 458.006 200.53 458.017C203.259 459.75 275.155 459.708 277.661 458.863C280.178 458.028 277.955 450.806 275.164 448.582C272.351 446.357 244.828 434.062 244.828 434.062L244.62 424.266L198.137 424.571Z" fill="#EBEBEB"/>
<path d="M277.694 458.773C275.15 459.587 202.684 458.463 199.954 456.666C198.905 456.001 198.453 445.433 198.274 432.647C198.274 432.513 198.273 432.38 198.273 432.246L245.033 432.449L245.003 433.242C245.003 433.242 272.548 446.079 275.344 448.371C278.115 450.655 280.239 457.971 277.694 458.773Z" fill="#263238"/>
<path d="M276.918 455.951C264.707 455.462 215.41 454.64 203.303 455.084C203.204 455.088 203.203 455.155 203.302 455.161C215.394 455.91 264.697 456.333 276.916 456.151C277.173 456.147 277.175 455.961 276.918 455.951Z" fill="white"/>
<path d="M248.927 433.445C244.134 432.473 238.243 433.12 234.517 436.488C234.372 436.618 234.56 436.821 234.717 436.775C239.483 435.354 243.926 434.463 248.899 434.052C249.249 434.023 249.27 433.514 248.927 433.445Z" fill="white"/>
<path d="M252.364 435.591C247.571 434.619 241.68 435.266 237.954 438.634C237.809 438.764 237.998 438.968 238.153 438.921C242.919 437.5 247.363 436.609 252.335 436.198C252.686 436.169 252.707 435.66 252.364 435.591Z" fill="white"/>
<path d="M255.802 437.734C251.009 436.762 245.118 437.409 241.392 440.777C241.247 440.907 241.435 441.11 241.592 441.064C246.358 439.643 250.801 438.752 255.774 438.341C256.123 438.312 256.145 437.803 255.802 437.734Z" fill="white"/>
<path d="M278.842 456.194C280.132 456.714 279.784 461.065 278.842 461.4C277.901 461.735 198.894 460.16 197.555 459.838C196.216 459.516 196.785 454.706 198.349 454.483C199.911 454.259 278.842 456.194 278.842 456.194Z" fill="#A967FF"/>
<path d="M210.113 440.547C204.9 437.838 200.682 445.935 205.904 448.648C211.117 451.357 215.335 443.26 210.113 440.547Z" fill="white"/>
<path d="M204.36 181.033C204.36 181.033 204.36 181.044 204.349 181.077C204.163 181.95 193.571 223.816 192.25 224.602C190.754 225.486 230.729 279.278 235.474 305.685C238.509 322.575 245.42 421.025 245.42 421.025H194.503C194.503 421.025 189.513 337.423 187.84 309.867C187.192 299.181 147.086 249.757 143.281 216.811C142.081 206.427 149.54 181.033 149.54 181.033H204.36Z" fill="#455A64"/>
<path d="M193.213 381.166C192.608 367.313 192.056 353.436 191.047 339.606C190.475 331.771 189.358 324.182 188.578 316.364C188.537 315.954 188.206 315.857 188.217 316.279C188.579 330.192 189.725 343.948 190.471 357.845C191.215 371.7 191.919 374.987 192.705 388.839C193.15 396.679 193.535 404.522 194.146 412.35C194.155 412.472 194.336 412.469 194.336 412.345C194.368 398.433 193.821 395.063 193.213 381.166Z" fill="#263238"/>
<path d="M235.536 306.271C235.051 302.624 234.434 298.979 233.408 295.442C232.404 291.982 230.937 288.684 229.277 285.493C225.81 278.829 221.858 272.389 218.05 265.916C214.193 259.358 210.274 252.839 206.252 246.381C203.992 242.751 201.721 239.128 199.436 235.512C197.125 231.855 194.674 228.282 192.277 224.68C192.182 224.537 191.962 224.672 192.05 224.821C195.949 231.355 199.808 237.912 203.707 244.447C207.605 250.981 211.449 257.548 215.295 264.113C219.077 270.57 222.866 277.033 226.479 283.587C228.211 286.728 229.855 289.926 231.069 293.308C232.314 296.775 233.061 300.389 233.643 304.019C234.998 312.486 236.11 321.005 237.817 329.412C237.838 329.517 238.011 329.489 238.003 329.382C237.47 321.666 236.556 313.938 235.536 306.271Z" fill="#263238"/>
<path d="M240.964 412.206C238.048 411.827 215.843 411.061 197.264 411.853C197.139 411.858 197.148 412.033 197.269 412.043C203.324 412.581 237.535 412.811 240.94 412.421C241.053 412.409 241.096 412.223 240.964 412.206Z" fill="#263238"/>
<path d="M198.915 221.655C193.708 223.447 188.683 225.991 183.878 228.658C183.69 228.762 183.814 229.055 184.018 228.967C189.083 226.792 194.249 224.71 199.188 222.259C199.576 222.067 199.314 221.517 198.915 221.655Z" fill="#263238"/>
<path d="M200.441 186.959C200.427 186.784 200.12 186.745 200.121 186.934C200.162 192.948 199.779 198.238 199.271 203.858C199.036 206.467 196.937 220.886 192.412 219.835C191.655 219.659 191.268 218.913 191.149 217.771C191.006 216.398 191.523 214.714 191.75 213.349C192.252 210.331 192.656 207.302 192.915 204.253C193.399 198.561 193.423 192.869 192.731 187.195C192.708 187.009 192.439 187.023 192.439 187.211C192.446 195.09 192.24 202.955 191.061 210.758C190.495 214.508 188.606 220.155 192.528 220.732C196.524 221.32 199.108 211.862 199.595 209.275C200.958 202.058 201.011 194.263 200.441 186.959Z" fill="#263238"/>
<path d="M192.535 220.223C192.126 221.191 191.797 222.199 191.518 223.212C191.301 223.999 191.005 224.849 191.095 225.669C191.112 225.828 191.323 225.843 191.408 225.736C191.938 225.063 192.163 224.143 192.459 223.345C192.803 222.421 193.167 221.503 193.485 220.569C193.696 219.949 192.787 219.626 192.535 220.223Z" fill="#263238"/>
<path d="M194.655 323.224C194.184 316.111 194.209 308.596 191.184 301.993C189.684 298.718 187.611 295.757 185.641 292.755C183.571 289.6 181.533 286.422 179.522 283.228C171.482 270.455 163.804 257.43 156.769 244.074C153.381 237.643 150.261 231.004 148.559 223.905C146.777 216.478 146.707 208.699 147.634 201.145C147.866 199.257 148.124 197.375 148.442 195.499C148.465 195.362 148.259 195.307 148.229 195.446C146.702 202.67 145.901 210.096 146.556 217.474C147.187 224.582 149.449 231.315 152.427 237.762C155.529 244.476 159.217 250.936 162.855 257.37C166.605 264.003 170.465 270.574 174.445 277.072C178.405 283.537 182.569 289.866 186.699 296.222C188.698 299.298 190.557 302.467 191.571 306.018C192.603 309.633 192.883 313.398 193.125 317.133C194.144 332.876 198.14 385.202 199.545 400.864C199.723 402.852 199.902 404.84 200.085 406.828C200.101 407.003 200.368 407.001 200.361 406.821C199.755 391.116 195.694 338.916 194.655 323.224Z" fill="#263238"/>
<path d="M170.193 194.797C170.174 194.686 170.01 194.726 170.007 194.827C169.861 199.202 169.984 203.713 168.302 207.842C166.758 211.63 163.661 214.288 160.192 216.282C158.187 217.434 156.077 218.398 153.964 219.333C153.812 219.4 153.872 219.642 154.041 219.588C158.077 218.309 162.171 216.918 165.518 214.235C169.102 211.362 170.668 207.192 170.845 202.685C170.947 200.036 170.637 197.402 170.193 194.797Z" fill="#263238"/>
<path d="M192.397 123.567C198.108 141.129 213.564 171.04 219.085 174.645C223.974 177.838 246.986 174.273 257.049 171.845C260.815 170.937 252.35 142.273 248.344 143.325C243.537 144.587 229.202 147.812 228.16 147.021C227.015 146.153 212.674 128.416 202.43 117.941C193.143 108.445 190.237 116.924 192.397 123.567Z" fill="#D3766A"/>
<path d="M254.873 172.066C256.804 171.821 273.134 171.082 280.627 166.993C284.595 164.828 294.83 157.645 293.815 155.067C292.888 152.713 289.599 153.992 289.599 153.992C289.599 153.992 294.115 150.723 292.789 147.466C291.462 144.209 286.025 146.654 286.025 146.654C286.025 146.654 290.418 142.959 288.863 139.805C287.307 136.651 282.252 140.025 282.252 140.025C282.252 140.025 286.426 136.834 284.051 134.775C281.194 132.298 274.163 139.051 269.417 140.636C268.339 140.996 247.051 146.375 247.051 146.375L254.873 172.066Z" fill="#D3766A"/>
<path d="M282.068 139.93C276.885 144.884 273.761 146.155 266.843 147.555C266.708 147.582 266.718 147.79 266.862 147.774C273.761 147.019 277.91 145.99 282.321 140.168C282.536 139.884 282.314 139.695 282.068 139.93Z" fill="#263238"/>
<path d="M285.853 146.534C280.021 151.209 276.644 152.618 269.507 154.617C269.406 154.645 269.443 154.819 269.548 154.799C276.714 153.423 280.829 152.301 286.043 146.865C286.279 146.619 286.12 146.32 285.853 146.534Z" fill="#263238"/>
<path d="M289.248 154.079C283.275 158.198 279.639 159.902 272.461 160.954C272.292 160.979 272.311 161.228 272.484 161.22C279.908 160.859 284.46 158.767 289.354 154.275C289.687 153.967 289.624 153.819 289.248 154.079Z" fill="#263238"/>
<path d="M241.477 147.299C241.477 147.299 247.424 140.567 250.69 138.185C253.955 135.804 269.39 131.408 270.529 134.688C271.999 138.923 263.589 143.216 259.195 144.78C259.195 144.78 262.605 154.572 257.235 158.959C251.865 163.346 241.477 147.299 241.477 147.299Z" fill="#D3766A"/>
<path d="M270.55 135.984C269.105 140.813 263.205 142.494 259.056 144.33C258.74 144.47 258.742 144.772 258.896 144.993C260.051 149.193 260.458 155.454 257.516 158.987C257.43 159.09 257.565 159.227 257.666 159.135C261.335 155.773 261.438 149.59 259.878 145.071C264.162 143.255 270.006 141.309 270.598 135.996C270.6 135.966 270.559 135.954 270.55 135.984Z" fill="#263238"/>
<path d="M254.867 177.012L247.321 142.671L228.664 146.057C221.309 137.628 206.595 120.778 200.633 115.715C193.639 109.774 189.057 114.243 191.624 123.233C197.494 143.796 214.541 173.952 219.036 176.846C225.476 180.991 254.867 177.012 254.867 177.012Z" fill="#A967FF"/>
<path opacity="0.1" d="M228.224 156.499C229.087 156.801 230.136 156.705 231.035 156.829C233.008 157.1 233.914 160.047 232.099 161.165C230.147 162.366 227.801 162.555 225.649 161.717C223.641 160.935 221.961 158.997 222.39 156.739C222.766 154.759 224.813 154.193 226.384 155.195C227.025 155.604 227.497 156.244 228.224 156.499ZM223.065 148.326C222.346 151.732 227.6 154.645 230.293 152.834C231.258 152.186 231.223 150.705 230.36 150.002C229.576 149.364 228.914 149.265 228.214 148.685C227.872 148.402 227.943 148.459 227.576 148.014C227.121 147.46 226.731 147.041 226.084 146.681C224.784 145.958 223.331 147.068 223.065 148.326ZM214.672 148.507C213.589 149.914 214.406 152.038 215.354 153.316C216.292 154.579 217.685 155.396 219.287 155.226C220.492 155.098 221.03 153.419 220.028 152.669C219.402 152.2 218.915 151.569 218.627 150.922C218.157 149.867 217.84 148.498 216.658 148.033C215.979 147.765 215.137 147.904 214.672 148.507ZM236.823 170.745C235.415 173.599 239.705 176.837 242.308 176.275C243.177 176.087 244.018 174.944 243.243 174.126C242.622 173.471 241.881 172.944 241.302 172.247C240.596 171.397 240.207 170.303 239.095 169.878C238.202 169.537 237.253 169.872 236.823 170.745ZM196.543 135.797C196.303 135.347 195.973 134.907 195.563 134.587C196.123 136.017 196.714 137.457 197.334 138.897C197.454 137.847 196.983 136.657 196.543 135.797ZM202.108 132.784C202.038 130.317 200.839 127.989 199.352 126.074C198.154 124.531 196.078 122.049 193.875 122.603C193.355 122.734 193.118 123.22 193.078 123.705C192.938 125.395 194.878 127.211 195.711 128.556C196.765 130.259 197.506 132.14 198.584 133.823C199.597 135.407 202.163 134.717 202.108 132.784ZM201.459 143.54C202.254 143.481 202.955 142.955 203.145 142.161C203.336 141.365 203.215 140.606 202.994 139.83C202.812 139.193 202.488 138.35 201.95 137.922C201.134 137.276 199.879 137.498 199.612 138.612C199.477 139.176 199.577 139.799 199.591 140.375C199.597 140.629 199.585 140.881 199.571 141.135C199.551 141.519 199.628 141.883 199.692 142.261C199.817 143.002 200.74 143.594 201.459 143.54Z" fill="#030402"/>
<path d="M248.338 173.999C247.48 171.97 245.368 163.116 244.866 160.905C244.374 158.739 242.652 149.757 242.144 147.484C242.116 147.36 242.285 147.284 242.315 147.41C242.856 149.651 245.271 158.466 245.794 160.671C246.318 162.883 248.318 171.737 248.453 173.968C248.457 174.044 248.366 174.064 248.338 173.999Z" fill="#263238"/>
<path opacity="0.1" d="M231.021 178.722C225.774 178.693 221.167 178.217 219.039 176.846C214.54 173.95 197.495 143.796 191.626 123.234C190.149 118.074 191.033 114.401 193.375 113.332L231.021 178.722Z" fill="black"/>
<path d="M146.379 185.71C146.505 185.896 208.905 193.901 209.574 193.323C209.82 193.108 210.329 188.056 210.329 188.056C210.329 188.056 204.609 120.118 201.648 116.134C199.057 112.649 191.203 110.135 185.85 112.404C174.619 117.164 147.729 177.865 148.019 180.368C148.019 180.366 146.22 185.471 146.379 185.71Z" fill="#A967FF"/>
<path opacity="0.1" d="M168.876 177.44C169.737 178.004 170.909 178.184 171.857 178.562C173.939 179.393 174.13 182.858 171.844 183.587C169.386 184.371 166.773 183.942 164.649 182.443C162.667 181.044 161.358 178.472 162.438 176.122C163.385 174.061 165.775 173.997 167.22 175.518C167.81 176.138 168.151 176.965 168.876 177.44ZM165.456 167.113C163.747 170.639 168.698 175.245 172.13 173.997C173.36 173.55 173.724 171.924 172.972 170.922C172.288 170.012 171.59 169.725 170.983 168.901C170.686 168.499 170.748 168.581 170.469 167.995C170.122 167.267 169.808 166.703 169.2 166.135C167.975 164.992 166.087 165.81 165.456 167.113ZM159.681 163.353C157.809 164.052 157.326 166.568 157.472 168.355C157.615 170.119 158.46 171.729 160.091 172.52C161.319 173.115 162.831 171.831 162.321 170.518C162.002 169.698 161.914 168.805 162.023 168.016C162.202 166.728 162.713 165.231 161.86 164.083C161.371 163.421 160.485 163.052 159.681 163.353ZM180.181 175.252C179.194 175.124 178.271 175.857 178.136 176.836C177.991 177.891 178.713 178.82 179.689 179.146C180.421 179.391 181.052 179.365 181.786 179.157C182.133 179.059 182.424 178.728 182.596 178.434C182.781 178.117 182.895 177.725 182.828 177.353C182.706 176.669 182.176 176.019 181.461 175.908C181.396 175.834 181.327 175.761 181.238 175.691C180.93 175.445 180.571 175.303 180.181 175.252ZM164.845 151.12C163.173 152.842 163.888 156.751 165.766 158.066C166.852 158.826 168.436 158.289 168.612 156.896C168.671 156.434 168.643 156.159 168.634 155.711C168.625 155.282 168.583 155.005 168.597 154.755C168.644 153.918 168.878 152.984 168.686 152.164C168.241 150.27 166.179 149.746 164.845 151.12ZM154.008 175.96C151.697 178.697 155.506 183.397 158.502 183.488C159.502 183.519 160.73 182.497 160.105 181.394C159.604 180.51 158.938 179.734 158.495 178.816C157.954 177.696 157.826 176.395 156.726 175.63C155.843 175.014 154.715 175.123 154.008 175.96ZM209.179 175.09C208.489 175.2 207.839 175.66 207.599 176.53C207.279 177.64 207.239 178.63 206.409 179.5C205.569 180.37 204.579 180.91 203.959 181.98C203.419 182.89 204.219 184.24 205.299 184.12C207.029 183.94 208.639 183.01 209.769 181.68C209.609 179.8 209.409 177.57 209.179 175.09ZM204.152 166.842C203.587 168.202 203.69 169.742 203.223 171.164C202.804 172.441 202.31 173.767 201.744 174.984C201.329 175.877 202.168 177.304 203.26 176.819C205.081 176.011 206.43 174.944 207.321 173.109C208.082 171.54 208.921 168.904 208.189 167.226C207.518 165.688 204.97 164.874 204.152 166.842ZM198.45 180.469C197.564 181.457 196.59 182.505 195.338 183.023C194.153 183.512 193.449 184.693 194.021 185.952C194.602 187.232 195.922 187.423 197.092 186.889C199.184 185.933 200.788 184.257 201.43 182.033C201.92 180.337 199.576 179.214 198.45 180.469ZM189.306 131.471C190.484 131.665 191.597 131.051 191.91 129.853C192.473 127.698 190.549 125.487 189.028 124.145C187.46 122.762 185.365 121.586 183.242 122.279C181.896 122.718 181.735 124.175 182.533 125.173C183.46 126.333 184.749 127.184 185.739 128.309C186.809 129.525 187.565 131.185 189.306 131.471ZM196.951 139.948C197.789 138.737 197.141 136.961 196.537 135.801C196.217 135.186 195.727 134.622 195.113 134.282C194.286 133.824 193.025 133.882 192.548 134.832C192.239 135.448 192.267 136.007 192.429 136.652C192.51 136.975 192.63 137.246 192.765 137.556C192.784 137.599 192.797 137.627 192.807 137.648C192.813 137.67 192.821 137.696 192.831 137.729C193.117 138.657 193.298 139.689 194.006 140.401C194.941 141.342 196.285 140.912 196.951 139.948ZM202.104 132.787C202.034 130.32 200.835 127.992 199.348 126.077C198.149 124.534 196.074 122.052 193.871 122.606C193.351 122.737 193.113 123.223 193.073 123.708C192.933 125.398 194.873 127.214 195.706 128.559C196.76 130.262 197.502 132.143 198.58 133.826C199.593 135.41 202.159 134.72 202.104 132.787ZM194.554 149.906C194.927 149.976 195.304 149.965 195.673 149.873C196.24 149.732 196.676 149.292 196.977 148.819C197.29 148.327 197.339 147.65 197.365 147.087C197.392 146.5 197.159 145.99 196.914 145.475C196.805 145.338 196.696 145.202 196.587 145.065C196.441 144.958 196.295 144.851 196.149 144.744C195.753 144.529 195.304 144.469 194.864 144.54C194.066 144.668 193.402 145.264 193.21 146.062C193.068 146.652 192.895 147.23 192.861 147.84C192.891 148.024 192.92 148.209 192.95 148.393C193.022 148.676 193.156 148.921 193.353 149.128C193.649 149.496 194.077 149.816 194.554 149.906ZM201.455 143.543C202.25 143.484 202.95 142.958 203.14 142.164C203.331 141.368 203.211 140.609 202.99 139.833C202.808 139.196 202.483 138.353 201.945 137.925C201.129 137.279 199.875 137.501 199.608 138.615C199.473 139.179 199.573 139.802 199.587 140.378C199.593 140.632 199.58 140.884 199.566 141.138C199.546 141.522 199.624 141.886 199.688 142.264C199.813 143.005 200.736 143.597 201.455 143.543Z" fill="#030402"/>
<path d="M197.999 126.779C194.187 126.429 189.308 118.292 188.381 113.114C188.32 112.759 189.839 109.752 191.513 106.011C192.52 103.737 193.587 101.181 194.393 98.7793L208.234 107.493C208.234 107.493 205.064 112.032 203.685 116.23C203.574 116.582 203.499 116.919 203.458 117.251C203.448 117.298 203.443 117.357 203.425 117.422C203.101 119.397 201.684 127.114 197.999 126.779Z" fill="#D3766A"/>
<path d="M203.454 117.253C203.443 117.296 203.439 117.353 203.422 117.417C202.927 117.332 202.404 117.183 201.846 116.99C193.191 113.869 194.717 102.508 195.326 99.3711L198.784 101.547L208.232 107.497C208.232 107.497 205.059 112.036 203.687 116.235C203.573 116.583 203.496 116.919 203.454 117.253Z" fill="#263238"/>
<path d="M195.835 82.7461C192.975 87.8971 192.48 104.439 195.641 108.827C200.223 115.188 209.421 117.669 215.253 111.774C220.907 106.059 221.169 84.4901 217.481 80.3281C212.049 74.1991 200.06 75.1371 195.835 82.7461Z" fill="#D3766A"/>
<path d="M209.115 96.1184C209.108 96.0754 209.024 96.1694 209.024 96.2164C209.021 97.3554 208.826 98.6584 207.784 99.0014C207.752 99.0114 207.753 99.0694 207.792 99.0654C209.053 98.9314 209.294 97.1984 209.115 96.1184Z" fill="#263238"/>
<path d="M208.141 94.8966C206.317 94.6956 206.047 98.3596 207.738 98.5456C209.402 98.7296 209.671 95.0656 208.141 94.8966Z" fill="#263238"/>
<path d="M215.673 96.504C215.685 96.462 215.758 96.565 215.752 96.611C215.625 97.743 215.671 99.06 216.667 99.519C216.698 99.533 216.69 99.59 216.652 99.582C215.414 99.306 215.372 97.556 215.673 96.504Z" fill="#263238"/>
<path d="M216.783 95.4024C218.619 95.4094 218.469 99.0804 216.768 99.0744C215.094 99.0674 215.244 95.3964 216.783 95.4024Z" fill="#263238"/>
<path d="M209.624 94.1603C209.119 94.2683 208.636 94.2833 208.126 94.3383C207.55 94.4003 207.098 94.5093 206.563 94.2283C206.276 94.0783 206.14 93.6213 206.26 93.3293C206.539 92.6483 207.225 92.3973 207.915 92.2943C208.663 92.1823 209.269 92.2873 209.918 92.6733C210.549 93.0473 210.289 94.0183 209.624 94.1603Z" fill="#263238"/>
<path d="M218.422 91.9963C217.92 91.8763 217.477 91.6813 216.993 91.5113C216.447 91.3193 215.992 91.2223 215.631 90.7393C215.437 90.4803 215.511 90.0103 215.745 89.7973C216.29 89.3033 217.018 89.3723 217.684 89.5763C218.407 89.7983 218.909 90.1543 219.329 90.7823C219.736 91.3903 219.084 92.1543 218.422 91.9963Z" fill="#263238"/>
<path d="M208.291 105.134C209.769 104.66 211.607 104.968 212.768 105.192C212.9 105.181 213.036 104.931 213.066 104.809V104.801C213.068 104.76 213.153 102.398 213.153 102.398C213.458 102.577 215.019 103.408 215.023 102.955C215.048 99.2052 215.078 95.0342 214.311 91.2972C214.292 91.1722 214.102 91.1882 214.104 91.3122C213.937 94.9162 214.404 98.5242 214.293 102.146C213.792 101.917 212.979 101.5 212.527 101.479C212.402 101.506 212.565 104.028 212.498 104.413C212.498 104.413 210.253 103.574 208.304 104.64C207.8 104.915 207.586 105.36 208.291 105.134Z" fill="#263238"/>
<path d="M205.323 107.52C205.576 107.8 205.823 108.179 206.229 108.238C206.618 108.295 207.088 108.146 207.456 108.029C207.492 108.018 207.526 108.057 207.501 108.09C207.182 108.504 206.551 108.737 206.036 108.613C205.532 108.493 205.307 108.037 205.212 107.564C205.198 107.498 205.286 107.479 205.323 107.52Z" fill="#263238"/>
<path opacity="0.2" d="M200.663 77.4961C200.518 80.0731 199.906 88.0331 198.668 89.6591C197.489 91.2171 194.809 95.0471 193.473 95.6351C193.658 90.3241 194.474 85.2751 195.85 82.6641C196.984 80.4901 198.673 78.7561 200.663 77.4961Z" fill="#263238"/>
<path d="M214.912 85.2908C213.486 86.7188 211.422 87.3568 209.444 86.8908C207.518 86.4368 205.679 84.9528 205.114 83.0148C205.097 82.9568 205.007 82.9838 205.024 83.0408C205.629 85.1128 207.147 86.8928 209.329 87.3518C211.376 87.7828 213.666 86.9888 215.015 85.3918C215.075 85.3218 214.978 85.2248 214.912 85.2908Z" fill="#263238"/>
<path d="M209.897 70.4627C206.511 70.2967 203.275 71.9477 201.876 74.1637C201.026 75.5097 200.812 76.9217 200.937 78.3827C200.942 78.4417 201.064 78.4387 201.063 78.3787C201.031 76.0757 202.347 73.5487 204.912 72.1247C207.377 70.7567 210.537 70.5037 213.173 71.7217C214.549 72.3577 215.63 73.3357 216.14 74.4707C216.197 74.5977 216.456 74.5357 216.411 74.4077C215.644 72.2327 212.962 70.6127 209.897 70.4627Z" fill="#263238"/>
<path d="M229.01 79.1835C228.595 77.4815 227.533 75.9715 226.118 74.9505C224.135 73.5195 221.776 73.5425 219.433 73.6135C219.369 73.6155 219.372 73.7145 219.435 73.7125C221.43 73.6585 223.457 73.7205 225.213 74.7815C226.644 75.6465 227.797 77.0025 228.349 78.5885C229.495 81.8795 227.917 85.7495 224.761 87.2495C222.974 88.0985 220.832 88.1655 218.998 87.4265C218.926 87.3975 218.864 87.5025 218.937 87.5345C222.282 88.9865 226.432 87.7095 228.227 84.4895C229.113 82.8995 229.444 80.9605 229.01 79.1835Z" fill="#263238"/>
<path d="M194.833 85.9761C194.833 85.9761 192.079 79.6911 195.025 76.3931C196.694 74.5241 201.719 75.1661 201.719 75.1661C201.719 75.1661 203.564 72.3881 207.814 71.7481C212.11 71.1011 216.942 73.9461 216.942 73.9461C216.942 73.9461 221.125 71.9541 224.718 74.3841C229.728 77.7731 228.47 85.6991 223.006 87.8651C219.169 89.3861 214.391 85.7301 214.391 85.7301C213.903 85.7591 208.728 88.3681 205.322 83.6701C205.322 83.6701 202.077 86.1431 199.491 84.0421C199.49 84.0391 197.901 86.6771 194.833 85.9761Z" fill="#263238"/>
<path d="M196.461 96.4477C196.461 96.4477 193.844 90.5807 191.249 91.4177C188.655 92.2547 189.927 100.272 192.483 101.828C195.039 103.384 196.526 101.047 196.526 101.047L196.461 96.4477Z" fill="#D3766A"/>
<path d="M191.672 93.7047C191.629 93.6927 191.608 93.7527 191.643 93.7757C193.423 94.9307 194.094 96.9167 194.448 98.9107C194.012 98.0857 193.305 97.5427 192.216 98.0417C192.159 98.0677 192.192 98.1567 192.249 98.1547C193.073 98.1377 193.617 98.3847 194.029 99.1217C194.321 99.6427 194.47 100.261 194.641 100.831C194.698 101.021 195.028 100.989 195 100.777C194.998 100.761 194.995 100.745 194.993 100.729C195.516 98.2767 194.267 94.4627 191.672 93.7047Z" fill="#263238"/>
<path d="M335.102 108.1L227.434 141.08L246.846 204.453L354.514 171.473L335.102 108.1Z" fill="#A967FF"/>
<path opacity="0.2" d="M335.102 108.1L227.434 141.08L246.846 204.453L354.514 171.473L335.102 108.1Z" fill="black"/>
<path opacity="0.2" d="M335.093 108.098L298.91 119.182L318.323 182.557L354.506 171.473L335.093 108.098Z" fill="black"/>
<path d="M333.335 111.334C332.121 116.94 330.934 122.553 329.781 128.175L326.364 145.053L323.067 161.963C321.983 167.604 320.933 173.254 319.91 178.911C321.125 173.306 322.312 167.693 323.465 162.071L326.88 145.193L330.176 128.283C331.261 122.64 332.311 116.991 333.335 111.334Z" fill="#A967FF"/>
<path d="M351.109 169.354C347.093 165.241 343.059 161.148 339.002 157.082L326.8 144.919L314.518 132.849C310.413 128.838 306.286 124.853 302.141 120.889C306.156 125.003 310.191 129.096 314.248 133.161L326.449 145.324L338.732 157.393C342.837 161.405 346.964 165.39 351.109 169.354Z" fill="#A967FF"/>
<path d="M248.099 149.222L248.689 149.041L246.141 140.717L245.551 140.898L248.099 149.222Z" fill="#263238"/>
<path d="M246.697 149.677L247.287 149.496L244.737 141.173L244.147 141.354L246.697 149.677Z" fill="#263238"/>
<path d="M245.265 150.103L245.855 149.922L243.307 141.598L242.717 141.779L245.265 150.103Z" fill="#263238"/>
<path d="M243.846 150.548L244.436 150.367L241.887 142.043L241.297 142.224L243.846 150.548Z" fill="#263238"/>
<path d="M242.449 150.978L243.039 150.797L240.489 142.474L239.899 142.655L242.449 150.978Z" fill="#263238"/>
<path d="M241.033 151.413L241.623 151.232L239.073 142.91L238.483 143.09L241.033 151.413Z" fill="#263238"/>
<path d="M239.601 151.837L240.191 151.656L237.643 143.333L237.053 143.513L239.601 151.837Z" fill="#263238"/>
<path d="M238.191 152.278L238.781 152.098L236.231 143.775L235.641 143.956L238.191 152.278Z" fill="#263238"/>
<path d="M236.765 152.704L237.355 152.523L234.807 144.2L234.217 144.38L236.765 152.704Z" fill="#263238"/>
<path d="M252.131 139.592L249.666 139.656L254.997 138.023L252.921 139.358L253.858 142.418C255.549 142.133 256.686 143.539 257.545 146.343L252.214 147.976C251.357 145.179 251.51 143.37 253.07 142.659L252.131 139.592Z" fill="#263238"/>
<path d="M257.486 141.717L258.877 141.291L257.63 137.216L261.193 136.125L262.441 140.199L263.839 139.771L261.96 144.99L257.486 141.717Z" fill="#263238"/>
<path opacity="0.1" d="M227.416 141.078L229.008 146.276L303.432 134.005L298.894 119.189L227.416 141.078Z" fill="black"/>
<path d="M368.44 178.657L332.254 189.741L318.303 182.557L354.489 171.473L368.44 178.657Z" fill="#A967FF"/>
<path opacity="0.2" d="M368.44 178.657L332.254 189.741L318.303 182.557L354.489 171.473L368.44 178.657Z" fill="black"/>
<path d="M239.291 218.216L275.477 207.132L283.011 193.367L246.824 204.451L239.291 218.216Z" fill="#A967FF"/>
<path opacity="0.1" d="M239.291 218.216L275.477 207.132L283.011 193.367L246.824 204.451L239.291 218.216Z" fill="black"/>
<path d="M179.72 131.301C185.009 148.994 199.744 179.268 205.177 183.004C209.988 186.313 233.079 183.3 243.197 181.114C246.983 180.296 239.208 151.438 235.178 152.393C230.342 153.539 215.935 156.42 214.911 155.605C213.787 154.71 199.876 136.634 189.885 125.917C180.828 116.201 177.719 124.608 179.72 131.301Z" fill="#D3766A"/>
<path d="M233.106 154.739C233.106 154.739 240.753 146.115 246.174 142.828C253.432 138.426 261.51 137.614 264.916 137.478C272.026 137.194 289.412 141.424 289.067 146.644C288.755 151.369 271.202 146.148 271.202 146.148C271.202 146.148 289.977 148.518 288.556 154.139C287.134 159.759 267.102 152.539 267.102 152.539C267.102 152.539 286.339 155.407 283.956 160.971C282.155 165.176 263.644 159.659 263.644 159.659C263.644 159.659 280.161 162.238 278.496 166.642C276.655 171.509 259.249 167.488 259.249 167.488C253.131 177.97 245.93 180.458 240.596 181.618C239.304 181.899 233.106 154.739 233.106 154.739Z" fill="#D3766A"/>
<path d="M264.76 144.914C266.976 145.113 269.22 145.299 271.41 145.694C273.6 146.089 275.779 146.56 277.922 147.157C283.18 148.621 286.243 150.36 286.042 150.274C281.29 148.221 273.471 146.686 271.28 146.291C269.094 145.897 266.928 145.393 264.742 144.997C264.687 144.987 264.708 144.909 264.76 144.914Z" fill="#263238"/>
<path d="M263.189 152.797C266.007 153.173 268.819 153.443 271.621 153.943C274.409 154.441 277.012 155.158 279.759 155.847C279.971 155.9 279.873 155.996 279.658 155.951C276.886 155.372 274.278 155.051 271.499 154.505C268.73 153.961 265.961 153.305 263.175 152.862C263.131 152.857 263.146 152.792 263.189 152.797Z" fill="#263238"/>
<path d="M260.625 159.323C264.961 159.677 269.227 160.831 273.384 162.063C273.591 162.124 273.451 162.235 273.236 162.184C269.012 161.193 265.705 160.386 260.613 159.474C260.533 159.46 260.534 159.315 260.625 159.323Z" fill="#263238"/>
<path d="M240.894 186.227L234.174 151.715L215.441 154.654C208.29 146.051 193.983 128.854 188.144 123.649C181.294 117.543 176.608 121.9 178.958 130.949C184.334 151.647 200.653 182.203 205.077 185.203C211.416 189.5 240.894 186.227 240.894 186.227Z" fill="#A967FF"/>
<path opacity="0.1" d="M228.214 156.502C229.077 156.804 230.126 156.708 231.025 156.832C232.998 157.103 233.904 160.05 232.089 161.168C230.137 162.369 227.792 162.558 225.64 161.72C223.632 160.938 221.952 159 222.381 156.742C222.757 154.762 224.804 154.196 226.375 155.198C227.016 155.607 227.487 156.247 228.214 156.502ZM226.244 152.96C227.624 153.53 229.174 153.59 230.284 152.84C230.514 152.68 230.694 152.48 230.804 152.24L226.244 152.96ZM216.514 154.48C217.304 155.04 218.244 155.34 219.274 155.23C220.004 155.15 220.494 154.51 220.534 153.85L216.514 154.48ZM237.714 169.89C237.344 170.04 237.024 170.33 236.814 170.75C235.974 172.44 237.144 174.26 238.774 175.35L237.714 169.89ZM207.594 176.528C207.278 177.636 207.233 178.627 206.4 179.497C205.566 180.367 204.579 180.911 203.952 181.976C203.416 182.887 204.219 184.236 205.298 184.121C208.74 183.752 211.733 180.419 211.43 176.901C211.239 174.691 208.207 174.378 207.594 176.528ZM204.147 166.842C203.582 168.202 203.685 169.742 203.218 171.164C202.799 172.441 202.305 173.767 201.739 174.984C201.324 175.877 202.163 177.304 203.255 176.819C205.076 176.011 206.425 174.944 207.316 173.109C208.077 171.54 208.916 168.904 208.184 167.226C207.513 165.688 204.965 164.874 204.147 166.842ZM189.301 131.471C190.479 131.665 191.592 131.051 191.905 129.853C192.468 127.698 190.544 125.487 189.023 124.145C187.455 122.762 185.36 121.586 183.237 122.279C181.891 122.718 181.73 124.175 182.528 125.173C183.455 126.333 184.744 127.184 185.734 128.309C186.804 129.525 187.56 131.185 189.301 131.471ZM196.946 139.948C197.784 138.737 197.136 136.961 196.532 135.801C196.212 135.186 195.722 134.622 195.108 134.282C194.281 133.824 193.02 133.882 192.543 134.832C192.234 135.448 192.262 136.007 192.424 136.652C192.505 136.975 192.625 137.246 192.76 137.556C192.779 137.599 192.792 137.627 192.802 137.648C192.808 137.67 192.816 137.696 192.826 137.729C193.112 138.657 193.293 139.689 194.001 140.401C194.936 141.342 196.28 140.912 196.946 139.948ZM194.549 149.906C194.922 149.976 195.299 149.965 195.668 149.873C196.235 149.732 196.671 149.292 196.972 148.819C197.285 148.327 197.334 147.65 197.36 147.087C197.387 146.5 197.154 145.99 196.909 145.475C196.8 145.338 196.691 145.202 196.582 145.065C196.436 144.958 196.29 144.851 196.144 144.744C195.748 144.529 195.299 144.469 194.859 144.54C194.061 144.668 193.397 145.264 193.205 146.062C193.063 146.652 192.89 147.23 192.856 147.84C192.886 148.024 192.915 148.209 192.945 148.393C193.017 148.676 193.151 148.921 193.348 149.128C193.644 149.496 194.072 149.816 194.549 149.906ZM202.994 139.85C202.984 139.84 202.984 139.84 202.984 139.83C202.334 139.08 201.674 138.32 201.034 137.58C200.404 137.53 199.784 137.87 199.604 138.62C199.464 139.18 199.564 139.8 199.584 140.38C199.584 140.63 199.574 140.88 199.564 141.14C199.544 141.52 199.614 141.89 199.684 142.26C199.804 143.01 200.734 143.6 201.454 143.54C202.244 143.48 202.944 142.96 203.134 142.16C203.324 141.38 203.204 140.62 202.994 139.85Z" fill="#030402"/>
<path d="M234.437 183.059C233.627 181.01 231.729 172.108 231.28 169.885C230.84 167.708 229.334 158.687 228.88 156.402C228.855 156.278 229.025 156.205 229.053 156.332C229.54 158.585 231.744 167.456 232.213 169.673C232.684 171.897 234.471 180.796 234.552 183.03C234.555 183.107 234.463 183.124 234.437 183.059Z" fill="#263238"/>
<path d="M228.259 187.204C225.192 187.378 222.119 187.448 219.045 187.429C215.972 187.391 212.891 187.325 209.825 186.901C208.299 186.664 206.751 186.443 205.29 185.699C203.879 184.814 202.93 183.567 201.968 182.348C200.091 179.87 198.565 177.181 197.056 174.497C194.054 169.114 191.48 163.521 188.957 157.916C186.497 152.282 184.152 146.599 182.051 140.822C184.598 146.414 187.122 152.01 189.735 157.562C192.304 163.133 195.009 168.64 197.871 174.051C199.321 176.745 200.862 179.394 202.592 181.89C203.472 183.101 204.406 184.38 205.595 185.161C206.869 185.845 208.418 186.118 209.905 186.369C215.952 187.24 222.127 187.254 228.259 187.204Z" fill="#263238"/>
<path d="M184.017 145.698C183.592 145.291 183.251 144.82 182.913 144.347C182.609 143.856 182.269 143.365 182.135 142.783C182.283 143.035 182.462 143.26 182.625 143.498L183.12 144.208C183.432 144.693 183.759 145.169 184.017 145.698Z" fill="#263238"/>
<path d="M199.78 136.428C202.316 138.973 204.58 141.762 206.929 144.468C209.267 147.184 211.535 149.965 213.92 152.623L214.818 153.607C214.97 153.764 215.121 153.927 215.275 154.07C215.353 154.15 215.425 154.206 215.496 154.266C215.55 154.314 215.515 154.271 215.515 154.294C215.522 154.303 215.588 154.292 215.621 154.293C216.383 154.261 217.346 154.124 218.208 154.008L223.521 153.223C227.067 152.704 230.611 152.162 234.166 151.679L234.203 151.674L234.208 151.708L234.342 152.588L234.136 151.722L234.178 151.751C230.67 152.506 227.147 153.174 223.618 153.817C221.853 154.137 220.082 154.418 218.305 154.691C217.393 154.818 216.58 154.971 215.553 155.014C215.476 155.007 215.424 155.024 215.328 154.995C215.232 154.96 215.088 154.882 215.061 154.85C214.959 154.769 214.855 154.685 214.775 154.606C214.599 154.445 214.443 154.281 214.281 154.118C213.967 153.789 213.66 153.458 213.364 153.118C211.008 150.397 208.729 147.632 206.492 144.829L203.147 140.618C202.037 139.211 200.961 137.774 199.78 136.428Z" fill="#263238"/>
<path d="M201.098 136.736C201.474 137.192 201.759 137.701 202.039 138.212C202.284 138.737 202.565 139.266 202.632 139.861C202.513 139.593 202.362 139.347 202.227 139.091L201.817 138.326C201.564 137.805 201.294 137.292 201.098 136.736Z" fill="#263238"/>
<path d="M81.1546 398.216C80.7736 388.86 80.9266 379.486 81.5396 370.144C82.8036 350.874 85.9766 331.754 90.3336 312.952C92.7856 302.369 95.8056 291.963 98.9526 281.57C99.0476 281.256 99.5486 281.345 99.4616 281.672C89.7306 318.311 81.7476 356.122 82.2976 394.209C82.4516 404.868 83.6856 415.338 84.6976 425.929C84.7246 426.213 84.2586 426.325 84.1936 426.034C82.1846 416.97 81.5316 407.473 81.1546 398.216Z" fill="#A967FF"/>
<path d="M99.4603 281.672C99.4603 281.672 114.2 319.087 110.9 327.881C107.6 336.675 100.796 338.551 100.796 338.551C100.796 338.551 109.815 351.427 103.512 363.504C97.2093 375.581 83.2073 375.01 82.2763 388.703C82.2763 388.703 81.4963 331.448 99.4603 281.672Z" fill="#A967FF"/>
<path d="M83.8814 365.061C83.8634 364.998 83.8674 364.932 83.8964 364.864C85.9664 339.424 90.4793 314.063 98.1943 289.598C98.2173 289.526 98.3363 289.549 98.3163 289.624C95.3963 300.569 92.7974 311.572 90.5764 322.636C92.4904 320.665 94.9943 319.531 97.6123 318.713C97.6613 318.698 97.6863 318.768 97.6393 318.788C94.9133 319.966 92.3013 321.333 90.3743 323.642C89.9443 325.81 89.5224 327.98 89.1224 330.152C92.4164 326.47 96.9853 324.644 101.556 322.907C101.62 322.882 101.655 322.982 101.592 323.007C96.8314 324.945 92.0894 327.442 88.8634 331.545C87.7394 337.754 86.7553 343.985 85.9033 350.235C88.3113 347.719 91.2833 346.028 94.6933 345.197C94.7953 345.172 94.8533 345.324 94.7493 345.354C91.2463 346.363 88.2333 348.324 85.8343 351.064C85.8173 351.083 85.7984 351.093 85.7794 351.105C85.4844 353.304 85.2063 355.505 84.9453 357.709C86.8003 356.127 88.8494 354.924 91.1064 353.993C91.1664 353.968 91.1983 354.062 91.1393 354.087C88.8473 355.063 86.7844 356.469 84.9684 358.171C84.9424 358.195 84.9163 358.193 84.8893 358.202C84.6443 360.297 84.3994 362.393 84.1874 364.493C87.5674 360.42 91.7454 357.474 96.6894 355.566C96.7864 355.529 96.8364 355.676 96.7434 355.716C91.9364 357.806 87.6984 361.118 84.4224 365.197C84.3324 365.309 84.2153 365.327 84.1113 365.294C83.7923 368.514 83.5074 371.738 83.2704 374.969C83.2674 375.013 83.1944 375.018 83.1974 374.972C83.3834 371.671 83.6144 368.365 83.8814 365.061Z" fill="#263238"/>
<path d="M95.7231 314.996C98.2801 313.239 101.528 312.489 104.579 312.235C104.652 312.229 104.658 312.337 104.587 312.348C101.413 312.819 98.7461 313.968 95.8301 315.208C95.7041 315.261 95.6131 315.071 95.7231 314.996Z" fill="#263238"/>
<path d="M93.9341 354.607C95.9571 353.393 98.2641 352.707 100.582 352.333C100.663 352.32 100.67 352.445 100.591 352.459C98.2381 352.885 96.1531 353.723 94.0151 354.765C93.9241 354.81 93.8481 354.659 93.9341 354.607Z" fill="#263238"/>
<path d="M42.4056 328.492C48.5526 332.813 54.4526 337.798 59.4666 343.406C64.8116 349.383 68.7096 356.168 71.4326 363.698C77.0096 379.124 80.0676 395.835 80.3466 412.23C80.5026 421.421 79.6856 430.54 77.7186 439.523C77.6466 439.849 77.1586 439.757 77.2086 439.427C79.6116 423.622 79.5246 407.494 76.9416 391.719C74.4076 376.241 70.4306 359.402 60.5926 346.823C55.2356 339.974 48.5556 334.585 41.9526 329.016C41.6046 328.722 42.0476 328.24 42.4056 328.492Z" fill="#A967FF"/>
<path d="M78.1753 401.084C78.1753 401.084 73.1123 392.559 65.7383 385.187C58.3643 377.815 52.1533 372.575 51.1953 367.699C50.2363 362.823 58.5823 359.233 58.5823 359.233C58.5823 359.233 48.3773 361.065 45.5853 356.782C42.7933 352.5 41.4453 327.695 41.4453 327.695C41.4453 327.695 60.0103 340.949 68.6593 359.529C77.3093 378.108 78.1753 401.084 78.1753 401.084Z" fill="#A967FF"/>
<path d="M47.8677 334.052C55.6787 341.724 63.5407 349.9 68.1407 359.979C69.7177 363.435 71.0597 367.018 72.2417 370.67C72.2447 370.675 72.2447 370.681 72.2477 370.687C72.4847 371.42 72.7247 372.151 72.9487 372.89C72.9707 372.927 72.9827 372.968 72.9867 373.01C75.2607 380.537 76.8687 388.322 78.2607 395.926C78.2697 395.975 78.1957 396.001 78.1847 395.95C77.3847 392.08 76.5027 388.172 75.5167 384.276C75.4817 384.277 75.4447 384.27 75.4057 384.254C73.8267 383.59 72.2387 383.175 70.5337 383.017C70.4227 383.007 70.4317 382.814 70.5437 382.819C72.1887 382.898 73.7997 383.187 75.3627 383.698C74.4637 380.185 73.4857 376.681 72.3867 373.228C68.8027 372.35 65.0617 371.877 61.3757 371.789C61.3377 371.788 61.3317 371.731 61.3707 371.729C65.0867 371.556 68.5777 371.876 72.1967 372.648C72.0057 372.055 71.8057 371.466 71.6087 370.876C69.1887 370.325 66.7577 369.861 64.2817 369.635C64.2377 369.631 64.2407 369.555 64.2857 369.556C66.7107 369.621 69.0997 369.876 71.4597 370.428C70.4497 367.44 69.3577 364.493 68.1467 361.622C67.1447 359.248 65.9537 356.993 64.6417 354.817C62.6567 354.368 60.7327 353.94 58.6987 353.757C58.6417 353.752 58.6487 353.662 58.7037 353.658C60.5497 353.538 62.4737 353.676 64.2597 354.207C63.2837 352.63 62.2567 351.085 61.1597 349.589C56.9967 348.667 52.7757 347.811 48.5177 348.611C48.4437 348.625 48.4167 348.501 48.4897 348.482C52.5437 347.416 56.5677 348.031 60.6017 348.829C60.1617 348.243 59.7117 347.665 59.2567 347.09C56.7017 346.3 54.1597 345.917 51.4787 345.868C51.4237 345.867 51.4147 345.787 51.4717 345.782C53.9187 345.548 56.3597 345.785 58.7237 346.426C55.2817 342.15 51.4807 338.134 47.7217 334.161C47.5467 333.978 47.6827 333.871 47.8677 334.052Z" fill="#263238"/>
<path d="M48.0759 350.962C49.2979 350.832 50.5409 350.695 51.7679 350.834C51.9169 350.851 51.9039 351.093 51.7539 351.097C50.5319 351.133 49.3099 351.042 48.0869 351.108C47.9949 351.113 47.9829 350.972 48.0759 350.962Z" fill="#263238"/>
<path d="M61.4394 375.024C63.3904 375 65.3384 375.525 67.1614 376.173C67.2074 376.189 67.1814 376.265 67.1344 376.254C65.2444 375.804 63.3334 375.621 61.4244 375.307C61.2694 375.281 61.2764 375.026 61.4394 375.024Z" fill="#263238"/>
<path d="M65.4405 366.712C66.2325 366.671 67.0885 366.81 67.8695 366.932C67.9495 366.945 67.9455 367.075 67.8615 367.077C67.0725 367.091 66.2045 367.112 65.4275 366.963C65.2905 366.935 65.2955 366.719 65.4405 366.712Z" fill="#263238"/>
<path d="M132.601 354.816C126.627 356.892 120.701 359.563 115.347 362.942C109.64 366.544 104.917 371.134 100.973 376.598C92.8939 387.793 86.5569 400.61 82.5419 413.813C80.2909 421.215 78.8449 428.783 78.3599 436.508C78.3419 436.789 78.7589 436.827 78.7949 436.548C80.5029 423.202 84.3019 410.17 90.0379 398C95.6669 386.06 102.777 373.351 113.646 365.445C119.565 361.14 126.216 358.323 132.847 355.342C133.196 355.187 132.948 354.695 132.601 354.816Z" fill="#A967FF"/>
<path d="M86.873 405.296C86.873 405.296 92.941 399.567 100.612 395.305C108.284 391.043 114.521 388.238 116.424 384.514C118.327 380.79 112.403 375.955 112.403 375.955C112.403 375.955 120.238 379.796 123.487 376.976C126.736 374.156 133.56 354.393 133.56 354.393C133.56 354.393 115.473 360.829 104.178 373.866C92.885 386.902 86.873 405.296 86.873 405.296Z" fill="#A967FF"/>
<path d="M87.8142 401.218C96.8612 384.238 108.932 368.876 125.472 358.737C125.479 358.733 125.487 358.743 125.48 358.748C121.125 361.523 117.113 364.723 113.373 368.222C116.721 368.129 120.13 368.663 123.098 370.275C123.164 370.311 123.116 370.399 123.049 370.377C119.741 369.258 116.562 368.523 113.043 368.686C112.994 368.688 112.964 368.663 112.93 368.644C112.343 369.2 111.764 369.766 111.19 370.337C112.931 370.412 114.691 370.658 116.387 371.027C116.433 371.037 116.42 371.108 116.373 371.099C114.538 370.744 112.747 370.621 110.884 370.646C107.853 373.692 105.029 376.95 102.353 380.333C103.561 380.157 104.828 380.259 105.987 380.597C106.073 380.622 106.051 380.745 105.96 380.734C104.642 380.567 103.39 380.589 102.081 380.681C101.586 381.311 101.085 381.938 100.6 382.577C104.32 382.353 107.963 382.71 111.578 383.644C111.631 383.658 111.617 383.74 111.562 383.729C107.834 382.997 104.075 382.763 100.287 382.997C99.8262 383.609 99.3882 384.238 98.9362 384.858C101.155 384.79 103.307 385.068 105.471 385.606C105.553 385.626 105.53 385.756 105.446 385.737C103.22 385.23 100.957 385.102 98.6822 385.21C96.7362 387.892 94.8722 390.632 93.0802 393.406C94.0292 393.211 95.0252 393.317 95.9482 393.579C95.9972 393.593 95.9842 393.663 95.9332 393.657C94.8682 393.533 93.8752 393.67 92.8292 393.804C91.2182 396.312 89.6612 398.845 88.1682 401.393C88.0412 401.604 87.6932 401.444 87.8142 401.218Z" fill="#263238"/>
<path d="M101.886 387.135C103.655 386.983 105.452 387.261 107.141 387.778C107.189 387.793 107.178 387.866 107.126 387.856C105.387 387.536 103.663 387.415 101.9 387.321C101.784 387.314 101.762 387.145 101.886 387.135Z" fill="#263238"/>
<path d="M117.666 366.441C118.466 366.35 119.3 366.454 120.09 366.582C120.184 366.597 120.155 366.736 120.062 366.726C119.265 366.641 118.479 366.671 117.682 366.647C117.552 366.643 117.532 366.457 117.666 366.441Z" fill="#263238"/>
<path d="M63.5449 461.444H104.373L98.5519 418.799L97.0639 407.865H70.8539L69.3669 418.799L63.5449 461.444Z" fill="#455A64"/>
<path d="M69.3691 418.799H98.5541L97.0661 407.865H70.8561L69.3691 418.799Z" fill="#263238"/>
<path d="M67.1065 413.332H100.812V404.072H67.1065V413.332Z" fill="#455A64"/>
</svg>
